<?xml version="1.0" encoding="UTF-8" standalone="no"?><svg xmlns="http://www.w3.org/2000/svg" xmlns:xlink="http://www.w3.org/1999/xlink" contentScriptType="application/ecmascript" contentStyleType="text/css" height="447px" preserveAspectRatio="none" style="width:508px;height:447px;background:#FEFEFE;" version="1.1" viewBox="0 0 508 447" width="508px" zoomAndPan="magnify"><defs><filter height="300%" id="fb7njsn4sdi0z" width="300%" x="-1" y="-1"><feGaussianBlur result="blurOut" stdDeviation="2.0"/><feColorMatrix in="blurOut" result="blurOut2" type="matrix" values="0 0 0 0 0 0 0 0 0 0 0 0 0 0 0 0 0 0 .4 0"/><feOffset dx="4.0" dy="4.0" in="blurOut2" result="blurOut3"/><feBlend in="SourceGraphic" in2="blurOut3" mode="normal"/></filter></defs><g><rect fill="#FFFFFF" filter="url(#fb7njsn4sdi0z)" height="90.2656" style="stroke: #A80036; stroke-width: 1.0;" width="10" x="219" y="69.4297"/><rect fill="#FFFFFF" filter="url(#fb7njsn4sdi0z)" height="200.6641" style="stroke: #A80036; stroke-width: 1.0;" width="10" x="219" y="188.8281"/><rect fill="#FFFFFF" filter="url(#fb7njsn4sdi0z)" height="43.1328" style="stroke: #A80036; stroke-width: 1.0;" width="10" x="224" y="318.3594"/><rect fill="#FFFFFF" filter="url(#fb7njsn4sdi0z)" height="47.1328" style="stroke: #A80036; stroke-width: 1.0;" width="10" x="391.5" y="98.5625"/><rect fill="#FFFFFF" filter="url(#fb7njsn4sdi0z)" height="128.3984" style="stroke: #A80036; stroke-width: 1.0;" width="10" x="391.5" y="247.0938"/><line style="stroke: #A80036; stroke-width: 1.0; stroke-dasharray: 5.0,5.0;" x1="71" x2="71" y1="38.2969" y2="407.4922"/><line style="stroke: #A80036; stroke-width: 1.0; stroke-dasharray: 5.0,5.0;" x1="224" x2="224" y1="38.2969" y2="407.4922"/><line style="stroke: #A80036; stroke-width: 1.0; stroke-dasharray: 5.0,5.0;" x1="396" x2="396" y1="38.2969" y2="407.4922"/><rect fill="#FEFECE" filter="url(#fb7njsn4sdi0z)" height="30.2969" style="stroke: #A80036; stroke-width: 1.5;" width="122" x="8" y="3"/><text fill="#000000" font-family="sans-serif" font-size="14" lengthAdjust="spacingAndGlyphs" textLength="108" x="15" y="22.9951">inherit.inherit02</text><rect fill="#FEFECE" filter="url(#fb7njsn4sdi0z)" height="30.2969" style="stroke: #A80036; stroke-width: 1.5;" width="122" x="8" y="406.4922"/><text fill="#000000" font-family="sans-serif" font-size="14" lengthAdjust="spacingAndGlyphs" textLength="108" x="15" y="426.4873">inherit.inherit02</text><rect fill="#FEFECE" filter="url(#fb7njsn4sdi0z)" height="30.2969" style="stroke: #A80036; stroke-width: 1.5;" width="156" x="144" y="3"/><text fill="#000000" font-family="sans-serif" font-size="14" lengthAdjust="spacingAndGlyphs" textLength="142" x="151" y="22.9951">inherit.inherit02.Item</text><rect fill="#FEFECE" filter="url(#fb7njsn4sdi0z)" height="30.2969" style="stroke: #A80036; stroke-width: 1.5;" width="156" x="144" y="406.4922"/><text fill="#000000" font-family="sans-serif" font-size="14" lengthAdjust="spacingAndGlyphs" textLength="142" x="151" y="426.4873">inherit.inherit02.Item</text><rect fill="#FEFECE" filter="url(#fb7njsn4sdi0z)" height="30.2969" style="stroke: #A80036; stroke-width: 1.5;" width="161" x="314" y="3"/><text fill="#000000" font-family="sans-serif" font-size="14" lengthAdjust="spacingAndGlyphs" textLength="147" x="321" y="22.9951">inherit.inherit02.Base</text><rect fill="#FEFECE" filter="url(#fb7njsn4sdi0z)" height="30.2969" style="stroke: #A80036; stroke-width: 1.5;" width="161" x="314" y="406.4922"/><text fill="#000000" font-family="sans-serif" font-size="14" lengthAdjust="spacingAndGlyphs" textLength="147" x="321" y="426.4873">inherit.inherit02.Base</text><rect fill="#FFFFFF" filter="url(#fb7njsn4sdi0z)" height="90.2656" style="stroke: #A80036; stroke-width: 1.0;" width="10" x="219" y="69.4297"/><rect fill="#FFFFFF" filter="url(#fb7njsn4sdi0z)" height="200.6641" style="stroke: #A80036; stroke-width: 1.0;" width="10" x="219" y="188.8281"/><rect fill="#FFFFFF" filter="url(#fb7njsn4sdi0z)" height="43.1328" style="stroke: #A80036; stroke-width: 1.0;" width="10" x="224" y="318.3594"/><rect fill="#FFFFFF" filter="url(#fb7njsn4sdi0z)" height="47.1328" style="stroke: #A80036; stroke-width: 1.0;" width="10" x="391.5" y="98.5625"/><rect fill="#FFFFFF" filter="url(#fb7njsn4sdi0z)" height="128.3984" style="stroke: #A80036; stroke-width: 1.0;" width="10" x="391.5" y="247.0938"/><ellipse cx="70.5" cy="68.6797" fill="none" rx="4" ry="4" style="stroke: #A80036; stroke-width: 1.5;"/><polygon fill="#A80036" points="207,65.4297,217,69.4297,207,73.4297,211,69.4297" style="stroke: #A80036; stroke-width: 1.0;"/><line style="stroke: #A80036; stroke-width: 1.0;" x1="75" x2="213" y1="69.4297" y2="69.4297"/><text fill="#000000" font-family="sans-serif" font-size="13" lengthAdjust="spacingAndGlyphs" text-decoration="underline" textLength="19" x="78" y="64.3638">init</text><line style="stroke: #000000; stroke-width: 1.0;" x1="78" x2="97" y1="66.3638" y2="66.3638"/><ellipse cx="228.5" cy="97.8125" fill="none" rx="4" ry="4" style="stroke: #A80036; stroke-width: 1.5;"/><polygon fill="#A80036" points="379.5,94.5625,389.5,98.5625,379.5,102.5625,383.5,98.5625" style="stroke: #A80036; stroke-width: 1.0;"/><line style="stroke: #A80036; stroke-width: 1.0;" x1="233" x2="385.5" y1="98.5625" y2="98.5625"/><text fill="#000000" font-family="sans-serif" font-size="13" lengthAdjust="spacingAndGlyphs" text-decoration="underline" textLength="19" x="236" y="93.4966">init</text><line style="stroke: #000000; stroke-width: 1.0;" x1="236" x2="255" y1="95.4966" y2="95.4966"/><polygon fill="#FBFB77" filter="url(#fb7njsn4sdi0z)" points="416,111.5625,446,111.5625,456,122.5625,446,134.5625,416,134.5625,406,122.5625,416,111.5625" style="stroke: #A80036; stroke-width: 1.0;"/><text fill="#000000" font-family="sans-serif" font-size="13" lengthAdjust="spacingAndGlyphs" textLength="26" x="418" y="127.6294">field</text><polygon fill="#A80036" points="240,141.6953,230,145.6953,240,149.6953,236,145.6953" style="stroke: #A80036; stroke-width: 1.0;"/><line style="stroke: #A80036; stroke-width: 1.0; stroke-dasharray: 2.0,2.0;" x1="234" x2="395.5" y1="145.6953" y2="145.6953"/><polygon fill="#A80036" points="82,155.6953,72,159.6953,82,163.6953,78,159.6953" style="stroke: #A80036; stroke-width: 1.0;"/><line style="stroke: #A80036; stroke-width: 1.0; stroke-dasharray: 2.0,2.0;" x1="76" x2="223" y1="159.6953" y2="159.6953"/><ellipse cx="70.5" cy="188.0781" fill="none" rx="4" ry="4" style="stroke: #A80036; stroke-width: 1.5;"/><polygon fill="#A80036" points="207,184.8281,217,188.8281,207,192.8281,211,188.8281" style="stroke: #A80036; stroke-width: 1.0;"/><line style="stroke: #A80036; stroke-width: 1.0;" x1="75" x2="213" y1="188.8281" y2="188.8281"/><text fill="#000000" font-family="sans-serif" font-size="13" lengthAdjust="spacingAndGlyphs" textLength="51" x="78" y="183.7622">execute</text><ellipse cx="228.5" cy="217.2109" fill="none" rx="4" ry="4" style="stroke: #A80036; stroke-width: 1.5;"/><polygon fill="#A80036" points="384.5,213.9609,394.5,217.9609,384.5,221.9609,388.5,217.9609" style="stroke: #A80036; stroke-width: 1.0;"/><line style="stroke: #A80036; stroke-width: 1.0;" x1="233" x2="390.5" y1="217.9609" y2="217.9609"/><text fill="#000000" font-family="sans-serif" font-size="13" lengthAdjust="spacingAndGlyphs" textLength="52" x="236" y="212.895">do_work</text><ellipse cx="228.5" cy="246.3438" fill="none" rx="4" ry="4" style="stroke: #A80036; stroke-width: 1.5;"/><polygon fill="#A80036" points="379.5,243.0938,389.5,247.0938,379.5,251.0938,383.5,247.0938" style="stroke: #A80036; stroke-width: 1.0;"/><line style="stroke: #A80036; stroke-width: 1.0;" x1="233" x2="385.5" y1="247.0938" y2="247.0938"/><text fill="#000000" font-family="sans-serif" font-size="13" lengthAdjust="spacingAndGlyphs" textLength="89" x="236" y="242.0278">execute_base</text><ellipse cx="401" cy="275.4766" fill="none" rx="4" ry="4" style="stroke: #A80036; stroke-width: 1.5;"/><line style="stroke: #A80036; stroke-width: 1.0;" x1="405.5" x2="443.5" y1="276.2266" y2="276.2266"/><line style="stroke: #A80036; stroke-width: 1.0;" x1="443.5" x2="443.5" y1="276.2266" y2="289.2266"/><line style="stroke: #A80036; stroke-width: 1.0;" x1="402.5" x2="443.5" y1="289.2266" y2="289.2266"/><polygon fill="#A80036" points="412.5,285.2266,402.5,289.2266,412.5,293.2266,408.5,289.2266" style="stroke: #A80036; stroke-width: 1.0;"/><text fill="#000000" font-family="sans-serif" font-size="13" lengthAdjust="spacingAndGlyphs" textLength="88" x="408.5" y="271.1606">_execute_priv</text><polygon fill="#A80036" points="245,314.3594,235,318.3594,245,322.3594,241,318.3594" style="stroke: #A80036; stroke-width: 1.0;"/><ellipse cx="391" cy="317.6094" fill="none" rx="4" ry="4" style="stroke: #A80036; stroke-width: 1.5;"/><line style="stroke: #A80036; stroke-width: 1.0;" x1="239" x2="386.5" y1="318.3594" y2="318.3594"/><text fill="#000000" font-family="sans-serif" font-size="13" lengthAdjust="spacingAndGlyphs" textLength="88" x="251" y="313.2935">_execute_priv</text><ellipse cx="233.5" cy="346.7422" fill="none" rx="4" ry="4" style="stroke: #A80036; stroke-width: 1.5;"/><polygon fill="#A80036" points="379.5,343.4922,389.5,347.4922,379.5,351.4922,383.5,347.4922" style="stroke: #A80036; stroke-width: 1.0;"/><line style="stroke: #A80036; stroke-width: 1.0;" x1="238" x2="385.5" y1="347.4922" y2="347.4922"/><text fill="#000000" font-family="sans-serif" font-size="13" lengthAdjust="spacingAndGlyphs" textLength="52" x="241" y="342.4263">do_work</text><polygon fill="#A80036" points="379.5,357.4922,389.5,361.4922,379.5,365.4922,383.5,361.4922" style="stroke: #A80036; stroke-width: 1.0;"/><line style="stroke: #A80036; stroke-width: 1.0; stroke-dasharray: 2.0,2.0;" x1="229" x2="385.5" y1="361.4922" y2="361.4922"/><polygon fill="#A80036" points="240,371.4922,230,375.4922,240,379.4922,236,375.4922" style="stroke: #A80036; stroke-width: 1.0;"/><line style="stroke: #A80036; stroke-width: 1.0; stroke-dasharray: 2.0,2.0;" x1="234" x2="395.5" y1="375.4922" y2="375.4922"/><polygon fill="#A80036" points="82,385.4922,72,389.4922,82,393.4922,78,389.4922" style="stroke: #A80036; stroke-width: 1.0;"/><line style="stroke: #A80036; stroke-width: 1.0; stroke-dasharray: 2.0,2.0;" x1="76" x2="223" y1="389.4922" y2="389.4922"/></g></svg>