<?xml version="1.0" encoding="UTF-8" standalone="no"?>
<!DOCTYPE svg PUBLIC "-//W3C//DTD SVG 1.1//EN"
 "http://www.w3.org/Graphics/SVG/1.1/DTD/svg11.dtd">
<!-- Generated by graphviz version 2.43.0 (0)
 -->
<!-- Title: G Pages: 1 -->
<svg width="487pt" height="408pt"
 viewBox="0.00 0.00 487.00 408.00" xmlns="http://www.w3.org/2000/svg" xmlns:xlink="http://www.w3.org/1999/xlink">
<g id="graph0" class="graph" transform="scale(1 1) rotate(0) translate(4 404)">
<title>G</title>
<polygon fill="white" stroke="transparent" points="-4,4 -4,-404 483,-404 483,4 -4,4"/>
<g id="clust1" class="cluster">
<title>cluster_G</title>
<path fill="#808080" fill-opacity="0.094118" stroke="black" d="M20,-8C20,-8 459,-8 459,-8 465,-8 471,-14 471,-20 471,-20 471,-380 471,-380 471,-386 465,-392 459,-392 459,-392 20,-392 20,-392 14,-392 8,-386 8,-380 8,-380 8,-20 8,-20 8,-14 14,-8 20,-8"/>
</g>
<g id="clust2" class="cluster">
<title>cluster_inheritance__inheritance__Base</title>
<path fill="#808080" fill-opacity="0.094118" stroke="black" d="M67,-16C67,-16 366,-16 366,-16 372,-16 378,-22 378,-28 378,-28 378,-187 378,-187 378,-193 372,-199 366,-199 366,-199 67,-199 67,-199 61,-199 55,-193 55,-187 55,-187 55,-28 55,-28 55,-22 61,-16 67,-16"/>
<text text-anchor="middle" x="216.5" y="-183.8" font-family="Times,serif" font-size="14.00">inheritance.inheritance.Base</text>
</g>
<g id="clust3" class="cluster">
<title>cluster_inheritance__inheritance__Item</title>
<path fill="#808080" fill-opacity="0.094118" stroke="black" d="M40,-232C40,-232 451,-232 451,-232 457,-232 463,-238 463,-244 463,-244 463,-295 463,-295 463,-301 457,-307 451,-307 451,-307 40,-307 40,-307 34,-307 28,-301 28,-295 28,-295 28,-244 28,-244 28,-238 34,-232 40,-232"/>
<text text-anchor="middle" x="245.5" y="-291.8" font-family="Times,serif" font-size="14.00">inheritance.inheritance.Item</text>
</g>
<!-- inheritance__inheritance -->
<g id="node1" class="node">
<title>inheritance__inheritance</title>
<ellipse fill="#ffffff" fill-opacity="0.698039" stroke="black" cx="292" cy="-366" rx="118.88" ry="18"/>
<text text-anchor="middle" x="292" y="-362.3" font-family="Times,serif" font-size="14.00" fill="#000000">inheritance.inheritance</text>
</g>
<!-- inheritance__inheritance__Base__execute -->
<g id="node4" class="node">
<title>inheritance__inheritance__Base__execute</title>
<ellipse fill="#ff6565" fill-opacity="0.698039" stroke="black" cx="110" cy="-150" rx="46.59" ry="18"/>
<text text-anchor="middle" x="110" y="-146.3" font-family="Times,serif" font-size="14.00" fill="#000000">execute</text>
</g>
<!-- inheritance__inheritance&#45;&gt;inheritance__inheritance__Base__execute -->
<g id="edge6" class="edge">
<title>inheritance__inheritance&#45;&gt;inheritance__inheritance__Base__execute</title>
<path fill="none" stroke="#000000" d="M191.46,-356.26C124.51,-348.12 45.11,-333.17 24,-307 3.07,-281.06 10.78,-262.6 24,-232 34.91,-206.74 58,-185.71 77.51,-171.42"/>
<polygon fill="#000000" stroke="#000000" points="79.72,-174.14 85.89,-165.52 75.69,-168.41 79.72,-174.14"/>
</g>
<!-- inheritance__inheritance__Item____init__ -->
<g id="node6" class="node">
<title>inheritance__inheritance__Item____init__</title>
<ellipse fill="#ff6565" fill-opacity="0.698039" stroke="black" cx="246" cy="-258" rx="44.39" ry="18"/>
<text text-anchor="middle" x="246" y="-254.3" font-family="Times,serif" font-size="14.00" fill="#000000">__init__</text>
</g>
<!-- inheritance__inheritance&#45;&gt;inheritance__inheritance__Item____init__ -->
<g id="edge5" class="edge">
<title>inheritance__inheritance&#45;&gt;inheritance__inheritance__Item____init__</title>
<path fill="none" stroke="#000000" d="M284.61,-347.97C277.27,-331.05 265.9,-304.86 257.4,-285.28"/>
<polygon fill="#000000" stroke="#000000" points="260.56,-283.77 253.37,-275.99 254.14,-286.56 260.56,-283.77"/>
</g>
<!-- inheritance__inheritance__Item__wait -->
<g id="node8" class="node">
<title>inheritance__inheritance__Item__wait</title>
<ellipse fill="#ff6565" fill-opacity="0.698039" stroke="black" cx="339" cy="-258" rx="30.59" ry="18"/>
<text text-anchor="middle" x="339" y="-254.3" font-family="Times,serif" font-size="14.00" fill="#000000">wait</text>
</g>
<!-- inheritance__inheritance&#45;&gt;inheritance__inheritance__Item__wait -->
<g id="edge8" class="edge">
<title>inheritance__inheritance&#45;&gt;inheritance__inheritance__Item__wait</title>
<path fill="none" stroke="#000000" d="M299.55,-347.97C307.1,-330.95 318.8,-304.55 327.5,-284.93"/>
<polygon fill="#000000" stroke="#000000" points="330.77,-286.2 331.62,-275.64 324.37,-283.36 330.77,-286.2"/>
</g>
<!-- inheritance__inheritance__Item__work -->
<g id="node9" class="node">
<title>inheritance__inheritance__Item__work</title>
<ellipse fill="#ff6565" fill-opacity="0.698039" stroke="black" cx="421" cy="-258" rx="33.6" ry="18"/>
<text text-anchor="middle" x="421" y="-254.3" font-family="Times,serif" font-size="14.00" fill="#000000">work</text>
</g>
<!-- inheritance__inheritance&#45;&gt;inheritance__inheritance__Item__work -->
<g id="edge7" class="edge">
<title>inheritance__inheritance&#45;&gt;inheritance__inheritance__Item__work</title>
<path fill="none" stroke="#000000" d="M320.78,-348.48C338.42,-337.73 360.99,-322.8 379,-307 387.24,-299.77 395.39,-290.96 402.28,-282.86"/>
<polygon fill="#000000" stroke="#000000" points="405.04,-285.03 408.72,-275.09 399.64,-280.56 405.04,-285.03"/>
</g>
<!-- inheritance__inheritance__Base____init__ -->
<g id="node2" class="node">
<title>inheritance__inheritance__Base____init__</title>
<ellipse fill="#ff6565" fill-opacity="0.698039" stroke="black" cx="246" cy="-150" rx="44.39" ry="18"/>
<text text-anchor="middle" x="246" y="-146.3" font-family="Times,serif" font-size="14.00" fill="#000000">__init__</text>
</g>
<!-- inheritance__inheritance__Base___execute_priv -->
<g id="node3" class="node">
<title>inheritance__inheritance__Base___execute_priv</title>
<ellipse fill="#ff6565" fill-opacity="0.698039" stroke="black" cx="137" cy="-42" rx="74.19" ry="18"/>
<text text-anchor="middle" x="137" y="-38.3" font-family="Times,serif" font-size="14.00" fill="#000000">_execute_priv</text>
</g>
<!-- inheritance__inheritance__Base__execute&#45;&gt;inheritance__inheritance__Base___execute_priv -->
<g id="edge1" class="edge">
<title>inheritance__inheritance__Base__execute&#45;&gt;inheritance__inheritance__Base___execute_priv</title>
<path fill="none" stroke="#000000" d="M114.34,-131.97C118.61,-115.2 125.2,-89.34 130.17,-69.81"/>
<polygon fill="#000000" stroke="#000000" points="133.6,-70.54 132.67,-59.99 126.81,-68.82 133.6,-70.54"/>
</g>
<!-- inheritance__inheritance__Item___execute_priv -->
<g id="node7" class="node">
<title>inheritance__inheritance__Item___execute_priv</title>
<ellipse fill="#ff6565" fill-opacity="0.698039" stroke="black" cx="110" cy="-258" rx="74.19" ry="18"/>
<text text-anchor="middle" x="110" y="-254.3" font-family="Times,serif" font-size="14.00" fill="#000000">_execute_priv</text>
</g>
<!-- inheritance__inheritance__Base__execute&#45;&gt;inheritance__inheritance__Item___execute_priv -->
<g id="edge2" class="edge">
<title>inheritance__inheritance__Base__execute&#45;&gt;inheritance__inheritance__Item___execute_priv</title>
<path fill="none" stroke="#000000" d="M110,-168.34C110,-185.04 110,-210.55 110,-229.93"/>
<polygon fill="#000000" stroke="#000000" points="106.5,-229.97 110,-239.97 113.5,-229.97 106.5,-229.97"/>
</g>
<!-- inheritance__inheritance__Base__wait -->
<g id="node5" class="node">
<title>inheritance__inheritance__Base__wait</title>
<ellipse fill="#ff6565" fill-opacity="0.698039" stroke="black" cx="339" cy="-150" rx="30.59" ry="18"/>
<text text-anchor="middle" x="339" y="-146.3" font-family="Times,serif" font-size="14.00" fill="#000000">wait</text>
</g>
<!-- inheritance__inheritance__Item____init__&#45;&gt;inheritance__inheritance__Base____init__ -->
<g id="edge4" class="edge">
<title>inheritance__inheritance__Item____init__&#45;&gt;inheritance__inheritance__Base____init__</title>
<path fill="none" stroke="#000000" d="M246,-239.97C246,-223.38 246,-197.88 246,-178.43"/>
<polygon fill="#000000" stroke="#000000" points="249.5,-178.34 246,-168.34 242.5,-178.34 249.5,-178.34"/>
</g>
<!-- inheritance__inheritance__Item__wait&#45;&gt;inheritance__inheritance__Base__wait -->
<g id="edge3" class="edge">
<title>inheritance__inheritance__Item__wait&#45;&gt;inheritance__inheritance__Base__wait</title>
<path fill="none" stroke="#000000" d="M339,-239.97C339,-223.38 339,-197.88 339,-178.43"/>
<polygon fill="#000000" stroke="#000000" points="342.5,-178.34 339,-168.34 335.5,-178.34 342.5,-178.34"/>
</g>
</g>
</svg>
