<?xml version="1.0" encoding="UTF-8" standalone="no"?><svg xmlns="http://www.w3.org/2000/svg" xmlns:xlink="http://www.w3.org/1999/xlink" contentScriptType="application/ecmascript" contentStyleType="text/css" height="386px" preserveAspectRatio="none" style="width:636px;height:386px;background:#FEFEFE;" version="1.1" viewBox="0 0 636 386" width="636px" zoomAndPan="magnify"><defs><filter height="300%" id="f1mpq35i6hbi90" width="300%" x="-1" y="-1"><feGaussianBlur result="blurOut" stdDeviation="2.0"/><feColorMatrix in="blurOut" result="blurOut2" type="matrix" values="0 0 0 0 0 0 0 0 0 0 0 0 0 0 0 0 0 0 .4 0"/><feOffset dx="4.0" dy="4.0" in="blurOut2" result="blurOut3"/><feBlend in="SourceGraphic" in2="blurOut3" mode="normal"/></filter></defs><g><rect fill="#FFFFFF" filter="url(#f1mpq35i6hbi90)" height="43.1328" style="stroke: #A80036; stroke-width: 1.0;" width="10" x="294" y="69.4297"/><rect fill="#FFFFFF" filter="url(#f1mpq35i6hbi90)" height="43.1328" style="stroke: #A80036; stroke-width: 1.0;" width="10" x="294" y="285.2266"/><rect fill="#FFFFFF" filter="url(#f1mpq35i6hbi90)" height="85.2656" style="stroke: #A80036; stroke-width: 1.0;" width="10" x="516.5" y="141.6953"/><line style="stroke: #A80036; stroke-width: 1.0; stroke-dasharray: 5.0,5.0;" x1="96" x2="96" y1="38.2969" y2="346.3594"/><line style="stroke: #A80036; stroke-width: 1.0; stroke-dasharray: 5.0,5.0;" x1="299" x2="299" y1="38.2969" y2="346.3594"/><line style="stroke: #A80036; stroke-width: 1.0; stroke-dasharray: 5.0,5.0;" x1="521" x2="521" y1="38.2969" y2="346.3594"/><rect fill="#FEFECE" filter="url(#f1mpq35i6hbi90)" height="30.2969" style="stroke: #A80036; stroke-width: 1.5;" width="172" x="8" y="3"/><text fill="#000000" font-family="sans-serif" font-size="14" lengthAdjust="spacingAndGlyphs" textLength="158" x="15" y="22.9951">inheritance.inheritance</text><rect fill="#FEFECE" filter="url(#f1mpq35i6hbi90)" height="30.2969" style="stroke: #A80036; stroke-width: 1.5;" width="172" x="8" y="345.3594"/><text fill="#000000" font-family="sans-serif" font-size="14" lengthAdjust="spacingAndGlyphs" textLength="158" x="15" y="365.3545">inheritance.inheritance</text><rect fill="#FEFECE" filter="url(#f1mpq35i6hbi90)" height="30.2969" style="stroke: #A80036; stroke-width: 1.5;" width="206" x="194" y="3"/><text fill="#000000" font-family="sans-serif" font-size="14" lengthAdjust="spacingAndGlyphs" textLength="192" x="201" y="22.9951">inheritance.inheritance.Item</text><rect fill="#FEFECE" filter="url(#f1mpq35i6hbi90)" height="30.2969" style="stroke: #A80036; stroke-width: 1.5;" width="206" x="194" y="345.3594"/><text fill="#000000" font-family="sans-serif" font-size="14" lengthAdjust="spacingAndGlyphs" textLength="192" x="201" y="365.3545">inheritance.inheritance.Item</text><rect fill="#FEFECE" filter="url(#f1mpq35i6hbi90)" height="30.2969" style="stroke: #A80036; stroke-width: 1.5;" width="211" x="414" y="3"/><text fill="#000000" font-family="sans-serif" font-size="14" lengthAdjust="spacingAndGlyphs" textLength="197" x="421" y="22.9951">inheritance.inheritance.Base</text><rect fill="#FEFECE" filter="url(#f1mpq35i6hbi90)" height="30.2969" style="stroke: #A80036; stroke-width: 1.5;" width="211" x="414" y="345.3594"/><text fill="#000000" font-family="sans-serif" font-size="14" lengthAdjust="spacingAndGlyphs" textLength="197" x="421" y="365.3545">inheritance.inheritance.Base</text><rect fill="#FFFFFF" filter="url(#f1mpq35i6hbi90)" height="43.1328" style="stroke: #A80036; stroke-width: 1.0;" width="10" x="294" y="69.4297"/><rect fill="#FFFFFF" filter="url(#f1mpq35i6hbi90)" height="43.1328" style="stroke: #A80036; stroke-width: 1.0;" width="10" x="294" y="285.2266"/><rect fill="#FFFFFF" filter="url(#f1mpq35i6hbi90)" height="85.2656" style="stroke: #A80036; stroke-width: 1.0;" width="10" x="516.5" y="141.6953"/><ellipse cx="95.5" cy="68.6797" fill="none" rx="4" ry="4" style="stroke: #A80036; stroke-width: 1.5;"/><polygon fill="#A80036" points="282,65.4297,292,69.4297,282,73.4297,286,69.4297" style="stroke: #A80036; stroke-width: 1.0;"/><line style="stroke: #A80036; stroke-width: 1.0;" x1="100" x2="288" y1="69.4297" y2="69.4297"/><text fill="#000000" font-family="sans-serif" font-size="13" lengthAdjust="spacingAndGlyphs" text-decoration="underline" textLength="19" x="103" y="64.3638">init</text><line style="stroke: #000000; stroke-width: 1.0;" x1="103" x2="122" y1="66.3638" y2="66.3638"/><ellipse cx="303.5" cy="97.8125" fill="none" rx="4" ry="4" style="stroke: #A80036; stroke-width: 1.5;"/><polygon fill="#A80036" points="509.5,94.5625,519.5,98.5625,509.5,102.5625,513.5,98.5625" style="stroke: #A80036; stroke-width: 1.0;"/><line style="stroke: #A80036; stroke-width: 1.0;" x1="308" x2="515.5" y1="98.5625" y2="98.5625"/><text fill="#000000" font-family="sans-serif" font-size="13" lengthAdjust="spacingAndGlyphs" text-decoration="underline" textLength="19" x="311" y="93.4966">init</text><line style="stroke: #000000; stroke-width: 1.0;" x1="311" x2="330" y1="95.4966" y2="95.4966"/><polygon fill="#A80036" points="107,108.5625,97,112.5625,107,116.5625,103,112.5625" style="stroke: #A80036; stroke-width: 1.0;"/><line style="stroke: #A80036; stroke-width: 1.0; stroke-dasharray: 2.0,2.0;" x1="101" x2="298" y1="112.5625" y2="112.5625"/><ellipse cx="95.5" cy="140.9453" fill="none" rx="4" ry="4" style="stroke: #A80036; stroke-width: 1.5;"/><polygon fill="#A80036" points="504.5,137.6953,514.5,141.6953,504.5,145.6953,508.5,141.6953" style="stroke: #A80036; stroke-width: 1.0;"/><line style="stroke: #A80036; stroke-width: 1.0;" x1="100" x2="510.5" y1="141.6953" y2="141.6953"/><text fill="#000000" font-family="sans-serif" font-size="13" lengthAdjust="spacingAndGlyphs" textLength="51" x="103" y="136.6294">execute</text><ellipse cx="526" cy="170.0781" fill="none" rx="4" ry="4" style="stroke: #A80036; stroke-width: 1.5;"/><line style="stroke: #A80036; stroke-width: 1.0;" x1="530.5" x2="568.5" y1="170.8281" y2="170.8281"/><line style="stroke: #A80036; stroke-width: 1.0;" x1="568.5" x2="568.5" y1="170.8281" y2="183.8281"/><line style="stroke: #A80036; stroke-width: 1.0;" x1="527.5" x2="568.5" y1="183.8281" y2="183.8281"/><polygon fill="#A80036" points="537.5,179.8281,527.5,183.8281,537.5,187.8281,533.5,183.8281" style="stroke: #A80036; stroke-width: 1.0;"/><text fill="#000000" font-family="sans-serif" font-size="13" lengthAdjust="spacingAndGlyphs" textLength="88" x="533.5" y="165.7622">_execute_priv</text><polygon fill="#A80036" points="310,208.9609,300,212.9609,310,216.9609,306,212.9609" style="stroke: #A80036; stroke-width: 1.0;"/><ellipse cx="516" cy="212.2109" fill="none" rx="4" ry="4" style="stroke: #A80036; stroke-width: 1.5;"/><line style="stroke: #A80036; stroke-width: 1.0;" x1="304" x2="511.5" y1="212.9609" y2="212.9609"/><text fill="#000000" font-family="sans-serif" font-size="13" lengthAdjust="spacingAndGlyphs" textLength="88" x="316" y="207.895">_execute_priv</text><polygon fill="#A80036" points="107,222.9609,97,226.9609,107,230.9609,103,226.9609" style="stroke: #A80036; stroke-width: 1.0;"/><line style="stroke: #A80036; stroke-width: 1.0; stroke-dasharray: 2.0,2.0;" x1="101" x2="520.5" y1="226.9609" y2="226.9609"/><ellipse cx="95.5" cy="255.3438" fill="none" rx="4" ry="4" style="stroke: #A80036; stroke-width: 1.5;"/><polygon fill="#A80036" points="287,252.0938,297,256.0938,287,260.0938,291,256.0938" style="stroke: #A80036; stroke-width: 1.0;"/><line style="stroke: #A80036; stroke-width: 1.0;" x1="100" x2="293" y1="256.0938" y2="256.0938"/><text fill="#000000" font-family="sans-serif" font-size="13" lengthAdjust="spacingAndGlyphs" textLength="29" x="103" y="251.0278">work</text><ellipse cx="95.5" cy="284.4766" fill="none" rx="4" ry="4" style="stroke: #A80036; stroke-width: 1.5;"/><polygon fill="#A80036" points="282,281.2266,292,285.2266,282,289.2266,286,285.2266" style="stroke: #A80036; stroke-width: 1.0;"/><line style="stroke: #A80036; stroke-width: 1.0;" x1="100" x2="288" y1="285.2266" y2="285.2266"/><text fill="#000000" font-family="sans-serif" font-size="13" lengthAdjust="spacingAndGlyphs" textLength="25" x="103" y="280.1606">wait</text><ellipse cx="303.5" cy="313.6094" fill="none" rx="4" ry="4" style="stroke: #A80036; stroke-width: 1.5;"/><polygon fill="#A80036" points="509.5,310.3594,519.5,314.3594,509.5,318.3594,513.5,314.3594" style="stroke: #A80036; stroke-width: 1.0;"/><line style="stroke: #A80036; stroke-width: 1.0;" x1="308" x2="515.5" y1="314.3594" y2="314.3594"/><text fill="#000000" font-family="sans-serif" font-size="13" lengthAdjust="spacingAndGlyphs" textLength="25" x="311" y="309.2935">wait</text><polygon fill="#A80036" points="107,324.3594,97,328.3594,107,332.3594,103,328.3594" style="stroke: #A80036; stroke-width: 1.0;"/><line style="stroke: #A80036; stroke-width: 1.0; stroke-dasharray: 2.0,2.0;" x1="101" x2="298" y1="328.3594" y2="328.3594"/></g></svg>