<?xml version="1.0" encoding="UTF-8" standalone="no"?>
<!DOCTYPE svg PUBLIC "-//W3C//DTD SVG 1.1//EN"
 "http://www.w3.org/Graphics/SVG/1.1/DTD/svg11.dtd">
<!-- Generated by graphviz version 2.43.0 (0)
 -->
<!-- Title: G Pages: 1 -->
<svg width="424pt" height="408pt"
 viewBox="0.00 0.00 424.00 408.00" xmlns="http://www.w3.org/2000/svg" xmlns:xlink="http://www.w3.org/1999/xlink">
<g id="graph0" class="graph" transform="scale(1 1) rotate(0) translate(4 404)">
<title>G</title>
<polygon fill="white" stroke="transparent" points="-4,4 -4,-404 420,-404 420,4 -4,4"/>
<g id="clust1" class="cluster">
<title>cluster_G</title>
<path fill="#808080" fill-opacity="0.094118" stroke="black" d="M20,-8C20,-8 396,-8 396,-8 402,-8 408,-14 408,-20 408,-20 408,-380 408,-380 408,-386 402,-392 396,-392 396,-392 20,-392 20,-392 14,-392 8,-386 8,-380 8,-380 8,-20 8,-20 8,-14 14,-8 20,-8"/>
</g>
<g id="clust2" class="cluster">
<title>cluster_inherit__inherit01__Base</title>
<path fill="#808080" fill-opacity="0.094118" stroke="black" d="M28,-16C28,-16 388,-16 388,-16 394,-16 400,-22 400,-28 400,-28 400,-187 400,-187 400,-193 394,-199 388,-199 388,-199 28,-199 28,-199 22,-199 16,-193 16,-187 16,-187 16,-28 16,-28 16,-22 22,-16 28,-16"/>
<text text-anchor="middle" x="208" y="-183.8" font-family="Times,serif" font-size="14.00">inherit.inherit01.Base</text>
</g>
<g id="clust3" class="cluster">
<title>cluster_inherit__inherit01__Item</title>
<path fill="#808080" fill-opacity="0.094118" stroke="black" d="M28,-232C28,-232 386,-232 386,-232 392,-232 398,-238 398,-244 398,-244 398,-295 398,-295 398,-301 392,-307 386,-307 386,-307 28,-307 28,-307 22,-307 16,-301 16,-295 16,-295 16,-244 16,-244 16,-238 22,-232 28,-232"/>
<text text-anchor="middle" x="207" y="-291.8" font-family="Times,serif" font-size="14.00">inherit.inherit01.Item</text>
</g>
<!-- inherit__inherit01 -->
<g id="node1" class="node">
<title>inherit__inherit01</title>
<ellipse fill="#ffffff" fill-opacity="0.698039" stroke="black" cx="274" cy="-366" rx="87.99" ry="18"/>
<text text-anchor="middle" x="274" y="-362.3" font-family="Times,serif" font-size="14.00" fill="#000000">inherit.inherit01</text>
</g>
<!-- inherit__inherit01__Item____init__ -->
<g id="node7" class="node">
<title>inherit__inherit01__Item____init__</title>
<ellipse fill="#ff6565" fill-opacity="0.698039" stroke="black" cx="346" cy="-258" rx="44.39" ry="18"/>
<text text-anchor="middle" x="346" y="-254.3" font-family="Times,serif" font-size="14.00" fill="#000000">__init__</text>
</g>
<!-- inherit__inherit01&#45;&gt;inherit__inherit01__Item____init__ -->
<g id="edge8" class="edge">
<title>inherit__inherit01&#45;&gt;inherit__inherit01__Item____init__</title>
<path fill="none" stroke="#000000" d="M285.57,-347.97C297.29,-330.71 315.55,-303.83 328.93,-284.13"/>
<polygon fill="#000000" stroke="#000000" points="331.97,-285.88 334.7,-275.64 326.18,-281.94 331.97,-285.88"/>
</g>
<!-- inherit__inherit01__Item__execute -->
<g id="node9" class="node">
<title>inherit__inherit01__Item__execute</title>
<ellipse fill="#ff6565" fill-opacity="0.698039" stroke="black" cx="237" cy="-258" rx="46.59" ry="18"/>
<text text-anchor="middle" x="237" y="-254.3" font-family="Times,serif" font-size="14.00" fill="#000000">execute</text>
</g>
<!-- inherit__inherit01&#45;&gt;inherit__inherit01__Item__execute -->
<g id="edge9" class="edge">
<title>inherit__inherit01&#45;&gt;inherit__inherit01__Item__execute</title>
<path fill="none" stroke="#000000" d="M268.06,-347.97C262.18,-331.12 253.09,-305.1 246.27,-285.54"/>
<polygon fill="#000000" stroke="#000000" points="249.53,-284.28 242.93,-275.99 242.92,-286.58 249.53,-284.28"/>
</g>
<!-- inherit__inherit01__Base____init__ -->
<g id="node2" class="node">
<title>inherit__inherit01__Base____init__</title>
<ellipse fill="#ff6565" fill-opacity="0.698039" stroke="black" cx="348" cy="-150" rx="44.39" ry="18"/>
<text text-anchor="middle" x="348" y="-146.3" font-family="Times,serif" font-size="14.00" fill="#000000">__init__</text>
</g>
<!-- inherit__inherit01__Base__field -->
<g id="node6" class="node">
<title>inherit__inherit01__Base__field</title>
<ellipse fill="#ff6565" fill-opacity="0.698039" stroke="black" cx="348" cy="-42" rx="31.4" ry="18"/>
<text text-anchor="middle" x="348" y="-38.3" font-family="Times,serif" font-size="14.00" fill="#000000">field</text>
</g>
<!-- inherit__inherit01__Base____init__&#45;&gt;inherit__inherit01__Base__field -->
<g id="edge1" class="edge">
<title>inherit__inherit01__Base____init__&#45;&gt;inherit__inherit01__Base__field</title>
<path fill="none" stroke="#000000" d="M348,-131.97C348,-115.38 348,-89.88 348,-70.43"/>
<polygon fill="#000000" stroke="#000000" points="351.5,-70.34 348,-60.34 344.5,-70.34 351.5,-70.34"/>
</g>
<!-- inherit__inherit01__Base___execute_priv -->
<g id="node3" class="node">
<title>inherit__inherit01__Base___execute_priv</title>
<ellipse fill="#ff6565" fill-opacity="0.698039" stroke="black" cx="213" cy="-42" rx="74.19" ry="18"/>
<text text-anchor="middle" x="213" y="-38.3" font-family="Times,serif" font-size="14.00" fill="#000000">_execute_priv</text>
</g>
<!-- inherit__inherit01__Base__do_work -->
<g id="node4" class="node">
<title>inherit__inherit01__Base__do_work</title>
<ellipse fill="#ff6565" fill-opacity="0.698039" stroke="black" cx="73" cy="-150" rx="49.29" ry="18"/>
<text text-anchor="middle" x="73" y="-146.3" font-family="Times,serif" font-size="14.00" fill="#000000">do_work</text>
</g>
<!-- inherit__inherit01__Base__execute_base -->
<g id="node5" class="node">
<title>inherit__inherit01__Base__execute_base</title>
<ellipse fill="#ff6565" fill-opacity="0.698039" stroke="black" cx="213" cy="-150" rx="72.59" ry="18"/>
<text text-anchor="middle" x="213" y="-146.3" font-family="Times,serif" font-size="14.00" fill="#000000">execute_base</text>
</g>
<!-- inherit__inherit01__Base__execute_base&#45;&gt;inherit__inherit01__Base___execute_priv -->
<g id="edge2" class="edge">
<title>inherit__inherit01__Base__execute_base&#45;&gt;inherit__inherit01__Base___execute_priv</title>
<path fill="none" stroke="#000000" d="M213,-131.97C213,-115.38 213,-89.88 213,-70.43"/>
<polygon fill="#000000" stroke="#000000" points="216.5,-70.34 213,-60.34 209.5,-70.34 216.5,-70.34"/>
</g>
<!-- inherit__inherit01__Item___execute_priv -->
<g id="node8" class="node">
<title>inherit__inherit01__Item___execute_priv</title>
<ellipse fill="#ff6565" fill-opacity="0.698039" stroke="black" cx="98" cy="-258" rx="74.19" ry="18"/>
<text text-anchor="middle" x="98" y="-254.3" font-family="Times,serif" font-size="14.00" fill="#000000">_execute_priv</text>
</g>
<!-- inherit__inherit01__Base__execute_base&#45;&gt;inherit__inherit01__Item___execute_priv -->
<g id="edge3" class="edge">
<title>inherit__inherit01__Base__execute_base&#45;&gt;inherit__inherit01__Item___execute_priv</title>
<path fill="none" stroke="#000000" d="M194.78,-167.8C175.55,-185.52 145.1,-213.59 123.49,-233.5"/>
<polygon fill="#000000" stroke="#000000" points="120.95,-231.09 115.97,-240.44 125.69,-236.23 120.95,-231.09"/>
</g>
<!-- inherit__inherit01__Item____init__&#45;&gt;inherit__inherit01__Base____init__ -->
<g id="edge7" class="edge">
<title>inherit__inherit01__Item____init__&#45;&gt;inherit__inherit01__Base____init__</title>
<path fill="none" stroke="#000000" d="M346.32,-239.97C346.63,-223.38 347.12,-197.88 347.48,-178.43"/>
<polygon fill="#000000" stroke="#000000" points="350.98,-178.4 347.67,-168.34 343.98,-178.27 350.98,-178.4"/>
</g>
<!-- inherit__inherit01__Item___execute_priv&#45;&gt;inherit__inherit01__Base__do_work -->
<g id="edge6" class="edge">
<title>inherit__inherit01__Item___execute_priv&#45;&gt;inherit__inherit01__Base__do_work</title>
<path fill="none" stroke="#000000" d="M93.98,-239.97C90.03,-223.2 83.93,-197.34 79.32,-177.81"/>
<polygon fill="#000000" stroke="#000000" points="82.71,-176.92 77.01,-167.99 75.9,-178.52 82.71,-176.92"/>
</g>
<!-- inherit__inherit01__Item__execute&#45;&gt;inherit__inherit01__Base__do_work -->
<g id="edge4" class="edge">
<title>inherit__inherit01__Item__execute&#45;&gt;inherit__inherit01__Base__do_work</title>
<path fill="none" stroke="#000000" d="M208.69,-243.37C186.84,-232.41 156.17,-216.07 131,-199 119.84,-191.43 108.27,-182.17 98.41,-173.81"/>
<polygon fill="#000000" stroke="#000000" points="100.45,-170.95 90.59,-167.06 95.87,-176.24 100.45,-170.95"/>
</g>
<!-- inherit__inherit01__Item__execute&#45;&gt;inherit__inherit01__Base__execute_base -->
<g id="edge5" class="edge">
<title>inherit__inherit01__Item__execute&#45;&gt;inherit__inherit01__Base__execute_base</title>
<path fill="none" stroke="#000000" d="M233.14,-239.97C229.35,-223.2 223.49,-197.34 219.07,-177.81"/>
<polygon fill="#000000" stroke="#000000" points="222.47,-176.97 216.85,-167.99 215.64,-178.51 222.47,-176.97"/>
</g>
</g>
</svg>
