<?xml version="1.0" encoding="UTF-8" standalone="no"?><svg xmlns="http://www.w3.org/2000/svg" xmlns:xlink="http://www.w3.org/1999/xlink" contentScriptType="application/ecmascript" contentStyleType="text/css" height="433px" preserveAspectRatio="none" style="width:486px;height:433px;background:#FEFEFE;" version="1.1" viewBox="0 0 486 433" width="486px" zoomAndPan="magnify"><defs><filter height="300%" id="f1k1wa9eiemc23" width="300%" x="-1" y="-1"><feGaussianBlur result="blurOut" stdDeviation="2.0"/><feColorMatrix in="blurOut" result="blurOut2" type="matrix" values="0 0 0 0 0 0 0 0 0 0 0 0 0 0 0 0 0 0 .4 0"/><feOffset dx="4.0" dy="4.0" in="blurOut2" result="blurOut3"/><feBlend in="SourceGraphic" in2="blurOut3" mode="normal"/></filter></defs><g><rect fill="#FFFFFF" filter="url(#f1k1wa9eiemc23)" height="47.1328" style="stroke: #A80036; stroke-width: 1.0;" width="10" x="85.5" y="69.4297"/><rect fill="#FFFFFF" filter="url(#f1k1wa9eiemc23)" height="128.3984" style="stroke: #A80036; stroke-width: 1.0;" width="10" x="85.5" y="233.0938"/><rect fill="#FFFFFF" filter="url(#f1k1wa9eiemc23)" height="200.6641" style="stroke: #A80036; stroke-width: 1.0;" width="10" x="394" y="174.8281"/><rect fill="#FFFFFF" filter="url(#f1k1wa9eiemc23)" height="43.1328" style="stroke: #A80036; stroke-width: 1.0;" width="10" x="399" y="304.3594"/><line style="stroke: #A80036; stroke-width: 1.0; stroke-dasharray: 5.0,5.0;" x1="90" x2="90" y1="38.2969" y2="393.4922"/><line style="stroke: #A80036; stroke-width: 1.0; stroke-dasharray: 5.0,5.0;" x1="246" x2="246" y1="38.2969" y2="393.4922"/><line style="stroke: #A80036; stroke-width: 1.0; stroke-dasharray: 5.0,5.0;" x1="399" x2="399" y1="38.2969" y2="393.4922"/><rect fill="#FEFECE" filter="url(#f1k1wa9eiemc23)" height="30.2969" style="stroke: #A80036; stroke-width: 1.5;" width="161" x="8" y="3"/><text fill="#000000" font-family="sans-serif" font-size="14" lengthAdjust="spacingAndGlyphs" textLength="147" x="15" y="22.9951">inherit.inherit03.Base</text><rect fill="#FEFECE" filter="url(#f1k1wa9eiemc23)" height="30.2969" style="stroke: #A80036; stroke-width: 1.5;" width="161" x="8" y="392.4922"/><text fill="#000000" font-family="sans-serif" font-size="14" lengthAdjust="spacingAndGlyphs" textLength="147" x="15" y="412.4873">inherit.inherit03.Base</text><rect fill="#FEFECE" filter="url(#f1k1wa9eiemc23)" height="30.2969" style="stroke: #A80036; stroke-width: 1.5;" width="122" x="183" y="3"/><text fill="#000000" font-family="sans-serif" font-size="14" lengthAdjust="spacingAndGlyphs" textLength="108" x="190" y="22.9951">inherit.inherit03</text><rect fill="#FEFECE" filter="url(#f1k1wa9eiemc23)" height="30.2969" style="stroke: #A80036; stroke-width: 1.5;" width="122" x="183" y="392.4922"/><text fill="#000000" font-family="sans-serif" font-size="14" lengthAdjust="spacingAndGlyphs" textLength="108" x="190" y="412.4873">inherit.inherit03</text><rect fill="#FEFECE" filter="url(#f1k1wa9eiemc23)" height="30.2969" style="stroke: #A80036; stroke-width: 1.5;" width="156" x="319" y="3"/><text fill="#000000" font-family="sans-serif" font-size="14" lengthAdjust="spacingAndGlyphs" textLength="142" x="326" y="22.9951">inherit.inherit03.Item</text><rect fill="#FEFECE" filter="url(#f1k1wa9eiemc23)" height="30.2969" style="stroke: #A80036; stroke-width: 1.5;" width="156" x="319" y="392.4922"/><text fill="#000000" font-family="sans-serif" font-size="14" lengthAdjust="spacingAndGlyphs" textLength="142" x="326" y="412.4873">inherit.inherit03.Item</text><rect fill="#FFFFFF" filter="url(#f1k1wa9eiemc23)" height="47.1328" style="stroke: #A80036; stroke-width: 1.0;" width="10" x="85.5" y="69.4297"/><rect fill="#FFFFFF" filter="url(#f1k1wa9eiemc23)" height="128.3984" style="stroke: #A80036; stroke-width: 1.0;" width="10" x="85.5" y="233.0938"/><rect fill="#FFFFFF" filter="url(#f1k1wa9eiemc23)" height="200.6641" style="stroke: #A80036; stroke-width: 1.0;" width="10" x="394" y="174.8281"/><rect fill="#FFFFFF" filter="url(#f1k1wa9eiemc23)" height="43.1328" style="stroke: #A80036; stroke-width: 1.0;" width="10" x="399" y="304.3594"/><polygon fill="#A80036" points="73.5,65.4297,83.5,69.4297,73.5,73.4297,77.5,69.4297" style="stroke: #A80036; stroke-width: 1.0;"/><line style="stroke: #A80036; stroke-width: 1.0;" x1="3" x2="79.5" y1="69.4297" y2="69.4297"/><text fill="#000000" font-family="sans-serif" font-size="13" lengthAdjust="spacingAndGlyphs" text-decoration="underline" textLength="19" x="10" y="64.3638">init</text><line style="stroke: #000000; stroke-width: 1.0;" x1="10" x2="29" y1="66.3638" y2="66.3638"/><polygon fill="#FBFB77" filter="url(#f1k1wa9eiemc23)" points="110,82.4297,140,82.4297,150,93.4297,140,105.4297,110,105.4297,100,93.4297,110,82.4297" style="stroke: #A80036; stroke-width: 1.0;"/><text fill="#000000" font-family="sans-serif" font-size="13" lengthAdjust="spacingAndGlyphs" textLength="26" x="112" y="98.4966">field</text><line style="stroke: #A80036; stroke-width: 2.0;" x1="72.5" x2="82.5" y1="111.5625" y2="121.5625"/><line style="stroke: #A80036; stroke-width: 2.0;" x1="72.5" x2="82.5" y1="121.5625" y2="111.5625"/><line style="stroke: #A80036; stroke-width: 1.0; stroke-dasharray: 2.0,2.0;" x1="3" x2="77.5" y1="116.5625" y2="116.5625"/><ellipse cx="245.5" cy="144.9453" fill="none" rx="4" ry="4" style="stroke: #A80036; stroke-width: 1.5;"/><polygon fill="#A80036" points="387,141.6953,397,145.6953,387,149.6953,391,145.6953" style="stroke: #A80036; stroke-width: 1.0;"/><line style="stroke: #A80036; stroke-width: 1.0;" x1="250" x2="393" y1="145.6953" y2="145.6953"/><text fill="#000000" font-family="sans-serif" font-size="13" lengthAdjust="spacingAndGlyphs" text-decoration="underline" textLength="19" x="253" y="140.6294">init</text><line style="stroke: #000000; stroke-width: 1.0;" x1="253" x2="272" y1="142.6294" y2="142.6294"/><ellipse cx="245.5" cy="174.0781" fill="none" rx="4" ry="4" style="stroke: #A80036; stroke-width: 1.5;"/><polygon fill="#A80036" points="382,170.8281,392,174.8281,382,178.8281,386,174.8281" style="stroke: #A80036; stroke-width: 1.0;"/><line style="stroke: #A80036; stroke-width: 1.0;" x1="250" x2="388" y1="174.8281" y2="174.8281"/><text fill="#000000" font-family="sans-serif" font-size="13" lengthAdjust="spacingAndGlyphs" textLength="51" x="253" y="169.7622">execute</text><polygon fill="#A80036" points="101.5,199.9609,91.5,203.9609,101.5,207.9609,97.5,203.9609" style="stroke: #A80036; stroke-width: 1.0;"/><ellipse cx="393.5" cy="203.2109" fill="none" rx="4" ry="4" style="stroke: #A80036; stroke-width: 1.5;"/><line style="stroke: #A80036; stroke-width: 1.0;" x1="95.5" x2="389" y1="203.9609" y2="203.9609"/><text fill="#000000" font-family="sans-serif" font-size="13" lengthAdjust="spacingAndGlyphs" textLength="52" x="107.5" y="198.895">do_work</text><polygon fill="#A80036" points="106.5,229.0938,96.5,233.0938,106.5,237.0938,102.5,233.0938" style="stroke: #A80036; stroke-width: 1.0;"/><ellipse cx="393.5" cy="232.3438" fill="none" rx="4" ry="4" style="stroke: #A80036; stroke-width: 1.5;"/><line style="stroke: #A80036; stroke-width: 1.0;" x1="100.5" x2="389" y1="233.0938" y2="233.0938"/><text fill="#000000" font-family="sans-serif" font-size="13" lengthAdjust="spacingAndGlyphs" textLength="89" x="112.5" y="228.0278">execute_base</text><ellipse cx="95" cy="261.4766" fill="none" rx="4" ry="4" style="stroke: #A80036; stroke-width: 1.5;"/><line style="stroke: #A80036; stroke-width: 1.0;" x1="99.5" x2="137.5" y1="262.2266" y2="262.2266"/><line style="stroke: #A80036; stroke-width: 1.0;" x1="137.5" x2="137.5" y1="262.2266" y2="275.2266"/><line style="stroke: #A80036; stroke-width: 1.0;" x1="96.5" x2="137.5" y1="275.2266" y2="275.2266"/><polygon fill="#A80036" points="106.5,271.2266,96.5,275.2266,106.5,279.2266,102.5,275.2266" style="stroke: #A80036; stroke-width: 1.0;"/><text fill="#000000" font-family="sans-serif" font-size="13" lengthAdjust="spacingAndGlyphs" textLength="88" x="102.5" y="257.1606">_execute_priv</text><ellipse cx="95" cy="303.6094" fill="none" rx="4" ry="4" style="stroke: #A80036; stroke-width: 1.5;"/><polygon fill="#A80036" points="387,300.3594,397,304.3594,387,308.3594,391,304.3594" style="stroke: #A80036; stroke-width: 1.0;"/><line style="stroke: #A80036; stroke-width: 1.0;" x1="99.5" x2="393" y1="304.3594" y2="304.3594"/><text fill="#000000" font-family="sans-serif" font-size="13" lengthAdjust="spacingAndGlyphs" textLength="88" x="102.5" y="299.2935">_execute_priv</text><polygon fill="#A80036" points="106.5,329.4922,96.5,333.4922,106.5,337.4922,102.5,333.4922" style="stroke: #A80036; stroke-width: 1.0;"/><ellipse cx="398.5" cy="332.7422" fill="none" rx="4" ry="4" style="stroke: #A80036; stroke-width: 1.5;"/><line style="stroke: #A80036; stroke-width: 1.0;" x1="100.5" x2="394" y1="333.4922" y2="333.4922"/><text fill="#000000" font-family="sans-serif" font-size="13" lengthAdjust="spacingAndGlyphs" textLength="52" x="112.5" y="328.4263">do_work</text><polygon fill="#A80036" points="106.5,343.4922,96.5,347.4922,106.5,351.4922,102.5,347.4922" style="stroke: #A80036; stroke-width: 1.0;"/><line style="stroke: #A80036; stroke-width: 1.0; stroke-dasharray: 2.0,2.0;" x1="100.5" x2="393" y1="347.4922" y2="347.4922"/><polygon fill="#A80036" points="382,357.4922,392,361.4922,382,365.4922,386,361.4922" style="stroke: #A80036; stroke-width: 1.0;"/><line style="stroke: #A80036; stroke-width: 1.0; stroke-dasharray: 2.0,2.0;" x1="90.5" x2="388" y1="361.4922" y2="361.4922"/><polygon fill="#A80036" points="257,371.4922,247,375.4922,257,379.4922,253,375.4922" style="stroke: #A80036; stroke-width: 1.0;"/><line style="stroke: #A80036; stroke-width: 1.0; stroke-dasharray: 2.0,2.0;" x1="251" x2="398" y1="375.4922" y2="375.4922"/></g></svg>