<?xml version="1.0" encoding="UTF-8" standalone="no"?>
<!DOCTYPE svg PUBLIC "-//W3C//DTD SVG 1.1//EN"
 "http://www.w3.org/Graphics/SVG/1.1/DTD/svg11.dtd">
<!-- Generated by graphviz version 2.43.0 (0)
 -->
<!-- Title: G Pages: 1 -->
<svg width="425pt" height="408pt"
 viewBox="0.00 0.00 425.00 408.00" xmlns="http://www.w3.org/2000/svg" xmlns:xlink="http://www.w3.org/1999/xlink">
<g id="graph0" class="graph" transform="scale(1 1) rotate(0) translate(4 404)">
<title>G</title>
<polygon fill="white" stroke="transparent" points="-4,4 -4,-404 421,-404 421,4 -4,4"/>
<g id="clust1" class="cluster">
<title>cluster_G</title>
<path fill="#808080" fill-opacity="0.094118" stroke="black" d="M20,-8C20,-8 397,-8 397,-8 403,-8 409,-14 409,-20 409,-20 409,-380 409,-380 409,-386 403,-392 397,-392 397,-392 20,-392 20,-392 14,-392 8,-386 8,-380 8,-380 8,-20 8,-20 8,-14 14,-8 20,-8"/>
</g>
<g id="clust2" class="cluster">
<title>cluster_inherit__inherit03__Base</title>
<path fill="#808080" fill-opacity="0.094118" stroke="black" d="M28,-16C28,-16 389,-16 389,-16 395,-16 401,-22 401,-28 401,-28 401,-187 401,-187 401,-193 395,-199 389,-199 389,-199 28,-199 28,-199 22,-199 16,-193 16,-187 16,-187 16,-28 16,-28 16,-22 22,-16 28,-16"/>
<text text-anchor="middle" x="208.5" y="-183.8" font-family="Times,serif" font-size="14.00">inherit.inherit03.Base</text>
</g>
<g id="clust3" class="cluster">
<title>cluster_inherit__inherit03__Item</title>
<path fill="#808080" fill-opacity="0.094118" stroke="black" d="M28,-232C28,-232 386,-232 386,-232 392,-232 398,-238 398,-244 398,-244 398,-295 398,-295 398,-301 392,-307 386,-307 386,-307 28,-307 28,-307 22,-307 16,-301 16,-295 16,-295 16,-244 16,-244 16,-238 22,-232 28,-232"/>
<text text-anchor="middle" x="207" y="-291.8" font-family="Times,serif" font-size="14.00">inherit.inherit03.Item</text>
</g>
<!-- inherit__inherit03 -->
<g id="node1" class="node">
<title>inherit__inherit03</title>
<ellipse fill="#ffffff" fill-opacity="0.698039" stroke="black" cx="275" cy="-366" rx="87.99" ry="18"/>
<text text-anchor="middle" x="275" y="-362.3" font-family="Times,serif" font-size="14.00" fill="#000000">inherit.inherit03</text>
</g>
<!-- inherit__inherit03__Item____init__ -->
<g id="node7" class="node">
<title>inherit__inherit03__Item____init__</title>
<ellipse fill="#ff6565" fill-opacity="0.698039" stroke="black" cx="346" cy="-258" rx="44.39" ry="18"/>
<text text-anchor="middle" x="346" y="-254.3" font-family="Times,serif" font-size="14.00" fill="#000000">__init__</text>
</g>
<!-- inherit__inherit03&#45;&gt;inherit__inherit03__Item____init__ -->
<g id="edge7" class="edge">
<title>inherit__inherit03&#45;&gt;inherit__inherit03__Item____init__</title>
<path fill="none" stroke="#000000" d="M286.41,-347.97C297.97,-330.71 315.97,-303.83 329.17,-284.13"/>
<polygon fill="#000000" stroke="#000000" points="332.2,-285.9 334.86,-275.64 326.38,-282 332.2,-285.9"/>
</g>
<!-- inherit__inherit03__Item__execute -->
<g id="node9" class="node">
<title>inherit__inherit03__Item__execute</title>
<ellipse fill="#ff6565" fill-opacity="0.698039" stroke="black" cx="237" cy="-258" rx="46.59" ry="18"/>
<text text-anchor="middle" x="237" y="-254.3" font-family="Times,serif" font-size="14.00" fill="#000000">execute</text>
</g>
<!-- inherit__inherit03&#45;&gt;inherit__inherit03__Item__execute -->
<g id="edge8" class="edge">
<title>inherit__inherit03&#45;&gt;inherit__inherit03__Item__execute</title>
<path fill="none" stroke="#000000" d="M268.89,-347.97C262.86,-331.12 253.53,-305.1 246.52,-285.54"/>
<polygon fill="#000000" stroke="#000000" points="249.76,-284.22 243.09,-275.99 243.17,-286.58 249.76,-284.22"/>
</g>
<!-- inherit__inherit03__Base____init__ -->
<g id="node2" class="node">
<title>inherit__inherit03__Base____init__</title>
<ellipse fill="#ff6565" fill-opacity="0.698039" stroke="black" cx="349" cy="-150" rx="44.39" ry="18"/>
<text text-anchor="middle" x="349" y="-146.3" font-family="Times,serif" font-size="14.00" fill="#000000">__init__</text>
</g>
<!-- inherit__inherit03__Base__field -->
<g id="node6" class="node">
<title>inherit__inherit03__Base__field</title>
<ellipse fill="#ff6565" fill-opacity="0.698039" stroke="black" cx="349" cy="-42" rx="31.4" ry="18"/>
<text text-anchor="middle" x="349" y="-38.3" font-family="Times,serif" font-size="14.00" fill="#000000">field</text>
</g>
<!-- inherit__inherit03__Base____init__&#45;&gt;inherit__inherit03__Base__field -->
<g id="edge1" class="edge">
<title>inherit__inherit03__Base____init__&#45;&gt;inherit__inherit03__Base__field</title>
<path fill="none" stroke="#000000" d="M349,-131.97C349,-115.38 349,-89.88 349,-70.43"/>
<polygon fill="#000000" stroke="#000000" points="352.5,-70.34 349,-60.34 345.5,-70.34 352.5,-70.34"/>
</g>
<!-- inherit__inherit03__Base___execute_priv -->
<g id="node3" class="node">
<title>inherit__inherit03__Base___execute_priv</title>
<ellipse fill="#ff6565" fill-opacity="0.698039" stroke="black" cx="98" cy="-42" rx="74.19" ry="18"/>
<text text-anchor="middle" x="98" y="-38.3" font-family="Times,serif" font-size="14.00" fill="#000000">_execute_priv</text>
</g>
<!-- inherit__inherit03__Base__do_work -->
<g id="node4" class="node">
<title>inherit__inherit03__Base__do_work</title>
<ellipse fill="#ff6565" fill-opacity="0.698039" stroke="black" cx="237" cy="-150" rx="49.29" ry="18"/>
<text text-anchor="middle" x="237" y="-146.3" font-family="Times,serif" font-size="14.00" fill="#000000">do_work</text>
</g>
<!-- inherit__inherit03__Base__execute_base -->
<g id="node5" class="node">
<title>inherit__inherit03__Base__execute_base</title>
<ellipse fill="#ff6565" fill-opacity="0.698039" stroke="black" cx="97" cy="-150" rx="72.59" ry="18"/>
<text text-anchor="middle" x="97" y="-146.3" font-family="Times,serif" font-size="14.00" fill="#000000">execute_base</text>
</g>
<!-- inherit__inherit03__Base__execute_base&#45;&gt;inherit__inherit03__Base___execute_priv -->
<g id="edge2" class="edge">
<title>inherit__inherit03__Base__execute_base&#45;&gt;inherit__inherit03__Base___execute_priv</title>
<path fill="none" stroke="#000000" d="M97.16,-131.97C97.32,-115.38 97.56,-89.88 97.74,-70.43"/>
<polygon fill="#000000" stroke="#000000" points="101.24,-70.37 97.84,-60.34 94.24,-70.31 101.24,-70.37"/>
</g>
<!-- inherit__inherit03__Item___execute_priv -->
<g id="node8" class="node">
<title>inherit__inherit03__Item___execute_priv</title>
<ellipse fill="#ff6565" fill-opacity="0.698039" stroke="black" cx="98" cy="-258" rx="74.19" ry="18"/>
<text text-anchor="middle" x="98" y="-254.3" font-family="Times,serif" font-size="14.00" fill="#000000">_execute_priv</text>
</g>
<!-- inherit__inherit03__Base__execute_base&#45;&gt;inherit__inherit03__Item___execute_priv -->
<g id="edge3" class="edge">
<title>inherit__inherit03__Base__execute_base&#45;&gt;inherit__inherit03__Item___execute_priv</title>
<path fill="none" stroke="#000000" d="M97.16,-168.34C97.32,-185.04 97.56,-210.55 97.74,-229.93"/>
<polygon fill="#000000" stroke="#000000" points="94.25,-230 97.84,-239.97 101.24,-229.94 94.25,-230"/>
</g>
<!-- inherit__inherit03__Item___execute_priv&#45;&gt;inherit__inherit03__Base__do_work -->
<g id="edge6" class="edge">
<title>inherit__inherit03__Item___execute_priv&#45;&gt;inherit__inherit03__Base__do_work</title>
<path fill="none" stroke="#000000" d="M121.71,-240.68C138.03,-229.28 160.09,-213.57 179,-199 189.52,-190.9 200.82,-181.67 210.63,-173.49"/>
<polygon fill="#000000" stroke="#000000" points="213.06,-176.01 218.46,-166.9 208.55,-170.65 213.06,-176.01"/>
</g>
<!-- inherit__inherit03__Item__execute&#45;&gt;inherit__inherit03__Base__do_work -->
<g id="edge4" class="edge">
<title>inherit__inherit03__Item__execute&#45;&gt;inherit__inherit03__Base__do_work</title>
<path fill="none" stroke="#000000" d="M237,-239.97C237,-223.38 237,-197.88 237,-178.43"/>
<polygon fill="#000000" stroke="#000000" points="240.5,-178.34 237,-168.34 233.5,-178.34 240.5,-178.34"/>
</g>
<!-- inherit__inherit03__Item__execute&#45;&gt;inherit__inherit03__Base__execute_base -->
<g id="edge5" class="edge">
<title>inherit__inherit03__Item__execute&#45;&gt;inherit__inherit03__Base__execute_base</title>
<path fill="none" stroke="#000000" d="M216.64,-241.59C193,-223.69 153.79,-194 126.74,-173.52"/>
<polygon fill="#000000" stroke="#000000" points="128.85,-170.72 118.76,-167.48 124.62,-176.31 128.85,-170.72"/>
</g>
</g>
</svg>
