<?xml version="1.0" encoding="UTF-8" standalone="no"?>
<!DOCTYPE svg PUBLIC "-//W3C//DTD SVG 1.1//EN"
 "http://www.w3.org/Graphics/SVG/1.1/DTD/svg11.dtd">
<!-- Generated by graphviz version 2.43.0 (0)
 -->
<!-- Title: G Pages: 1 -->
<svg width="485pt" height="300pt"
 viewBox="0.00 0.00 485.00 300.00" xmlns="http://www.w3.org/2000/svg" xmlns:xlink="http://www.w3.org/1999/xlink">
<g id="graph0" class="graph" transform="scale(1 1) rotate(0) translate(4 296)">
<title>G</title>
<polygon fill="white" stroke="transparent" points="-4,4 -4,-296 481,-296 481,4 -4,4"/>
<g id="clust1" class="cluster">
<title>cluster_G</title>
<path fill="#808080" fill-opacity="0.094118" stroke="black" d="M20,-8C20,-8 457,-8 457,-8 463,-8 469,-14 469,-20 469,-20 469,-272 469,-272 469,-278 463,-284 457,-284 457,-284 20,-284 20,-284 14,-284 8,-278 8,-272 8,-272 8,-20 8,-20 8,-14 14,-8 20,-8"/>
</g>
<g id="clust2" class="cluster">
<title>cluster_inherit__override01__Base</title>
<path fill="#808080" fill-opacity="0.094118" stroke="black" d="M28,-16C28,-16 220,-16 220,-16 226,-16 232,-22 232,-28 232,-28 232,-187 232,-187 232,-193 226,-199 220,-199 220,-199 28,-199 28,-199 22,-199 16,-193 16,-187 16,-187 16,-28 16,-28 16,-22 22,-16 28,-16"/>
<text text-anchor="middle" x="124" y="-183.8" font-family="Times,serif" font-size="14.00">inherit.override01.Base</text>
</g>
<g id="clust3" class="cluster">
<title>cluster_inherit__override01__Item</title>
<path fill="#808080" fill-opacity="0.094118" stroke="black" d="M252,-124C252,-124 449,-124 449,-124 455,-124 461,-130 461,-136 461,-136 461,-187 461,-187 461,-193 455,-199 449,-199 449,-199 252,-199 252,-199 246,-199 240,-193 240,-187 240,-187 240,-136 240,-136 240,-130 246,-124 252,-124"/>
<text text-anchor="middle" x="350.5" y="-183.8" font-family="Times,serif" font-size="14.00">inherit.override01.Item</text>
</g>
<!-- inherit__override01 -->
<g id="node1" class="node">
<title>inherit__override01</title>
<ellipse fill="#ffffff" fill-opacity="0.698039" stroke="black" cx="238" cy="-258" rx="95.58" ry="18"/>
<text text-anchor="middle" x="238" y="-254.3" font-family="Times,serif" font-size="14.00" fill="#000000">inherit.override01</text>
</g>
<!-- inherit__override01__Base__execute -->
<g id="node4" class="node">
<title>inherit__override01__Base__execute</title>
<ellipse fill="#ff6565" fill-opacity="0.698039" stroke="black" cx="71" cy="-150" rx="46.59" ry="18"/>
<text text-anchor="middle" x="71" y="-146.3" font-family="Times,serif" font-size="14.00" fill="#000000">execute</text>
</g>
<!-- inherit__override01&#45;&gt;inherit__override01__Base__execute -->
<g id="edge5" class="edge">
<title>inherit__override01&#45;&gt;inherit__override01__Base__execute</title>
<path fill="none" stroke="#000000" d="M202.84,-241.17C180.41,-230.46 151.13,-215.33 127,-199 116.06,-191.6 104.85,-182.37 95.36,-173.99"/>
<polygon fill="#000000" stroke="#000000" points="97.61,-171.3 87.84,-167.21 92.92,-176.5 97.61,-171.3"/>
</g>
<!-- inherit__override01__Item____init__ -->
<g id="node5" class="node">
<title>inherit__override01__Item____init__</title>
<ellipse fill="#ff6565" fill-opacity="0.698039" stroke="black" cx="409" cy="-150" rx="44.39" ry="18"/>
<text text-anchor="middle" x="409" y="-146.3" font-family="Times,serif" font-size="14.00" fill="#000000">__init__</text>
</g>
<!-- inherit__override01&#45;&gt;inherit__override01__Item____init__ -->
<g id="edge4" class="edge">
<title>inherit__override01&#45;&gt;inherit__override01__Item____init__</title>
<path fill="none" stroke="#000000" d="M275.76,-241.38C299.4,-230.86 330,-215.86 355,-199 365.89,-191.66 376.9,-182.29 386.11,-173.79"/>
<polygon fill="#000000" stroke="#000000" points="388.53,-176.32 393.39,-166.91 383.72,-171.24 388.53,-176.32"/>
</g>
<!-- inherit__override01__Base____init__ -->
<g id="node2" class="node">
<title>inherit__override01__Base____init__</title>
<ellipse fill="#ff6565" fill-opacity="0.698039" stroke="black" cx="180" cy="-150" rx="44.39" ry="18"/>
<text text-anchor="middle" x="180" y="-146.3" font-family="Times,serif" font-size="14.00" fill="#000000">__init__</text>
</g>
<!-- inherit__override01__Base__do_work -->
<g id="node3" class="node">
<title>inherit__override01__Base__do_work</title>
<ellipse fill="#ff6565" fill-opacity="0.698039" stroke="black" cx="73" cy="-42" rx="49.29" ry="18"/>
<text text-anchor="middle" x="73" y="-38.3" font-family="Times,serif" font-size="14.00" fill="#000000">do_work</text>
</g>
<!-- inherit__override01__Base__execute&#45;&gt;inherit__override01__Base__do_work -->
<g id="edge1" class="edge">
<title>inherit__override01__Base__execute&#45;&gt;inherit__override01__Base__do_work</title>
<path fill="none" stroke="#000000" d="M71.32,-131.97C71.63,-115.38 72.12,-89.88 72.48,-70.43"/>
<polygon fill="#000000" stroke="#000000" points="75.98,-70.4 72.67,-60.34 68.98,-70.27 75.98,-70.4"/>
</g>
<!-- inherit__override01__Item__do_work -->
<g id="node6" class="node">
<title>inherit__override01__Item__do_work</title>
<ellipse fill="#ff6565" fill-opacity="0.698039" stroke="black" cx="297" cy="-150" rx="49.29" ry="18"/>
<text text-anchor="middle" x="297" y="-146.3" font-family="Times,serif" font-size="14.00" fill="#000000">do_work</text>
</g>
<!-- inherit__override01__Base__execute&#45;&gt;inherit__override01__Item__do_work -->
<g id="edge2" class="edge">
<title>inherit__override01__Base__execute&#45;&gt;inherit__override01__Item__do_work</title>
<path fill="none" stroke="#000000" d="M81.55,-167.87C92.66,-184.77 111.9,-209.04 136,-219.5 173.1,-235.6 189.61,-234.91 227,-219.5 248.38,-210.69 266.67,-191.85 279.19,-176"/>
<polygon fill="#000000" stroke="#000000" points="282.31,-177.68 285.54,-167.59 276.72,-173.46 282.31,-177.68"/>
</g>
<!-- inherit__override01__Item____init__&#45;&gt;inherit__override01__Base____init__ -->
<g id="edge3" class="edge">
<title>inherit__override01__Item____init__&#45;&gt;inherit__override01__Base____init__</title>
<path fill="none" stroke="#000000" d="M398.92,-167.85C388.24,-184.74 369.67,-209.01 346,-219.5 304.96,-237.69 286.18,-237.37 245,-219.5 224.54,-210.62 207.58,-191.78 196.12,-175.95"/>
<polygon fill="#000000" stroke="#000000" points="198.89,-173.8 190.34,-167.55 193.13,-177.77 198.89,-173.8"/>
</g>
</g>
</svg>
