<?xml version="1.0" encoding="UTF-8" standalone="no"?><svg xmlns="http://www.w3.org/2000/svg" xmlns:xlink="http://www.w3.org/1999/xlink" contentScriptType="application/ecmascript" contentStyleType="text/css" height="285px" preserveAspectRatio="none" style="width:525px;height:285px;background:#FEFEFE;" version="1.1" viewBox="0 0 525 285" width="525px" zoomAndPan="magnify"><defs><filter height="300%" id="f1bpmigp6l0fwi" width="300%" x="-1" y="-1"><feGaussianBlur result="blurOut" stdDeviation="2.0"/><feColorMatrix in="blurOut" result="blurOut2" type="matrix" values="0 0 0 0 0 0 0 0 0 0 0 0 0 0 0 0 0 0 .4 0"/><feOffset dx="4.0" dy="4.0" in="blurOut2" result="blurOut3"/><feBlend in="SourceGraphic" in2="blurOut3" mode="normal"/></filter></defs><g><rect fill="#FFFFFF" filter="url(#f1bpmigp6l0fwi)" height="43.1328" style="stroke: #A80036; stroke-width: 1.0;" width="10" x="238.5" y="69.4297"/><rect fill="#FFFFFF" filter="url(#f1bpmigp6l0fwi)" height="85.2656" style="stroke: #A80036; stroke-width: 1.0;" width="10" x="424" y="141.6953"/><line style="stroke: #A80036; stroke-width: 1.0; stroke-dasharray: 5.0,5.0;" x1="77" x2="77" y1="38.2969" y2="244.9609"/><line style="stroke: #A80036; stroke-width: 1.0; stroke-dasharray: 5.0,5.0;" x1="243" x2="243" y1="38.2969" y2="244.9609"/><line style="stroke: #A80036; stroke-width: 1.0; stroke-dasharray: 5.0,5.0;" x1="429" x2="429" y1="38.2969" y2="244.9609"/><rect fill="#FEFECE" filter="url(#f1bpmigp6l0fwi)" height="30.2969" style="stroke: #A80036; stroke-width: 1.5;" width="135" x="8" y="3"/><text fill="#000000" font-family="sans-serif" font-size="14" lengthAdjust="spacingAndGlyphs" textLength="121" x="15" y="22.9951">inherit.override01</text><rect fill="#FEFECE" filter="url(#f1bpmigp6l0fwi)" height="30.2969" style="stroke: #A80036; stroke-width: 1.5;" width="135" x="8" y="243.9609"/><text fill="#000000" font-family="sans-serif" font-size="14" lengthAdjust="spacingAndGlyphs" textLength="121" x="15" y="263.9561">inherit.override01</text><rect fill="#FEFECE" filter="url(#f1bpmigp6l0fwi)" height="30.2969" style="stroke: #A80036; stroke-width: 1.5;" width="169" x="157" y="3"/><text fill="#000000" font-family="sans-serif" font-size="14" lengthAdjust="spacingAndGlyphs" textLength="155" x="164" y="22.9951">inherit.override01.Item</text><rect fill="#FEFECE" filter="url(#f1bpmigp6l0fwi)" height="30.2969" style="stroke: #A80036; stroke-width: 1.5;" width="169" x="157" y="243.9609"/><text fill="#000000" font-family="sans-serif" font-size="14" lengthAdjust="spacingAndGlyphs" textLength="155" x="164" y="263.9561">inherit.override01.Item</text><rect fill="#FEFECE" filter="url(#f1bpmigp6l0fwi)" height="30.2969" style="stroke: #A80036; stroke-width: 1.5;" width="174" x="340" y="3"/><text fill="#000000" font-family="sans-serif" font-size="14" lengthAdjust="spacingAndGlyphs" textLength="160" x="347" y="22.9951">inherit.override01.Base</text><rect fill="#FEFECE" filter="url(#f1bpmigp6l0fwi)" height="30.2969" style="stroke: #A80036; stroke-width: 1.5;" width="174" x="340" y="243.9609"/><text fill="#000000" font-family="sans-serif" font-size="14" lengthAdjust="spacingAndGlyphs" textLength="160" x="347" y="263.9561">inherit.override01.Base</text><rect fill="#FFFFFF" filter="url(#f1bpmigp6l0fwi)" height="43.1328" style="stroke: #A80036; stroke-width: 1.0;" width="10" x="238.5" y="69.4297"/><rect fill="#FFFFFF" filter="url(#f1bpmigp6l0fwi)" height="85.2656" style="stroke: #A80036; stroke-width: 1.0;" width="10" x="424" y="141.6953"/><ellipse cx="77" cy="68.6797" fill="none" rx="4" ry="4" style="stroke: #A80036; stroke-width: 1.5;"/><polygon fill="#A80036" points="226.5,65.4297,236.5,69.4297,226.5,73.4297,230.5,69.4297" style="stroke: #A80036; stroke-width: 1.0;"/><line style="stroke: #A80036; stroke-width: 1.0;" x1="81.5" x2="232.5" y1="69.4297" y2="69.4297"/><text fill="#000000" font-family="sans-serif" font-size="13" lengthAdjust="spacingAndGlyphs" text-decoration="underline" textLength="19" x="84.5" y="64.3638">init</text><line style="stroke: #000000; stroke-width: 1.0;" x1="84.5" x2="103.5" y1="66.3638" y2="66.3638"/><ellipse cx="248" cy="97.8125" fill="none" rx="4" ry="4" style="stroke: #A80036; stroke-width: 1.5;"/><polygon fill="#A80036" points="417,94.5625,427,98.5625,417,102.5625,421,98.5625" style="stroke: #A80036; stroke-width: 1.0;"/><line style="stroke: #A80036; stroke-width: 1.0;" x1="252.5" x2="423" y1="98.5625" y2="98.5625"/><text fill="#000000" font-family="sans-serif" font-size="13" lengthAdjust="spacingAndGlyphs" text-decoration="underline" textLength="19" x="255.5" y="93.4966">init</text><line style="stroke: #000000; stroke-width: 1.0;" x1="255.5" x2="274.5" y1="95.4966" y2="95.4966"/><polygon fill="#A80036" points="88.5,108.5625,78.5,112.5625,88.5,116.5625,84.5,112.5625" style="stroke: #A80036; stroke-width: 1.0;"/><line style="stroke: #A80036; stroke-width: 1.0; stroke-dasharray: 2.0,2.0;" x1="82.5" x2="242.5" y1="112.5625" y2="112.5625"/><ellipse cx="77" cy="140.9453" fill="none" rx="4" ry="4" style="stroke: #A80036; stroke-width: 1.5;"/><polygon fill="#A80036" points="412,137.6953,422,141.6953,412,145.6953,416,141.6953" style="stroke: #A80036; stroke-width: 1.0;"/><line style="stroke: #A80036; stroke-width: 1.0;" x1="81.5" x2="418" y1="141.6953" y2="141.6953"/><text fill="#000000" font-family="sans-serif" font-size="13" lengthAdjust="spacingAndGlyphs" textLength="51" x="84.5" y="136.6294">execute</text><ellipse cx="433.5" cy="170.0781" fill="none" rx="4" ry="4" style="stroke: #A80036; stroke-width: 1.5;"/><line style="stroke: #A80036; stroke-width: 1.0;" x1="438" x2="476" y1="170.8281" y2="170.8281"/><line style="stroke: #A80036; stroke-width: 1.0;" x1="476" x2="476" y1="170.8281" y2="183.8281"/><line style="stroke: #A80036; stroke-width: 1.0;" x1="435" x2="476" y1="183.8281" y2="183.8281"/><polygon fill="#A80036" points="445,179.8281,435,183.8281,445,187.8281,441,183.8281" style="stroke: #A80036; stroke-width: 1.0;"/><text fill="#000000" font-family="sans-serif" font-size="13" lengthAdjust="spacingAndGlyphs" textLength="52" x="441" y="165.7622">do_work</text><polygon fill="#A80036" points="254.5,208.9609,244.5,212.9609,254.5,216.9609,250.5,212.9609" style="stroke: #A80036; stroke-width: 1.0;"/><ellipse cx="423.5" cy="212.2109" fill="none" rx="4" ry="4" style="stroke: #A80036; stroke-width: 1.5;"/><line style="stroke: #A80036; stroke-width: 1.0;" x1="248.5" x2="419" y1="212.9609" y2="212.9609"/><text fill="#000000" font-family="sans-serif" font-size="13" lengthAdjust="spacingAndGlyphs" textLength="52" x="260.5" y="207.895">do_work</text><polygon fill="#A80036" points="88.5,222.9609,78.5,226.9609,88.5,230.9609,84.5,226.9609" style="stroke: #A80036; stroke-width: 1.0;"/><line style="stroke: #A80036; stroke-width: 1.0; stroke-dasharray: 2.0,2.0;" x1="82.5" x2="428" y1="226.9609" y2="226.9609"/></g></svg>