<?xml version="1.0" encoding="UTF-8" standalone="no"?>
<!DOCTYPE svg PUBLIC "-//W3C//DTD SVG 1.1//EN"
 "http://www.w3.org/Graphics/SVG/1.1/DTD/svg11.dtd">
<!-- Generated by graphviz version 2.43.0 (0)
 -->
<!-- Title: G Pages: 1 -->
<svg width="1887pt" height="478pt"
 viewBox="0.00 0.00 1887.00 478.00" xmlns="http://www.w3.org/2000/svg" xmlns:xlink="http://www.w3.org/1999/xlink">
<g id="graph0" class="graph" transform="scale(1 1) rotate(0) translate(4 474)">
<title>G</title>
<polygon fill="white" stroke="transparent" points="-4,4 -4,-474 1883,-474 1883,4 -4,4"/>
<g id="clust1" class="cluster">
<title>cluster_G</title>
<path fill="#808080" fill-opacity="0.094118" stroke="black" d="M20,-8C20,-8 1859,-8 1859,-8 1865,-8 1871,-14 1871,-20 1871,-20 1871,-450 1871,-450 1871,-456 1865,-462 1859,-462 1859,-462 20,-462 20,-462 14,-462 8,-456 8,-450 8,-450 8,-20 8,-20 8,-14 14,-8 20,-8"/>
</g>
<g id="clust2" class="cluster">
<title>cluster_astgraphX__treeparser</title>
<path fill="#808080" fill-opacity="0.094118" stroke="black" d="M28,-16C28,-16 1851,-16 1851,-16 1857,-16 1863,-22 1863,-28 1863,-28 1863,-442 1863,-442 1863,-448 1857,-454 1851,-454 1851,-454 28,-454 28,-454 22,-454 16,-448 16,-442 16,-442 16,-28 16,-28 16,-22 22,-16 28,-16"/>
<text text-anchor="middle" x="939.5" y="-438.8" font-family="Times,serif" font-size="14.00">astgraph.treeparser</text>
</g>
<g id="clust3" class="cluster">
<title>cluster_astgraphX__treeparser__DefParser</title>
<path fill="#808080" fill-opacity="0.094118" stroke="black" d="M1194,-132C1194,-132 1405,-132 1405,-132 1411,-132 1417,-138 1417,-144 1417,-144 1417,-195 1417,-195 1417,-201 1411,-207 1405,-207 1405,-207 1194,-207 1194,-207 1188,-207 1182,-201 1182,-195 1182,-195 1182,-144 1182,-144 1182,-138 1188,-132 1194,-132"/>
<text text-anchor="middle" x="1299.5" y="-191.8" font-family="Times,serif" font-size="14.00">astgraph.treeparser.DefParser</text>
</g>
<g id="clust4" class="cluster">
<title>cluster_astgraphX__treeparser__ItemContainer</title>
<path fill="#808080" fill-opacity="0.094118" stroke="black" d="M416,-24C416,-24 1162,-24 1162,-24 1168,-24 1174,-30 1174,-36 1174,-36 1174,-195 1174,-195 1174,-201 1168,-207 1162,-207 1162,-207 416,-207 416,-207 410,-207 404,-201 404,-195 404,-195 404,-36 404,-36 404,-30 410,-24 416,-24"/>
<text text-anchor="middle" x="789" y="-191.8" font-family="Times,serif" font-size="14.00">astgraph.treeparser.ItemContainer</text>
</g>
<g id="clust5" class="cluster">
<title>cluster_astgraphX__treeparser__TreeParser</title>
<path fill="#808080" fill-opacity="0.094118" stroke="black" d="M36,-132C36,-132 384,-132 384,-132 390,-132 396,-138 396,-144 396,-144 396,-411 396,-411 396,-417 390,-423 384,-423 384,-423 36,-423 36,-423 30,-423 24,-417 24,-411 24,-411 24,-144 24,-144 24,-138 30,-132 36,-132"/>
<text text-anchor="middle" x="210" y="-407.8" font-family="Times,serif" font-size="14.00">astgraph.treeparser.TreeParser</text>
</g>
<g id="clust6" class="cluster">
<title>cluster_astgraphX__treeparser__UseParser</title>
<path fill="#808080" fill-opacity="0.094118" stroke="black" d="M1437,-132C1437,-132 1651,-132 1651,-132 1657,-132 1663,-138 1663,-144 1663,-144 1663,-195 1663,-195 1663,-201 1657,-207 1651,-207 1651,-207 1437,-207 1437,-207 1431,-207 1425,-201 1425,-195 1425,-195 1425,-144 1425,-144 1425,-138 1431,-132 1437,-132"/>
<text text-anchor="middle" x="1544" y="-191.8" font-family="Times,serif" font-size="14.00">astgraph.treeparser.UseParser</text>
</g>
<!-- astgraphX__treeparser__get_package_root -->
<g id="node1" class="node">
<title>astgraphX__treeparser__get_package_root</title>
<ellipse fill="#ff9999" fill-opacity="0.698039" stroke="black" cx="1763" cy="-158" rx="91.78" ry="18"/>
<text text-anchor="middle" x="1763" y="-154.3" font-family="Times,serif" font-size="14.00" fill="#000000">get_package_root</text>
</g>
<!-- astgraphX__treeparser__DefParser____init__ -->
<g id="node2" class="node">
<title>astgraphX__treeparser__DefParser____init__</title>
<ellipse fill="#ff6565" fill-opacity="0.698039" stroke="black" cx="1234" cy="-158" rx="44.39" ry="18"/>
<text text-anchor="middle" x="1234" y="-154.3" font-family="Times,serif" font-size="14.00" fill="#000000">__init__</text>
</g>
<!-- astgraphX__treeparser__ItemContainer____init__ -->
<g id="node3" class="node">
<title>astgraphX__treeparser__ItemContainer____init__</title>
<ellipse fill="#ff6565" fill-opacity="0.698039" stroke="black" cx="591" cy="-158" rx="44.39" ry="18"/>
<text text-anchor="middle" x="591" y="-154.3" font-family="Times,serif" font-size="14.00" fill="#000000">__init__</text>
</g>
<!-- astgraphX__treeparser__ItemContainer__astroid_item_dict -->
<g id="node5" class="node">
<title>astgraphX__treeparser__ItemContainer__astroid_item_dict</title>
<ellipse fill="#ff6565" fill-opacity="0.698039" stroke="black" cx="749" cy="-50" rx="90.98" ry="18"/>
<text text-anchor="middle" x="749" y="-46.3" font-family="Times,serif" font-size="14.00" fill="#000000">astroid_item_dict</text>
</g>
<!-- astgraphX__treeparser__ItemContainer____init__&#45;&gt;astgraphX__treeparser__ItemContainer__astroid_item_dict -->
<g id="edge4" class="edge">
<title>astgraphX__treeparser__ItemContainer____init__&#45;&gt;astgraphX__treeparser__ItemContainer__astroid_item_dict</title>
<path fill="none" stroke="#000000" d="M612.97,-142.26C639.79,-124.27 685.38,-93.68 716.32,-72.93"/>
<polygon fill="#000000" stroke="#000000" points="718.27,-75.83 724.63,-67.35 714.37,-70.02 718.27,-75.83"/>
</g>
<!-- astgraphX__treeparser__ItemContainer__astroid_nodeX_dict -->
<g id="node6" class="node">
<title>astgraphX__treeparser__ItemContainer__astroid_nodeX_dict</title>
<ellipse fill="#ff6565" fill-opacity="0.698039" stroke="black" cx="950" cy="-50" rx="92.08" ry="18"/>
<text text-anchor="middle" x="950" y="-46.3" font-family="Times,serif" font-size="14.00" fill="#000000">astroid_node_dict</text>
</g>
<!-- astgraphX__treeparser__ItemContainer____init__&#45;&gt;astgraphX__treeparser__ItemContainer__astroid_nodeX_dict -->
<g id="edge5" class="edge">
<title>astgraphX__treeparser__ItemContainer____init__&#45;&gt;astgraphX__treeparser__ItemContainer__astroid_nodeX_dict</title>
<path fill="none" stroke="#000000" d="M617.29,-143.44C625.69,-139.43 635.11,-135.24 644,-132 723.02,-103.18 816.94,-79.86 879.69,-65.78"/>
<polygon fill="#000000" stroke="#000000" points="880.49,-69.18 889.49,-63.6 878.97,-62.35 880.49,-69.18"/>
</g>
<!-- astgraphX__treeparser__ItemContainer__def_items -->
<g id="node7" class="node">
<title>astgraphX__treeparser__ItemContainer__def_items</title>
<ellipse fill="#ff6565" fill-opacity="0.698039" stroke="black" cx="468" cy="-50" rx="55.79" ry="18"/>
<text text-anchor="middle" x="468" y="-46.3" font-family="Times,serif" font-size="14.00" fill="#000000">def_items</text>
</g>
<!-- astgraphX__treeparser__ItemContainer____init__&#45;&gt;astgraphX__treeparser__ItemContainer__def_items -->
<g id="edge2" class="edge">
<title>astgraphX__treeparser__ItemContainer____init__&#45;&gt;astgraphX__treeparser__ItemContainer__def_items</title>
<path fill="none" stroke="#000000" d="M572.85,-141.36C552.08,-123.46 517.88,-93.98 494.21,-73.59"/>
<polygon fill="#000000" stroke="#000000" points="496.49,-70.93 486.63,-67.05 491.92,-76.23 496.49,-70.93"/>
</g>
<!-- astgraphX__treeparser__ItemContainer__mod_dict -->
<g id="node8" class="node">
<title>astgraphX__treeparser__ItemContainer__mod_dict</title>
<ellipse fill="#ff6565" fill-opacity="0.698039" stroke="black" cx="1113" cy="-50" rx="52.79" ry="18"/>
<text text-anchor="middle" x="1113" y="-46.3" font-family="Times,serif" font-size="14.00" fill="#000000">mod_dict</text>
</g>
<!-- astgraphX__treeparser__ItemContainer____init__&#45;&gt;astgraphX__treeparser__ItemContainer__mod_dict -->
<g id="edge1" class="edge">
<title>astgraphX__treeparser__ItemContainer____init__&#45;&gt;astgraphX__treeparser__ItemContainer__mod_dict</title>
<path fill="none" stroke="#000000" d="M616.56,-143.14C625.08,-139.02 634.76,-134.84 644,-132 819.02,-78.17 871.98,-106.49 1051,-68 1055.42,-67.05 1059.98,-65.98 1064.55,-64.84"/>
<polygon fill="#000000" stroke="#000000" points="1065.66,-68.17 1074.47,-62.28 1063.91,-61.39 1065.66,-68.17"/>
</g>
<!-- astgraphX__treeparser__ItemContainer__use_dict -->
<g id="node9" class="node">
<title>astgraphX__treeparser__ItemContainer__use_dict</title>
<ellipse fill="#ff6565" fill-opacity="0.698039" stroke="black" cx="591" cy="-50" rx="48.99" ry="18"/>
<text text-anchor="middle" x="591" y="-46.3" font-family="Times,serif" font-size="14.00" fill="#000000">use_dict</text>
</g>
<!-- astgraphX__treeparser__ItemContainer____init__&#45;&gt;astgraphX__treeparser__ItemContainer__use_dict -->
<g id="edge3" class="edge">
<title>astgraphX__treeparser__ItemContainer____init__&#45;&gt;astgraphX__treeparser__ItemContainer__use_dict</title>
<path fill="none" stroke="#000000" d="M591,-139.97C591,-123.38 591,-97.88 591,-78.43"/>
<polygon fill="#000000" stroke="#000000" points="594.5,-78.34 591,-68.34 587.5,-78.34 594.5,-78.34"/>
</g>
<!-- astgraphX__treeparser__ItemContainer__add_mod -->
<g id="node4" class="node">
<title>astgraphX__treeparser__ItemContainer__add_mod</title>
<ellipse fill="#ff6565" fill-opacity="0.698039" stroke="black" cx="705" cy="-158" rx="51.99" ry="18"/>
<text text-anchor="middle" x="705" y="-154.3" font-family="Times,serif" font-size="14.00" fill="#000000">add_mod</text>
</g>
<!-- astgraphX__treeparser__ItemContainer__add_mod&#45;&gt;astgraphX__treeparser__ItemContainer__mod_dict -->
<g id="edge6" class="edge">
<title>astgraphX__treeparser__ItemContainer__add_mod&#45;&gt;astgraphX__treeparser__ItemContainer__mod_dict</title>
<path fill="none" stroke="#000000" d="M745.8,-146.73C810.57,-130.37 940.85,-97.27 1051,-68 1055.07,-66.92 1059.28,-65.79 1063.5,-64.65"/>
<polygon fill="#000000" stroke="#000000" points="1064.6,-67.98 1073.34,-61.98 1062.77,-61.22 1064.6,-67.98"/>
</g>
<!-- astgraphX__treeparser__TreeParser____init__ -->
<g id="node10" class="node">
<title>astgraphX__treeparser__TreeParser____init__</title>
<ellipse fill="#ff6565" fill-opacity="0.698039" stroke="black" cx="76" cy="-266" rx="44.39" ry="18"/>
<text text-anchor="middle" x="76" y="-262.3" font-family="Times,serif" font-size="14.00" fill="#000000">__init__</text>
</g>
<!-- astgraphX__treeparser__TreeParser____init__&#45;&gt;astgraphX__treeparser__ItemContainer____init__ -->
<g id="edge8" class="edge">
<title>astgraphX__treeparser__TreeParser____init__&#45;&gt;astgraphX__treeparser__ItemContainer____init__</title>
<path fill="none" stroke="#000000" d="M108.57,-253.65C115.27,-251.57 122.32,-249.57 129,-248 247.6,-220.2 280.57,-230.98 400,-207 450.31,-196.9 507.28,-182.14 545.81,-171.66"/>
<polygon fill="#000000" stroke="#000000" points="546.96,-174.98 555.68,-168.96 545.11,-168.22 546.96,-174.98"/>
</g>
<!-- astgraphX__treeparser__TreeParser__items -->
<g id="node14" class="node">
<title>astgraphX__treeparser__TreeParser__items</title>
<ellipse fill="#ff6565" fill-opacity="0.698039" stroke="black" cx="184" cy="-158" rx="36.29" ry="18"/>
<text text-anchor="middle" x="184" y="-154.3" font-family="Times,serif" font-size="14.00" fill="#000000">items</text>
</g>
<!-- astgraphX__treeparser__TreeParser____init__&#45;&gt;astgraphX__treeparser__TreeParser__items -->
<g id="edge7" class="edge">
<title>astgraphX__treeparser__TreeParser____init__&#45;&gt;astgraphX__treeparser__TreeParser__items</title>
<path fill="none" stroke="#000000" d="M92.4,-248.9C110.69,-230.95 140.4,-201.79 161.01,-181.57"/>
<polygon fill="#000000" stroke="#000000" points="163.46,-184.06 168.15,-174.56 158.56,-179.07 163.46,-184.06"/>
</g>
<!-- astgraphX__treeparser__TreeParser__analyze -->
<g id="node11" class="node">
<title>astgraphX__treeparser__TreeParser__analyze</title>
<ellipse fill="#ff6565" fill-opacity="0.698039" stroke="black" cx="184" cy="-266" rx="46.29" ry="18"/>
<text text-anchor="middle" x="184" y="-262.3" font-family="Times,serif" font-size="14.00" fill="#000000">analyze</text>
</g>
<!-- astgraphX__treeparser__TreeParser__analyze&#45;&gt;astgraphX__treeparser__DefParser____init__ -->
<g id="edge11" class="edge">
<title>astgraphX__treeparser__TreeParser__analyze&#45;&gt;astgraphX__treeparser__DefParser____init__</title>
<path fill="none" stroke="#000000" d="M217.11,-253.27C224.25,-251.16 231.81,-249.25 239,-248 444.79,-212.31 983.74,-283.72 1178,-207 1191.16,-201.8 1203.39,-192.15 1213.04,-182.86"/>
<polygon fill="#000000" stroke="#000000" points="1215.68,-185.16 1220.2,-175.58 1210.69,-180.26 1215.68,-185.16"/>
</g>
<!-- astgraphX__treeparser__TreeParser__analyze&#45;&gt;astgraphX__treeparser__ItemContainer__add_mod -->
<g id="edge10" class="edge">
<title>astgraphX__treeparser__TreeParser__analyze&#45;&gt;astgraphX__treeparser__ItemContainer__add_mod</title>
<path fill="none" stroke="#000000" d="M217.47,-253.5C224.51,-251.4 231.95,-249.43 239,-248 416.3,-212 476.24,-274.74 644,-207 657.94,-201.37 671.32,-191.53 681.97,-182.22"/>
<polygon fill="#000000" stroke="#000000" points="684.54,-184.62 689.55,-175.28 679.81,-179.45 684.54,-184.62"/>
</g>
<!-- astgraphX__treeparser__TreeParser__analyze&#45;&gt;astgraphX__treeparser__TreeParser__items -->
<g id="edge9" class="edge">
<title>astgraphX__treeparser__TreeParser__analyze&#45;&gt;astgraphX__treeparser__TreeParser__items</title>
<path fill="none" stroke="#000000" d="M184,-247.97C184,-231.38 184,-205.88 184,-186.43"/>
<polygon fill="#000000" stroke="#000000" points="187.5,-186.34 184,-176.34 180.5,-186.34 187.5,-186.34"/>
</g>
<!-- astgraphX__treeparser__UseParser____init__ -->
<g id="node15" class="node">
<title>astgraphX__treeparser__UseParser____init__</title>
<ellipse fill="#ff6565" fill-opacity="0.698039" stroke="black" cx="1477" cy="-158" rx="44.39" ry="18"/>
<text text-anchor="middle" x="1477" y="-154.3" font-family="Times,serif" font-size="14.00" fill="#000000">__init__</text>
</g>
<!-- astgraphX__treeparser__TreeParser__analyze&#45;&gt;astgraphX__treeparser__UseParser____init__ -->
<g id="edge12" class="edge">
<title>astgraphX__treeparser__TreeParser__analyze&#45;&gt;astgraphX__treeparser__UseParser____init__</title>
<path fill="none" stroke="#000000" d="M216.81,-253.31C224.04,-251.17 231.71,-249.23 239,-248 368.58,-226.13 1298.56,-254.72 1421,-207 1434.18,-201.86 1446.41,-192.22 1456.06,-182.92"/>
<polygon fill="#000000" stroke="#000000" points="1458.71,-185.22 1463.21,-175.62 1453.71,-180.31 1458.71,-185.22"/>
</g>
<!-- astgraphX__treeparser__TreeParser__analyze_code -->
<g id="node12" class="node">
<title>astgraphX__treeparser__TreeParser__analyze_code</title>
<ellipse fill="#ff6565" fill-opacity="0.698039" stroke="black" cx="184" cy="-374" rx="71.49" ry="18"/>
<text text-anchor="middle" x="184" y="-370.3" font-family="Times,serif" font-size="14.00" fill="#000000">analyze_code</text>
</g>
<!-- astgraphX__treeparser__TreeParser__analyze_code&#45;&gt;astgraphX__treeparser__TreeParser__analyze -->
<g id="edge13" class="edge">
<title>astgraphX__treeparser__TreeParser__analyze_code&#45;&gt;astgraphX__treeparser__TreeParser__analyze</title>
<path fill="none" stroke="#000000" d="M184,-355.97C184,-339.38 184,-313.88 184,-294.43"/>
<polygon fill="#000000" stroke="#000000" points="187.5,-294.34 184,-284.34 180.5,-294.34 187.5,-294.34"/>
</g>
<!-- astgraphX__treeparser__TreeParser__analyze_files -->
<g id="node13" class="node">
<title>astgraphX__treeparser__TreeParser__analyze_files</title>
<ellipse fill="#ff6565" fill-opacity="0.698039" stroke="black" cx="318" cy="-266" rx="69.59" ry="18"/>
<text text-anchor="middle" x="318" y="-262.3" font-family="Times,serif" font-size="14.00" fill="#000000">analyze_files</text>
</g>
<!-- astgraphX__treeparser__TreeParser__analyze_files&#45;&gt;astgraphX__treeparser__get_package_root -->
<g id="edge14" class="edge">
<title>astgraphX__treeparser__TreeParser__analyze_files&#45;&gt;astgraphX__treeparser__get_package_root</title>
<path fill="none" stroke="#000000" d="M387.05,-263.72C644.88,-258.72 1542.82,-239.15 1667,-207 1688.66,-201.39 1711.12,-190.49 1728.87,-180.48"/>
<polygon fill="#000000" stroke="#000000" points="1730.79,-183.41 1737.69,-175.37 1727.28,-177.36 1730.79,-183.41"/>
</g>
<!-- astgraphX__treeparser__TreeParser__analyze_files&#45;&gt;astgraphX__treeparser__DefParser____init__ -->
<g id="edge17" class="edge">
<title>astgraphX__treeparser__TreeParser__analyze_files&#45;&gt;astgraphX__treeparser__DefParser____init__</title>
<path fill="none" stroke="#000000" d="M386.66,-262.86C577.59,-256.54 1105.58,-236.6 1178,-207 1191.09,-201.65 1203.32,-191.98 1212.98,-182.71"/>
<polygon fill="#000000" stroke="#000000" points="1215.61,-185.03 1220.15,-175.46 1210.63,-180.11 1215.61,-185.03"/>
</g>
<!-- astgraphX__treeparser__TreeParser__analyze_files&#45;&gt;astgraphX__treeparser__ItemContainer__add_mod -->
<g id="edge16" class="edge">
<title>astgraphX__treeparser__TreeParser__analyze_files&#45;&gt;astgraphX__treeparser__ItemContainer__add_mod</title>
<path fill="none" stroke="#000000" d="M386.38,-262.48C454.37,-257.79 560.33,-244.5 644,-207 657.52,-200.94 670.68,-191.23 681.3,-182.12"/>
<polygon fill="#000000" stroke="#000000" points="683.76,-184.62 688.88,-175.34 679.09,-179.4 683.76,-184.62"/>
</g>
<!-- astgraphX__treeparser__TreeParser__analyze_files&#45;&gt;astgraphX__treeparser__TreeParser__items -->
<g id="edge15" class="edge">
<title>astgraphX__treeparser__TreeParser__analyze_files&#45;&gt;astgraphX__treeparser__TreeParser__items</title>
<path fill="none" stroke="#000000" d="M297.36,-248.67C274.14,-230.3 236.36,-200.42 210.86,-180.25"/>
<polygon fill="#000000" stroke="#000000" points="212.73,-177.27 202.72,-173.81 208.39,-182.76 212.73,-177.27"/>
</g>
<!-- astgraphX__treeparser__TreeParser__analyze_files&#45;&gt;astgraphX__treeparser__UseParser____init__ -->
<g id="edge18" class="edge">
<title>astgraphX__treeparser__TreeParser__analyze_files&#45;&gt;astgraphX__treeparser__UseParser____init__</title>
<path fill="none" stroke="#000000" d="M387.24,-263.95C614.02,-260.14 1325.42,-245.24 1421,-207 1434.13,-201.75 1446.36,-192.09 1456.02,-182.81"/>
<polygon fill="#000000" stroke="#000000" points="1458.66,-185.11 1463.18,-175.53 1453.67,-180.2 1458.66,-185.11"/>
</g>
</g>
</svg>
