<?xml version="1.0" encoding="UTF-8" standalone="no"?>
<!DOCTYPE svg PUBLIC "-//W3C//DTD SVG 1.1//EN"
 "http://www.w3.org/Graphics/SVG/1.1/DTD/svg11.dtd">
<!-- Generated by graphviz version 2.43.0 (0)
 -->
<!-- Title: G Pages: 1 -->
<svg width="1249pt" height="694pt"
 viewBox="0.00 0.00 1249.00 694.00" xmlns="http://www.w3.org/2000/svg" xmlns:xlink="http://www.w3.org/1999/xlink">
<g id="graph0" class="graph" transform="scale(1 1) rotate(0) translate(4 690)">
<title>G</title>
<polygon fill="white" stroke="transparent" points="-4,4 -4,-690 1245,-690 1245,4 -4,4"/>
<g id="clust1" class="cluster">
<title>cluster_G</title>
<path fill="#808080" fill-opacity="0.094118" stroke="black" d="M20,-8C20,-8 1221,-8 1221,-8 1227,-8 1233,-14 1233,-20 1233,-20 1233,-666 1233,-666 1233,-672 1227,-678 1221,-678 1221,-678 20,-678 20,-678 14,-678 8,-672 8,-666 8,-666 8,-20 8,-20 8,-14 14,-8 20,-8"/>
</g>
<g id="clust2" class="cluster">
<title>cluster_astgraphX__treeparser</title>
<path fill="#808080" fill-opacity="0.094118" stroke="black" d="M28,-16C28,-16 1213,-16 1213,-16 1219,-16 1225,-22 1225,-28 1225,-28 1225,-658 1225,-658 1225,-664 1219,-670 1213,-670 1213,-670 28,-670 28,-670 22,-670 16,-664 16,-658 16,-658 16,-28 16,-28 16,-22 22,-16 28,-16"/>
<text text-anchor="middle" x="620.5" y="-654.8" font-family="Times,serif" font-size="14.00">astgraph.treeparser</text>
</g>
<g id="clust3" class="cluster">
<title>cluster_astgraphX__treeparser__BaseParser</title>
<path fill="#808080" fill-opacity="0.094118" stroke="black" d="M206,-132C206,-132 427,-132 427,-132 433,-132 439,-138 439,-144 439,-144 439,-303 439,-303 439,-309 433,-315 427,-315 427,-315 206,-315 206,-315 200,-315 194,-309 194,-303 194,-303 194,-144 194,-144 194,-138 200,-132 206,-132"/>
<text text-anchor="middle" x="316.5" y="-299.8" font-family="Times,serif" font-size="14.00">astgraph.treeparser.BaseParser</text>
</g>
<g id="clust4" class="cluster">
<title>cluster_astgraphX__treeparser__DefParser</title>
<path fill="#808080" fill-opacity="0.094118" stroke="black" d="M416,-348C416,-348 627,-348 627,-348 633,-348 639,-354 639,-360 639,-360 639,-411 639,-411 639,-417 633,-423 627,-423 627,-423 416,-423 416,-423 410,-423 404,-417 404,-411 404,-411 404,-360 404,-360 404,-354 410,-348 416,-348"/>
<text text-anchor="middle" x="521.5" y="-407.8" font-family="Times,serif" font-size="14.00">astgraph.treeparser.DefParser</text>
</g>
<g id="clust5" class="cluster">
<title>cluster_astgraphX__treeparser__ItemContainer</title>
<path fill="#808080" fill-opacity="0.094118" stroke="black" d="M459,-24C459,-24 1205,-24 1205,-24 1211,-24 1217,-30 1217,-36 1217,-36 1217,-195 1217,-195 1217,-201 1211,-207 1205,-207 1205,-207 459,-207 459,-207 453,-207 447,-201 447,-195 447,-195 447,-36 447,-36 447,-30 453,-24 459,-24"/>
<text text-anchor="middle" x="832" y="-191.8" font-family="Times,serif" font-size="14.00">astgraph.treeparser.ItemContainer</text>
</g>
<g id="clust6" class="cluster">
<title>cluster_astgraphX__treeparser__TreeParser</title>
<path fill="#808080" fill-opacity="0.094118" stroke="black" d="M36,-348C36,-348 384,-348 384,-348 390,-348 396,-354 396,-360 396,-360 396,-627 396,-627 396,-633 390,-639 384,-639 384,-639 36,-639 36,-639 30,-639 24,-633 24,-627 24,-627 24,-360 24,-360 24,-354 30,-348 36,-348"/>
<text text-anchor="middle" x="210" y="-623.8" font-family="Times,serif" font-size="14.00">astgraph.treeparser.TreeParser</text>
</g>
<g id="clust7" class="cluster">
<title>cluster_astgraphX__treeparser__UseParser</title>
<path fill="#808080" fill-opacity="0.094118" stroke="black" d="M659,-348C659,-348 873,-348 873,-348 879,-348 885,-354 885,-360 885,-360 885,-411 885,-411 885,-417 879,-423 873,-423 873,-423 659,-423 659,-423 653,-423 647,-417 647,-411 647,-411 647,-360 647,-360 647,-354 653,-348 659,-348"/>
<text text-anchor="middle" x="766" y="-407.8" font-family="Times,serif" font-size="14.00">astgraph.treeparser.UseParser</text>
</g>
<!-- astgraphX__treeparser__get_package_root -->
<g id="node1" class="node">
<title>astgraphX__treeparser__get_package_root</title>
<ellipse fill="#ff9999" fill-opacity="0.698039" stroke="black" cx="1005" cy="-374" rx="91.78" ry="18"/>
<text text-anchor="middle" x="1005" y="-370.3" font-family="Times,serif" font-size="14.00" fill="#000000">get_package_root</text>
</g>
<!-- astgraphX__treeparser__BaseParser____init__ -->
<g id="node2" class="node">
<title>astgraphX__treeparser__BaseParser____init__</title>
<ellipse fill="#ff6565" fill-opacity="0.698039" stroke="black" cx="387" cy="-266" rx="44.39" ry="18"/>
<text text-anchor="middle" x="387" y="-262.3" font-family="Times,serif" font-size="14.00" fill="#000000">__init__</text>
</g>
<!-- astgraphX__treeparser__BaseParser__items -->
<g id="node5" class="node">
<title>astgraphX__treeparser__BaseParser__items</title>
<ellipse fill="#ff6565" fill-opacity="0.698039" stroke="black" cx="387" cy="-158" rx="36.29" ry="18"/>
<text text-anchor="middle" x="387" y="-154.3" font-family="Times,serif" font-size="14.00" fill="#000000">items</text>
</g>
<!-- astgraphX__treeparser__BaseParser____init__&#45;&gt;astgraphX__treeparser__BaseParser__items -->
<g id="edge8" class="edge">
<title>astgraphX__treeparser__BaseParser____init__&#45;&gt;astgraphX__treeparser__BaseParser__items</title>
<path fill="none" stroke="#000000" d="M387,-247.97C387,-231.38 387,-205.88 387,-186.43"/>
<polygon fill="#000000" stroke="#000000" points="390.5,-186.34 387,-176.34 383.5,-186.34 390.5,-186.34"/>
</g>
<!-- astgraphX__treeparser__ItemContainer____init__ -->
<g id="node7" class="node">
<title>astgraphX__treeparser__ItemContainer____init__</title>
<ellipse fill="#ff6565" fill-opacity="0.698039" stroke="black" cx="836" cy="-158" rx="44.39" ry="18"/>
<text text-anchor="middle" x="836" y="-154.3" font-family="Times,serif" font-size="14.00" fill="#000000">__init__</text>
</g>
<!-- astgraphX__treeparser__BaseParser____init__&#45;&gt;astgraphX__treeparser__ItemContainer____init__ -->
<g id="edge7" class="edge">
<title>astgraphX__treeparser__BaseParser____init__&#45;&gt;astgraphX__treeparser__ItemContainer____init__</title>
<path fill="none" stroke="#000000" d="M424.51,-256.14C505.99,-236.91 699.03,-191.34 788.7,-170.17"/>
<polygon fill="#000000" stroke="#000000" points="789.67,-173.53 798.6,-167.83 788.06,-166.72 789.67,-173.53"/>
</g>
<!-- astgraphX__treeparser__BaseParser___visit -->
<g id="node3" class="node">
<title>astgraphX__treeparser__BaseParser___visit</title>
<ellipse fill="#ff6565" fill-opacity="0.698039" stroke="black" cx="275" cy="-158" rx="35.19" ry="18"/>
<text text-anchor="middle" x="275" y="-154.3" font-family="Times,serif" font-size="14.00" fill="#000000">_visit</text>
</g>
<!-- astgraphX__treeparser__BaseParser__analyze -->
<g id="node4" class="node">
<title>astgraphX__treeparser__BaseParser__analyze</title>
<ellipse fill="#ff6565" fill-opacity="0.698039" stroke="black" cx="275" cy="-266" rx="46.29" ry="18"/>
<text text-anchor="middle" x="275" y="-262.3" font-family="Times,serif" font-size="14.00" fill="#000000">analyze</text>
</g>
<!-- astgraphX__treeparser__BaseParser__analyze&#45;&gt;astgraphX__treeparser__BaseParser___visit -->
<g id="edge9" class="edge">
<title>astgraphX__treeparser__BaseParser__analyze&#45;&gt;astgraphX__treeparser__BaseParser___visit</title>
<path fill="none" stroke="#000000" d="M275,-247.97C275,-231.38 275,-205.88 275,-186.43"/>
<polygon fill="#000000" stroke="#000000" points="278.5,-186.34 275,-176.34 271.5,-186.34 278.5,-186.34"/>
</g>
<!-- astgraphX__treeparser__DefParser____init__ -->
<g id="node6" class="node">
<title>astgraphX__treeparser__DefParser____init__</title>
<ellipse fill="#ff6565" fill-opacity="0.698039" stroke="black" cx="456" cy="-374" rx="44.39" ry="18"/>
<text text-anchor="middle" x="456" y="-370.3" font-family="Times,serif" font-size="14.00" fill="#000000">__init__</text>
</g>
<!-- astgraphX__treeparser__DefParser____init__&#45;&gt;astgraphX__treeparser__BaseParser____init__ -->
<g id="edge17" class="edge">
<title>astgraphX__treeparser__DefParser____init__&#45;&gt;astgraphX__treeparser__BaseParser____init__</title>
<path fill="none" stroke="#000000" d="M445.22,-356.44C434.04,-339.27 416.43,-312.21 403.5,-292.35"/>
<polygon fill="#000000" stroke="#000000" points="406.32,-290.27 397.93,-283.8 400.46,-294.09 406.32,-290.27"/>
</g>
<!-- astgraphX__treeparser__ItemContainer__astroid_item_dict -->
<g id="node9" class="node">
<title>astgraphX__treeparser__ItemContainer__astroid_item_dict</title>
<ellipse fill="#ff6565" fill-opacity="0.698039" stroke="black" cx="994" cy="-50" rx="90.98" ry="18"/>
<text text-anchor="middle" x="994" y="-46.3" font-family="Times,serif" font-size="14.00" fill="#000000">astroid_item_dict</text>
</g>
<!-- astgraphX__treeparser__ItemContainer____init__&#45;&gt;astgraphX__treeparser__ItemContainer__astroid_item_dict -->
<g id="edge4" class="edge">
<title>astgraphX__treeparser__ItemContainer____init__&#45;&gt;astgraphX__treeparser__ItemContainer__astroid_item_dict</title>
<path fill="none" stroke="#000000" d="M857.97,-142.26C884.79,-124.27 930.38,-93.68 961.32,-72.93"/>
<polygon fill="#000000" stroke="#000000" points="963.27,-75.83 969.63,-67.35 959.37,-70.02 963.27,-75.83"/>
</g>
<!-- astgraphX__treeparser__ItemContainer__astroid_nodeX_dict -->
<g id="node10" class="node">
<title>astgraphX__treeparser__ItemContainer__astroid_nodeX_dict</title>
<ellipse fill="#ff6565" fill-opacity="0.698039" stroke="black" cx="547" cy="-50" rx="92.08" ry="18"/>
<text text-anchor="middle" x="547" y="-46.3" font-family="Times,serif" font-size="14.00" fill="#000000">astroid_node_dict</text>
</g>
<!-- astgraphX__treeparser__ItemContainer____init__&#45;&gt;astgraphX__treeparser__ItemContainer__astroid_nodeX_dict -->
<g id="edge5" class="edge">
<title>astgraphX__treeparser__ItemContainer____init__&#45;&gt;astgraphX__treeparser__ItemContainer__astroid_nodeX_dict</title>
<path fill="none" stroke="#000000" d="M804.25,-145.35C754.52,-127.11 657.81,-91.64 598.17,-69.77"/>
<polygon fill="#000000" stroke="#000000" points="599.16,-66.41 588.57,-66.25 596.75,-72.98 599.16,-66.41"/>
</g>
<!-- astgraphX__treeparser__ItemContainer__def_items -->
<g id="node11" class="node">
<title>astgraphX__treeparser__ItemContainer__def_items</title>
<ellipse fill="#ff6565" fill-opacity="0.698039" stroke="black" cx="713" cy="-50" rx="55.79" ry="18"/>
<text text-anchor="middle" x="713" y="-46.3" font-family="Times,serif" font-size="14.00" fill="#000000">def_items</text>
</g>
<!-- astgraphX__treeparser__ItemContainer____init__&#45;&gt;astgraphX__treeparser__ItemContainer__def_items -->
<g id="edge2" class="edge">
<title>astgraphX__treeparser__ItemContainer____init__&#45;&gt;astgraphX__treeparser__ItemContainer__def_items</title>
<path fill="none" stroke="#000000" d="M817.85,-141.36C797.08,-123.46 762.88,-93.98 739.21,-73.59"/>
<polygon fill="#000000" stroke="#000000" points="741.49,-70.93 731.63,-67.05 736.92,-76.23 741.49,-70.93"/>
</g>
<!-- astgraphX__treeparser__ItemContainer__mod_dict -->
<g id="node12" class="node">
<title>astgraphX__treeparser__ItemContainer__mod_dict</title>
<ellipse fill="#ff6565" fill-opacity="0.698039" stroke="black" cx="1156" cy="-50" rx="52.79" ry="18"/>
<text text-anchor="middle" x="1156" y="-46.3" font-family="Times,serif" font-size="14.00" fill="#000000">mod_dict</text>
</g>
<!-- astgraphX__treeparser__ItemContainer____init__&#45;&gt;astgraphX__treeparser__ItemContainer__mod_dict -->
<g id="edge1" class="edge">
<title>astgraphX__treeparser__ItemContainer____init__&#45;&gt;astgraphX__treeparser__ItemContainer__mod_dict</title>
<path fill="none" stroke="#000000" d="M869.34,-145.96C926.74,-126.94 1044.35,-87.98 1109.68,-66.34"/>
<polygon fill="#000000" stroke="#000000" points="1110.92,-69.62 1119.31,-63.15 1108.72,-62.98 1110.92,-69.62"/>
</g>
<!-- astgraphX__treeparser__ItemContainer__use_dict -->
<g id="node13" class="node">
<title>astgraphX__treeparser__ItemContainer__use_dict</title>
<ellipse fill="#ff6565" fill-opacity="0.698039" stroke="black" cx="836" cy="-50" rx="48.99" ry="18"/>
<text text-anchor="middle" x="836" y="-46.3" font-family="Times,serif" font-size="14.00" fill="#000000">use_dict</text>
</g>
<!-- astgraphX__treeparser__ItemContainer____init__&#45;&gt;astgraphX__treeparser__ItemContainer__use_dict -->
<g id="edge3" class="edge">
<title>astgraphX__treeparser__ItemContainer____init__&#45;&gt;astgraphX__treeparser__ItemContainer__use_dict</title>
<path fill="none" stroke="#000000" d="M836,-139.97C836,-123.38 836,-97.88 836,-78.43"/>
<polygon fill="#000000" stroke="#000000" points="839.5,-78.34 836,-68.34 832.5,-78.34 839.5,-78.34"/>
</g>
<!-- astgraphX__treeparser__ItemContainer__add_mod -->
<g id="node8" class="node">
<title>astgraphX__treeparser__ItemContainer__add_mod</title>
<ellipse fill="#ff6565" fill-opacity="0.698039" stroke="black" cx="1156" cy="-158" rx="51.99" ry="18"/>
<text text-anchor="middle" x="1156" y="-154.3" font-family="Times,serif" font-size="14.00" fill="#000000">add_mod</text>
</g>
<!-- astgraphX__treeparser__ItemContainer__add_mod&#45;&gt;astgraphX__treeparser__ItemContainer__mod_dict -->
<g id="edge6" class="edge">
<title>astgraphX__treeparser__ItemContainer__add_mod&#45;&gt;astgraphX__treeparser__ItemContainer__mod_dict</title>
<path fill="none" stroke="#000000" d="M1156,-139.97C1156,-123.38 1156,-97.88 1156,-78.43"/>
<polygon fill="#000000" stroke="#000000" points="1159.5,-78.34 1156,-68.34 1152.5,-78.34 1159.5,-78.34"/>
</g>
<!-- astgraphX__treeparser__TreeParser____init__ -->
<g id="node14" class="node">
<title>astgraphX__treeparser__TreeParser____init__</title>
<ellipse fill="#ff6565" fill-opacity="0.698039" stroke="black" cx="76" cy="-482" rx="44.39" ry="18"/>
<text text-anchor="middle" x="76" y="-478.3" font-family="Times,serif" font-size="14.00" fill="#000000">__init__</text>
</g>
<!-- astgraphX__treeparser__TreeParser____init__&#45;&gt;astgraphX__treeparser__ItemContainer____init__ -->
<g id="edge11" class="edge">
<title>astgraphX__treeparser__TreeParser____init__&#45;&gt;astgraphX__treeparser__ItemContainer____init__</title>
<path fill="none" stroke="#000000" d="M107.61,-469.4C114.57,-467.26 121.97,-465.3 129,-464 212.17,-448.68 830.83,-484.39 889,-423 900.46,-410.9 891.27,-364.51 889,-348 880.84,-288.7 858.93,-221.79 845.97,-185.64"/>
<polygon fill="#000000" stroke="#000000" points="849.13,-184.07 842.42,-175.87 842.55,-186.46 849.13,-184.07"/>
</g>
<!-- astgraphX__treeparser__TreeParser__items -->
<g id="node18" class="node">
<title>astgraphX__treeparser__TreeParser__items</title>
<ellipse fill="#ff6565" fill-opacity="0.698039" stroke="black" cx="208" cy="-374" rx="36.29" ry="18"/>
<text text-anchor="middle" x="208" y="-370.3" font-family="Times,serif" font-size="14.00" fill="#000000">items</text>
</g>
<!-- astgraphX__treeparser__TreeParser____init__&#45;&gt;astgraphX__treeparser__TreeParser__items -->
<g id="edge10" class="edge">
<title>astgraphX__treeparser__TreeParser____init__&#45;&gt;astgraphX__treeparser__TreeParser__items</title>
<path fill="none" stroke="#000000" d="M95.19,-465.59C118.03,-447.25 156.28,-416.53 181.82,-396.02"/>
<polygon fill="#000000" stroke="#000000" points="184.03,-398.74 189.63,-389.75 179.65,-393.28 184.03,-398.74"/>
</g>
<!-- astgraphX__treeparser__TreeParser__analyze -->
<g id="node15" class="node">
<title>astgraphX__treeparser__TreeParser__analyze</title>
<ellipse fill="#ff6565" fill-opacity="0.698039" stroke="black" cx="342" cy="-482" rx="46.29" ry="18"/>
<text text-anchor="middle" x="342" y="-478.3" font-family="Times,serif" font-size="14.00" fill="#000000">analyze</text>
</g>
<!-- astgraphX__treeparser__TreeParser__analyze&#45;&gt;astgraphX__treeparser__BaseParser__analyze -->
<g id="edge15" class="edge">
<title>astgraphX__treeparser__TreeParser__analyze&#45;&gt;astgraphX__treeparser__BaseParser__analyze</title>
<path fill="none" stroke="#000000" d="M388.1,-481.17C549.25,-481.3 1080.31,-477.55 1131,-423 1153.69,-398.58 1154.08,-372.05 1131,-348 1069.64,-284.04 416.88,-346.4 334,-315 320.03,-309.71 306.88,-299.71 296.56,-290.21"/>
<polygon fill="#000000" stroke="#000000" points="298.86,-287.57 289.25,-283.13 293.99,-292.6 298.86,-287.57"/>
</g>
<!-- astgraphX__treeparser__TreeParser__analyze&#45;&gt;astgraphX__treeparser__DefParser____init__ -->
<g id="edge14" class="edge">
<title>astgraphX__treeparser__TreeParser__analyze&#45;&gt;astgraphX__treeparser__DefParser____init__</title>
<path fill="none" stroke="#000000" d="M359.31,-464.9C378.51,-447.05 409.62,-418.12 431.35,-397.92"/>
<polygon fill="#000000" stroke="#000000" points="433.96,-400.28 438.9,-390.9 429.19,-395.15 433.96,-400.28"/>
</g>
<!-- astgraphX__treeparser__TreeParser__analyze&#45;&gt;astgraphX__treeparser__ItemContainer__add_mod -->
<g id="edge13" class="edge">
<title>astgraphX__treeparser__TreeParser__analyze&#45;&gt;astgraphX__treeparser__ItemContainer__add_mod</title>
<path fill="none" stroke="#000000" d="M388.21,-481.15C551.03,-481.21 1091.14,-477.29 1144,-423 1206.41,-358.9 1180.71,-239.27 1164.91,-185.91"/>
<polygon fill="#000000" stroke="#000000" points="1168.2,-184.68 1161.91,-176.15 1161.51,-186.74 1168.2,-184.68"/>
</g>
<!-- astgraphX__treeparser__TreeParser__analyze&#45;&gt;astgraphX__treeparser__TreeParser__items -->
<g id="edge12" class="edge">
<title>astgraphX__treeparser__TreeParser__analyze&#45;&gt;astgraphX__treeparser__TreeParser__items</title>
<path fill="none" stroke="#000000" d="M322.52,-465.59C299.33,-447.25 260.5,-416.53 234.57,-396.02"/>
<polygon fill="#000000" stroke="#000000" points="236.66,-393.21 226.64,-389.75 232.32,-398.7 236.66,-393.21"/>
</g>
<!-- astgraphX__treeparser__UseParser____init__ -->
<g id="node19" class="node">
<title>astgraphX__treeparser__UseParser____init__</title>
<ellipse fill="#ff6565" fill-opacity="0.698039" stroke="black" cx="699" cy="-374" rx="44.39" ry="18"/>
<text text-anchor="middle" x="699" y="-370.3" font-family="Times,serif" font-size="14.00" fill="#000000">__init__</text>
</g>
<!-- astgraphX__treeparser__TreeParser__analyze&#45;&gt;astgraphX__treeparser__UseParser____init__ -->
<g id="edge16" class="edge">
<title>astgraphX__treeparser__TreeParser__analyze&#45;&gt;astgraphX__treeparser__UseParser____init__</title>
<path fill="none" stroke="#000000" d="M387.88,-479.42C448.95,-475.75 559,-463.52 643,-423 655.56,-416.94 667.57,-407.35 677.22,-398.33"/>
<polygon fill="#000000" stroke="#000000" points="679.71,-400.79 684.42,-391.3 674.82,-395.78 679.71,-400.79"/>
</g>
<!-- astgraphX__treeparser__TreeParser__analyze_code -->
<g id="node16" class="node">
<title>astgraphX__treeparser__TreeParser__analyze_code</title>
<ellipse fill="#ff6565" fill-opacity="0.698039" stroke="black" cx="317" cy="-590" rx="71.49" ry="18"/>
<text text-anchor="middle" x="317" y="-586.3" font-family="Times,serif" font-size="14.00" fill="#000000">analyze_code</text>
</g>
<!-- astgraphX__treeparser__TreeParser__analyze_code&#45;&gt;astgraphX__treeparser__TreeParser__analyze -->
<g id="edge19" class="edge">
<title>astgraphX__treeparser__TreeParser__analyze_code&#45;&gt;astgraphX__treeparser__TreeParser__analyze</title>
<path fill="none" stroke="#000000" d="M321.02,-571.97C324.97,-555.2 331.07,-529.34 335.68,-509.81"/>
<polygon fill="#000000" stroke="#000000" points="339.1,-510.52 337.99,-499.99 332.29,-508.92 339.1,-510.52"/>
</g>
<!-- astgraphX__treeparser__TreeParser__analyze_files -->
<g id="node17" class="node">
<title>astgraphX__treeparser__TreeParser__analyze_files</title>
<ellipse fill="#ff6565" fill-opacity="0.698039" stroke="black" cx="208" cy="-482" rx="69.59" ry="18"/>
<text text-anchor="middle" x="208" y="-478.3" font-family="Times,serif" font-size="14.00" fill="#000000">analyze_files</text>
</g>
<!-- astgraphX__treeparser__TreeParser__analyze_files&#45;&gt;astgraphX__treeparser__get_package_root -->
<g id="edge20" class="edge">
<title>astgraphX__treeparser__TreeParser__analyze_files&#45;&gt;astgraphX__treeparser__get_package_root</title>
<path fill="none" stroke="#000000" d="M257.53,-469.19C267.26,-467.2 277.41,-465.35 287,-464 556.96,-426.11 634.6,-489.4 899,-423 922.85,-417.01 947.98,-405.86 967.79,-395.82"/>
<polygon fill="#000000" stroke="#000000" points="969.51,-398.87 976.77,-391.16 966.28,-392.66 969.51,-398.87"/>
</g>
<!-- astgraphX__treeparser__TreeParser__analyze_files&#45;&gt;astgraphX__treeparser__BaseParser__analyze -->
<g id="edge24" class="edge">
<title>astgraphX__treeparser__TreeParser__analyze_files&#45;&gt;astgraphX__treeparser__BaseParser__analyze</title>
<path fill="none" stroke="#000000" d="M224.83,-464.27C234.69,-453.43 246.45,-438.5 253,-423 270.91,-380.63 274.78,-326.61 275.33,-294.53"/>
<polygon fill="#000000" stroke="#000000" points="278.84,-294.17 275.41,-284.15 271.84,-294.12 278.84,-294.17"/>
</g>
<!-- astgraphX__treeparser__TreeParser__analyze_files&#45;&gt;astgraphX__treeparser__DefParser____init__ -->
<g id="edge23" class="edge">
<title>astgraphX__treeparser__TreeParser__analyze_files&#45;&gt;astgraphX__treeparser__DefParser____init__</title>
<path fill="none" stroke="#000000" d="M256.2,-468.88C304.51,-456.3 375.18,-436.59 400,-423 411.93,-416.47 423.61,-407.09 433.18,-398.35"/>
<polygon fill="#000000" stroke="#000000" points="435.84,-400.66 440.69,-391.24 431.02,-395.57 435.84,-400.66"/>
</g>
<!-- astgraphX__treeparser__TreeParser__analyze_files&#45;&gt;astgraphX__treeparser__ItemContainer__add_mod -->
<g id="edge22" class="edge">
<title>astgraphX__treeparser__TreeParser__analyze_files&#45;&gt;astgraphX__treeparser__ItemContainer__add_mod</title>
<path fill="none" stroke="#000000" d="M257.09,-469.15C266.94,-467.13 277.26,-465.28 287,-464 377.89,-452.04 1042.44,-483.85 1111,-423 1128.63,-407.36 1146.56,-250.87 1153.26,-186.47"/>
<polygon fill="#000000" stroke="#000000" points="1156.77,-186.56 1154.31,-176.26 1149.8,-185.85 1156.77,-186.56"/>
</g>
<!-- astgraphX__treeparser__TreeParser__analyze_files&#45;&gt;astgraphX__treeparser__TreeParser__items -->
<g id="edge21" class="edge">
<title>astgraphX__treeparser__TreeParser__analyze_files&#45;&gt;astgraphX__treeparser__TreeParser__items</title>
<path fill="none" stroke="#000000" d="M208,-463.97C208,-447.38 208,-421.88 208,-402.43"/>
<polygon fill="#000000" stroke="#000000" points="211.5,-402.34 208,-392.34 204.5,-402.34 211.5,-402.34"/>
</g>
<!-- astgraphX__treeparser__TreeParser__analyze_files&#45;&gt;astgraphX__treeparser__UseParser____init__ -->
<g id="edge25" class="edge">
<title>astgraphX__treeparser__TreeParser__analyze_files&#45;&gt;astgraphX__treeparser__UseParser____init__</title>
<path fill="none" stroke="#000000" d="M258.01,-469.47C267.6,-467.48 277.59,-465.55 287,-464 444.15,-438.11 497.04,-486.73 643,-423 655.96,-417.34 668.17,-407.63 677.85,-398.41"/>
<polygon fill="#000000" stroke="#000000" points="680.45,-400.76 685.05,-391.22 675.5,-395.81 680.45,-400.76"/>
</g>
<!-- astgraphX__treeparser__UseParser____init__&#45;&gt;astgraphX__treeparser__BaseParser____init__ -->
<g id="edge18" class="edge">
<title>astgraphX__treeparser__UseParser____init__&#45;&gt;astgraphX__treeparser__BaseParser____init__</title>
<path fill="none" stroke="#000000" d="M671.35,-359.91C662.39,-355.87 652.36,-351.56 643,-348 570.49,-320.44 484.08,-294.49 432.47,-279.69"/>
<polygon fill="#000000" stroke="#000000" points="433.21,-276.26 422.63,-276.89 431.29,-283 433.21,-276.26"/>
</g>
</g>
</svg>
