<?xml version="1.0" encoding="UTF-8" standalone="no"?><svg xmlns="http://www.w3.org/2000/svg" xmlns:xlink="http://www.w3.org/1999/xlink" contentScriptType="application/ecmascript" contentStyleType="text/css" height="539px" preserveAspectRatio="none" style="width:569px;height:539px;background:#FEFEFE;" version="1.1" viewBox="0 0 569 539" width="569px" zoomAndPan="magnify"><defs><filter height="300%" id="flk358sppz4au" width="300%" x="-1" y="-1"><feGaussianBlur result="blurOut" stdDeviation="2.0"/><feColorMatrix in="blurOut" result="blurOut2" type="matrix" values="0 0 0 0 0 0 0 0 0 0 0 0 0 0 0 0 0 0 .4 0"/><feOffset dx="4.0" dy="4.0" in="blurOut2" result="blurOut3"/><feBlend in="SourceGraphic" in2="blurOut3" mode="normal"/></filter></defs><g><rect fill="#FFFFFF" filter="url(#flk358sppz4au)" height="396.4609" style="stroke: #A80036; stroke-width: 1.0;" width="10" x="73" y="77.2969"/><rect fill="#FFFFFF" filter="url(#flk358sppz4au)" height="123.3984" style="stroke: #A80036; stroke-width: 1.0;" width="10" x="250.5" y="111.5625"/><rect fill="#FFFFFF" filter="url(#flk358sppz4au)" height="123.3984" style="stroke: #A80036; stroke-width: 1.0;" width="10" x="250.5" y="264.0938"/><rect fill="#FFFFFF" filter="url(#flk358sppz4au)" height="47.1328" style="stroke: #A80036; stroke-width: 1.0;" width="10" x="454.5" y="173.8281"/><rect fill="#FFFFFF" filter="url(#flk358sppz4au)" height="47.1328" style="stroke: #A80036; stroke-width: 1.0;" width="10" x="454.5" y="326.3594"/><line style="stroke: #A80036; stroke-width: 1.0; stroke-dasharray: 5.0,5.0;" x1="78" x2="78" y1="38.2969" y2="498.7578"/><line style="stroke: #A80036; stroke-width: 1.0; stroke-dasharray: 5.0,5.0;" x1="255" x2="255" y1="38.2969" y2="498.7578"/><line style="stroke: #A80036; stroke-width: 1.0; stroke-dasharray: 5.0,5.0;" x1="459" x2="459" y1="38.2969" y2="498.7578"/><rect fill="#FEFECE" filter="url(#flk358sppz4au)" height="30.2969" style="stroke: #A80036; stroke-width: 1.5;" width="136" x="8" y="3"/><text fill="#000000" font-family="sans-serif" font-size="14" lengthAdjust="spacingAndGlyphs" textLength="122" x="15" y="22.9951">simple.chained01</text><rect fill="#FEFECE" filter="url(#flk358sppz4au)" height="30.2969" style="stroke: #A80036; stroke-width: 1.5;" width="136" x="8" y="497.7578"/><text fill="#000000" font-family="sans-serif" font-size="14" lengthAdjust="spacingAndGlyphs" textLength="122" x="15" y="517.7529">simple.chained01</text><rect fill="#FEFECE" filter="url(#flk358sppz4au)" height="30.2969" style="stroke: #A80036; stroke-width: 1.5;" width="191" x="158" y="3"/><text fill="#000000" font-family="sans-serif" font-size="14" lengthAdjust="spacingAndGlyphs" textLength="177" x="165" y="22.9951">simple.chained01.Runner</text><rect fill="#FEFECE" filter="url(#flk358sppz4au)" height="30.2969" style="stroke: #A80036; stroke-width: 1.5;" width="191" x="158" y="497.7578"/><text fill="#000000" font-family="sans-serif" font-size="14" lengthAdjust="spacingAndGlyphs" textLength="177" x="165" y="517.7529">simple.chained01.Runner</text><rect fill="#FEFECE" filter="url(#flk358sppz4au)" height="30.2969" style="stroke: #A80036; stroke-width: 1.5;" width="189" x="363" y="3"/><text fill="#000000" font-family="sans-serif" font-size="14" lengthAdjust="spacingAndGlyphs" textLength="175" x="370" y="22.9951">simple.chained01.Worker</text><rect fill="#FEFECE" filter="url(#flk358sppz4au)" height="30.2969" style="stroke: #A80036; stroke-width: 1.5;" width="189" x="363" y="497.7578"/><text fill="#000000" font-family="sans-serif" font-size="14" lengthAdjust="spacingAndGlyphs" textLength="175" x="370" y="517.7529">simple.chained01.Worker</text><rect fill="#FFFFFF" filter="url(#flk358sppz4au)" height="396.4609" style="stroke: #A80036; stroke-width: 1.0;" width="10" x="73" y="77.2969"/><rect fill="#FFFFFF" filter="url(#flk358sppz4au)" height="123.3984" style="stroke: #A80036; stroke-width: 1.0;" width="10" x="250.5" y="111.5625"/><rect fill="#FFFFFF" filter="url(#flk358sppz4au)" height="123.3984" style="stroke: #A80036; stroke-width: 1.0;" width="10" x="250.5" y="264.0938"/><rect fill="#FFFFFF" filter="url(#flk358sppz4au)" height="47.1328" style="stroke: #A80036; stroke-width: 1.0;" width="10" x="454.5" y="173.8281"/><rect fill="#FFFFFF" filter="url(#flk358sppz4au)" height="47.1328" style="stroke: #A80036; stroke-width: 1.0;" width="10" x="454.5" y="326.3594"/><ellipse cx="77.5" cy="63.6797" fill="none" rx="4" ry="4" style="stroke: #A80036; stroke-width: 1.5;"/><line style="stroke: #A80036; stroke-width: 1.0;" x1="82" x2="125" y1="64.4297" y2="64.4297"/><line style="stroke: #A80036; stroke-width: 1.0;" x1="125" x2="125" y1="64.4297" y2="77.4297"/><line style="stroke: #A80036; stroke-width: 1.0;" x1="84" x2="125" y1="77.4297" y2="77.4297"/><polygon fill="#A80036" points="94,73.4297,84,77.4297,94,81.4297,90,77.4297" style="stroke: #A80036; stroke-width: 1.0;"/><text fill="#000000" font-family="sans-serif" font-size="13" lengthAdjust="spacingAndGlyphs" textLength="32" x="90" y="59.3638">main</text><ellipse cx="82.5" cy="110.8125" fill="none" rx="4" ry="4" style="stroke: #A80036; stroke-width: 1.5;"/><polygon fill="#A80036" points="238.5,107.5625,248.5,111.5625,238.5,115.5625,242.5,111.5625" style="stroke: #A80036; stroke-width: 1.0;"/><line style="stroke: #A80036; stroke-width: 1.0;" x1="87" x2="244.5" y1="111.5625" y2="111.5625"/><text fill="#000000" font-family="sans-serif" font-size="13" lengthAdjust="spacingAndGlyphs" text-decoration="underline" textLength="19" x="90" y="106.4966">init</text><line style="stroke: #000000; stroke-width: 1.0;" x1="90" x2="109" y1="108.4966" y2="108.4966"/><polygon fill="#FBFB77" filter="url(#flk358sppz4au)" points="275,124.5625,321,124.5625,331,135.5625,321,147.5625,275,147.5625,265,135.5625,275,124.5625" style="stroke: #A80036; stroke-width: 1.0;"/><text fill="#000000" font-family="sans-serif" font-size="13" lengthAdjust="spacingAndGlyphs" textLength="42" x="277" y="140.6294">worker</text><ellipse cx="260" cy="173.0781" fill="none" rx="4" ry="4" style="stroke: #A80036; stroke-width: 1.5;"/><polygon fill="#A80036" points="442.5,169.8281,452.5,173.8281,442.5,177.8281,446.5,173.8281" style="stroke: #A80036; stroke-width: 1.0;"/><line style="stroke: #A80036; stroke-width: 1.0;" x1="264.5" x2="448.5" y1="173.8281" y2="173.8281"/><text fill="#000000" font-family="sans-serif" font-size="13" lengthAdjust="spacingAndGlyphs" text-decoration="underline" textLength="19" x="267.5" y="168.7622">init</text><line style="stroke: #000000; stroke-width: 1.0;" x1="267.5" x2="286.5" y1="170.7622" y2="170.7622"/><polygon fill="#FBFB77" filter="url(#flk358sppz4au)" points="479,186.8281,542,186.8281,552,197.8281,542,209.8281,479,209.8281,469,197.8281,479,186.8281" style="stroke: #A80036; stroke-width: 1.0;"/><text fill="#000000" font-family="sans-serif" font-size="13" lengthAdjust="spacingAndGlyphs" textLength="59" x="481" y="202.895">data_dict</text><polygon fill="#A80036" points="271.5,216.9609,261.5,220.9609,271.5,224.9609,267.5,220.9609" style="stroke: #A80036; stroke-width: 1.0;"/><line style="stroke: #A80036; stroke-width: 1.0; stroke-dasharray: 2.0,2.0;" x1="265.5" x2="458.5" y1="220.9609" y2="220.9609"/><polygon fill="#A80036" points="94,230.9609,84,234.9609,94,238.9609,90,234.9609" style="stroke: #A80036; stroke-width: 1.0;"/><line style="stroke: #A80036; stroke-width: 1.0; stroke-dasharray: 2.0,2.0;" x1="88" x2="254.5" y1="234.9609" y2="234.9609"/><ellipse cx="82.5" cy="263.3438" fill="none" rx="4" ry="4" style="stroke: #A80036; stroke-width: 1.5;"/><polygon fill="#A80036" points="238.5,260.0938,248.5,264.0938,238.5,268.0938,242.5,264.0938" style="stroke: #A80036; stroke-width: 1.0;"/><line style="stroke: #A80036; stroke-width: 1.0;" x1="87" x2="244.5" y1="264.0938" y2="264.0938"/><text fill="#000000" font-family="sans-serif" font-size="13" lengthAdjust="spacingAndGlyphs" textLength="51" x="90" y="259.0278">execute</text><polygon fill="#FBFB77" filter="url(#flk358sppz4au)" points="275,277.0938,321,277.0938,331,288.0938,321,300.0938,275,300.0938,265,288.0938,275,277.0938" style="stroke: #A80036; stroke-width: 1.0;"/><text fill="#000000" font-family="sans-serif" font-size="13" lengthAdjust="spacingAndGlyphs" textLength="42" x="277" y="293.1606">worker</text><ellipse cx="260" cy="325.6094" fill="none" rx="4" ry="4" style="stroke: #A80036; stroke-width: 1.5;"/><polygon fill="#A80036" points="442.5,322.3594,452.5,326.3594,442.5,330.3594,446.5,326.3594" style="stroke: #A80036; stroke-width: 1.0;"/><line style="stroke: #A80036; stroke-width: 1.0;" x1="264.5" x2="448.5" y1="326.3594" y2="326.3594"/><text fill="#000000" font-family="sans-serif" font-size="13" lengthAdjust="spacingAndGlyphs" textLength="29" x="267.5" y="321.2935">work</text><polygon fill="#FBFB77" filter="url(#flk358sppz4au)" points="479,339.3594,542,339.3594,552,350.3594,542,362.3594,479,362.3594,469,350.3594,479,339.3594" style="stroke: #A80036; stroke-width: 1.0;"/><text fill="#000000" font-family="sans-serif" font-size="13" lengthAdjust="spacingAndGlyphs" textLength="59" x="481" y="355.4263">data_dict</text><polygon fill="#A80036" points="271.5,369.4922,261.5,373.4922,271.5,377.4922,267.5,373.4922" style="stroke: #A80036; stroke-width: 1.0;"/><line style="stroke: #A80036; stroke-width: 1.0; stroke-dasharray: 2.0,2.0;" x1="265.5" x2="458.5" y1="373.4922" y2="373.4922"/><polygon fill="#A80036" points="94,383.4922,84,387.4922,94,391.4922,90,387.4922" style="stroke: #A80036; stroke-width: 1.0;"/><line style="stroke: #A80036; stroke-width: 1.0; stroke-dasharray: 2.0,2.0;" x1="88" x2="254.5" y1="387.4922" y2="387.4922"/><ellipse cx="82.5" cy="410.3086" fill="none" rx="4" ry="4" style="stroke: #A80036; stroke-width: 1.5;"/><polygon fill="#A80036" points="243.5,407.0586,253.5,411.0586,243.5,415.0586,247.5,411.0586" style="stroke: #A80036; stroke-width: 1.0;"/><line style="stroke: #A80036; stroke-width: 1.0;" x1="87" x2="249.5" y1="411.0586" y2="411.0586"/><polygon fill="#FBFB77" filter="url(#flk358sppz4au)" points="270,400.4922,316,400.4922,326,411.4922,316,423.4922,270,423.4922,260,411.4922,270,400.4922" style="stroke: #A80036; stroke-width: 1.0;"/><text fill="#000000" font-family="sans-serif" font-size="13" lengthAdjust="spacingAndGlyphs" textLength="42" x="272" y="416.5591">worker</text><ellipse cx="82.5" cy="443.4414" fill="none" rx="4" ry="4" style="stroke: #A80036; stroke-width: 1.5;"/><polygon fill="#A80036" points="447.5,440.1914,457.5,444.1914,447.5,448.1914,451.5,444.1914" style="stroke: #A80036; stroke-width: 1.0;"/><line style="stroke: #A80036; stroke-width: 1.0;" x1="87" x2="453.5" y1="444.1914" y2="444.1914"/><polygon fill="#FBFB77" filter="url(#flk358sppz4au)" points="474,433.625,537,433.625,547,444.625,537,456.625,474,456.625,464,444.625,474,433.625" style="stroke: #A80036; stroke-width: 1.0;"/><text fill="#000000" font-family="sans-serif" font-size="13" lengthAdjust="spacingAndGlyphs" textLength="59" x="476" y="449.6919">data_dict</text><line style="stroke: #A80036; stroke-width: 1.0; stroke-dasharray: 2.0,2.0;" x1="83" x2="125" y1="472.7578" y2="472.7578"/><line style="stroke: #A80036; stroke-width: 1.0; stroke-dasharray: 2.0,2.0;" x1="125" x2="125" y1="472.7578" y2="485.7578"/><line style="stroke: #A80036; stroke-width: 1.0; stroke-dasharray: 2.0,2.0;" x1="78" x2="125" y1="485.7578" y2="485.7578"/><polygon fill="#A80036" points="88,481.7578,78,485.7578,88,489.7578,84,485.7578" style="stroke: #A80036; stroke-width: 1.0;"/></g></svg>