<?xml version="1.0" encoding="UTF-8" standalone="no"?>
<!DOCTYPE svg PUBLIC "-//W3C//DTD SVG 1.1//EN"
 "http://www.w3.org/Graphics/SVG/1.1/DTD/svg11.dtd">
<!-- Generated by graphviz version 2.43.0 (0)
 -->
<!-- Title: G Pages: 1 -->
<svg width="511pt" height="524pt"
 viewBox="0.00 0.00 511.00 524.00" xmlns="http://www.w3.org/2000/svg" xmlns:xlink="http://www.w3.org/1999/xlink">
<g id="graph0" class="graph" transform="scale(1 1) rotate(0) translate(4 520)">
<title>G</title>
<polygon fill="white" stroke="transparent" points="-4,4 -4,-520 507,-520 507,4 -4,4"/>
<g id="clust1" class="cluster">
<title>cluster_G</title>
<path fill="#808080" fill-opacity="0.094118" stroke="black" d="M20,-8C20,-8 483,-8 483,-8 489,-8 495,-14 495,-20 495,-20 495,-496 495,-496 495,-502 489,-508 483,-508 483,-508 20,-508 20,-508 14,-508 8,-502 8,-496 8,-496 8,-20 8,-20 8,-14 14,-8 20,-8"/>
</g>
<g id="clust2" class="cluster">
<title>cluster_simple__chained01</title>
<path fill="#808080" fill-opacity="0.094118" stroke="black" d="M28,-16C28,-16 475,-16 475,-16 481,-16 487,-22 487,-28 487,-28 487,-411 487,-411 487,-417 481,-423 475,-423 475,-423 28,-423 28,-423 22,-423 16,-417 16,-411 16,-411 16,-28 16,-28 16,-22 22,-16 28,-16"/>
<text text-anchor="middle" x="251.5" y="-407.8" font-family="Times,serif" font-size="14.00">simple.chained01</text>
</g>
<g id="clust3" class="cluster">
<title>cluster_simple__chained01__Runner</title>
<path fill="#808080" fill-opacity="0.094118" stroke="black" d="M243,-132C243,-132 435,-132 435,-132 441,-132 447,-138 447,-144 447,-144 447,-303 447,-303 447,-309 441,-315 435,-315 435,-315 243,-315 243,-315 237,-315 231,-309 231,-303 231,-303 231,-144 231,-144 231,-138 237,-132 243,-132"/>
<text text-anchor="middle" x="339" y="-299.8" font-family="Times,serif" font-size="14.00">simple.chained01.Runner</text>
</g>
<g id="clust4" class="cluster">
<title>cluster_simple__chained01__Worker</title>
<path fill="#808080" fill-opacity="0.094118" stroke="black" d="M36,-24C36,-24 211,-24 211,-24 217,-24 223,-30 223,-36 223,-36 223,-195 223,-195 223,-201 217,-207 211,-207 211,-207 36,-207 36,-207 30,-207 24,-201 24,-195 24,-195 24,-36 24,-36 24,-30 30,-24 36,-24"/>
<text text-anchor="middle" x="123.5" y="-191.8" font-family="Times,serif" font-size="14.00">simple.chained01.Worker</text>
</g>
<!-- simple__chained01 -->
<g id="node1" class="node">
<title>simple__chained01</title>
<ellipse fill="#ffffff" fill-opacity="0.698039" stroke="black" cx="395" cy="-482" rx="92.08" ry="18"/>
<text text-anchor="middle" x="395" y="-478.3" font-family="Times,serif" font-size="14.00" fill="#000000">simple.chained01</text>
</g>
<!-- simple__chained01__main -->
<g id="node2" class="node">
<title>simple__chained01__main</title>
<ellipse fill="#ff9999" fill-opacity="0.698039" stroke="black" cx="395" cy="-374" rx="33.6" ry="18"/>
<text text-anchor="middle" x="395" y="-370.3" font-family="Times,serif" font-size="14.00" fill="#000000">main</text>
</g>
<!-- simple__chained01&#45;&gt;simple__chained01__main -->
<g id="edge11" class="edge">
<title>simple__chained01&#45;&gt;simple__chained01__main</title>
<path fill="none" stroke="#000000" d="M395,-463.97C395,-447.38 395,-421.88 395,-402.43"/>
<polygon fill="#000000" stroke="#000000" points="398.5,-402.34 395,-392.34 391.5,-402.34 398.5,-402.34"/>
</g>
<!-- simple__chained01__Runner____init__ -->
<g id="node3" class="node">
<title>simple__chained01__Runner____init__</title>
<ellipse fill="#ff6565" fill-opacity="0.698039" stroke="black" cx="395" cy="-266" rx="44.39" ry="18"/>
<text text-anchor="middle" x="395" y="-262.3" font-family="Times,serif" font-size="14.00" fill="#000000">__init__</text>
</g>
<!-- simple__chained01__main&#45;&gt;simple__chained01__Runner____init__ -->
<g id="edge7" class="edge">
<title>simple__chained01__main&#45;&gt;simple__chained01__Runner____init__</title>
<path fill="none" stroke="#000000" d="M395,-355.97C395,-339.38 395,-313.88 395,-294.43"/>
<polygon fill="#000000" stroke="#000000" points="398.5,-294.34 395,-284.34 391.5,-294.34 398.5,-294.34"/>
</g>
<!-- simple__chained01__Runner__execute -->
<g id="node4" class="node">
<title>simple__chained01__Runner__execute</title>
<ellipse fill="#ff6565" fill-opacity="0.698039" stroke="black" cx="286" cy="-266" rx="46.59" ry="18"/>
<text text-anchor="middle" x="286" y="-262.3" font-family="Times,serif" font-size="14.00" fill="#000000">execute</text>
</g>
<!-- simple__chained01__main&#45;&gt;simple__chained01__Runner__execute -->
<g id="edge8" class="edge">
<title>simple__chained01__main&#45;&gt;simple__chained01__Runner__execute</title>
<path fill="none" stroke="#000000" d="M379.38,-357.81C361.24,-340.17 331.11,-310.87 309.99,-290.33"/>
<polygon fill="#000000" stroke="#000000" points="312.27,-287.66 302.66,-283.2 307.39,-292.68 312.27,-287.66"/>
</g>
<!-- simple__chained01__Runner__worker -->
<g id="node5" class="node">
<title>simple__chained01__Runner__worker</title>
<ellipse fill="#ff6565" fill-opacity="0.698039" stroke="black" cx="395" cy="-158" rx="43.59" ry="18"/>
<text text-anchor="middle" x="395" y="-154.3" font-family="Times,serif" font-size="14.00" fill="#000000">worker</text>
</g>
<!-- simple__chained01__main&#45;&gt;simple__chained01__Runner__worker -->
<g id="edge9" class="edge">
<title>simple__chained01__main&#45;&gt;simple__chained01__Runner__worker</title>
<path fill="none" stroke="#000000" d="M413.79,-358.81C426.1,-348.26 441.14,-332.68 448,-315 458.77,-287.24 455.9,-276.71 448,-248 441.46,-224.23 426.72,-200.39 414.44,-183.38"/>
<polygon fill="#000000" stroke="#000000" points="417.09,-181.07 408.31,-175.14 411.47,-185.25 417.09,-181.07"/>
</g>
<!-- simple__chained01__Worker__data_dict -->
<g id="node7" class="node">
<title>simple__chained01__Worker__data_dict</title>
<ellipse fill="#ff6565" fill-opacity="0.698039" stroke="black" cx="162" cy="-50" rx="53.09" ry="18"/>
<text text-anchor="middle" x="162" y="-46.3" font-family="Times,serif" font-size="14.00" fill="#000000">data_dict</text>
</g>
<!-- simple__chained01__main&#45;&gt;simple__chained01__Worker__data_dict -->
<g id="edge10" class="edge">
<title>simple__chained01__main&#45;&gt;simple__chained01__Worker__data_dict</title>
<path fill="none" stroke="#000000" d="M415.95,-359.87C430.2,-349.61 447.88,-333.94 456,-315 467.22,-288.85 462.5,-146.5 451,-132 422.46,-96 296.12,-71.16 220.25,-59.19"/>
<polygon fill="#000000" stroke="#000000" points="220.77,-55.73 210.35,-57.66 219.7,-62.65 220.77,-55.73"/>
</g>
<!-- simple__chained01__Runner____init__&#45;&gt;simple__chained01__Runner__worker -->
<g id="edge3" class="edge">
<title>simple__chained01__Runner____init__&#45;&gt;simple__chained01__Runner__worker</title>
<path fill="none" stroke="#000000" d="M395,-247.97C395,-231.38 395,-205.88 395,-186.43"/>
<polygon fill="#000000" stroke="#000000" points="398.5,-186.34 395,-176.34 391.5,-186.34 398.5,-186.34"/>
</g>
<!-- simple__chained01__Worker____init__ -->
<g id="node6" class="node">
<title>simple__chained01__Worker____init__</title>
<ellipse fill="#ff6565" fill-opacity="0.698039" stroke="black" cx="171" cy="-158" rx="44.39" ry="18"/>
<text text-anchor="middle" x="171" y="-154.3" font-family="Times,serif" font-size="14.00" fill="#000000">__init__</text>
</g>
<!-- simple__chained01__Runner____init__&#45;&gt;simple__chained01__Worker____init__ -->
<g id="edge4" class="edge">
<title>simple__chained01__Runner____init__&#45;&gt;simple__chained01__Worker____init__</title>
<path fill="none" stroke="#000000" d="M361.42,-254.15C315.91,-239.34 238.95,-213.85 227,-207 215.2,-200.23 203.54,-190.82 193.95,-182.11"/>
<polygon fill="#000000" stroke="#000000" points="196.11,-179.33 186.42,-175.04 191.32,-184.44 196.11,-179.33"/>
</g>
<!-- simple__chained01__Runner__execute&#45;&gt;simple__chained01__Runner__worker -->
<g id="edge5" class="edge">
<title>simple__chained01__Runner__execute&#45;&gt;simple__chained01__Runner__worker</title>
<path fill="none" stroke="#000000" d="M302.55,-248.9C320.91,-231.05 350.66,-202.12 371.43,-181.92"/>
<polygon fill="#000000" stroke="#000000" points="373.92,-184.38 378.65,-174.9 369.04,-179.37 373.92,-184.38"/>
</g>
<!-- simple__chained01__Worker__work -->
<g id="node8" class="node">
<title>simple__chained01__Worker__work</title>
<ellipse fill="#ff6565" fill-opacity="0.698039" stroke="black" cx="75" cy="-158" rx="33.6" ry="18"/>
<text text-anchor="middle" x="75" y="-154.3" font-family="Times,serif" font-size="14.00" fill="#000000">work</text>
</g>
<!-- simple__chained01__Runner__execute&#45;&gt;simple__chained01__Worker__work -->
<g id="edge6" class="edge">
<title>simple__chained01__Runner__execute&#45;&gt;simple__chained01__Worker__work</title>
<path fill="none" stroke="#000000" d="M245.04,-256.99C209.31,-248.64 157.2,-233.04 118,-207 108.4,-200.62 99.55,-191.6 92.42,-183.09"/>
<polygon fill="#000000" stroke="#000000" points="95.1,-180.84 86.13,-175.2 89.63,-185.2 95.1,-180.84"/>
</g>
<!-- simple__chained01__Worker____init__&#45;&gt;simple__chained01__Worker__data_dict -->
<g id="edge1" class="edge">
<title>simple__chained01__Worker____init__&#45;&gt;simple__chained01__Worker__data_dict</title>
<path fill="none" stroke="#000000" d="M169.55,-139.97C168.15,-123.38 165.98,-97.88 164.33,-78.43"/>
<polygon fill="#000000" stroke="#000000" points="167.81,-78.01 163.47,-68.34 160.83,-78.6 167.81,-78.01"/>
</g>
<!-- simple__chained01__Worker__work&#45;&gt;simple__chained01__Worker__data_dict -->
<g id="edge2" class="edge">
<title>simple__chained01__Worker__work&#45;&gt;simple__chained01__Worker__data_dict</title>
<path fill="none" stroke="#000000" d="M88.21,-140.9C102.5,-123.49 125.44,-95.54 141.96,-75.42"/>
<polygon fill="#000000" stroke="#000000" points="144.74,-77.55 148.37,-67.6 139.33,-73.11 144.74,-77.55"/>
</g>
</g>
</svg>
