<?xml version="1.0" encoding="UTF-8" standalone="no"?>
<!DOCTYPE svg PUBLIC "-//W3C//DTD SVG 1.1//EN"
 "http://www.w3.org/Graphics/SVG/1.1/DTD/svg11.dtd">
<!-- Generated by graphviz version 2.43.0 (0)
 -->
<!-- Title: G Pages: 1 -->
<svg width="514pt" height="389pt"
 viewBox="0.00 0.00 514.00 389.00" xmlns="http://www.w3.org/2000/svg" xmlns:xlink="http://www.w3.org/1999/xlink">
<g id="graph0" class="graph" transform="scale(1 1) rotate(0) translate(4 385)">
<title>G</title>
<polygon fill="white" stroke="transparent" points="-4,4 -4,-385 510,-385 510,4 -4,4"/>
<g id="clust1" class="cluster">
<title>cluster_G</title>
<path fill="#808080" fill-opacity="0.094118" stroke="black" d="M20,-8C20,-8 486,-8 486,-8 492,-8 498,-14 498,-20 498,-20 498,-361 498,-361 498,-367 492,-373 486,-373 486,-373 20,-373 20,-373 14,-373 8,-367 8,-361 8,-361 8,-20 8,-20 8,-14 14,-8 20,-8"/>
</g>
<g id="clust2" class="cluster">
<title>cluster_chained01</title>
<path fill="#808080" fill-opacity="0.094118" stroke="black" d="M28,-16C28,-16 478,-16 478,-16 484,-16 490,-22 490,-28 490,-28 490,-309 490,-309 490,-315 484,-321 478,-321 478,-321 28,-321 28,-321 22,-321 16,-315 16,-309 16,-309 16,-28 16,-28 16,-22 22,-16 28,-16"/>
<text text-anchor="middle" x="253" y="-305.8" font-family="Times,serif" font-size="14.00">chained01</text>
</g>
<g id="clust3" class="cluster">
<title>cluster_chained01__Runner</title>
<path fill="#808080" fill-opacity="0.094118" stroke="black" d="M68,-96C68,-96 260,-96 260,-96 266,-96 272,-102 272,-108 272,-108 272,-234 272,-234 272,-240 266,-246 260,-246 260,-246 68,-246 68,-246 62,-246 56,-240 56,-234 56,-234 56,-108 56,-108 56,-102 62,-96 68,-96"/>
<text text-anchor="middle" x="164" y="-230.8" font-family="Times,serif" font-size="14.00">chained01.Runner</text>
</g>
<g id="clust4" class="cluster">
<title>cluster_chained01__Worker</title>
<path fill="#808080" fill-opacity="0.094118" stroke="black" d="M292,-24C292,-24 458,-24 458,-24 464,-24 470,-30 470,-36 470,-36 470,-159 470,-159 470,-165 464,-171 458,-171 458,-171 292,-171 292,-171 286,-171 280,-165 280,-159 280,-159 280,-36 280,-36 280,-30 286,-24 292,-24"/>
<text text-anchor="middle" x="375" y="-155.8" font-family="Times,serif" font-size="14.00">chained01.Worker</text>
</g>
<!-- chained01 -->
<g id="node1" class="node">
<title>chained01</title>
<ellipse fill="#ffffff" fill-opacity="0.698039" stroke="black" cx="162" cy="-347" rx="58.49" ry="18"/>
<text text-anchor="middle" x="162" y="-343.3" font-family="Times,serif" font-size="14.00" fill="#000000">chained01</text>
</g>
<!-- chained01__Runner -->
<g id="node2" class="node">
<title>chained01__Runner</title>
<ellipse fill="#fecccc" fill-opacity="0.698039" stroke="black" cx="217" cy="-272" rx="44.69" ry="18"/>
<text text-anchor="middle" x="217" y="-268.3" font-family="Times,serif" font-size="14.00" fill="#000000">Runner</text>
</g>
<!-- chained01&#45;&gt;chained01__Runner -->
<g id="edge2" class="edge">
<title>chained01&#45;&gt;chained01__Runner</title>
<path fill="none" stroke="#838b8b" stroke-dasharray="5,2" d="M174.76,-329.07C181.8,-319.72 190.67,-307.95 198.46,-297.6"/>
<polygon fill="#838b8b" stroke="#838b8b" points="201.47,-299.43 204.69,-289.34 195.88,-295.22 201.47,-299.43"/>
</g>
<!-- chained01__Worker -->
<g id="node3" class="node">
<title>chained01__Worker</title>
<ellipse fill="#fecccc" fill-opacity="0.698039" stroke="black" cx="382" cy="-197" rx="44.69" ry="18"/>
<text text-anchor="middle" x="382" y="-193.3" font-family="Times,serif" font-size="14.00" fill="#000000">Worker</text>
</g>
<!-- chained01&#45;&gt;chained01__Worker -->
<g id="edge1" class="edge">
<title>chained01&#45;&gt;chained01__Worker</title>
<path fill="none" stroke="#838b8b" stroke-dasharray="5,2" d="M216.28,-340.25C234.57,-336.62 254.51,-330.68 271,-321 312.4,-296.68 347.01,-251.78 366.08,-223.48"/>
<polygon fill="#838b8b" stroke="#838b8b" points="369.14,-225.19 371.71,-214.92 363.29,-221.35 369.14,-225.19"/>
</g>
<!-- chained01__main -->
<g id="node4" class="node">
<title>chained01__main</title>
<ellipse fill="#fecccc" fill-opacity="0.698039" stroke="black" cx="114" cy="-272" rx="33.6" ry="18"/>
<text text-anchor="middle" x="114" y="-268.3" font-family="Times,serif" font-size="14.00" fill="#000000">main</text>
</g>
<!-- chained01&#45;&gt;chained01__main -->
<g id="edge3" class="edge">
<title>chained01&#45;&gt;chained01__main</title>
<path fill="none" stroke="#838b8b" stroke-dasharray="5,2" d="M145.35,-329.44C138.42,-320.42 130.71,-309.06 124.54,-298.9"/>
<polygon fill="#838b8b" stroke="#838b8b" points="127.42,-296.89 119.37,-290.01 121.37,-300.41 127.42,-296.89"/>
</g>
<!-- chained01&#45;&gt;chained01__main -->
<g id="edge20" class="edge">
<title>chained01&#45;&gt;chained01__main</title>
<path fill="none" stroke="#000000" d="M156.67,-329.07C151.33,-319.36 143.41,-307.04 135.75,-296.42"/>
<polygon fill="#000000" stroke="#000000" points="138.5,-294.26 129.71,-288.35 132.9,-298.45 138.5,-294.26"/>
</g>
<!-- chained01__Runner____init__ -->
<g id="node5" class="node">
<title>chained01__Runner____init__</title>
<ellipse fill="#ff9999" fill-opacity="0.698039" stroke="black" cx="220" cy="-197" rx="44.39" ry="18"/>
<text text-anchor="middle" x="220" y="-193.3" font-family="Times,serif" font-size="14.00" fill="#000000">__init__</text>
</g>
<!-- chained01__Runner&#45;&gt;chained01__Runner____init__ -->
<g id="edge7" class="edge">
<title>chained01__Runner&#45;&gt;chained01__Runner____init__</title>
<path fill="none" stroke="#838b8b" stroke-dasharray="5,2" d="M217.71,-253.7C218.06,-245.25 218.48,-234.87 218.88,-225.37"/>
<polygon fill="#838b8b" stroke="#838b8b" points="222.38,-225.31 219.29,-215.18 215.39,-225.02 222.38,-225.31"/>
</g>
<!-- chained01__Runner__execute -->
<g id="node6" class="node">
<title>chained01__Runner__execute</title>
<ellipse fill="#ff9999" fill-opacity="0.698039" stroke="black" cx="111" cy="-197" rx="46.59" ry="18"/>
<text text-anchor="middle" x="111" y="-193.3" font-family="Times,serif" font-size="14.00" fill="#000000">execute</text>
</g>
<!-- chained01__Runner&#45;&gt;chained01__Runner__execute -->
<g id="edge8" class="edge">
<title>chained01__Runner&#45;&gt;chained01__Runner__execute</title>
<path fill="none" stroke="#838b8b" stroke-dasharray="5,2" d="M188.29,-258.15C181.14,-254.55 173.63,-250.4 167,-246 156,-238.7 144.77,-229.49 135.29,-221.09"/>
<polygon fill="#838b8b" stroke="#838b8b" points="137.54,-218.41 127.78,-214.29 132.84,-223.6 137.54,-218.41"/>
</g>
<!-- chained01__Runner__worker -->
<g id="node7" class="node">
<title>chained01__Runner__worker</title>
<ellipse fill="#ff9999" fill-opacity="0.698039" stroke="black" cx="165" cy="-122" rx="43.59" ry="18"/>
<text text-anchor="middle" x="165" y="-118.3" font-family="Times,serif" font-size="14.00" fill="#000000">worker</text>
</g>
<!-- chained01__Runner&#45;&gt;chained01__Runner__worker -->
<g id="edge9" class="edge">
<title>chained01__Runner&#45;&gt;chained01__Runner__worker</title>
<path fill="none" stroke="#838b8b" stroke-dasharray="5,2" d="M254.02,-261.65C261.52,-258.01 268.48,-252.97 273,-246 289.21,-221.02 288.47,-204.44 273,-179 259.61,-156.97 234.43,-143.22 211.76,-134.86"/>
<polygon fill="#838b8b" stroke="#838b8b" points="212.83,-131.52 202.23,-131.6 210.56,-138.15 212.83,-131.52"/>
</g>
<!-- chained01__Worker____init__ -->
<g id="node8" class="node">
<title>chained01__Worker____init__</title>
<ellipse fill="#ff9999" fill-opacity="0.698039" stroke="black" cx="418" cy="-122" rx="44.39" ry="18"/>
<text text-anchor="middle" x="418" y="-118.3" font-family="Times,serif" font-size="14.00" fill="#000000">__init__</text>
</g>
<!-- chained01__Worker&#45;&gt;chained01__Worker____init__ -->
<g id="edge4" class="edge">
<title>chained01__Worker&#45;&gt;chained01__Worker____init__</title>
<path fill="none" stroke="#838b8b" stroke-dasharray="5,2" d="M390.35,-179.07C394.76,-170.13 400.26,-158.97 405.19,-148.97"/>
<polygon fill="#838b8b" stroke="#838b8b" points="408.41,-150.36 409.7,-139.84 402.13,-147.26 408.41,-150.36"/>
</g>
<!-- chained01__Worker__data_dict -->
<g id="node9" class="node">
<title>chained01__Worker__data_dict</title>
<ellipse fill="#ff9999" fill-opacity="0.698039" stroke="black" cx="375" cy="-50" rx="53.09" ry="18"/>
<text text-anchor="middle" x="375" y="-46.3" font-family="Times,serif" font-size="14.00" fill="#000000">data_dict</text>
</g>
<!-- chained01__Worker&#45;&gt;chained01__Worker__data_dict -->
<g id="edge6" class="edge">
<title>chained01__Worker&#45;&gt;chained01__Worker__data_dict</title>
<path fill="none" stroke="#838b8b" stroke-dasharray="5,2" d="M426.81,-194.36C443.38,-191.3 460.63,-184.69 471,-171 491.13,-144.43 488.88,-124.13 471,-96 461.34,-80.81 445.05,-70.65 428.61,-63.91"/>
<polygon fill="#838b8b" stroke="#838b8b" points="429.55,-60.52 418.95,-60.32 427.11,-67.09 429.55,-60.52"/>
</g>
<!-- chained01__Worker__work -->
<g id="node10" class="node">
<title>chained01__Worker__work</title>
<ellipse fill="#ff9999" fill-opacity="0.698039" stroke="black" cx="322" cy="-122" rx="33.6" ry="18"/>
<text text-anchor="middle" x="322" y="-118.3" font-family="Times,serif" font-size="14.00" fill="#000000">work</text>
</g>
<!-- chained01__Worker&#45;&gt;chained01__Worker__work -->
<g id="edge5" class="edge">
<title>chained01__Worker&#45;&gt;chained01__Worker__work</title>
<path fill="none" stroke="#838b8b" stroke-dasharray="5,2" d="M368.68,-179.8C360.65,-170.02 350.28,-157.4 341.35,-146.54"/>
<polygon fill="#838b8b" stroke="#838b8b" points="343.92,-144.16 334.87,-138.65 338.51,-148.6 343.92,-144.16"/>
</g>
<!-- chained01__main&#45;&gt;chained01__Runner____init__ -->
<g id="edge16" class="edge">
<title>chained01__main&#45;&gt;chained01__Runner____init__</title>
<path fill="none" stroke="#000000" d="M140.17,-260.51C149,-256.49 158.71,-251.53 167,-246 177.7,-238.86 188.43,-229.63 197.4,-221.18"/>
<polygon fill="#000000" stroke="#000000" points="200.04,-223.49 204.79,-214.02 195.17,-218.47 200.04,-223.49"/>
</g>
<!-- chained01__main&#45;&gt;chained01__Runner__execute -->
<g id="edge17" class="edge">
<title>chained01__main&#45;&gt;chained01__Runner__execute</title>
<path fill="none" stroke="#000000" d="M113.29,-253.7C112.94,-245.25 112.52,-234.87 112.12,-225.37"/>
<polygon fill="#000000" stroke="#000000" points="115.61,-225.02 111.71,-215.18 108.62,-225.31 115.61,-225.02"/>
</g>
<!-- chained01__main&#45;&gt;chained01__Runner__worker -->
<g id="edge19" class="edge">
<title>chained01__main&#45;&gt;chained01__Runner__worker</title>
<path fill="none" stroke="#000000" d="M82.75,-265.12C72.11,-261.47 61.33,-255.55 55,-246 38.56,-221.17 35.34,-201.36 55,-179 64.17,-168.57 104.53,-177.13 117,-171 128.29,-165.45 138.51,-156.19 146.59,-147.27"/>
<polygon fill="#000000" stroke="#000000" points="149.28,-149.5 153.11,-139.62 143.96,-144.96 149.28,-149.5"/>
</g>
<!-- chained01__main&#45;&gt;chained01__Worker__data_dict -->
<g id="edge18" class="edge">
<title>chained01__main&#45;&gt;chained01__Worker__data_dict</title>
<path fill="none" stroke="#000000" d="M80.72,-268.76C65.08,-265.84 47.77,-259.5 38,-246 -1.26,-191.76 3.98,-142.66 52,-96 87.86,-61.15 228,-52.97 311.45,-51.25"/>
<polygon fill="#000000" stroke="#000000" points="311.65,-54.74 321.59,-51.06 311.53,-47.74 311.65,-54.74"/>
</g>
<!-- chained01__Runner____init__&#45;&gt;chained01__Runner__worker -->
<g id="edge12" class="edge">
<title>chained01__Runner____init__&#45;&gt;chained01__Runner__worker</title>
<path fill="none" stroke="#000000" d="M207.52,-179.44C200.42,-170.01 191.39,-158.02 183.48,-147.52"/>
<polygon fill="#000000" stroke="#000000" points="186.24,-145.38 177.43,-139.5 180.65,-149.59 186.24,-145.38"/>
</g>
<!-- chained01__Runner____init__&#45;&gt;chained01__Worker____init__ -->
<g id="edge13" class="edge">
<title>chained01__Runner____init__&#45;&gt;chained01__Worker____init__</title>
<path fill="none" stroke="#000000" d="M250.39,-183.92C256.16,-182 262.21,-180.24 268,-179 310.3,-169.93 325.31,-188.21 365,-171 377.46,-165.6 388.94,-156.05 398.02,-146.89"/>
<polygon fill="#000000" stroke="#000000" points="400.76,-149.07 405.04,-139.38 395.65,-144.29 400.76,-149.07"/>
</g>
<!-- chained01__Runner__execute&#45;&gt;chained01__Runner__worker -->
<g id="edge15" class="edge">
<title>chained01__Runner__execute&#45;&gt;chained01__Runner__worker</title>
<path fill="none" stroke="#000000" d="M123.25,-179.44C130.16,-170.1 138.92,-158.26 146.63,-147.84"/>
<polygon fill="#000000" stroke="#000000" points="149.66,-149.62 152.8,-139.5 144.03,-145.46 149.66,-149.62"/>
</g>
<!-- chained01__Runner__execute&#45;&gt;chained01__Worker__work -->
<g id="edge14" class="edge">
<title>chained01__Runner__execute&#45;&gt;chained01__Worker__work</title>
<path fill="none" stroke="#000000" d="M144.76,-184.44C152.02,-182.32 159.71,-180.36 167,-179 190.88,-174.56 254.03,-181.34 276,-171 287.19,-165.73 297.08,-156.46 304.79,-147.46"/>
<polygon fill="#000000" stroke="#000000" points="307.72,-149.39 311.23,-139.4 302.25,-145.02 307.72,-149.39"/>
</g>
<!-- chained01__Worker____init__&#45;&gt;chained01__Worker__data_dict -->
<g id="edge10" class="edge">
<title>chained01__Worker____init__&#45;&gt;chained01__Worker__data_dict</title>
<path fill="none" stroke="#000000" d="M407.81,-104.41C402.69,-96.08 396.38,-85.8 390.66,-76.49"/>
<polygon fill="#000000" stroke="#000000" points="393.63,-74.65 385.42,-67.96 387.67,-78.31 393.63,-74.65"/>
</g>
<!-- chained01__Worker__work&#45;&gt;chained01__Worker__data_dict -->
<g id="edge11" class="edge">
<title>chained01__Worker__work&#45;&gt;chained01__Worker__data_dict</title>
<path fill="none" stroke="#000000" d="M334.03,-105.12C340.55,-96.51 348.75,-85.67 356.1,-75.96"/>
<polygon fill="#000000" stroke="#000000" points="359.04,-77.88 362.28,-67.8 353.46,-73.66 359.04,-77.88"/>
</g>
</g>
</svg>
