<?xml version="1.0" encoding="UTF-8" standalone="no"?>
<!DOCTYPE svg PUBLIC "-//W3C//DTD SVG 1.1//EN"
 "http://www.w3.org/Graphics/SVG/1.1/DTD/svg11.dtd">
<!-- Generated by graphviz version 2.43.0 (0)
 -->
<!-- Title: G Pages: 1 -->
<svg width="514pt" height="524pt"
 viewBox="0.00 0.00 514.00 524.00" xmlns="http://www.w3.org/2000/svg" xmlns:xlink="http://www.w3.org/1999/xlink">
<g id="graph0" class="graph" transform="scale(1 1) rotate(0) translate(4 520)">
<title>G</title>
<polygon fill="white" stroke="transparent" points="-4,4 -4,-520 510,-520 510,4 -4,4"/>
<g id="clust1" class="cluster">
<title>cluster_G</title>
<path fill="#808080" fill-opacity="0.094118" stroke="black" d="M20,-8C20,-8 486,-8 486,-8 492,-8 498,-14 498,-20 498,-20 498,-496 498,-496 498,-502 492,-508 486,-508 486,-508 20,-508 20,-508 14,-508 8,-502 8,-496 8,-496 8,-20 8,-20 8,-14 14,-8 20,-8"/>
</g>
<g id="clust2" class="cluster">
<title>cluster_simple__chained01</title>
<path fill="#808080" fill-opacity="0.094118" stroke="black" d="M28,-16C28,-16 478,-16 478,-16 484,-16 490,-22 490,-28 490,-28 490,-411 490,-411 490,-417 484,-423 478,-423 478,-423 28,-423 28,-423 22,-423 16,-417 16,-411 16,-411 16,-28 16,-28 16,-22 22,-16 28,-16"/>
<text text-anchor="middle" x="253" y="-407.8" font-family="Times,serif" font-size="14.00">simple.chained01</text>
</g>
<g id="clust3" class="cluster">
<title>cluster_simple__chained01__Runner</title>
<path fill="#808080" fill-opacity="0.094118" stroke="black" d="M68,-132C68,-132 260,-132 260,-132 266,-132 272,-138 272,-144 272,-144 272,-303 272,-303 272,-309 266,-315 260,-315 260,-315 68,-315 68,-315 62,-315 56,-309 56,-303 56,-303 56,-144 56,-144 56,-138 62,-132 68,-132"/>
<text text-anchor="middle" x="164" y="-299.8" font-family="Times,serif" font-size="14.00">simple.chained01.Runner</text>
</g>
<g id="clust4" class="cluster">
<title>cluster_simple__chained01__Worker</title>
<path fill="#808080" fill-opacity="0.094118" stroke="black" d="M292,-24C292,-24 467,-24 467,-24 473,-24 479,-30 479,-36 479,-36 479,-195 479,-195 479,-201 473,-207 467,-207 467,-207 292,-207 292,-207 286,-207 280,-201 280,-195 280,-195 280,-36 280,-36 280,-30 286,-24 292,-24"/>
<text text-anchor="middle" x="379.5" y="-191.8" font-family="Times,serif" font-size="14.00">simple.chained01.Worker</text>
</g>
<!-- simple__chained01 -->
<g id="node1" class="node">
<title>simple__chained01</title>
<ellipse fill="#ffffff" fill-opacity="0.698039" stroke="black" cx="162" cy="-482" rx="92.08" ry="18"/>
<text text-anchor="middle" x="162" y="-478.3" font-family="Times,serif" font-size="14.00" fill="#000000">simple.chained01</text>
</g>
<!-- simple__chained01__Runner -->
<g id="node2" class="node">
<title>simple__chained01__Runner</title>
<ellipse fill="#ff9999" fill-opacity="0.698039" stroke="black" cx="217" cy="-374" rx="44.69" ry="18"/>
<text text-anchor="middle" x="217" y="-370.3" font-family="Times,serif" font-size="14.00" fill="#000000">Runner</text>
</g>
<!-- simple__chained01&#45;&gt;simple__chained01__Runner -->
<g id="edge2" class="edge">
<title>simple__chained01&#45;&gt;simple__chained01__Runner</title>
<path fill="none" stroke="#838b8b" stroke-dasharray="5,2" d="M170.84,-463.97C179.66,-446.97 193.33,-420.62 203.51,-401.01"/>
<polygon fill="#838b8b" stroke="#838b8b" points="206.69,-402.48 208.19,-391.99 200.47,-399.25 206.69,-402.48"/>
</g>
<!-- simple__chained01__Worker -->
<g id="node3" class="node">
<title>simple__chained01__Worker</title>
<ellipse fill="#ff9999" fill-opacity="0.698039" stroke="black" cx="382" cy="-266" rx="44.69" ry="18"/>
<text text-anchor="middle" x="382" y="-262.3" font-family="Times,serif" font-size="14.00" fill="#000000">Worker</text>
</g>
<!-- simple__chained01&#45;&gt;simple__chained01__Worker -->
<g id="edge1" class="edge">
<title>simple__chained01&#45;&gt;simple__chained01__Worker</title>
<path fill="none" stroke="#838b8b" stroke-dasharray="5,2" d="M201.04,-465.58C223.13,-455.61 250.38,-441.11 271,-423 314.42,-384.87 350.05,-326.59 368.45,-293.11"/>
<polygon fill="#838b8b" stroke="#838b8b" points="371.72,-294.42 373.39,-283.96 365.56,-291.1 371.72,-294.42"/>
</g>
<!-- simple__chained01__main -->
<g id="node4" class="node">
<title>simple__chained01__main</title>
<ellipse fill="#ff9999" fill-opacity="0.698039" stroke="black" cx="114" cy="-374" rx="33.6" ry="18"/>
<text text-anchor="middle" x="114" y="-370.3" font-family="Times,serif" font-size="14.00" fill="#000000">main</text>
</g>
<!-- simple__chained01&#45;&gt;simple__chained01__main -->
<g id="edge3" class="edge">
<title>simple__chained01&#45;&gt;simple__chained01__main</title>
<path fill="none" stroke="#838b8b" stroke-dasharray="5,2" d="M149.17,-463.97C139.69,-447.12 127.63,-421.1 120.08,-401.54"/>
<polygon fill="#838b8b" stroke="#838b8b" points="123.31,-400.18 116.58,-391.99 116.73,-402.58 123.31,-400.18"/>
</g>
<!-- simple__chained01&#45;&gt;simple__chained01__main -->
<g id="edge20" class="edge">
<title>simple__chained01&#45;&gt;simple__chained01__main</title>
<path fill="none" stroke="#000000" d="M159.4,-463.97C153.48,-446.67 141.5,-419.69 131.14,-399.97"/>
<polygon fill="#000000" stroke="#000000" points="134.08,-398.05 126.21,-390.95 127.93,-401.4 134.08,-398.05"/>
</g>
<!-- simple__chained01__Runner____init__ -->
<g id="node5" class="node">
<title>simple__chained01__Runner____init__</title>
<ellipse fill="#ff6565" fill-opacity="0.698039" stroke="black" cx="220" cy="-266" rx="44.39" ry="18"/>
<text text-anchor="middle" x="220" y="-262.3" font-family="Times,serif" font-size="14.00" fill="#000000">__init__</text>
</g>
<!-- simple__chained01__Runner&#45;&gt;simple__chained01__Runner____init__ -->
<g id="edge7" class="edge">
<title>simple__chained01__Runner&#45;&gt;simple__chained01__Runner____init__</title>
<path fill="none" stroke="#838b8b" stroke-dasharray="5,2" d="M217.48,-355.97C217.95,-339.38 218.67,-313.88 219.22,-294.43"/>
<polygon fill="#838b8b" stroke="#838b8b" points="222.72,-294.44 219.51,-284.34 215.73,-294.24 222.72,-294.44"/>
</g>
<!-- simple__chained01__Runner__execute -->
<g id="node6" class="node">
<title>simple__chained01__Runner__execute</title>
<ellipse fill="#ff6565" fill-opacity="0.698039" stroke="black" cx="111" cy="-266" rx="46.59" ry="18"/>
<text text-anchor="middle" x="111" y="-262.3" font-family="Times,serif" font-size="14.00" fill="#000000">execute</text>
</g>
<!-- simple__chained01__Runner&#45;&gt;simple__chained01__Runner__execute -->
<g id="edge8" class="edge">
<title>simple__chained01__Runner&#45;&gt;simple__chained01__Runner__execute</title>
<path fill="none" stroke="#838b8b" stroke-dasharray="5,2" d="M200.9,-356.9C183.23,-339.23 154.71,-310.71 134.53,-290.53"/>
<polygon fill="#838b8b" stroke="#838b8b" points="136.8,-287.85 127.25,-283.25 131.85,-292.8 136.8,-287.85"/>
</g>
<!-- simple__chained01__Runner__worker -->
<g id="node7" class="node">
<title>simple__chained01__Runner__worker</title>
<ellipse fill="#ff6565" fill-opacity="0.698039" stroke="black" cx="165" cy="-158" rx="43.59" ry="18"/>
<text text-anchor="middle" x="165" y="-154.3" font-family="Times,serif" font-size="14.00" fill="#000000">worker</text>
</g>
<!-- simple__chained01__Runner&#45;&gt;simple__chained01__Runner__worker -->
<g id="edge9" class="edge">
<title>simple__chained01__Runner&#45;&gt;simple__chained01__Runner__worker</title>
<path fill="none" stroke="#838b8b" stroke-dasharray="5,2" d="M238.25,-357.89C250.96,-347.47 265.97,-332.39 273,-315 284.15,-287.39 285.7,-274.93 273,-248 258.23,-216.69 226.44,-192.66 201.15,-177.51"/>
<polygon fill="#838b8b" stroke="#838b8b" points="202.59,-174.29 192.18,-172.33 199.09,-180.36 202.59,-174.29"/>
</g>
<!-- simple__chained01__Worker____init__ -->
<g id="node8" class="node">
<title>simple__chained01__Worker____init__</title>
<ellipse fill="#ff6565" fill-opacity="0.698039" stroke="black" cx="418" cy="-158" rx="44.39" ry="18"/>
<text text-anchor="middle" x="418" y="-154.3" font-family="Times,serif" font-size="14.00" fill="#000000">__init__</text>
</g>
<!-- simple__chained01__Worker&#45;&gt;simple__chained01__Worker____init__ -->
<g id="edge4" class="edge">
<title>simple__chained01__Worker&#45;&gt;simple__chained01__Worker____init__</title>
<path fill="none" stroke="#838b8b" stroke-dasharray="5,2" d="M387.78,-247.97C393.5,-231.12 402.34,-205.1 408.99,-185.54"/>
<polygon fill="#838b8b" stroke="#838b8b" points="412.33,-186.58 412.23,-175.99 405.7,-184.33 412.33,-186.58"/>
</g>
<!-- simple__chained01__Worker__data_dict -->
<g id="node9" class="node">
<title>simple__chained01__Worker__data_dict</title>
<ellipse fill="#ff6565" fill-opacity="0.698039" stroke="black" cx="379" cy="-50" rx="53.09" ry="18"/>
<text text-anchor="middle" x="379" y="-46.3" font-family="Times,serif" font-size="14.00" fill="#000000">data_dict</text>
</g>
<!-- simple__chained01__Worker&#45;&gt;simple__chained01__Worker__data_dict -->
<g id="edge6" class="edge">
<title>simple__chained01__Worker&#45;&gt;simple__chained01__Worker__data_dict</title>
<path fill="none" stroke="#838b8b" stroke-dasharray="5,2" d="M414.46,-253.25C434.68,-244.04 459.05,-229.05 471,-207 486.88,-177.69 484.73,-162.38 471,-132 459.34,-106.21 434.97,-85.35 414.23,-71.27"/>
<polygon fill="#838b8b" stroke="#838b8b" points="415.91,-68.18 405.62,-65.65 412.08,-74.04 415.91,-68.18"/>
</g>
<!-- simple__chained01__Worker__work -->
<g id="node10" class="node">
<title>simple__chained01__Worker__work</title>
<ellipse fill="#ff6565" fill-opacity="0.698039" stroke="black" cx="322" cy="-158" rx="33.6" ry="18"/>
<text text-anchor="middle" x="322" y="-154.3" font-family="Times,serif" font-size="14.00" fill="#000000">work</text>
</g>
<!-- simple__chained01__Worker&#45;&gt;simple__chained01__Worker__work -->
<g id="edge5" class="edge">
<title>simple__chained01__Worker&#45;&gt;simple__chained01__Worker__work</title>
<path fill="none" stroke="#838b8b" stroke-dasharray="5,2" d="M372.36,-247.97C362.64,-230.79 347.51,-204.07 336.37,-184.39"/>
<polygon fill="#838b8b" stroke="#838b8b" points="339.39,-182.62 331.42,-175.64 333.3,-186.07 339.39,-182.62"/>
</g>
<!-- simple__chained01__main&#45;&gt;simple__chained01__Runner____init__ -->
<g id="edge16" class="edge">
<title>simple__chained01__main&#45;&gt;simple__chained01__Runner____init__</title>
<path fill="none" stroke="#000000" d="M129.19,-357.81C146.93,-340.07 176.47,-310.53 197.02,-289.98"/>
<polygon fill="#000000" stroke="#000000" points="199.55,-292.4 204.15,-282.85 194.6,-287.45 199.55,-292.4"/>
</g>
<!-- simple__chained01__main&#45;&gt;simple__chained01__Runner__execute -->
<g id="edge17" class="edge">
<title>simple__chained01__main&#45;&gt;simple__chained01__Runner__execute</title>
<path fill="none" stroke="#000000" d="M113.52,-355.97C113.05,-339.38 112.33,-313.88 111.78,-294.43"/>
<polygon fill="#000000" stroke="#000000" points="115.27,-294.24 111.49,-284.34 108.28,-294.44 115.27,-294.24"/>
</g>
<!-- simple__chained01__main&#45;&gt;simple__chained01__Runner__worker -->
<g id="edge18" class="edge">
<title>simple__chained01__main&#45;&gt;simple__chained01__Runner__worker</title>
<path fill="none" stroke="#000000" d="M93.43,-359.49C79.69,-349.15 62.77,-333.55 55,-315 43.49,-287.54 40.9,-274.23 55,-248 70.64,-218.9 91.41,-227.9 117,-207 125.9,-199.73 134.98,-191.04 142.82,-183.06"/>
<polygon fill="#000000" stroke="#000000" points="145.78,-185.03 150.19,-175.39 140.73,-180.18 145.78,-185.03"/>
</g>
<!-- simple__chained01__main&#45;&gt;simple__chained01__Worker__data_dict -->
<g id="edge19" class="edge">
<title>simple__chained01__main&#45;&gt;simple__chained01__Worker__data_dict</title>
<path fill="none" stroke="#000000" d="M90.09,-361.18C73.21,-351.38 51.91,-335.7 42,-315 27.98,-285.7 43.53,-141.92 52,-132 86.22,-91.94 234.25,-68.15 318.94,-57.57"/>
<polygon fill="#000000" stroke="#000000" points="319.44,-61.03 328.94,-56.34 318.59,-54.08 319.44,-61.03"/>
</g>
<!-- simple__chained01__Runner____init__&#45;&gt;simple__chained01__Runner__worker -->
<g id="edge12" class="edge">
<title>simple__chained01__Runner____init__&#45;&gt;simple__chained01__Runner__worker</title>
<path fill="none" stroke="#000000" d="M211.16,-247.97C202.34,-230.97 188.67,-204.62 178.49,-185.01"/>
<polygon fill="#000000" stroke="#000000" points="181.53,-183.25 173.81,-175.99 175.31,-186.48 181.53,-183.25"/>
</g>
<!-- simple__chained01__Runner____init__&#45;&gt;simple__chained01__Worker____init__ -->
<g id="edge13" class="edge">
<title>simple__chained01__Runner____init__&#45;&gt;simple__chained01__Worker____init__</title>
<path fill="none" stroke="#000000" d="M252.45,-253.54C288.94,-240.4 345.62,-219.1 365,-207 375.91,-200.19 386.68,-191.02 395.62,-182.53"/>
<polygon fill="#000000" stroke="#000000" points="398.29,-184.81 402.98,-175.31 393.39,-179.82 398.29,-184.81"/>
</g>
<!-- simple__chained01__Runner__execute&#45;&gt;simple__chained01__Runner__worker -->
<g id="edge14" class="edge">
<title>simple__chained01__Runner__execute&#45;&gt;simple__chained01__Runner__worker</title>
<path fill="none" stroke="#000000" d="M119.68,-247.97C128.34,-230.97 141.76,-204.62 151.75,-185.01"/>
<polygon fill="#000000" stroke="#000000" points="154.92,-186.49 156.35,-175.99 148.69,-183.31 154.92,-186.49"/>
</g>
<!-- simple__chained01__Runner__execute&#45;&gt;simple__chained01__Worker__work -->
<g id="edge15" class="edge">
<title>simple__chained01__Runner__execute&#45;&gt;simple__chained01__Worker__work</title>
<path fill="none" stroke="#000000" d="M145.6,-253.79C190.57,-239.08 264.74,-214.26 276,-207 286.1,-200.49 295.6,-191.34 303.31,-182.76"/>
<polygon fill="#000000" stroke="#000000" points="305.99,-185.01 309.85,-175.15 300.68,-180.45 305.99,-185.01"/>
</g>
<!-- simple__chained01__Worker____init__&#45;&gt;simple__chained01__Worker__data_dict -->
<g id="edge10" class="edge">
<title>simple__chained01__Worker____init__&#45;&gt;simple__chained01__Worker__data_dict</title>
<path fill="none" stroke="#000000" d="M411.73,-139.97C405.54,-123.12 395.96,-97.1 388.77,-77.54"/>
<polygon fill="#000000" stroke="#000000" points="391.99,-76.16 385.25,-67.99 385.42,-78.58 391.99,-76.16"/>
</g>
<!-- simple__chained01__Worker__work&#45;&gt;simple__chained01__Worker__data_dict -->
<g id="edge11" class="edge">
<title>simple__chained01__Worker__work&#45;&gt;simple__chained01__Worker__data_dict</title>
<path fill="none" stroke="#000000" d="M330.91,-140.44C340.1,-123.35 354.56,-96.46 365.22,-76.62"/>
<polygon fill="#000000" stroke="#000000" points="368.31,-78.26 369.97,-67.8 362.15,-74.95 368.31,-78.26"/>
</g>
</g>
</svg>
