<?xml version="1.0" encoding="UTF-8" standalone="no"?>
<!DOCTYPE svg PUBLIC "-//W3C//DTD SVG 1.1//EN"
 "http://www.w3.org/Graphics/SVG/1.1/DTD/svg11.dtd">
<!-- Generated by graphviz version 2.43.0 (0)
 -->
<!-- Title: G Pages: 1 -->
<svg width="244pt" height="386pt"
 viewBox="0.00 0.00 244.00 386.00" xmlns="http://www.w3.org/2000/svg" xmlns:xlink="http://www.w3.org/1999/xlink">
<g id="graph0" class="graph" transform="scale(1 1) rotate(0) translate(4 382)">
<title>G</title>
<polygon fill="white" stroke="transparent" points="-4,4 -4,-382 240,-382 240,4 -4,4"/>
<g id="clust1" class="cluster">
<title>cluster_G</title>
<path fill="#808080" fill-opacity="0.094118" stroke="black" d="M20,-8C20,-8 216,-8 216,-8 222,-8 228,-14 228,-20 228,-20 228,-358 228,-358 228,-364 222,-370 216,-370 216,-370 20,-370 20,-370 14,-370 8,-364 8,-358 8,-358 8,-20 8,-20 8,-14 14,-8 20,-8"/>
</g>
<g id="clust2" class="cluster">
<title>cluster_simple__invalid01</title>
<path fill="#808080" fill-opacity="0.094118" stroke="black" d="M28,-16C28,-16 208,-16 208,-16 214,-16 220,-22 220,-28 220,-28 220,-306 220,-306 220,-312 214,-318 208,-318 208,-318 28,-318 28,-318 22,-318 16,-312 16,-306 16,-306 16,-28 16,-28 16,-22 22,-16 28,-16"/>
<text text-anchor="middle" x="118" y="-302.8" font-family="Times,serif" font-size="14.00">simple.invalid01</text>
</g>
<g id="clust3" class="cluster">
<title>cluster_simple__invalid01__Invalid</title>
<path fill="#808080" fill-opacity="0.094118" stroke="black" d="M36,-24C36,-24 200,-24 200,-24 206,-24 212,-30 212,-36 212,-36 212,-231 212,-231 212,-237 206,-243 200,-243 200,-243 36,-243 36,-243 30,-243 24,-237 24,-231 24,-231 24,-36 24,-36 24,-30 30,-24 36,-24"/>
<text text-anchor="middle" x="118" y="-227.8" font-family="Times,serif" font-size="14.00">simple.invalid01.Invalid</text>
</g>
<!-- simple__invalid01 -->
<g id="node1" class="node">
<title>simple__invalid01</title>
<ellipse fill="#ffffff" fill-opacity="0.698039" stroke="black" cx="133" cy="-344" rx="87.18" ry="18"/>
<text text-anchor="middle" x="133" y="-340.3" font-family="Times,serif" font-size="14.00" fill="#000000">simple.invalid01</text>
</g>
<!-- simple__invalid01__Invalid -->
<g id="node2" class="node">
<title>simple__invalid01__Invalid</title>
<ellipse fill="#ff9999" fill-opacity="0.698039" stroke="black" cx="136" cy="-269" rx="42.49" ry="18"/>
<text text-anchor="middle" x="136" y="-265.3" font-family="Times,serif" font-size="14.00" fill="#000000">Invalid</text>
</g>
<!-- simple__invalid01&#45;&gt;simple__invalid01__Invalid -->
<g id="edge1" class="edge">
<title>simple__invalid01&#45;&gt;simple__invalid01__Invalid</title>
<path fill="none" stroke="#838b8b" stroke-dasharray="5,2" d="M133.71,-325.7C134.06,-317.25 134.48,-306.87 134.88,-297.37"/>
<polygon fill="#838b8b" stroke="#838b8b" points="138.38,-297.31 135.29,-287.18 131.39,-297.02 138.38,-297.31"/>
</g>
<!-- simple__invalid01__Invalid____init__ -->
<g id="node3" class="node">
<title>simple__invalid01__Invalid____init__</title>
<ellipse fill="#ff6565" fill-opacity="0.698039" stroke="black" cx="76" cy="-194" rx="44.39" ry="18"/>
<text text-anchor="middle" x="76" y="-190.3" font-family="Times,serif" font-size="14.00" fill="#000000">__init__</text>
</g>
<!-- simple__invalid01__Invalid&#45;&gt;simple__invalid01__Invalid____init__ -->
<g id="edge2" class="edge">
<title>simple__invalid01__Invalid&#45;&gt;simple__invalid01__Invalid____init__</title>
<path fill="none" stroke="#838b8b" stroke-dasharray="5,2" d="M122.68,-251.8C114.82,-242.23 104.7,-229.92 95.9,-219.21"/>
<polygon fill="#838b8b" stroke="#838b8b" points="98.54,-216.91 89.49,-211.41 93.13,-221.36 98.54,-216.91"/>
</g>
<!-- simple__invalid01__Invalid__data_field -->
<g id="node4" class="node">
<title>simple__invalid01__Invalid__data_field</title>
<ellipse fill="#ff6565" fill-opacity="0.698039" stroke="black" cx="119" cy="-50" rx="55.79" ry="18"/>
<text text-anchor="middle" x="119" y="-46.3" font-family="Times,serif" font-size="14.00" fill="#000000">data_field</text>
</g>
<!-- simple__invalid01__Invalid&#45;&gt;simple__invalid01__Invalid__data_field -->
<g id="edge4" class="edge">
<title>simple__invalid01__Invalid&#45;&gt;simple__invalid01__Invalid__data_field</title>
<path fill="none" stroke="#838b8b" stroke-dasharray="5,2" d="M146.82,-251.1C164.85,-220.67 196.98,-155.08 175,-104 169.78,-91.87 160.27,-81.22 150.55,-72.71"/>
<polygon fill="#838b8b" stroke="#838b8b" points="152.74,-69.98 142.79,-66.36 148.31,-75.4 152.74,-69.98"/>
</g>
<!-- simple__invalid01__Invalid__execute -->
<g id="node5" class="node">
<title>simple__invalid01__Invalid__execute</title>
<ellipse fill="#ff6565" fill-opacity="0.698039" stroke="black" cx="119" cy="-122" rx="46.59" ry="18"/>
<text text-anchor="middle" x="119" y="-118.3" font-family="Times,serif" font-size="14.00" fill="#000000">execute</text>
</g>
<!-- simple__invalid01__Invalid&#45;&gt;simple__invalid01__Invalid__execute -->
<g id="edge3" class="edge">
<title>simple__invalid01__Invalid&#45;&gt;simple__invalid01__Invalid__execute</title>
<path fill="none" stroke="#838b8b" stroke-dasharray="5,2" d="M135.27,-250.99C134.34,-232.48 132.44,-202.04 129,-176 127.88,-167.51 126.29,-158.33 124.7,-150.03"/>
<polygon fill="#838b8b" stroke="#838b8b" points="128.11,-149.23 122.73,-140.11 121.24,-150.6 128.11,-149.23"/>
</g>
<!-- simple__invalid01__Invalid____init__&#45;&gt;simple__invalid01__Invalid__data_field -->
<g id="edge5" class="edge">
<title>simple__invalid01__Invalid____init__&#45;&gt;simple__invalid01__Invalid__data_field</title>
<path fill="none" stroke="#000000" d="M68.38,-176.23C61.16,-157.8 52.81,-127.67 63,-104 68.22,-91.87 77.73,-81.22 87.45,-72.71"/>
<polygon fill="#000000" stroke="#000000" points="89.69,-75.4 95.21,-66.36 85.26,-69.98 89.69,-75.4"/>
</g>
<!-- simple__invalid01__Invalid____init__&#45;&gt;simple__invalid01__Invalid__execute -->
<g id="edge6" class="edge">
<title>simple__invalid01__Invalid____init__&#45;&gt;simple__invalid01__Invalid__execute</title>
<path fill="none" stroke="#000000" d="M86.19,-176.41C91.31,-168.08 97.62,-157.8 103.34,-148.49"/>
<polygon fill="#000000" stroke="#000000" points="106.33,-150.31 108.58,-139.96 100.37,-146.65 106.33,-150.31"/>
</g>
<!-- simple__invalid01__Invalid__execute&#45;&gt;simple__invalid01__Invalid__data_field -->
<g id="edge7" class="edge">
<title>simple__invalid01__Invalid__execute&#45;&gt;simple__invalid01__Invalid__data_field</title>
<path fill="none" stroke="#000000" d="M119,-103.7C119,-95.98 119,-86.71 119,-78.11"/>
<polygon fill="#000000" stroke="#000000" points="122.5,-78.1 119,-68.1 115.5,-78.1 122.5,-78.1"/>
</g>
</g>
</svg>
