<?xml version="1.0" encoding="UTF-8" standalone="no"?>
<!DOCTYPE svg PUBLIC "-//W3C//DTD SVG 1.1//EN"
 "http://www.w3.org/Graphics/SVG/1.1/DTD/svg11.dtd">
<!-- Generated by graphviz version 2.43.0 (0)
 -->
<!-- Title: G Pages: 1 -->
<svg width="340pt" height="386pt"
 viewBox="0.00 0.00 340.00 386.00" xmlns="http://www.w3.org/2000/svg" xmlns:xlink="http://www.w3.org/1999/xlink">
<g id="graph0" class="graph" transform="scale(1 1) rotate(0) translate(4 382)">
<title>G</title>
<polygon fill="white" stroke="transparent" points="-4,4 -4,-382 336,-382 336,4 -4,4"/>
<g id="clust1" class="cluster">
<title>cluster_G</title>
<path fill="#808080" fill-opacity="0.094118" stroke="black" d="M20,-8C20,-8 312,-8 312,-8 318,-8 324,-14 324,-20 324,-20 324,-358 324,-358 324,-364 318,-370 312,-370 312,-370 20,-370 20,-370 14,-370 8,-364 8,-358 8,-358 8,-20 8,-20 8,-14 14,-8 20,-8"/>
</g>
<g id="clust2" class="cluster">
<title>cluster_invalid01</title>
<path fill="#808080" fill-opacity="0.094118" stroke="black" d="M28,-16C28,-16 304,-16 304,-16 310,-16 316,-22 316,-28 316,-28 316,-306 316,-306 316,-312 310,-318 304,-318 304,-318 28,-318 28,-318 22,-318 16,-312 16,-306 16,-306 16,-28 16,-28 16,-22 22,-16 28,-16"/>
<text text-anchor="middle" x="166" y="-302.8" font-family="Times,serif" font-size="14.00">invalid01</text>
</g>
<g id="clust3" class="cluster">
<title>cluster_invalid01__Invalid</title>
<path fill="#808080" fill-opacity="0.094118" stroke="black" d="M48,-24C48,-24 296,-24 296,-24 302,-24 308,-30 308,-36 308,-36 308,-231 308,-231 308,-237 302,-243 296,-243 296,-243 48,-243 48,-243 42,-243 36,-237 36,-231 36,-231 36,-36 36,-36 36,-30 42,-24 48,-24"/>
<text text-anchor="middle" x="172" y="-227.8" font-family="Times,serif" font-size="14.00">invalid01.Invalid</text>
</g>
<!-- invalid01 -->
<g id="node1" class="node">
<title>invalid01</title>
<ellipse fill="#ffffff" fill-opacity="0.698039" stroke="black" cx="151" cy="-344" rx="53.89" ry="18"/>
<text text-anchor="middle" x="151" y="-340.3" font-family="Times,serif" font-size="14.00" fill="#000000">invalid01</text>
</g>
<!-- invalid01__Invalid -->
<g id="node2" class="node">
<title>invalid01__Invalid</title>
<ellipse fill="#fecccc" fill-opacity="0.698039" stroke="black" cx="151" cy="-269" rx="42.49" ry="18"/>
<text text-anchor="middle" x="151" y="-265.3" font-family="Times,serif" font-size="14.00" fill="#000000">Invalid</text>
</g>
<!-- invalid01&#45;&gt;invalid01__Invalid -->
<g id="edge1" class="edge">
<title>invalid01&#45;&gt;invalid01__Invalid</title>
<path fill="none" stroke="#838b8b" stroke-dasharray="5,2" d="M151,-325.7C151,-317.25 151,-306.87 151,-297.37"/>
<polygon fill="#838b8b" stroke="#838b8b" points="154.5,-297.18 151,-287.18 147.5,-297.18 154.5,-297.18"/>
</g>
<!-- invalid01__Invalid____init__ -->
<g id="node3" class="node">
<title>invalid01__Invalid____init__</title>
<ellipse fill="#ff9999" fill-opacity="0.698039" stroke="black" cx="88" cy="-194" rx="44.39" ry="18"/>
<text text-anchor="middle" x="88" y="-190.3" font-family="Times,serif" font-size="14.00" fill="#000000">__init__</text>
</g>
<!-- invalid01__Invalid&#45;&gt;invalid01__Invalid____init__ -->
<g id="edge2" class="edge">
<title>invalid01__Invalid&#45;&gt;invalid01__Invalid____init__</title>
<path fill="none" stroke="#838b8b" stroke-dasharray="5,2" d="M137.02,-251.8C128.7,-242.16 117.99,-229.75 108.7,-218.99"/>
<polygon fill="#838b8b" stroke="#838b8b" points="111.13,-216.44 101.94,-211.16 105.83,-221.01 111.13,-216.44"/>
</g>
<!-- invalid01__Invalid__data_field -->
<g id="node4" class="node">
<title>invalid01__Invalid__data_field</title>
<ellipse fill="#ff9999" fill-opacity="0.698039" stroke="black" cx="100" cy="-50" rx="55.79" ry="18"/>
<text text-anchor="middle" x="100" y="-46.3" font-family="Times,serif" font-size="14.00" fill="#000000">data_field</text>
</g>
<!-- invalid01__Invalid&#45;&gt;invalid01__Invalid__data_field -->
<g id="edge3" class="edge">
<title>invalid01__Invalid&#45;&gt;invalid01__Invalid__data_field</title>
<path fill="none" stroke="#838b8b" stroke-dasharray="5,2" d="M109.78,-264.53C80.35,-261.1 44.38,-254.62 35,-243 -3.98,-194.72 19.5,-159.11 48,-104 53.83,-92.73 62.86,-82.29 71.78,-73.71"/>
<polygon fill="#838b8b" stroke="#838b8b" points="74.14,-76.29 79.16,-66.96 69.42,-71.12 74.14,-76.29"/>
</g>
<!-- invalid01__Invalid__execute -->
<g id="node5" class="node">
<title>invalid01__Invalid__execute</title>
<ellipse fill="#ff9999" fill-opacity="0.698039" stroke="black" cx="111" cy="-122" rx="46.59" ry="18"/>
<text text-anchor="middle" x="111" y="-118.3" font-family="Times,serif" font-size="14.00" fill="#000000">execute</text>
</g>
<!-- invalid01__Invalid&#45;&gt;invalid01__Invalid__execute -->
<g id="edge4" class="edge">
<title>invalid01__Invalid&#45;&gt;invalid01__Invalid__execute</title>
<path fill="none" stroke="#838b8b" stroke-dasharray="5,2" d="M144.6,-250.95C141.93,-232.16 140.13,-201.23 132,-176 129.06,-166.89 124.45,-157.59 120.11,-149.38"/>
<polygon fill="#838b8b" stroke="#838b8b" points="123.07,-147.48 115.26,-140.31 116.89,-150.78 123.07,-147.48"/>
</g>
<!-- invalid01__Invalid&#45;&gt;invalid01__Invalid__execute -->
<g id="edge6" class="edge">
<title>invalid01__Invalid&#45;&gt;invalid01__Invalid__execute</title>
<path fill="none" stroke="#838b8b" stroke-dasharray="5,2" d="M157.78,-250.95C159.93,-232.16 158.13,-201.23 150,-176 146.79,-166.04 141.58,-155.85 135.87,-147.11"/>
<polygon fill="#838b8b" stroke="#838b8b" points="138.69,-145.04 130.05,-138.91 132.98,-149.09 138.69,-145.04"/>
</g>
<!-- invalid01__Invalid__invalid_call -->
<g id="node6" class="node">
<title>invalid01__Invalid__invalid_call</title>
<ellipse fill="#ff9999" fill-opacity="0.698039" stroke="black" cx="238" cy="-122" rx="62.29" ry="18"/>
<text text-anchor="middle" x="238" y="-118.3" font-family="Times,serif" font-size="14.00" fill="#000000">invalid_call</text>
</g>
<!-- invalid01__Invalid&#45;&gt;invalid01__Invalid__invalid_call -->
<g id="edge5" class="edge">
<title>invalid01__Invalid&#45;&gt;invalid01__Invalid__invalid_call</title>
<path fill="none" stroke="#838b8b" stroke-dasharray="5,2" d="M160.98,-251.37C176.04,-226.26 204.71,-178.48 222.5,-148.83"/>
<polygon fill="#838b8b" stroke="#838b8b" points="225.72,-150.26 227.87,-139.89 219.72,-146.66 225.72,-150.26"/>
</g>
<!-- invalid01__Invalid____init__&#45;&gt;invalid01__Invalid__data_field -->
<g id="edge7" class="edge">
<title>invalid01__Invalid____init__&#45;&gt;invalid01__Invalid__data_field</title>
<path fill="none" stroke="#000000" d="M74.36,-176.5C67.06,-166.59 58.81,-153.34 55,-140 50.6,-124.62 49.48,-119.02 55,-104 59.01,-93.07 66.39,-82.85 74.03,-74.36"/>
<polygon fill="#000000" stroke="#000000" points="76.62,-76.71 81.03,-67.08 71.58,-71.86 76.62,-76.71"/>
</g>
<!-- invalid01__Invalid____init__&#45;&gt;invalid01__Invalid__execute -->
<g id="edge8" class="edge">
<title>invalid01__Invalid____init__&#45;&gt;invalid01__Invalid__execute</title>
<path fill="none" stroke="#000000" d="M93.57,-176.05C96.16,-168.18 99.3,-158.62 102.2,-149.79"/>
<polygon fill="#000000" stroke="#000000" points="105.53,-150.87 105.32,-140.28 98.88,-148.68 105.53,-150.87"/>
</g>
<!-- invalid01__Invalid____init__&#45;&gt;invalid01__Invalid__invalid_call -->
<g id="edge9" class="edge">
<title>invalid01__Invalid____init__&#45;&gt;invalid01__Invalid__invalid_call</title>
<path fill="none" stroke="#000000" d="M115.86,-180C138.8,-169.29 171.63,-153.97 197.48,-141.91"/>
<polygon fill="#000000" stroke="#000000" points="199.08,-145.03 206.66,-137.63 196.12,-138.68 199.08,-145.03"/>
</g>
<!-- invalid01__Invalid__execute&#45;&gt;invalid01__Invalid__data_field -->
<g id="edge10" class="edge">
<title>invalid01__Invalid__execute&#45;&gt;invalid01__Invalid__data_field</title>
<path fill="none" stroke="#000000" d="M108.28,-103.7C107.07,-95.98 105.61,-86.71 104.26,-78.11"/>
<polygon fill="#000000" stroke="#000000" points="107.7,-77.44 102.69,-68.1 100.78,-78.53 107.7,-77.44"/>
</g>
</g>
</svg>
