<?xml version="1.0" encoding="UTF-8" standalone="no"?>
<!DOCTYPE svg PUBLIC "-//W3C//DTD SVG 1.1//EN"
 "http://www.w3.org/Graphics/SVG/1.1/DTD/svg11.dtd">
<!-- Generated by graphviz version 2.43.0 (0)
 -->
<!-- Title: G Pages: 1 -->
<svg width="244pt" height="524pt"
 viewBox="0.00 0.00 244.00 524.00" xmlns="http://www.w3.org/2000/svg" xmlns:xlink="http://www.w3.org/1999/xlink">
<g id="graph0" class="graph" transform="scale(1 1) rotate(0) translate(4 520)">
<title>G</title>
<polygon fill="white" stroke="transparent" points="-4,4 -4,-520 240,-520 240,4 -4,4"/>
<g id="clust1" class="cluster">
<title>cluster_G</title>
<path fill="#808080" fill-opacity="0.094118" stroke="black" d="M20,-8C20,-8 216,-8 216,-8 222,-8 228,-14 228,-20 228,-20 228,-496 228,-496 228,-502 222,-508 216,-508 216,-508 20,-508 20,-508 14,-508 8,-502 8,-496 8,-496 8,-20 8,-20 8,-14 14,-8 20,-8"/>
</g>
<g id="clust2" class="cluster">
<title>cluster_simple__invalid01</title>
<path fill="#808080" fill-opacity="0.094118" stroke="black" d="M28,-16C28,-16 208,-16 208,-16 214,-16 220,-22 220,-28 220,-28 220,-411 220,-411 220,-417 214,-423 208,-423 208,-423 28,-423 28,-423 22,-423 16,-417 16,-411 16,-411 16,-28 16,-28 16,-22 22,-16 28,-16"/>
<text text-anchor="middle" x="118" y="-407.8" font-family="Times,serif" font-size="14.00">simple.invalid01</text>
</g>
<g id="clust3" class="cluster">
<title>cluster_simple__invalid01__Invalid</title>
<path fill="#808080" fill-opacity="0.094118" stroke="black" d="M36,-24C36,-24 200,-24 200,-24 206,-24 212,-30 212,-36 212,-36 212,-303 212,-303 212,-309 206,-315 200,-315 200,-315 36,-315 36,-315 30,-315 24,-309 24,-303 24,-303 24,-36 24,-36 24,-30 30,-24 36,-24"/>
<text text-anchor="middle" x="118" y="-299.8" font-family="Times,serif" font-size="14.00">simple.invalid01.Invalid</text>
</g>
<!-- simple__invalid01 -->
<g id="node1" class="node">
<title>simple__invalid01</title>
<ellipse fill="#ffffff" fill-opacity="0.698039" stroke="black" cx="133" cy="-482" rx="87.18" ry="18"/>
<text text-anchor="middle" x="133" y="-478.3" font-family="Times,serif" font-size="14.00" fill="#000000">simple.invalid01</text>
</g>
<!-- simple__invalid01__Invalid -->
<g id="node2" class="node">
<title>simple__invalid01__Invalid</title>
<ellipse fill="#ff9999" fill-opacity="0.698039" stroke="black" cx="136" cy="-374" rx="42.49" ry="18"/>
<text text-anchor="middle" x="136" y="-370.3" font-family="Times,serif" font-size="14.00" fill="#000000">Invalid</text>
</g>
<!-- simple__invalid01&#45;&gt;simple__invalid01__Invalid -->
<g id="edge1" class="edge">
<title>simple__invalid01&#45;&gt;simple__invalid01__Invalid</title>
<path fill="none" stroke="#838b8b" stroke-dasharray="5,2" d="M133.48,-463.97C133.95,-447.38 134.67,-421.88 135.22,-402.43"/>
<polygon fill="#838b8b" stroke="#838b8b" points="138.72,-402.44 135.51,-392.34 131.73,-402.24 138.72,-402.44"/>
</g>
<!-- simple__invalid01__Invalid____init__ -->
<g id="node3" class="node">
<title>simple__invalid01__Invalid____init__</title>
<ellipse fill="#ff6565" fill-opacity="0.698039" stroke="black" cx="76" cy="-266" rx="44.39" ry="18"/>
<text text-anchor="middle" x="76" y="-262.3" font-family="Times,serif" font-size="14.00" fill="#000000">__init__</text>
</g>
<!-- simple__invalid01__Invalid&#45;&gt;simple__invalid01__Invalid____init__ -->
<g id="edge2" class="edge">
<title>simple__invalid01__Invalid&#45;&gt;simple__invalid01__Invalid____init__</title>
<path fill="none" stroke="#838b8b" stroke-dasharray="5,2" d="M126.62,-356.44C116.95,-339.35 101.73,-312.46 90.5,-292.62"/>
<polygon fill="#838b8b" stroke="#838b8b" points="93.48,-290.77 85.51,-283.8 87.39,-294.22 93.48,-290.77"/>
</g>
<!-- simple__invalid01__Invalid__data_field -->
<g id="node4" class="node">
<title>simple__invalid01__Invalid__data_field</title>
<ellipse fill="#ff6565" fill-opacity="0.698039" stroke="black" cx="119" cy="-50" rx="55.79" ry="18"/>
<text text-anchor="middle" x="119" y="-46.3" font-family="Times,serif" font-size="14.00" fill="#000000">data_field</text>
</g>
<!-- simple__invalid01__Invalid&#45;&gt;simple__invalid01__Invalid__data_field -->
<g id="edge4" class="edge">
<title>simple__invalid01__Invalid&#45;&gt;simple__invalid01__Invalid__data_field</title>
<path fill="none" stroke="#838b8b" stroke-dasharray="5,2" d="M143.92,-356.04C160.96,-317.18 197.79,-219.01 175,-140 168.15,-116.25 152.88,-92.73 140.01,-75.83"/>
<polygon fill="#838b8b" stroke="#838b8b" points="142.5,-73.33 133.56,-67.64 137,-77.66 142.5,-73.33"/>
</g>
<!-- simple__invalid01__Invalid__execute -->
<g id="node5" class="node">
<title>simple__invalid01__Invalid__execute</title>
<ellipse fill="#ff6565" fill-opacity="0.698039" stroke="black" cx="119" cy="-158" rx="46.59" ry="18"/>
<text text-anchor="middle" x="119" y="-154.3" font-family="Times,serif" font-size="14.00" fill="#000000">execute</text>
</g>
<!-- simple__invalid01__Invalid&#45;&gt;simple__invalid01__Invalid__execute -->
<g id="edge3" class="edge">
<title>simple__invalid01__Invalid&#45;&gt;simple__invalid01__Invalid__execute</title>
<path fill="none" stroke="#838b8b" stroke-dasharray="5,2" d="M135.35,-356C134.36,-331.93 132.24,-286.55 129,-248 127.25,-227.21 124.59,-203.77 122.45,-186.17"/>
<polygon fill="#838b8b" stroke="#838b8b" points="125.9,-185.53 121.2,-176.03 118.95,-186.39 125.9,-185.53"/>
</g>
<!-- simple__invalid01__Invalid____init__&#45;&gt;simple__invalid01__Invalid__data_field -->
<g id="edge5" class="edge">
<title>simple__invalid01__Invalid____init__&#45;&gt;simple__invalid01__Invalid__data_field</title>
<path fill="none" stroke="#000000" d="M70.24,-248.06C62.84,-223.69 52.18,-177.53 63,-140 69.85,-116.25 85.12,-92.73 97.99,-75.83"/>
<polygon fill="#000000" stroke="#000000" points="101,-77.66 104.44,-67.64 95.5,-73.33 101,-77.66"/>
</g>
<!-- simple__invalid01__Invalid____init__&#45;&gt;simple__invalid01__Invalid__execute -->
<g id="edge6" class="edge">
<title>simple__invalid01__Invalid____init__&#45;&gt;simple__invalid01__Invalid__execute</title>
<path fill="none" stroke="#000000" d="M82.91,-247.97C89.77,-231.05 100.4,-204.86 108.34,-185.28"/>
<polygon fill="#000000" stroke="#000000" points="111.59,-186.57 112.11,-175.99 105.11,-183.94 111.59,-186.57"/>
</g>
<!-- simple__invalid01__Invalid__execute&#45;&gt;simple__invalid01__Invalid__data_field -->
<g id="edge7" class="edge">
<title>simple__invalid01__Invalid__execute&#45;&gt;simple__invalid01__Invalid__data_field</title>
<path fill="none" stroke="#000000" d="M119,-139.97C119,-123.38 119,-97.88 119,-78.43"/>
<polygon fill="#000000" stroke="#000000" points="122.5,-78.34 119,-68.34 115.5,-78.34 122.5,-78.34"/>
</g>
</g>
</svg>
