<?xml version="1.0" encoding="UTF-8" standalone="no"?>
<!DOCTYPE svg PUBLIC "-//W3C//DTD SVG 1.1//EN"
 "http://www.w3.org/Graphics/SVG/1.1/DTD/svg11.dtd">
<!-- Generated by graphviz version 2.43.0 (0)
 -->
<!-- Title: G Pages: 1 -->
<svg width="340pt" height="386pt"
 viewBox="0.00 0.00 340.00 386.00" xmlns="http://www.w3.org/2000/svg" xmlns:xlink="http://www.w3.org/1999/xlink">
<g id="graph0" class="graph" transform="scale(1 1) rotate(0) translate(4 382)">
<title>G</title>
<polygon fill="white" stroke="transparent" points="-4,4 -4,-382 336,-382 336,4 -4,4"/>
<g id="clust1" class="cluster">
<title>cluster_G</title>
<path fill="#808080" fill-opacity="0.094118" stroke="black" d="M20,-8C20,-8 312,-8 312,-8 318,-8 324,-14 324,-20 324,-20 324,-358 324,-358 324,-364 318,-370 312,-370 312,-370 20,-370 20,-370 14,-370 8,-364 8,-358 8,-358 8,-20 8,-20 8,-14 14,-8 20,-8"/>
</g>
<g id="clust2" class="cluster">
<title>cluster_invalid01</title>
<path fill="#808080" fill-opacity="0.094118" stroke="black" d="M28,-16C28,-16 304,-16 304,-16 310,-16 316,-22 316,-28 316,-28 316,-306 316,-306 316,-312 310,-318 304,-318 304,-318 28,-318 28,-318 22,-318 16,-312 16,-306 16,-306 16,-28 16,-28 16,-22 22,-16 28,-16"/>
<text text-anchor="middle" x="166" y="-302.8" font-family="Times,serif" font-size="14.00">invalid01</text>
</g>
<g id="clust3" class="cluster">
<title>cluster_invalid01__Invalid</title>
<path fill="#808080" fill-opacity="0.094118" stroke="black" d="M48,-24C48,-24 296,-24 296,-24 302,-24 308,-30 308,-36 308,-36 308,-231 308,-231 308,-237 302,-243 296,-243 296,-243 48,-243 48,-243 42,-243 36,-237 36,-231 36,-231 36,-36 36,-36 36,-30 42,-24 48,-24"/>
<text text-anchor="middle" x="172" y="-227.8" font-family="Times,serif" font-size="14.00">invalid01.Invalid</text>
</g>
<!-- invalid01 -->
<g id="node1" class="node">
<title>invalid01</title>
<ellipse fill="#ffffff" fill-opacity="0.698039" stroke="black" cx="130" cy="-344" rx="53.89" ry="18"/>
<text text-anchor="middle" x="130" y="-340.3" font-family="Times,serif" font-size="14.00" fill="#000000">invalid01</text>
</g>
<!-- invalid01__Invalid -->
<g id="node2" class="node">
<title>invalid01__Invalid</title>
<ellipse fill="#fecccc" fill-opacity="0.698039" stroke="black" cx="130" cy="-269" rx="42.49" ry="18"/>
<text text-anchor="middle" x="130" y="-265.3" font-family="Times,serif" font-size="14.00" fill="#000000">Invalid</text>
</g>
<!-- invalid01&#45;&gt;invalid01__Invalid -->
<g id="edge1" class="edge">
<title>invalid01&#45;&gt;invalid01__Invalid</title>
<path fill="none" stroke="#838b8b" stroke-dasharray="5,2" d="M130,-325.7C130,-317.25 130,-306.87 130,-297.37"/>
<polygon fill="#838b8b" stroke="#838b8b" points="133.5,-297.18 130,-287.18 126.5,-297.18 133.5,-297.18"/>
</g>
<!-- invalid01__Invalid____init__ -->
<g id="node3" class="node">
<title>invalid01__Invalid____init__</title>
<ellipse fill="#ff9999" fill-opacity="0.698039" stroke="black" cx="99" cy="-194" rx="44.39" ry="18"/>
<text text-anchor="middle" x="99" y="-190.3" font-family="Times,serif" font-size="14.00" fill="#000000">__init__</text>
</g>
<!-- invalid01__Invalid&#45;&gt;invalid01__Invalid____init__ -->
<g id="edge2" class="edge">
<title>invalid01__Invalid&#45;&gt;invalid01__Invalid____init__</title>
<path fill="none" stroke="#838b8b" stroke-dasharray="5,2" d="M122.81,-251.07C119.05,-242.22 114.37,-231.2 110.16,-221.28"/>
<polygon fill="#838b8b" stroke="#838b8b" points="113.28,-219.68 106.15,-211.84 106.84,-222.41 113.28,-219.68"/>
</g>
<!-- invalid01__Invalid__data_field -->
<g id="node4" class="node">
<title>invalid01__Invalid__data_field</title>
<ellipse fill="#ff9999" fill-opacity="0.698039" stroke="black" cx="100" cy="-50" rx="55.79" ry="18"/>
<text text-anchor="middle" x="100" y="-46.3" font-family="Times,serif" font-size="14.00" fill="#000000">data_field</text>
</g>
<!-- invalid01__Invalid&#45;&gt;invalid01__Invalid__data_field -->
<g id="edge4" class="edge">
<title>invalid01__Invalid&#45;&gt;invalid01__Invalid__data_field</title>
<path fill="none" stroke="#838b8b" stroke-dasharray="5,2" d="M88.09,-265.8C72.31,-262.68 55.82,-256.17 46,-243 43.8,-240.05 46.38,-105.46 47,-104 51.94,-92.29 60.83,-81.81 69.93,-73.31"/>
<polygon fill="#838b8b" stroke="#838b8b" points="72.31,-75.88 77.54,-66.66 67.71,-70.6 72.31,-75.88"/>
</g>
<!-- invalid01__Invalid__execute -->
<g id="node5" class="node">
<title>invalid01__Invalid__execute</title>
<ellipse fill="#ff9999" fill-opacity="0.698039" stroke="black" cx="111" cy="-122" rx="46.59" ry="18"/>
<text text-anchor="middle" x="111" y="-118.3" font-family="Times,serif" font-size="14.00" fill="#000000">execute</text>
</g>
<!-- invalid01__Invalid&#45;&gt;invalid01__Invalid__execute -->
<g id="edge3" class="edge">
<title>invalid01__Invalid&#45;&gt;invalid01__Invalid__execute</title>
<path fill="none" stroke="#838b8b" stroke-dasharray="5,2" d="M146.79,-252.18C148.92,-249.34 150.78,-246.25 152,-243 162.51,-215.14 161.63,-204.18 152,-176 148.35,-165.32 141.58,-155.13 134.58,-146.58"/>
<polygon fill="#838b8b" stroke="#838b8b" points="137.11,-144.15 127.89,-138.93 131.84,-148.76 137.11,-144.15"/>
</g>
<!-- invalid01__Invalid__invalid_call -->
<g id="node6" class="node">
<title>invalid01__Invalid__invalid_call</title>
<ellipse fill="#ff9999" fill-opacity="0.698039" stroke="black" cx="238" cy="-122" rx="62.29" ry="18"/>
<text text-anchor="middle" x="238" y="-118.3" font-family="Times,serif" font-size="14.00" fill="#000000">invalid_call</text>
</g>
<!-- invalid01__Invalid&#45;&gt;invalid01__Invalid__invalid_call -->
<g id="edge5" class="edge">
<title>invalid01__Invalid&#45;&gt;invalid01__Invalid__invalid_call</title>
<path fill="none" stroke="#838b8b" stroke-dasharray="5,2" d="M149.82,-252.93C153.39,-249.83 156.94,-246.45 160,-243 186.19,-213.51 209.89,-174.46 224.12,-149.04"/>
<polygon fill="#838b8b" stroke="#838b8b" points="227.33,-150.46 229.09,-140.01 221.2,-147.08 227.33,-150.46"/>
</g>
<!-- invalid01__Invalid____init__&#45;&gt;invalid01__Invalid__data_field -->
<g id="edge6" class="edge">
<title>invalid01__Invalid____init__&#45;&gt;invalid01__Invalid__data_field</title>
<path fill="none" stroke="#000000" d="M80.9,-177.3C71.2,-167.65 60.2,-154.4 55,-140 49.57,-124.95 49.48,-119.02 55,-104 59.01,-93.07 66.39,-82.85 74.03,-74.36"/>
<polygon fill="#000000" stroke="#000000" points="76.62,-76.71 81.03,-67.08 71.58,-71.86 76.62,-76.71"/>
</g>
<!-- invalid01__Invalid____init__&#45;&gt;invalid01__Invalid__execute -->
<g id="edge7" class="edge">
<title>invalid01__Invalid____init__&#45;&gt;invalid01__Invalid__execute</title>
<path fill="none" stroke="#000000" d="M101.97,-175.7C103.29,-167.98 104.88,-158.71 106.35,-150.11"/>
<polygon fill="#000000" stroke="#000000" points="109.83,-150.55 108.07,-140.1 102.93,-149.37 109.83,-150.55"/>
</g>
<!-- invalid01__Invalid____init__&#45;&gt;invalid01__Invalid__invalid_call -->
<g id="edge8" class="edge">
<title>invalid01__Invalid____init__&#45;&gt;invalid01__Invalid__invalid_call</title>
<path fill="none" stroke="#000000" d="M125.8,-179.5C146.69,-168.98 175.99,-154.23 199.41,-142.43"/>
<polygon fill="#000000" stroke="#000000" points="201.04,-145.53 208.39,-137.91 197.89,-139.28 201.04,-145.53"/>
</g>
<!-- invalid01__Invalid__execute&#45;&gt;invalid01__Invalid__data_field -->
<g id="edge9" class="edge">
<title>invalid01__Invalid__execute&#45;&gt;invalid01__Invalid__data_field</title>
<path fill="none" stroke="#000000" d="M108.28,-103.7C107.07,-95.98 105.61,-86.71 104.26,-78.11"/>
<polygon fill="#000000" stroke="#000000" points="107.7,-77.44 102.69,-68.1 100.78,-78.53 107.7,-77.44"/>
</g>
</g>
</svg>
