<?xml version="1.0" encoding="UTF-8" standalone="no"?><svg xmlns="http://www.w3.org/2000/svg" xmlns:xlink="http://www.w3.org/1999/xlink" contentScriptType="application/ecmascript" contentStyleType="text/css" height="277px" preserveAspectRatio="none" style="width:212px;height:277px;background:#FEFEFE;" version="1.1" viewBox="0 0 212 277" width="212px" zoomAndPan="magnify"><defs><filter height="300%" id="fasq2sl234cqa" width="300%" x="-1" y="-1"><feGaussianBlur result="blurOut" stdDeviation="2.0"/><feColorMatrix in="blurOut" result="blurOut2" type="matrix" values="0 0 0 0 0 0 0 0 0 0 0 0 0 0 0 0 0 0 .4 0"/><feOffset dx="4.0" dy="4.0" in="blurOut2" result="blurOut3"/><feBlend in="SourceGraphic" in2="blurOut3" mode="normal"/></filter></defs><g><rect fill="#FFFFFF" filter="url(#fasq2sl234cqa)" height="149.3984" style="stroke: #A80036; stroke-width: 1.0;" width="10" x="89.5" y="69.4297"/><rect fill="#FFFFFF" filter="url(#fasq2sl234cqa)" height="58.2656" style="stroke: #A80036; stroke-width: 1.0;" width="10" x="94.5" y="139.5625"/><line style="stroke: #A80036; stroke-width: 1.0; stroke-dasharray: 5.0,5.0;" x1="94" x2="94" y1="38.2969" y2="236.8281"/><rect fill="#FEFECE" filter="url(#fasq2sl234cqa)" height="30.2969" style="stroke: #A80036; stroke-width: 1.5;" width="169" x="8" y="3"/><text fill="#000000" font-family="sans-serif" font-size="14" lengthAdjust="spacingAndGlyphs" textLength="155" x="15" y="22.9951">simple.invalid01.Invalid</text><rect fill="#FEFECE" filter="url(#fasq2sl234cqa)" height="30.2969" style="stroke: #A80036; stroke-width: 1.5;" width="169" x="8" y="235.8281"/><text fill="#000000" font-family="sans-serif" font-size="14" lengthAdjust="spacingAndGlyphs" textLength="155" x="15" y="255.8232">simple.invalid01.Invalid</text><rect fill="#FFFFFF" filter="url(#fasq2sl234cqa)" height="149.3984" style="stroke: #A80036; stroke-width: 1.0;" width="10" x="89.5" y="69.4297"/><rect fill="#FFFFFF" filter="url(#fasq2sl234cqa)" height="58.2656" style="stroke: #A80036; stroke-width: 1.0;" width="10" x="94.5" y="139.5625"/><polygon fill="#A80036" points="77.5,65.4297,87.5,69.4297,77.5,73.4297,81.5,69.4297" style="stroke: #A80036; stroke-width: 1.0;"/><line style="stroke: #A80036; stroke-width: 1.0;" x1="3" x2="83.5" y1="69.4297" y2="69.4297"/><text fill="#000000" font-family="sans-serif" font-size="13" lengthAdjust="spacingAndGlyphs" text-decoration="underline" textLength="19" x="10" y="64.3638">init</text><line style="stroke: #000000; stroke-width: 1.0;" x1="10" x2="29" y1="66.3638" y2="66.3638"/><polygon fill="#FBFB77" filter="url(#fasq2sl234cqa)" points="114,82.4297,180,82.4297,190,93.4297,180,105.4297,114,105.4297,104,93.4297,114,82.4297" style="stroke: #A80036; stroke-width: 1.0;"/><text fill="#000000" font-family="sans-serif" font-size="13" lengthAdjust="spacingAndGlyphs" textLength="62" x="116" y="98.4966">data_field</text><ellipse cx="99" cy="125.9453" fill="none" rx="4" ry="4" style="stroke: #A80036; stroke-width: 1.5;"/><line style="stroke: #A80036; stroke-width: 1.0;" x1="103.5" x2="146.5" y1="126.6953" y2="126.6953"/><line style="stroke: #A80036; stroke-width: 1.0;" x1="146.5" x2="146.5" y1="126.6953" y2="139.6953"/><line style="stroke: #A80036; stroke-width: 1.0;" x1="105.5" x2="146.5" y1="139.6953" y2="139.6953"/><polygon fill="#A80036" points="115.5,135.6953,105.5,139.6953,115.5,143.6953,111.5,139.6953" style="stroke: #A80036; stroke-width: 1.0;"/><text fill="#000000" font-family="sans-serif" font-size="13" lengthAdjust="spacingAndGlyphs" textLength="51" x="111.5" y="121.6294">execute</text><polygon fill="#FBFB77" filter="url(#fasq2sl234cqa)" points="119,157.6953,185,157.6953,195,168.6953,185,180.6953,119,180.6953,109,168.6953,119,157.6953" style="stroke: #A80036; stroke-width: 1.0;"/><text fill="#000000" font-family="sans-serif" font-size="13" lengthAdjust="spacingAndGlyphs" textLength="62" x="121" y="173.7622">data_field</text><line style="stroke: #A80036; stroke-width: 1.0; stroke-dasharray: 2.0,2.0;" x1="104.5" x2="146.5" y1="196.8281" y2="196.8281"/><line style="stroke: #A80036; stroke-width: 1.0; stroke-dasharray: 2.0,2.0;" x1="146.5" x2="146.5" y1="196.8281" y2="209.8281"/><line style="stroke: #A80036; stroke-width: 1.0; stroke-dasharray: 2.0,2.0;" x1="99.5" x2="146.5" y1="209.8281" y2="209.8281"/><polygon fill="#A80036" points="109.5,205.8281,99.5,209.8281,109.5,213.8281,105.5,209.8281" style="stroke: #A80036; stroke-width: 1.0;"/><line style="stroke: #A80036; stroke-width: 2.0;" x1="76.5" x2="86.5" y1="213.8281" y2="223.8281"/><line style="stroke: #A80036; stroke-width: 2.0;" x1="76.5" x2="86.5" y1="223.8281" y2="213.8281"/><line style="stroke: #A80036; stroke-width: 1.0; stroke-dasharray: 2.0,2.0;" x1="3" x2="81.5" y1="218.8281" y2="218.8281"/></g></svg>