<?xml version="1.0" encoding="UTF-8" standalone="no"?>
<!DOCTYPE svg PUBLIC "-//W3C//DTD SVG 1.1//EN"
 "http://www.w3.org/Graphics/SVG/1.1/DTD/svg11.dtd">
<!-- Generated by graphviz version 2.43.0 (0)
 -->
<!-- Title: G Pages: 1 -->
<svg width="244pt" height="447pt"
 viewBox="0.00 0.00 244.00 447.00" xmlns="http://www.w3.org/2000/svg" xmlns:xlink="http://www.w3.org/1999/xlink">
<g id="graph0" class="graph" transform="scale(1 1) rotate(0) translate(4 443)">
<title>G</title>
<polygon fill="white" stroke="transparent" points="-4,4 -4,-443 240,-443 240,4 -4,4"/>
<g id="clust1" class="cluster">
<title>cluster_G</title>
<path fill="#808080" fill-opacity="0.094118" stroke="black" d="M20,-8C20,-8 216,-8 216,-8 222,-8 228,-14 228,-20 228,-20 228,-419 228,-419 228,-425 222,-431 216,-431 216,-431 20,-431 20,-431 14,-431 8,-425 8,-419 8,-419 8,-20 8,-20 8,-14 14,-8 20,-8"/>
</g>
<g id="clust2" class="cluster">
<title>cluster_simple__invalid01</title>
<path fill="#808080" fill-opacity="0.094118" stroke="black" d="M28,-16C28,-16 208,-16 208,-16 214,-16 220,-22 220,-28 220,-28 220,-411 220,-411 220,-417 214,-423 208,-423 208,-423 28,-423 28,-423 22,-423 16,-417 16,-411 16,-411 16,-28 16,-28 16,-22 22,-16 28,-16"/>
<text text-anchor="middle" x="118" y="-407.8" font-family="Times,serif" font-size="14.00">simple.invalid01</text>
</g>
<g id="clust3" class="cluster">
<title>cluster_simple__invalid01__Invalid</title>
<path fill="#808080" fill-opacity="0.094118" stroke="black" d="M36,-24C36,-24 200,-24 200,-24 206,-24 212,-30 212,-36 212,-36 212,-303 212,-303 212,-309 206,-315 200,-315 200,-315 36,-315 36,-315 30,-315 24,-309 24,-303 24,-303 24,-36 24,-36 24,-30 30,-24 36,-24"/>
<text text-anchor="middle" x="118" y="-299.8" font-family="Times,serif" font-size="14.00">simple.invalid01.Invalid</text>
</g>
<!-- simple__invalid01__Invalid -->
<g id="node1" class="node">
<title>simple__invalid01__Invalid</title>
<ellipse fill="#ff9999" fill-opacity="0.698039" stroke="black" cx="156" cy="-374" rx="42.49" ry="18"/>
<text text-anchor="middle" x="156" y="-370.3" font-family="Times,serif" font-size="14.00" fill="#000000">Invalid</text>
</g>
<!-- simple__invalid01__Invalid____init__ -->
<g id="node2" class="node">
<title>simple__invalid01__Invalid____init__</title>
<ellipse fill="#ff6565" fill-opacity="0.698039" stroke="black" cx="93" cy="-266" rx="44.39" ry="18"/>
<text text-anchor="middle" x="93" y="-262.3" font-family="Times,serif" font-size="14.00" fill="#000000">__init__</text>
</g>
<!-- simple__invalid01__Invalid&#45;&gt;simple__invalid01__Invalid____init__ -->
<g id="edge1" class="edge">
<title>simple__invalid01__Invalid&#45;&gt;simple__invalid01__Invalid____init__</title>
<path fill="none" stroke="#838b8b" stroke-dasharray="5,2" d="M146.16,-356.44C136,-339.35 120.02,-312.46 108.23,-292.62"/>
<polygon fill="#838b8b" stroke="#838b8b" points="111.1,-290.6 102.98,-283.8 105.08,-294.18 111.1,-290.6"/>
</g>
<!-- simple__invalid01__Invalid__data_field -->
<g id="node3" class="node">
<title>simple__invalid01__Invalid__data_field</title>
<ellipse fill="#ff6565" fill-opacity="0.698039" stroke="black" cx="113" cy="-50" rx="55.79" ry="18"/>
<text text-anchor="middle" x="113" y="-46.3" font-family="Times,serif" font-size="14.00" fill="#000000">data_field</text>
</g>
<!-- simple__invalid01__Invalid&#45;&gt;simple__invalid01__Invalid__data_field -->
<g id="edge3" class="edge">
<title>simple__invalid01__Invalid&#45;&gt;simple__invalid01__Invalid__data_field</title>
<path fill="none" stroke="#838b8b" stroke-dasharray="5,2" d="M160.74,-355.9C170.79,-316.77 191.51,-218.05 169,-140 162.15,-116.25 146.88,-92.73 134.01,-75.83"/>
<polygon fill="#838b8b" stroke="#838b8b" points="136.5,-73.33 127.56,-67.64 131,-77.66 136.5,-73.33"/>
</g>
<!-- simple__invalid01__Invalid__execute -->
<g id="node4" class="node">
<title>simple__invalid01__Invalid__execute</title>
<ellipse fill="#ff6565" fill-opacity="0.698039" stroke="black" cx="113" cy="-158" rx="46.59" ry="18"/>
<text text-anchor="middle" x="113" y="-154.3" font-family="Times,serif" font-size="14.00" fill="#000000">execute</text>
</g>
<!-- simple__invalid01__Invalid&#45;&gt;simple__invalid01__Invalid__execute -->
<g id="edge2" class="edge">
<title>simple__invalid01__Invalid&#45;&gt;simple__invalid01__Invalid__execute</title>
<path fill="none" stroke="#838b8b" stroke-dasharray="5,2" d="M156.11,-355.8C155.93,-331.49 154.36,-285.84 146,-248 141.22,-226.34 132.34,-202.86 125,-185.45"/>
<polygon fill="#838b8b" stroke="#838b8b" points="128.08,-183.76 120.9,-175.97 121.65,-186.54 128.08,-183.76"/>
</g>
<!-- simple__invalid01__Invalid____init__&#45;&gt;simple__invalid01__Invalid__data_field -->
<g id="edge4" class="edge">
<title>simple__invalid01__Invalid____init__&#45;&gt;simple__invalid01__Invalid__data_field</title>
<path fill="none" stroke="#000000" d="M82.15,-248.42C67.86,-224.48 45.8,-178.84 57,-140 63.85,-116.25 79.12,-92.73 91.99,-75.83"/>
<polygon fill="#000000" stroke="#000000" points="95,-77.66 98.44,-67.64 89.5,-73.33 95,-77.66"/>
</g>
<!-- simple__invalid01__Invalid____init__&#45;&gt;simple__invalid01__Invalid__execute -->
<g id="edge5" class="edge">
<title>simple__invalid01__Invalid____init__&#45;&gt;simple__invalid01__Invalid__execute</title>
<path fill="none" stroke="#000000" d="M96.21,-247.97C99.36,-231.28 104.21,-205.58 107.89,-186.08"/>
<polygon fill="#000000" stroke="#000000" points="111.38,-186.46 109.79,-175.99 104.5,-185.17 111.38,-186.46"/>
</g>
<!-- simple__invalid01__Invalid__execute&#45;&gt;simple__invalid01__Invalid__data_field -->
<g id="edge6" class="edge">
<title>simple__invalid01__Invalid__execute&#45;&gt;simple__invalid01__Invalid__data_field</title>
<path fill="none" stroke="#000000" d="M113,-139.97C113,-123.38 113,-97.88 113,-78.43"/>
<polygon fill="#000000" stroke="#000000" points="116.5,-78.34 113,-68.34 109.5,-78.34 116.5,-78.34"/>
</g>
</g>
</svg>
