<?xml version="1.0" encoding="UTF-8" standalone="no"?>
<!DOCTYPE svg PUBLIC "-//W3C//DTD SVG 1.1//EN"
 "http://www.w3.org/Graphics/SVG/1.1/DTD/svg11.dtd">
<!-- Generated by graphviz version 2.43.0 (0)
 -->
<!-- Title: G Pages: 1 -->
<svg width="340pt" height="386pt"
 viewBox="0.00 0.00 340.00 386.00" xmlns="http://www.w3.org/2000/svg" xmlns:xlink="http://www.w3.org/1999/xlink">
<g id="graph0" class="graph" transform="scale(1 1) rotate(0) translate(4 382)">
<title>G</title>
<polygon fill="white" stroke="transparent" points="-4,4 -4,-382 336,-382 336,4 -4,4"/>
<g id="clust1" class="cluster">
<title>cluster_G</title>
<path fill="#808080" fill-opacity="0.094118" stroke="black" d="M20,-8C20,-8 312,-8 312,-8 318,-8 324,-14 324,-20 324,-20 324,-358 324,-358 324,-364 318,-370 312,-370 312,-370 20,-370 20,-370 14,-370 8,-364 8,-358 8,-358 8,-20 8,-20 8,-14 14,-8 20,-8"/>
</g>
<g id="clust2" class="cluster">
<title>cluster_simple__invalid01</title>
<path fill="#808080" fill-opacity="0.094118" stroke="black" d="M28,-16C28,-16 304,-16 304,-16 310,-16 316,-22 316,-28 316,-28 316,-306 316,-306 316,-312 310,-318 304,-318 304,-318 28,-318 28,-318 22,-318 16,-312 16,-306 16,-306 16,-28 16,-28 16,-22 22,-16 28,-16"/>
<text text-anchor="middle" x="166" y="-302.8" font-family="Times,serif" font-size="14.00">simple.invalid01</text>
</g>
<g id="clust3" class="cluster">
<title>cluster_simple__invalid01__Invalid</title>
<path fill="#808080" fill-opacity="0.094118" stroke="black" d="M48,-24C48,-24 296,-24 296,-24 302,-24 308,-30 308,-36 308,-36 308,-231 308,-231 308,-237 302,-243 296,-243 296,-243 48,-243 48,-243 42,-243 36,-237 36,-231 36,-231 36,-36 36,-36 36,-30 42,-24 48,-24"/>
<text text-anchor="middle" x="172" y="-227.8" font-family="Times,serif" font-size="14.00">simple.invalid01.Invalid</text>
</g>
<!-- simple__invalid01 -->
<g id="node1" class="node">
<title>simple__invalid01</title>
<ellipse fill="#ffffff" fill-opacity="0.698039" stroke="black" cx="107" cy="-344" rx="87.18" ry="18"/>
<text text-anchor="middle" x="107" y="-340.3" font-family="Times,serif" font-size="14.00" fill="#000000">simple.invalid01</text>
</g>
<!-- simple__invalid01__Invalid -->
<g id="node2" class="node">
<title>simple__invalid01__Invalid</title>
<ellipse fill="#ff9999" fill-opacity="0.698039" stroke="black" cx="107" cy="-269" rx="42.49" ry="18"/>
<text text-anchor="middle" x="107" y="-265.3" font-family="Times,serif" font-size="14.00" fill="#000000">Invalid</text>
</g>
<!-- simple__invalid01&#45;&gt;simple__invalid01__Invalid -->
<g id="edge1" class="edge">
<title>simple__invalid01&#45;&gt;simple__invalid01__Invalid</title>
<path fill="none" stroke="#838b8b" stroke-dasharray="5,2" d="M107,-325.7C107,-317.25 107,-306.87 107,-297.37"/>
<polygon fill="#838b8b" stroke="#838b8b" points="110.5,-297.18 107,-287.18 103.5,-297.18 110.5,-297.18"/>
</g>
<!-- simple__invalid01__Invalid____init__ -->
<g id="node3" class="node">
<title>simple__invalid01__Invalid____init__</title>
<ellipse fill="#ff6565" fill-opacity="0.698039" stroke="black" cx="98" cy="-194" rx="44.39" ry="18"/>
<text text-anchor="middle" x="98" y="-190.3" font-family="Times,serif" font-size="14.00" fill="#000000">__init__</text>
</g>
<!-- simple__invalid01__Invalid&#45;&gt;simple__invalid01__Invalid____init__ -->
<g id="edge2" class="edge">
<title>simple__invalid01__Invalid&#45;&gt;simple__invalid01__Invalid____init__</title>
<path fill="none" stroke="#838b8b" stroke-dasharray="5,2" d="M104.87,-250.7C103.82,-242.25 102.55,-231.87 101.37,-222.37"/>
<polygon fill="#838b8b" stroke="#838b8b" points="104.81,-221.67 100.12,-212.18 97.87,-222.53 104.81,-221.67"/>
</g>
<!-- simple__invalid01__Invalid__data_field -->
<g id="node4" class="node">
<title>simple__invalid01__Invalid__data_field</title>
<ellipse fill="#ff6565" fill-opacity="0.698039" stroke="black" cx="100" cy="-50" rx="55.79" ry="18"/>
<text text-anchor="middle" x="100" y="-46.3" font-family="Times,serif" font-size="14.00" fill="#000000">data_field</text>
</g>
<!-- simple__invalid01__Invalid&#45;&gt;simple__invalid01__Invalid__data_field -->
<g id="edge4" class="edge">
<title>simple__invalid01__Invalid&#45;&gt;simple__invalid01__Invalid__data_field</title>
<path fill="none" stroke="#838b8b" stroke-dasharray="5,2" d="M69.32,-260.77C59.83,-257.06 50.71,-251.47 45,-243 10.43,-191.79 22.57,-160.75 47,-104 52.03,-92.33 60.93,-81.85 70.02,-73.35"/>
<polygon fill="#838b8b" stroke="#838b8b" points="72.4,-75.92 77.62,-66.7 67.79,-70.65 72.4,-75.92"/>
</g>
<!-- simple__invalid01__Invalid__execute -->
<g id="node5" class="node">
<title>simple__invalid01__Invalid__execute</title>
<ellipse fill="#ff6565" fill-opacity="0.698039" stroke="black" cx="111" cy="-122" rx="46.59" ry="18"/>
<text text-anchor="middle" x="111" y="-118.3" font-family="Times,serif" font-size="14.00" fill="#000000">execute</text>
</g>
<!-- simple__invalid01__Invalid&#45;&gt;simple__invalid01__Invalid__execute -->
<g id="edge3" class="edge">
<title>simple__invalid01__Invalid&#45;&gt;simple__invalid01__Invalid__execute</title>
<path fill="none" stroke="#838b8b" stroke-dasharray="5,2" d="M137.59,-256.29C142.95,-252.84 147.82,-248.47 151,-243 165.98,-217.26 160.46,-204.24 151,-176 147.45,-165.4 140.84,-155.22 134.01,-146.67"/>
<polygon fill="#838b8b" stroke="#838b8b" points="136.63,-144.35 127.48,-139.01 131.31,-148.89 136.63,-144.35"/>
</g>
<!-- simple__invalid01__Invalid__invalid_call -->
<g id="node6" class="node">
<title>simple__invalid01__Invalid__invalid_call</title>
<ellipse fill="#ff6565" fill-opacity="0.698039" stroke="black" cx="238" cy="-122" rx="62.29" ry="18"/>
<text text-anchor="middle" x="238" y="-118.3" font-family="Times,serif" font-size="14.00" fill="#000000">invalid_call</text>
</g>
<!-- simple__invalid01__Invalid&#45;&gt;simple__invalid01__Invalid__invalid_call -->
<g id="edge5" class="edge">
<title>simple__invalid01__Invalid&#45;&gt;simple__invalid01__Invalid__invalid_call</title>
<path fill="none" stroke="#838b8b" stroke-dasharray="5,2" d="M138.18,-256.79C145.83,-253.13 153.64,-248.55 160,-243 190.18,-216.66 213.28,-175.91 226.25,-149.34"/>
<polygon fill="#838b8b" stroke="#838b8b" points="229.44,-150.78 230.56,-140.25 223.11,-147.78 229.44,-150.78"/>
</g>
<!-- simple__invalid01__Invalid____init__&#45;&gt;simple__invalid01__Invalid__data_field -->
<g id="edge6" class="edge">
<title>simple__invalid01__Invalid____init__&#45;&gt;simple__invalid01__Invalid__data_field</title>
<path fill="none" stroke="#000000" d="M80.3,-177.22C70.82,-167.54 60.07,-154.29 55,-140 49.65,-124.92 49.48,-119.02 55,-104 59.01,-93.07 66.39,-82.85 74.03,-74.36"/>
<polygon fill="#000000" stroke="#000000" points="76.62,-76.71 81.03,-67.08 71.58,-71.86 76.62,-76.71"/>
</g>
<!-- simple__invalid01__Invalid____init__&#45;&gt;simple__invalid01__Invalid__execute -->
<g id="edge7" class="edge">
<title>simple__invalid01__Invalid____init__&#45;&gt;simple__invalid01__Invalid__execute</title>
<path fill="none" stroke="#000000" d="M101.21,-175.7C102.65,-167.98 104.37,-158.71 105.96,-150.11"/>
<polygon fill="#000000" stroke="#000000" points="109.44,-150.58 107.82,-140.1 102.56,-149.3 109.44,-150.58"/>
</g>
<!-- simple__invalid01__Invalid____init__&#45;&gt;simple__invalid01__Invalid__invalid_call -->
<g id="edge8" class="edge">
<title>simple__invalid01__Invalid____init__&#45;&gt;simple__invalid01__Invalid__invalid_call</title>
<path fill="none" stroke="#000000" d="M124.99,-179.5C146.04,-168.98 175.55,-154.23 199.13,-142.43"/>
<polygon fill="#000000" stroke="#000000" points="200.8,-145.51 208.18,-137.91 197.67,-139.25 200.8,-145.51"/>
</g>
<!-- simple__invalid01__Invalid__execute&#45;&gt;simple__invalid01__Invalid__data_field -->
<g id="edge9" class="edge">
<title>simple__invalid01__Invalid__execute&#45;&gt;simple__invalid01__Invalid__data_field</title>
<path fill="none" stroke="#000000" d="M108.28,-103.7C107.07,-95.98 105.61,-86.71 104.26,-78.11"/>
<polygon fill="#000000" stroke="#000000" points="107.7,-77.44 102.69,-68.1 100.78,-78.53 107.7,-77.44"/>
</g>
</g>
</svg>
