<?xml version="1.0" encoding="UTF-8" standalone="no"?>
<!DOCTYPE svg PUBLIC "-//W3C//DTD SVG 1.1//EN"
 "http://www.w3.org/Graphics/SVG/1.1/DTD/svg11.dtd">
<!-- Generated by graphviz version 2.43.0 (0)
 -->
<!-- Title: G Pages: 1 -->
<svg width="228pt" height="331pt"
 viewBox="0.00 0.00 228.00 331.00" xmlns="http://www.w3.org/2000/svg" xmlns:xlink="http://www.w3.org/1999/xlink">
<g id="graph0" class="graph" transform="scale(1 1) rotate(0) translate(4 327)">
<title>G</title>
<polygon fill="white" stroke="transparent" points="-4,4 -4,-327 224,-327 224,4 -4,4"/>
<g id="clust1" class="cluster">
<title>cluster_G</title>
<path fill="#808080" fill-opacity="0.094118" stroke="black" d="M20,-8C20,-8 200,-8 200,-8 206,-8 212,-14 212,-20 212,-20 212,-303 212,-303 212,-309 206,-315 200,-315 200,-315 20,-315 20,-315 14,-315 8,-309 8,-303 8,-303 8,-20 8,-20 8,-14 14,-8 20,-8"/>
</g>
<g id="clust2" class="cluster">
<title>cluster_simple__invalid01__Invalid</title>
<path fill="#808080" fill-opacity="0.094118" stroke="black" d="M28,-16C28,-16 192,-16 192,-16 198,-16 204,-22 204,-28 204,-28 204,-295 204,-295 204,-301 198,-307 192,-307 192,-307 28,-307 28,-307 22,-307 16,-301 16,-295 16,-295 16,-28 16,-28 16,-22 22,-16 28,-16"/>
<text text-anchor="middle" x="110" y="-291.8" font-family="Times,serif" font-size="14.00">simple.invalid01.Invalid</text>
</g>
<!-- simple__invalid01__Invalid____init__ -->
<g id="node1" class="node">
<title>simple__invalid01__Invalid____init__</title>
<ellipse fill="#ff6565" fill-opacity="0.698039" stroke="black" cx="79" cy="-258" rx="44.39" ry="18"/>
<text text-anchor="middle" x="79" y="-254.3" font-family="Times,serif" font-size="14.00" fill="#000000">__init__</text>
</g>
<!-- simple__invalid01__Invalid__data_field -->
<g id="node2" class="node">
<title>simple__invalid01__Invalid__data_field</title>
<ellipse fill="#ff6565" fill-opacity="0.698039" stroke="black" cx="99" cy="-42" rx="55.79" ry="18"/>
<text text-anchor="middle" x="99" y="-38.3" font-family="Times,serif" font-size="14.00" fill="#000000">data_field</text>
</g>
<!-- simple__invalid01__Invalid____init__&#45;&gt;simple__invalid01__Invalid__data_field -->
<g id="edge1" class="edge">
<title>simple__invalid01__Invalid____init__&#45;&gt;simple__invalid01__Invalid__data_field</title>
<path fill="none" stroke="#000000" d="M73.1,-239.91C65.57,-215.73 54.37,-170.23 62,-132 66.45,-109.71 76.59,-86.01 85.14,-68.68"/>
<polygon fill="#000000" stroke="#000000" points="88.26,-70.26 89.67,-59.76 82.02,-67.09 88.26,-70.26"/>
</g>
<!-- simple__invalid01__Invalid__execute -->
<g id="node3" class="node">
<title>simple__invalid01__Invalid__execute</title>
<ellipse fill="#ff6565" fill-opacity="0.698039" stroke="black" cx="118" cy="-150" rx="46.59" ry="18"/>
<text text-anchor="middle" x="118" y="-146.3" font-family="Times,serif" font-size="14.00" fill="#000000">execute</text>
</g>
<!-- simple__invalid01__Invalid____init__&#45;&gt;simple__invalid01__Invalid__execute -->
<g id="edge2" class="edge">
<title>simple__invalid01__Invalid____init__&#45;&gt;simple__invalid01__Invalid__execute</title>
<path fill="none" stroke="#000000" d="M85.27,-239.97C91.46,-223.12 101.04,-197.1 108.23,-177.54"/>
<polygon fill="#000000" stroke="#000000" points="111.58,-178.58 111.75,-167.99 105.01,-176.16 111.58,-178.58"/>
</g>
<!-- simple__invalid01__Invalid__execute&#45;&gt;simple__invalid01__Invalid__data_field -->
<g id="edge3" class="edge">
<title>simple__invalid01__Invalid__execute&#45;&gt;simple__invalid01__Invalid__data_field</title>
<path fill="none" stroke="#000000" d="M114.95,-131.97C111.96,-115.28 107.35,-89.58 103.85,-70.08"/>
<polygon fill="#000000" stroke="#000000" points="107.25,-69.21 102.05,-59.99 100.36,-70.45 107.25,-69.21"/>
</g>
</g>
</svg>
