<?xml version="1.0" encoding="UTF-8" standalone="no"?>
<!DOCTYPE svg PUBLIC "-//W3C//DTD SVG 1.1//EN"
 "http://www.w3.org/Graphics/SVG/1.1/DTD/svg11.dtd">
<!-- Generated by graphviz version 2.43.0 (0)
 -->
<!-- Title: G Pages: 1 -->
<svg width="398pt" height="386pt"
 viewBox="0.00 0.00 398.00 386.00" xmlns="http://www.w3.org/2000/svg" xmlns:xlink="http://www.w3.org/1999/xlink">
<g id="graph0" class="graph" transform="scale(1 1) rotate(0) translate(4 382)">
<title>G</title>
<polygon fill="white" stroke="transparent" points="-4,4 -4,-382 394,-382 394,4 -4,4"/>
<g id="clust1" class="cluster">
<title>cluster_G</title>
<path fill="#808080" fill-opacity="0.094118" stroke="black" d="M20,-8C20,-8 370,-8 370,-8 376,-8 382,-14 382,-20 382,-20 382,-358 382,-358 382,-364 376,-370 370,-370 370,-370 20,-370 20,-370 14,-370 8,-364 8,-358 8,-358 8,-20 8,-20 8,-14 14,-8 20,-8"/>
</g>
<g id="clust2" class="cluster">
<title>cluster_single01</title>
<path fill="#808080" fill-opacity="0.094118" stroke="black" d="M28,-16C28,-16 362,-16 362,-16 368,-16 374,-22 374,-28 374,-28 374,-306 374,-306 374,-312 368,-318 362,-318 362,-318 28,-318 28,-318 22,-318 16,-312 16,-306 16,-306 16,-28 16,-28 16,-22 22,-16 28,-16"/>
<text text-anchor="middle" x="195" y="-302.8" font-family="Times,serif" font-size="14.00">single01</text>
</g>
<g id="clust3" class="cluster">
<title>cluster_single01__Runner</title>
<path fill="#808080" fill-opacity="0.094118" stroke="black" d="M36,-24C36,-24 354,-24 354,-24 360,-24 366,-30 366,-36 366,-36 366,-231 366,-231 366,-237 360,-243 354,-243 354,-243 36,-243 36,-243 30,-243 24,-237 24,-231 24,-231 24,-36 24,-36 24,-30 30,-24 36,-24"/>
<text text-anchor="middle" x="195" y="-227.8" font-family="Times,serif" font-size="14.00">single01.Runner</text>
</g>
<!-- single01 -->
<g id="node1" class="node">
<title>single01</title>
<ellipse fill="#ffffff" fill-opacity="0.698039" stroke="black" cx="113" cy="-344" rx="50.09" ry="18"/>
<text text-anchor="middle" x="113" y="-340.3" font-family="Times,serif" font-size="14.00" fill="#000000">single01</text>
</g>
<!-- single01__Runner -->
<g id="node2" class="node">
<title>single01__Runner</title>
<ellipse fill="#fecccc" fill-opacity="0.698039" stroke="black" cx="239" cy="-269" rx="44.69" ry="18"/>
<text text-anchor="middle" x="239" y="-265.3" font-family="Times,serif" font-size="14.00" fill="#000000">Runner</text>
</g>
<!-- single01&#45;&gt;single01__Runner -->
<g id="edge1" class="edge">
<title>single01&#45;&gt;single01__Runner</title>
<path fill="none" stroke="#838b8b" stroke-dasharray="5,2" d="M138.2,-328.4C157.55,-317.19 184.46,-301.6 205.61,-289.35"/>
<polygon fill="#838b8b" stroke="#838b8b" points="207.38,-292.36 214.28,-284.32 203.87,-286.31 207.38,-292.36"/>
</g>
<!-- single01__main -->
<g id="node3" class="node">
<title>single01__main</title>
<ellipse fill="#fecccc" fill-opacity="0.698039" stroke="black" cx="113" cy="-269" rx="33.6" ry="18"/>
<text text-anchor="middle" x="113" y="-265.3" font-family="Times,serif" font-size="14.00" fill="#000000">main</text>
</g>
<!-- single01&#45;&gt;single01__main -->
<g id="edge2" class="edge">
<title>single01&#45;&gt;single01__main</title>
<path fill="none" stroke="#838b8b" stroke-dasharray="5,2" d="M107.2,-326.07C106.27,-317.41 106.02,-306.66 106.46,-296.9"/>
<polygon fill="#838b8b" stroke="#838b8b" points="109.96,-297.07 107.21,-286.84 102.98,-296.55 109.96,-297.07"/>
</g>
<!-- single01&#45;&gt;single01__main -->
<g id="edge16" class="edge">
<title>single01&#45;&gt;single01__main</title>
<path fill="none" stroke="#000000" d="M118.8,-326.07C119.73,-317.41 119.98,-306.66 119.54,-296.9"/>
<polygon fill="#000000" stroke="#000000" points="123.02,-296.55 118.79,-286.84 116.04,-297.07 123.02,-296.55"/>
</g>
<!-- single01__Runner__STATIC_FIELD -->
<g id="node4" class="node">
<title>single01__Runner__STATIC_FIELD</title>
<ellipse fill="#ff9999" fill-opacity="0.698039" stroke="black" cx="279" cy="-50" rx="79.09" ry="18"/>
<text text-anchor="middle" x="279" y="-46.3" font-family="Times,serif" font-size="14.00" fill="#000000">STATIC_FIELD</text>
</g>
<!-- single01__Runner&#45;&gt;single01__Runner__STATIC_FIELD -->
<g id="edge3" class="edge">
<title>single01__Runner&#45;&gt;single01__Runner__STATIC_FIELD</title>
<path fill="none" stroke="#838b8b" stroke-dasharray="5,2" d="M257.81,-252.36C260.27,-249.5 262.46,-246.34 264,-243 289,-188.73 286.41,-116.67 282.56,-78.1"/>
<polygon fill="#838b8b" stroke="#838b8b" points="286.04,-77.71 281.47,-68.15 279.08,-78.48 286.04,-77.71"/>
</g>
<!-- single01__Runner____init__ -->
<g id="node5" class="node">
<title>single01__Runner____init__</title>
<ellipse fill="#ff9999" fill-opacity="0.698039" stroke="black" cx="176" cy="-194" rx="44.39" ry="18"/>
<text text-anchor="middle" x="176" y="-190.3" font-family="Times,serif" font-size="14.00" fill="#000000">__init__</text>
</g>
<!-- single01__Runner&#45;&gt;single01__Runner____init__ -->
<g id="edge4" class="edge">
<title>single01__Runner&#45;&gt;single01__Runner____init__</title>
<path fill="none" stroke="#838b8b" stroke-dasharray="5,2" d="M225.02,-251.8C216.7,-242.16 205.99,-229.75 196.7,-218.99"/>
<polygon fill="#838b8b" stroke="#838b8b" points="199.13,-216.44 189.94,-211.16 193.83,-221.01 199.13,-216.44"/>
</g>
<!-- single01__Runner__execute -->
<g id="node6" class="node">
<title>single01__Runner__execute</title>
<ellipse fill="#ff9999" fill-opacity="0.698039" stroke="black" cx="190" cy="-122" rx="46.59" ry="18"/>
<text text-anchor="middle" x="190" y="-118.3" font-family="Times,serif" font-size="14.00" fill="#000000">execute</text>
</g>
<!-- single01__Runner&#45;&gt;single01__Runner__execute -->
<g id="edge6" class="edge">
<title>single01__Runner&#45;&gt;single01__Runner__execute</title>
<path fill="none" stroke="#838b8b" stroke-dasharray="5,2" d="M233.2,-251.1C231.01,-232.16 229.68,-200.85 220,-176 216.12,-166.04 209.87,-156.29 203.94,-147.92"/>
<polygon fill="#838b8b" stroke="#838b8b" points="206.71,-145.77 197.99,-139.74 201.05,-149.89 206.71,-145.77"/>
</g>
<!-- single01__Runner&#45;&gt;single01__Runner__execute -->
<g id="edge7" class="edge">
<title>single01__Runner&#45;&gt;single01__Runner__execute</title>
<path fill="none" stroke="#838b8b" stroke-dasharray="5,2" d="M246.3,-251.1C249.01,-232.16 247.68,-200.85 238,-176 233.75,-165.08 226.64,-154.4 219.07,-145.52"/>
<polygon fill="#838b8b" stroke="#838b8b" points="221.41,-142.89 212.05,-137.92 216.26,-147.64 221.41,-142.89"/>
</g>
<!-- single01__Runner__instance_field -->
<g id="node7" class="node">
<title>single01__Runner__instance_field</title>
<ellipse fill="#ff9999" fill-opacity="0.698039" stroke="black" cx="107" cy="-50" rx="74.99" ry="18"/>
<text text-anchor="middle" x="107" y="-46.3" font-family="Times,serif" font-size="14.00" fill="#000000">instance_field</text>
</g>
<!-- single01__Runner&#45;&gt;single01__Runner__instance_field -->
<g id="edge5" class="edge">
<title>single01__Runner&#45;&gt;single01__Runner__instance_field</title>
<path fill="none" stroke="#838b8b" stroke-dasharray="5,2" d="M245.91,-250.82C257.58,-218.78 277.04,-149.06 246,-104 236.33,-89.97 199.69,-76.32 166.46,-66.38"/>
<polygon fill="#838b8b" stroke="#838b8b" points="167.32,-62.99 156.74,-63.56 165.37,-69.71 167.32,-62.99"/>
</g>
<!-- single01__main&#45;&gt;single01__Runner__STATIC_FIELD -->
<g id="edge15" class="edge">
<title>single01__main&#45;&gt;single01__Runner__STATIC_FIELD</title>
<path fill="none" stroke="#000000" d="M107.62,-251.19C106.95,-248.48 106.37,-245.68 106,-243 97.42,-180.57 88.99,-148.1 134,-104 153.95,-84.46 181.68,-72.04 207.55,-64.19"/>
<polygon fill="#000000" stroke="#000000" points="208.69,-67.5 217.35,-61.4 206.78,-60.77 208.69,-67.5"/>
</g>
<!-- single01__main&#45;&gt;single01__Runner____init__ -->
<g id="edge12" class="edge">
<title>single01__main&#45;&gt;single01__Runner____init__</title>
<path fill="none" stroke="#000000" d="M126.67,-252.16C135.06,-242.44 145.96,-229.81 155.38,-218.89"/>
<polygon fill="#000000" stroke="#000000" points="158.04,-221.17 161.92,-211.31 152.74,-216.6 158.04,-221.17"/>
</g>
<!-- single01__main&#45;&gt;single01__Runner__execute -->
<g id="edge14" class="edge">
<title>single01__main&#45;&gt;single01__Runner__execute</title>
<path fill="none" stroke="#000000" d="M111.08,-250.89C109.72,-231.48 110.02,-199.48 123,-176 130.39,-162.63 142.68,-151.44 154.73,-142.84"/>
<polygon fill="#000000" stroke="#000000" points="157.03,-145.51 163.39,-137.04 153.13,-139.7 157.03,-145.51"/>
</g>
<!-- single01__main&#45;&gt;single01__Runner__instance_field -->
<g id="edge13" class="edge">
<title>single01__main&#45;&gt;single01__Runner__instance_field</title>
<path fill="none" stroke="#000000" d="M94.94,-253.59C92.11,-250.43 89.6,-246.86 88,-243 64.36,-185.92 77.42,-164.87 88,-104 89.52,-95.24 92.36,-86.01 95.39,-77.75"/>
<polygon fill="#000000" stroke="#000000" points="98.72,-78.84 99.11,-68.25 92.21,-76.29 98.72,-78.84"/>
</g>
<!-- single01__Runner____init__&#45;&gt;single01__Runner__execute -->
<g id="edge9" class="edge">
<title>single01__Runner____init__&#45;&gt;single01__Runner__execute</title>
<path fill="none" stroke="#000000" d="M179.46,-175.7C181,-167.98 182.86,-158.71 184.58,-150.11"/>
<polygon fill="#000000" stroke="#000000" points="188.05,-150.6 186.58,-140.1 181.19,-149.22 188.05,-150.6"/>
</g>
<!-- single01__Runner____init__&#45;&gt;single01__Runner__instance_field -->
<g id="edge8" class="edge">
<title>single01__Runner____init__&#45;&gt;single01__Runner__instance_field</title>
<path fill="none" stroke="#000000" d="M160.64,-176.95C151.8,-166.98 141.08,-153.52 134,-140 123.73,-120.39 116.72,-96.26 112.42,-78.07"/>
<polygon fill="#000000" stroke="#000000" points="115.79,-77.13 110.2,-68.13 108.96,-78.65 115.79,-77.13"/>
</g>
<!-- single01__Runner__execute&#45;&gt;single01__Runner__STATIC_FIELD -->
<g id="edge11" class="edge">
<title>single01__Runner__execute&#45;&gt;single01__Runner__STATIC_FIELD</title>
<path fill="none" stroke="#000000" d="M209.75,-105.46C221.63,-96.13 236.95,-84.07 250.16,-73.68"/>
<polygon fill="#000000" stroke="#000000" points="252.37,-76.4 258.06,-67.47 248.04,-70.9 252.37,-76.4"/>
</g>
<!-- single01__Runner__execute&#45;&gt;single01__Runner__instance_field -->
<g id="edge10" class="edge">
<title>single01__Runner__execute&#45;&gt;single01__Runner__instance_field</title>
<path fill="none" stroke="#000000" d="M171.17,-105.12C160.36,-96 146.6,-84.4 134.6,-74.28"/>
<polygon fill="#000000" stroke="#000000" points="136.53,-71.32 126.63,-67.55 132.01,-76.67 136.53,-71.32"/>
</g>
</g>
</svg>
