<?xml version="1.0" encoding="UTF-8" standalone="no"?>
<!DOCTYPE svg PUBLIC "-//W3C//DTD SVG 1.1//EN"
 "http://www.w3.org/Graphics/SVG/1.1/DTD/svg11.dtd">
<!-- Generated by graphviz version 2.43.0 (0)
 -->
<!-- Title: G Pages: 1 -->
<svg width="398pt" height="524pt"
 viewBox="0.00 0.00 398.00 524.00" xmlns="http://www.w3.org/2000/svg" xmlns:xlink="http://www.w3.org/1999/xlink">
<g id="graph0" class="graph" transform="scale(1 1) rotate(0) translate(4 520)">
<title>G</title>
<polygon fill="white" stroke="transparent" points="-4,4 -4,-520 394,-520 394,4 -4,4"/>
<g id="clust1" class="cluster">
<title>cluster_G</title>
<path fill="#808080" fill-opacity="0.094118" stroke="black" d="M20,-8C20,-8 370,-8 370,-8 376,-8 382,-14 382,-20 382,-20 382,-496 382,-496 382,-502 376,-508 370,-508 370,-508 20,-508 20,-508 14,-508 8,-502 8,-496 8,-496 8,-20 8,-20 8,-14 14,-8 20,-8"/>
</g>
<g id="clust2" class="cluster">
<title>cluster_simple__single01</title>
<path fill="#808080" fill-opacity="0.094118" stroke="black" d="M28,-16C28,-16 362,-16 362,-16 368,-16 374,-22 374,-28 374,-28 374,-411 374,-411 374,-417 368,-423 362,-423 362,-423 28,-423 28,-423 22,-423 16,-417 16,-411 16,-411 16,-28 16,-28 16,-22 22,-16 28,-16"/>
<text text-anchor="middle" x="195" y="-407.8" font-family="Times,serif" font-size="14.00">simple.single01</text>
</g>
<g id="clust3" class="cluster">
<title>cluster_simple__single01__Runner</title>
<path fill="#808080" fill-opacity="0.094118" stroke="black" d="M36,-24C36,-24 354,-24 354,-24 360,-24 366,-30 366,-36 366,-36 366,-303 366,-303 366,-309 360,-315 354,-315 354,-315 36,-315 36,-315 30,-315 24,-309 24,-303 24,-303 24,-36 24,-36 24,-30 30,-24 36,-24"/>
<text text-anchor="middle" x="195" y="-299.8" font-family="Times,serif" font-size="14.00">simple.single01.Runner</text>
</g>
<!-- simple__single01 -->
<g id="node1" class="node">
<title>simple__single01</title>
<ellipse fill="#ffffff" fill-opacity="0.698039" stroke="black" cx="113" cy="-482" rx="83.69" ry="18"/>
<text text-anchor="middle" x="113" y="-478.3" font-family="Times,serif" font-size="14.00" fill="#000000">simple.single01</text>
</g>
<!-- simple__single01__Runner -->
<g id="node2" class="node">
<title>simple__single01__Runner</title>
<ellipse fill="#ff9999" fill-opacity="0.698039" stroke="black" cx="239" cy="-374" rx="44.69" ry="18"/>
<text text-anchor="middle" x="239" y="-370.3" font-family="Times,serif" font-size="14.00" fill="#000000">Runner</text>
</g>
<!-- simple__single01&#45;&gt;simple__single01__Runner -->
<g id="edge1" class="edge">
<title>simple__single01&#45;&gt;simple__single01__Runner</title>
<path fill="none" stroke="#838b8b" stroke-dasharray="5,2" d="M132.69,-464.44C154.11,-446.42 188.48,-417.5 212.32,-397.45"/>
<polygon fill="#838b8b" stroke="#838b8b" points="214.87,-399.87 220.27,-390.75 210.37,-394.51 214.87,-399.87"/>
</g>
<!-- simple__single01__main -->
<g id="node3" class="node">
<title>simple__single01__main</title>
<ellipse fill="#ff9999" fill-opacity="0.698039" stroke="black" cx="113" cy="-374" rx="33.6" ry="18"/>
<text text-anchor="middle" x="113" y="-370.3" font-family="Times,serif" font-size="14.00" fill="#000000">main</text>
</g>
<!-- simple__single01&#45;&gt;simple__single01__main -->
<g id="edge2" class="edge">
<title>simple__single01&#45;&gt;simple__single01__main</title>
<path fill="none" stroke="#838b8b" stroke-dasharray="5,2" d="M107.89,-463.97C106.04,-447.28 105.76,-421.58 107.03,-402.08"/>
<polygon fill="#838b8b" stroke="#838b8b" points="110.52,-402.25 107.89,-391.99 103.55,-401.65 110.52,-402.25"/>
</g>
<!-- simple__single01&#45;&gt;simple__single01__main -->
<g id="edge15" class="edge">
<title>simple__single01&#45;&gt;simple__single01__main</title>
<path fill="none" stroke="#000000" d="M118.11,-463.97C119.96,-447.28 120.24,-421.58 118.97,-402.08"/>
<polygon fill="#000000" stroke="#000000" points="122.45,-401.65 118.11,-391.99 115.48,-402.25 122.45,-401.65"/>
</g>
<!-- simple__single01__Runner__STATIC_FIELD -->
<g id="node4" class="node">
<title>simple__single01__Runner__STATIC_FIELD</title>
<ellipse fill="#ff6565" fill-opacity="0.698039" stroke="black" cx="279" cy="-50" rx="79.09" ry="18"/>
<text text-anchor="middle" x="279" y="-46.3" font-family="Times,serif" font-size="14.00" fill="#000000">STATIC_FIELD</text>
</g>
<!-- simple__single01__Runner&#45;&gt;simple__single01__Runner__STATIC_FIELD -->
<g id="edge5" class="edge">
<title>simple__single01__Runner&#45;&gt;simple__single01__Runner__STATIC_FIELD</title>
<path fill="none" stroke="#838b8b" stroke-dasharray="5,2" d="M248.07,-356.28C253.73,-344.98 260.57,-329.51 264,-315 283.96,-230.47 282.61,-126.69 280.55,-78.28"/>
<polygon fill="#838b8b" stroke="#838b8b" points="284.04,-78.11 280.07,-68.28 277.05,-78.44 284.04,-78.11"/>
</g>
<!-- simple__single01__Runner____init__ -->
<g id="node5" class="node">
<title>simple__single01__Runner____init__</title>
<ellipse fill="#ff6565" fill-opacity="0.698039" stroke="black" cx="176" cy="-266" rx="44.39" ry="18"/>
<text text-anchor="middle" x="176" y="-262.3" font-family="Times,serif" font-size="14.00" fill="#000000">__init__</text>
</g>
<!-- simple__single01__Runner&#45;&gt;simple__single01__Runner____init__ -->
<g id="edge3" class="edge">
<title>simple__single01__Runner&#45;&gt;simple__single01__Runner____init__</title>
<path fill="none" stroke="#838b8b" stroke-dasharray="5,2" d="M229.16,-356.44C219,-339.35 203.02,-312.46 191.23,-292.62"/>
<polygon fill="#838b8b" stroke="#838b8b" points="194.1,-290.6 185.98,-283.8 188.08,-294.18 194.1,-290.6"/>
</g>
<!-- simple__single01__Runner__execute -->
<g id="node6" class="node">
<title>simple__single01__Runner__execute</title>
<ellipse fill="#ff6565" fill-opacity="0.698039" stroke="black" cx="179" cy="-158" rx="46.59" ry="18"/>
<text text-anchor="middle" x="179" y="-154.3" font-family="Times,serif" font-size="14.00" fill="#000000">execute</text>
</g>
<!-- simple__single01__Runner&#45;&gt;simple__single01__Runner__execute -->
<g id="edge4" class="edge">
<title>simple__single01__Runner&#45;&gt;simple__single01__Runner__execute</title>
<path fill="none" stroke="#838b8b" stroke-dasharray="5,2" d="M239.91,-355.99C240.72,-331.54 240.36,-285.28 229,-248 221.92,-224.76 208.08,-200.88 196.75,-183.72"/>
<polygon fill="#838b8b" stroke="#838b8b" points="199.62,-181.71 191.11,-175.4 193.82,-185.64 199.62,-181.71"/>
</g>
<!-- simple__single01__Runner__instance_field -->
<g id="node7" class="node">
<title>simple__single01__Runner__instance_field</title>
<ellipse fill="#ff6565" fill-opacity="0.698039" stroke="black" cx="107" cy="-50" rx="74.99" ry="18"/>
<text text-anchor="middle" x="107" y="-46.3" font-family="Times,serif" font-size="14.00" fill="#000000">instance_field</text>
</g>
<!-- simple__single01__Runner&#45;&gt;simple__single01__Runner__instance_field -->
<g id="edge6" class="edge">
<title>simple__single01__Runner&#45;&gt;simple__single01__Runner__instance_field</title>
<path fill="none" stroke="#838b8b" stroke-dasharray="5,2" d="M243.77,-355.84C254.02,-315.32 274.19,-211.71 235,-140 217.37,-107.75 182.43,-84.67 153.5,-70.1"/>
<polygon fill="#838b8b" stroke="#838b8b" points="154.87,-66.88 144.35,-65.68 151.82,-73.18 154.87,-66.88"/>
</g>
<!-- simple__single01__main&#45;&gt;simple__single01__Runner__STATIC_FIELD -->
<g id="edge14" class="edge">
<title>simple__single01__main&#45;&gt;simple__single01__Runner__STATIC_FIELD</title>
<path fill="none" stroke="#000000" d="M108.14,-355.9C97.5,-314.6 76.61,-207.85 123,-140 146.81,-105.18 189.02,-82.31 223.53,-68.48"/>
<polygon fill="#000000" stroke="#000000" points="224.97,-71.68 233.04,-64.81 222.45,-65.14 224.97,-71.68"/>
</g>
<!-- simple__single01__main&#45;&gt;simple__single01__Runner____init__ -->
<g id="edge11" class="edge">
<title>simple__single01__main&#45;&gt;simple__single01__Runner____init__</title>
<path fill="none" stroke="#000000" d="M122.84,-356.44C133,-339.35 148.98,-312.46 160.77,-292.62"/>
<polygon fill="#000000" stroke="#000000" points="163.92,-294.18 166.02,-283.8 157.9,-290.6 163.92,-294.18"/>
</g>
<!-- simple__single01__main&#45;&gt;simple__single01__Runner__execute -->
<g id="edge13" class="edge">
<title>simple__single01__main&#45;&gt;simple__single01__Runner__execute</title>
<path fill="none" stroke="#000000" d="M111.84,-355.91C110.72,-331.36 110.71,-284.98 123,-248 130.84,-224.4 146.2,-200.71 158.85,-183.71"/>
<polygon fill="#000000" stroke="#000000" points="161.86,-185.53 165.17,-175.47 156.31,-181.28 161.86,-185.53"/>
</g>
<!-- simple__single01__main&#45;&gt;simple__single01__Runner__instance_field -->
<g id="edge12" class="edge">
<title>simple__single01__main&#45;&gt;simple__single01__Runner__instance_field</title>
<path fill="none" stroke="#000000" d="M103.66,-356.34C97.88,-345.06 91.01,-329.6 88,-315 72.28,-238.83 79.84,-217.35 88,-140 90.21,-119.05 95.27,-95.78 99.62,-78.29"/>
<polygon fill="#000000" stroke="#000000" points="103.1,-78.78 102.2,-68.22 96.32,-77.04 103.1,-78.78"/>
</g>
<!-- simple__single01__Runner____init__&#45;&gt;simple__single01__Runner__execute -->
<g id="edge8" class="edge">
<title>simple__single01__Runner____init__&#45;&gt;simple__single01__Runner__execute</title>
<path fill="none" stroke="#000000" d="M176.48,-247.97C176.95,-231.38 177.67,-205.88 178.22,-186.43"/>
<polygon fill="#000000" stroke="#000000" points="181.72,-186.44 178.51,-176.34 174.73,-186.24 181.72,-186.44"/>
</g>
<!-- simple__single01__Runner____init__&#45;&gt;simple__single01__Runner__instance_field -->
<g id="edge7" class="edge">
<title>simple__single01__Runner____init__&#45;&gt;simple__single01__Runner__instance_field</title>
<path fill="none" stroke="#000000" d="M163.42,-248.64C150.97,-231.52 132.44,-203.37 123,-176 111.82,-143.61 108.33,-104.06 107.31,-78.24"/>
<polygon fill="#000000" stroke="#000000" points="110.8,-77.97 107.01,-68.08 103.81,-78.18 110.8,-77.97"/>
</g>
<!-- simple__single01__Runner__execute&#45;&gt;simple__single01__Runner__STATIC_FIELD -->
<g id="edge10" class="edge">
<title>simple__single01__Runner__execute&#45;&gt;simple__single01__Runner__STATIC_FIELD</title>
<path fill="none" stroke="#000000" d="M194.19,-140.9C210.66,-123.44 237.14,-95.37 256.13,-75.24"/>
<polygon fill="#000000" stroke="#000000" points="258.69,-77.63 263.01,-67.95 253.6,-72.83 258.69,-77.63"/>
</g>
<!-- simple__single01__Runner__execute&#45;&gt;simple__single01__Runner__instance_field -->
<g id="edge9" class="edge">
<title>simple__single01__Runner__execute&#45;&gt;simple__single01__Runner__instance_field</title>
<path fill="none" stroke="#000000" d="M167.75,-140.44C156.04,-123.19 137.55,-95.97 124.04,-76.09"/>
<polygon fill="#000000" stroke="#000000" points="126.92,-74.1 118.41,-67.8 121.13,-78.03 126.92,-74.1"/>
</g>
</g>
</svg>
