<?xml version="1.0" encoding="UTF-8" standalone="no"?>
<!DOCTYPE svg PUBLIC "-//W3C//DTD SVG 1.1//EN"
 "http://www.w3.org/Graphics/SVG/1.1/DTD/svg11.dtd">
<!-- Generated by graphviz version 2.43.0 (0)
 -->
<!-- Title: G Pages: 1 -->
<svg width="382pt" height="223pt"
 viewBox="0.00 0.00 382.00 223.00" xmlns="http://www.w3.org/2000/svg" xmlns:xlink="http://www.w3.org/1999/xlink">
<g id="graph0" class="graph" transform="scale(1 1) rotate(0) translate(4 219)">
<title>G</title>
<polygon fill="white" stroke="transparent" points="-4,4 -4,-219 378,-219 378,4 -4,4"/>
<g id="clust1" class="cluster">
<title>cluster_G</title>
<path fill="#808080" fill-opacity="0.094118" stroke="black" d="M20,-8C20,-8 354,-8 354,-8 360,-8 366,-14 366,-20 366,-20 366,-195 366,-195 366,-201 360,-207 354,-207 354,-207 20,-207 20,-207 14,-207 8,-201 8,-195 8,-195 8,-20 8,-20 8,-14 14,-8 20,-8"/>
</g>
<g id="clust2" class="cluster">
<title>cluster_simple__single01__Runner</title>
<path fill="#808080" fill-opacity="0.094118" stroke="black" d="M28,-16C28,-16 346,-16 346,-16 352,-16 358,-22 358,-28 358,-28 358,-187 358,-187 358,-193 352,-199 346,-199 346,-199 28,-199 28,-199 22,-199 16,-193 16,-187 16,-187 16,-28 16,-28 16,-22 22,-16 28,-16"/>
<text text-anchor="middle" x="187" y="-183.8" font-family="Times,serif" font-size="14.00">simple.single01.Runner</text>
</g>
<!-- simple__single01__Runner__STATIC_FIELD -->
<g id="node1" class="node">
<title>simple__single01__Runner__STATIC_FIELD</title>
<ellipse fill="#ff6565" fill-opacity="0.698039" stroke="black" cx="103" cy="-42" rx="79.09" ry="18"/>
<text text-anchor="middle" x="103" y="-38.3" font-family="Times,serif" font-size="14.00" fill="#000000">STATIC_FIELD</text>
</g>
<!-- simple__single01__Runner__execute -->
<g id="node2" class="node">
<title>simple__single01__Runner__execute</title>
<ellipse fill="#ff6565" fill-opacity="0.698039" stroke="black" cx="189" cy="-150" rx="46.59" ry="18"/>
<text text-anchor="middle" x="189" y="-146.3" font-family="Times,serif" font-size="14.00" fill="#000000">execute</text>
</g>
<!-- simple__single01__Runner__execute&#45;&gt;simple__single01__Runner__STATIC_FIELD -->
<g id="edge2" class="edge">
<title>simple__single01__Runner__execute&#45;&gt;simple__single01__Runner__STATIC_FIELD</title>
<path fill="none" stroke="#000000" d="M175.56,-132.44C161.51,-115.11 139.29,-87.73 123.14,-67.82"/>
<polygon fill="#000000" stroke="#000000" points="125.65,-65.36 116.63,-59.8 120.21,-69.77 125.65,-65.36"/>
</g>
<!-- simple__single01__Runner__instance_field -->
<g id="node3" class="node">
<title>simple__single01__Runner__instance_field</title>
<ellipse fill="#ff6565" fill-opacity="0.698039" stroke="black" cx="275" cy="-42" rx="74.99" ry="18"/>
<text text-anchor="middle" x="275" y="-38.3" font-family="Times,serif" font-size="14.00" fill="#000000">instance_field</text>
</g>
<!-- simple__single01__Runner__execute&#45;&gt;simple__single01__Runner__instance_field -->
<g id="edge1" class="edge">
<title>simple__single01__Runner__execute&#45;&gt;simple__single01__Runner__instance_field</title>
<path fill="none" stroke="#000000" d="M202.44,-132.44C216.49,-115.11 238.71,-87.73 254.86,-67.82"/>
<polygon fill="#000000" stroke="#000000" points="257.79,-69.77 261.37,-59.8 252.35,-65.36 257.79,-69.77"/>
</g>
</g>
</svg>
