<?xml version="1.0" encoding="UTF-8" standalone="no"?>
<!DOCTYPE svg PUBLIC "-//W3C//DTD SVG 1.1//EN"
 "http://www.w3.org/Graphics/SVG/1.1/DTD/svg11.dtd">
<!-- Generated by graphviz version 2.43.0 (0)
 -->
<!-- Title: G Pages: 1 -->
<svg width="242pt" height="416pt"
 viewBox="0.00 0.00 242.00 416.00" xmlns="http://www.w3.org/2000/svg" xmlns:xlink="http://www.w3.org/1999/xlink">
<g id="graph0" class="graph" transform="scale(1 1) rotate(0) translate(4 412)">
<title>G</title>
<polygon fill="white" stroke="transparent" points="-4,4 -4,-412 238,-412 238,4 -4,4"/>
<g id="clust1" class="cluster">
<title>cluster_G</title>
<path fill="#808080" fill-opacity="0.094118" stroke="black" d="M20,-8C20,-8 214,-8 214,-8 220,-8 226,-14 226,-20 226,-20 226,-388 226,-388 226,-394 220,-400 214,-400 214,-400 20,-400 20,-400 14,-400 8,-394 8,-388 8,-388 8,-20 8,-20 8,-14 14,-8 20,-8"/>
</g>
<g id="clust2" class="cluster">
<title>cluster_simple__single01</title>
<path fill="#808080" fill-opacity="0.094118" stroke="black" d="M28,-16C28,-16 206,-16 206,-16 212,-16 218,-22 218,-28 218,-28 218,-303 218,-303 218,-309 212,-315 206,-315 206,-315 28,-315 28,-315 22,-315 16,-309 16,-303 16,-303 16,-28 16,-28 16,-22 22,-16 28,-16"/>
<text text-anchor="middle" x="117" y="-299.8" font-family="Times,serif" font-size="14.00">simple.single01</text>
</g>
<g id="clust3" class="cluster">
<title>cluster_simple__single01__Runner</title>
<path fill="#808080" fill-opacity="0.094118" stroke="black" d="M36,-24C36,-24 198,-24 198,-24 204,-24 210,-30 210,-36 210,-36 210,-195 210,-195 210,-201 204,-207 198,-207 198,-207 36,-207 36,-207 30,-207 24,-201 24,-195 24,-195 24,-36 24,-36 24,-30 30,-24 36,-24"/>
<text text-anchor="middle" x="117" y="-191.8" font-family="Times,serif" font-size="14.00">simple.single01.Runner</text>
</g>
<!-- simple__single01 -->
<g id="node1" class="node">
<title>simple__single01</title>
<ellipse fill="#ffffff" fill-opacity="0.698039" stroke="black" cx="117" cy="-374" rx="83.69" ry="18"/>
<text text-anchor="middle" x="117" y="-370.3" font-family="Times,serif" font-size="14.00" fill="#000000">simple.single01</text>
</g>
<!-- simple__single01__main -->
<g id="node2" class="node">
<title>simple__single01__main</title>
<ellipse fill="#ff9999" fill-opacity="0.698039" stroke="black" cx="117" cy="-266" rx="33.6" ry="18"/>
<text text-anchor="middle" x="117" y="-262.3" font-family="Times,serif" font-size="14.00" fill="#000000">main</text>
</g>
<!-- simple__single01&#45;&gt;simple__single01__main -->
<g id="edge4" class="edge">
<title>simple__single01&#45;&gt;simple__single01__main</title>
<path fill="none" stroke="#000000" d="M117,-355.97C117,-339.38 117,-313.88 117,-294.43"/>
<polygon fill="#000000" stroke="#000000" points="120.5,-294.34 117,-284.34 113.5,-294.34 120.5,-294.34"/>
</g>
<!-- simple__single01__Runner____init__ -->
<g id="node3" class="node">
<title>simple__single01__Runner____init__</title>
<ellipse fill="#ff6565" fill-opacity="0.698039" stroke="black" cx="97" cy="-158" rx="44.39" ry="18"/>
<text text-anchor="middle" x="97" y="-154.3" font-family="Times,serif" font-size="14.00" fill="#000000">__init__</text>
</g>
<!-- simple__single01__main&#45;&gt;simple__single01__Runner____init__ -->
<g id="edge3" class="edge">
<title>simple__single01__main&#45;&gt;simple__single01__Runner____init__</title>
<path fill="none" stroke="#000000" d="M113.79,-247.97C110.64,-231.28 105.79,-205.58 102.11,-186.08"/>
<polygon fill="#000000" stroke="#000000" points="105.5,-185.17 100.21,-175.99 98.62,-186.46 105.5,-185.17"/>
</g>
<!-- simple__single01__Runner__execute -->
<g id="node4" class="node">
<title>simple__single01__Runner__execute</title>
<ellipse fill="#ff6565" fill-opacity="0.698039" stroke="black" cx="116" cy="-50" rx="46.59" ry="18"/>
<text text-anchor="middle" x="116" y="-46.3" font-family="Times,serif" font-size="14.00" fill="#000000">execute</text>
</g>
<!-- simple__single01__main&#45;&gt;simple__single01__Runner__execute -->
<g id="edge2" class="edge">
<title>simple__single01__main&#45;&gt;simple__single01__Runner__execute</title>
<path fill="none" stroke="#000000" d="M129.3,-248.76C136.91,-237.65 145.97,-222.23 150,-207 161.96,-161.78 143.38,-108.4 129.33,-77.26"/>
<polygon fill="#000000" stroke="#000000" points="132.39,-75.53 124.97,-67.97 126.05,-78.51 132.39,-75.53"/>
</g>
<!-- simple__single01__Runner____init__&#45;&gt;simple__single01__Runner__execute -->
<g id="edge1" class="edge">
<title>simple__single01__Runner____init__&#45;&gt;simple__single01__Runner__execute</title>
<path fill="none" stroke="#000000" d="M100.05,-139.97C103.04,-123.28 107.65,-97.58 111.15,-78.08"/>
<polygon fill="#000000" stroke="#000000" points="114.64,-78.45 112.95,-67.99 107.75,-77.21 114.64,-78.45"/>
</g>
</g>
</svg>
