<?xml version="1.0" encoding="UTF-8" standalone="no"?>
<!DOCTYPE svg PUBLIC "-//W3C//DTD SVG 1.1//EN"
 "http://www.w3.org/Graphics/SVG/1.1/DTD/svg11.dtd">
<!-- Generated by graphviz version 2.43.0 (0)
 -->
<!-- Title: G Pages: 1 -->
<svg width="380pt" height="386pt"
 viewBox="0.00 0.00 380.00 386.00" xmlns="http://www.w3.org/2000/svg" xmlns:xlink="http://www.w3.org/1999/xlink">
<g id="graph0" class="graph" transform="scale(1 1) rotate(0) translate(4 382)">
<title>G</title>
<polygon fill="white" stroke="transparent" points="-4,4 -4,-382 376,-382 376,4 -4,4"/>
<g id="clust1" class="cluster">
<title>cluster_G</title>
<path fill="#808080" fill-opacity="0.094118" stroke="black" d="M20,-8C20,-8 352,-8 352,-8 358,-8 364,-14 364,-20 364,-20 364,-358 364,-358 364,-364 358,-370 352,-370 352,-370 20,-370 20,-370 14,-370 8,-364 8,-358 8,-358 8,-20 8,-20 8,-14 14,-8 20,-8"/>
</g>
<g id="clust2" class="cluster">
<title>cluster_single01</title>
<path fill="#808080" fill-opacity="0.094118" stroke="black" d="M28,-16C28,-16 344,-16 344,-16 350,-16 356,-22 356,-28 356,-28 356,-306 356,-306 356,-312 350,-318 344,-318 344,-318 28,-318 28,-318 22,-318 16,-312 16,-306 16,-306 16,-28 16,-28 16,-22 22,-16 28,-16"/>
<text text-anchor="middle" x="186" y="-302.8" font-family="Times,serif" font-size="14.00">single01</text>
</g>
<g id="clust3" class="cluster">
<title>cluster_single01__Runner</title>
<path fill="#808080" fill-opacity="0.094118" stroke="black" d="M48,-24C48,-24 304,-24 304,-24 310,-24 316,-30 316,-36 316,-36 316,-231 316,-231 316,-237 310,-243 304,-243 304,-243 48,-243 48,-243 42,-243 36,-237 36,-231 36,-231 36,-36 36,-36 36,-30 42,-24 48,-24"/>
<text text-anchor="middle" x="176" y="-227.8" font-family="Times,serif" font-size="14.00">single01.Runner</text>
</g>
<!-- single01 -->
<g id="node1" class="node">
<title>single01</title>
<ellipse fill="#ffffff" fill-opacity="0.698039" stroke="black" cx="88" cy="-344" rx="50.09" ry="18"/>
<text text-anchor="middle" x="88" y="-340.3" font-family="Times,serif" font-size="14.00" fill="#000000">single01</text>
</g>
<!-- single01__Runner -->
<g id="node2" class="node">
<title>single01__Runner</title>
<ellipse fill="#fecccc" fill-opacity="0.698039" stroke="black" cx="229" cy="-269" rx="44.69" ry="18"/>
<text text-anchor="middle" x="229" y="-265.3" font-family="Times,serif" font-size="14.00" fill="#000000">Runner</text>
</g>
<!-- single01&#45;&gt;single01__Runner -->
<g id="edge1" class="edge">
<title>single01&#45;&gt;single01__Runner</title>
<path fill="none" stroke="#838b8b" stroke-dasharray="5,2" d="M115.52,-328.75C137.74,-317.25 169.16,-300.98 193.31,-288.48"/>
<polygon fill="#838b8b" stroke="#838b8b" points="195.23,-291.42 202.5,-283.72 192.01,-285.21 195.23,-291.42"/>
</g>
<!-- single01__main -->
<g id="node3" class="node">
<title>single01__main</title>
<ellipse fill="#fecccc" fill-opacity="0.698039" stroke="black" cx="88" cy="-269" rx="33.6" ry="18"/>
<text text-anchor="middle" x="88" y="-265.3" font-family="Times,serif" font-size="14.00" fill="#000000">main</text>
</g>
<!-- single01&#45;&gt;single01__main -->
<g id="edge2" class="edge">
<title>single01&#45;&gt;single01__main</title>
<path fill="none" stroke="#838b8b" stroke-dasharray="5,2" d="M82.2,-326.07C81.27,-317.41 81.02,-306.66 81.46,-296.9"/>
<polygon fill="#838b8b" stroke="#838b8b" points="84.96,-297.07 82.21,-286.84 77.98,-296.55 84.96,-297.07"/>
</g>
<!-- single01&#45;&gt;single01__main -->
<g id="edge12" class="edge">
<title>single01&#45;&gt;single01__main</title>
<path fill="none" stroke="#000000" d="M93.8,-326.07C94.73,-317.41 94.98,-306.66 94.54,-296.9"/>
<polygon fill="#000000" stroke="#000000" points="98.02,-296.55 93.79,-286.84 91.04,-297.07 98.02,-296.55"/>
</g>
<!-- single01__Runner__STATIC_FIELD -->
<g id="node4" class="node">
<title>single01__Runner__STATIC_FIELD</title>
<ellipse fill="#ff9999" fill-opacity="0.698039" stroke="black" cx="229" cy="-194" rx="79.09" ry="18"/>
<text text-anchor="middle" x="229" y="-190.3" font-family="Times,serif" font-size="14.00" fill="#000000">STATIC_FIELD</text>
</g>
<!-- single01__Runner&#45;&gt;single01__Runner__STATIC_FIELD -->
<g id="edge3" class="edge">
<title>single01__Runner&#45;&gt;single01__Runner__STATIC_FIELD</title>
<path fill="none" stroke="#838b8b" stroke-dasharray="5,2" d="M229,-250.7C229,-242.25 229,-231.87 229,-222.37"/>
<polygon fill="#838b8b" stroke="#838b8b" points="232.5,-222.18 229,-212.18 225.5,-222.18 232.5,-222.18"/>
</g>
<!-- single01__Runner____init__ -->
<g id="node5" class="node">
<title>single01__Runner____init__</title>
<ellipse fill="#ff9999" fill-opacity="0.698039" stroke="black" cx="88" cy="-194" rx="44.39" ry="18"/>
<text text-anchor="middle" x="88" y="-190.3" font-family="Times,serif" font-size="14.00" fill="#000000">__init__</text>
</g>
<!-- single01__Runner&#45;&gt;single01__Runner____init__ -->
<g id="edge4" class="edge">
<title>single01__Runner&#45;&gt;single01__Runner____init__</title>
<path fill="none" stroke="#838b8b" stroke-dasharray="5,2" d="M188.93,-260.72C173.34,-256.85 155.72,-251.17 141,-243 129.47,-236.6 118.38,-227.25 109.35,-218.49"/>
<polygon fill="#838b8b" stroke="#838b8b" points="111.81,-216 102.29,-211.36 106.83,-220.93 111.81,-216"/>
</g>
<!-- single01__Runner__execute -->
<g id="node6" class="node">
<title>single01__Runner__execute</title>
<ellipse fill="#ff9999" fill-opacity="0.698039" stroke="black" cx="91" cy="-122" rx="46.59" ry="18"/>
<text text-anchor="middle" x="91" y="-118.3" font-family="Times,serif" font-size="14.00" fill="#000000">execute</text>
</g>
<!-- single01__Runner&#45;&gt;single01__Runner__execute -->
<g id="edge6" class="edge">
<title>single01__Runner&#45;&gt;single01__Runner__execute</title>
<path fill="none" stroke="#838b8b" stroke-dasharray="5,2" d="M273.32,-266.23C289.7,-263.15 306.76,-256.56 317,-243 334.95,-219.24 335.82,-199.08 317,-176 266.83,-114.45 218.69,-160.59 142,-140 139.39,-139.3 136.71,-138.54 134.02,-137.74"/>
<polygon fill="#838b8b" stroke="#838b8b" points="134.88,-134.34 124.3,-134.73 132.81,-141.03 134.88,-134.34"/>
</g>
<!-- single01__Runner__instance_field -->
<g id="node7" class="node">
<title>single01__Runner__instance_field</title>
<ellipse fill="#ff9999" fill-opacity="0.698039" stroke="black" cx="157" cy="-50" rx="74.99" ry="18"/>
<text text-anchor="middle" x="157" y="-46.3" font-family="Times,serif" font-size="14.00" fill="#000000">instance_field</text>
</g>
<!-- single01__Runner&#45;&gt;single01__Runner__instance_field -->
<g id="edge5" class="edge">
<title>single01__Runner&#45;&gt;single01__Runner__instance_field</title>
<path fill="none" stroke="#838b8b" stroke-dasharray="5,2" d="M271.12,-262.58C294.71,-258.59 320.81,-252.23 328,-243 346.3,-219.51 341.48,-202.55 328,-176 302.13,-125.05 244.66,-89.89 203.48,-70.13"/>
<polygon fill="#838b8b" stroke="#838b8b" points="204.72,-66.85 194.18,-65.8 201.77,-73.19 204.72,-66.85"/>
</g>
<!-- single01__main&#45;&gt;single01__Runner____init__ -->
<g id="edge10" class="edge">
<title>single01__main&#45;&gt;single01__Runner____init__</title>
<path fill="none" stroke="#000000" d="M88,-250.7C88,-242.25 88,-231.87 88,-222.37"/>
<polygon fill="#000000" stroke="#000000" points="91.5,-222.18 88,-212.18 84.5,-222.18 91.5,-222.18"/>
</g>
<!-- single01__main&#45;&gt;single01__Runner__execute -->
<g id="edge11" class="edge">
<title>single01__main&#45;&gt;single01__Runner__execute</title>
<path fill="none" stroke="#000000" d="M57.9,-260.58C48.99,-256.83 40.23,-251.25 35,-243 19.06,-217.85 23.23,-203.35 35,-176 40.35,-163.58 50.19,-152.71 60.15,-144.1"/>
<polygon fill="#000000" stroke="#000000" points="62.5,-146.7 68.08,-137.7 58.1,-141.26 62.5,-146.7"/>
</g>
<!-- single01__Runner____init__&#45;&gt;single01__Runner__execute -->
<g id="edge8" class="edge">
<title>single01__Runner____init__&#45;&gt;single01__Runner__execute</title>
<path fill="none" stroke="#000000" d="M88.74,-175.7C89.07,-167.98 89.47,-158.71 89.84,-150.11"/>
<polygon fill="#000000" stroke="#000000" points="93.34,-150.25 90.27,-140.1 86.34,-149.95 93.34,-150.25"/>
</g>
<!-- single01__Runner____init__&#45;&gt;single01__Runner__instance_field -->
<g id="edge7" class="edge">
<title>single01__Runner____init__&#45;&gt;single01__Runner__instance_field</title>
<path fill="none" stroke="#000000" d="M111.15,-178.47C123.95,-169.13 138.87,-155.79 147,-140 156.82,-120.93 158.96,-96.58 158.84,-78.16"/>
<polygon fill="#000000" stroke="#000000" points="162.34,-77.99 158.56,-68.1 155.34,-78.19 162.34,-77.99"/>
</g>
<!-- single01__Runner__execute&#45;&gt;single01__Runner__instance_field -->
<g id="edge9" class="edge">
<title>single01__Runner__execute&#45;&gt;single01__Runner__instance_field</title>
<path fill="none" stroke="#000000" d="M106.31,-104.76C114.6,-95.97 125.01,-84.93 134.24,-75.14"/>
<polygon fill="#000000" stroke="#000000" points="137,-77.31 141.32,-67.63 131.91,-72.51 137,-77.31"/>
</g>
</g>
</svg>
