<?xml version="1.0" encoding="UTF-8" standalone="no"?>
<!DOCTYPE svg PUBLIC "-//W3C//DTD SVG 1.1//EN"
 "http://www.w3.org/Graphics/SVG/1.1/DTD/svg11.dtd">
<!-- Generated by graphviz version 2.43.0 (0)
 -->
<!-- Title: G Pages: 1 -->
<svg width="398pt" height="524pt"
 viewBox="0.00 0.00 398.00 524.00" xmlns="http://www.w3.org/2000/svg" xmlns:xlink="http://www.w3.org/1999/xlink">
<g id="graph0" class="graph" transform="scale(1 1) rotate(0) translate(4 520)">
<title>G</title>
<polygon fill="white" stroke="transparent" points="-4,4 -4,-520 394,-520 394,4 -4,4"/>
<g id="clust1" class="cluster">
<title>cluster_G</title>
<path fill="#808080" fill-opacity="0.094118" stroke="black" d="M20,-8C20,-8 370,-8 370,-8 376,-8 382,-14 382,-20 382,-20 382,-496 382,-496 382,-502 376,-508 370,-508 370,-508 20,-508 20,-508 14,-508 8,-502 8,-496 8,-496 8,-20 8,-20 8,-14 14,-8 20,-8"/>
</g>
<g id="clust2" class="cluster">
<title>cluster_simple__single01</title>
<path fill="#808080" fill-opacity="0.094118" stroke="black" d="M28,-16C28,-16 362,-16 362,-16 368,-16 374,-22 374,-28 374,-28 374,-411 374,-411 374,-417 368,-423 362,-423 362,-423 28,-423 28,-423 22,-423 16,-417 16,-411 16,-411 16,-28 16,-28 16,-22 22,-16 28,-16"/>
<text text-anchor="middle" x="195" y="-407.8" font-family="Times,serif" font-size="14.00">simple.single01</text>
</g>
<g id="clust3" class="cluster">
<title>cluster_simple__single01__Runner</title>
<path fill="#808080" fill-opacity="0.094118" stroke="black" d="M36,-24C36,-24 354,-24 354,-24 360,-24 366,-30 366,-36 366,-36 366,-303 366,-303 366,-309 360,-315 354,-315 354,-315 36,-315 36,-315 30,-315 24,-309 24,-303 24,-303 24,-36 24,-36 24,-30 30,-24 36,-24"/>
<text text-anchor="middle" x="195" y="-299.8" font-family="Times,serif" font-size="14.00">simple.single01.Runner</text>
</g>
<!-- simple__single01 -->
<g id="node1" class="node">
<title>simple__single01</title>
<ellipse fill="#ffffff" fill-opacity="0.698039" stroke="black" cx="107" cy="-482" rx="83.69" ry="18"/>
<text text-anchor="middle" x="107" y="-478.3" font-family="Times,serif" font-size="14.00" fill="#000000">simple.single01</text>
</g>
<!-- simple__single01__main -->
<g id="node3" class="node">
<title>simple__single01__main</title>
<ellipse fill="#ff9999" fill-opacity="0.698039" stroke="black" cx="107" cy="-374" rx="33.6" ry="18"/>
<text text-anchor="middle" x="107" y="-370.3" font-family="Times,serif" font-size="14.00" fill="#000000">main</text>
</g>
<!-- simple__single01&#45;&gt;simple__single01__main -->
<g id="edge13" class="edge">
<title>simple__single01&#45;&gt;simple__single01__main</title>
<path fill="none" stroke="#000000" d="M107,-463.97C107,-447.38 107,-421.88 107,-402.43"/>
<polygon fill="#000000" stroke="#000000" points="110.5,-402.34 107,-392.34 103.5,-402.34 110.5,-402.34"/>
</g>
<!-- simple__single01__Runner -->
<g id="node2" class="node">
<title>simple__single01__Runner</title>
<ellipse fill="#ff9999" fill-opacity="0.698039" stroke="black" cx="249" cy="-374" rx="44.69" ry="18"/>
<text text-anchor="middle" x="249" y="-370.3" font-family="Times,serif" font-size="14.00" fill="#000000">Runner</text>
</g>
<!-- simple__single01__Runner__STATIC_FIELD -->
<g id="node4" class="node">
<title>simple__single01__Runner__STATIC_FIELD</title>
<ellipse fill="#ff6565" fill-opacity="0.698039" stroke="black" cx="279" cy="-50" rx="79.09" ry="18"/>
<text text-anchor="middle" x="279" y="-46.3" font-family="Times,serif" font-size="14.00" fill="#000000">STATIC_FIELD</text>
</g>
<!-- simple__single01__Runner&#45;&gt;simple__single01__Runner__STATIC_FIELD -->
<g id="edge3" class="edge">
<title>simple__single01__Runner&#45;&gt;simple__single01__Runner__STATIC_FIELD</title>
<path fill="none" stroke="#838b8b" stroke-dasharray="5,2" d="M254.36,-355.93C257.72,-344.47 261.82,-328.98 264,-315 277.37,-229.37 279.18,-126.46 279.21,-78.33"/>
<polygon fill="#838b8b" stroke="#838b8b" points="282.71,-78.1 279.18,-68.11 275.71,-78.12 282.71,-78.1"/>
</g>
<!-- simple__single01__Runner____init__ -->
<g id="node5" class="node">
<title>simple__single01__Runner____init__</title>
<ellipse fill="#ff6565" fill-opacity="0.698039" stroke="black" cx="176" cy="-266" rx="44.39" ry="18"/>
<text text-anchor="middle" x="176" y="-262.3" font-family="Times,serif" font-size="14.00" fill="#000000">__init__</text>
</g>
<!-- simple__single01__Runner&#45;&gt;simple__single01__Runner____init__ -->
<g id="edge1" class="edge">
<title>simple__single01__Runner&#45;&gt;simple__single01__Runner____init__</title>
<path fill="none" stroke="#838b8b" stroke-dasharray="5,2" d="M237.59,-356.44C225.65,-339.09 206.75,-311.65 193.03,-291.74"/>
<polygon fill="#838b8b" stroke="#838b8b" points="195.88,-289.7 187.33,-283.45 190.12,-293.67 195.88,-289.7"/>
</g>
<!-- simple__single01__Runner__execute -->
<g id="node6" class="node">
<title>simple__single01__Runner__execute</title>
<ellipse fill="#ff6565" fill-opacity="0.698039" stroke="black" cx="179" cy="-158" rx="46.59" ry="18"/>
<text text-anchor="middle" x="179" y="-154.3" font-family="Times,serif" font-size="14.00" fill="#000000">execute</text>
</g>
<!-- simple__single01__Runner&#45;&gt;simple__single01__Runner__execute -->
<g id="edge2" class="edge">
<title>simple__single01__Runner&#45;&gt;simple__single01__Runner__execute</title>
<path fill="none" stroke="#838b8b" stroke-dasharray="5,2" d="M248.17,-355.96C246.56,-331.46 241.94,-285.15 229,-248 221.01,-225.05 207.23,-201.16 196.16,-183.91"/>
<polygon fill="#838b8b" stroke="#838b8b" points="199.08,-181.98 190.67,-175.54 193.23,-185.82 199.08,-181.98"/>
</g>
<!-- simple__single01__Runner__instance_field -->
<g id="node7" class="node">
<title>simple__single01__Runner__instance_field</title>
<ellipse fill="#ff6565" fill-opacity="0.698039" stroke="black" cx="107" cy="-50" rx="74.99" ry="18"/>
<text text-anchor="middle" x="107" y="-46.3" font-family="Times,serif" font-size="14.00" fill="#000000">instance_field</text>
</g>
<!-- simple__single01__Runner&#45;&gt;simple__single01__Runner__instance_field -->
<g id="edge4" class="edge">
<title>simple__single01__Runner&#45;&gt;simple__single01__Runner__instance_field</title>
<path fill="none" stroke="#838b8b" stroke-dasharray="5,2" d="M252.74,-355.8C260.62,-315.18 275.08,-211.38 235,-140 217,-107.95 182.08,-84.86 153.25,-70.24"/>
<polygon fill="#838b8b" stroke="#838b8b" points="154.66,-67.03 144.14,-65.79 151.59,-73.32 154.66,-67.03"/>
</g>
<!-- simple__single01__main&#45;&gt;simple__single01__Runner__STATIC_FIELD -->
<g id="edge12" class="edge">
<title>simple__single01__main&#45;&gt;simple__single01__Runner__STATIC_FIELD</title>
<path fill="none" stroke="#000000" d="M102.72,-355.86C93.45,-314.47 75.93,-207.52 123,-140 147.2,-105.28 189.6,-82.36 224.09,-68.48"/>
<polygon fill="#000000" stroke="#000000" points="225.52,-71.68 233.59,-64.81 223,-65.15 225.52,-71.68"/>
</g>
<!-- simple__single01__main&#45;&gt;simple__single01__Runner____init__ -->
<g id="edge9" class="edge">
<title>simple__single01__main&#45;&gt;simple__single01__Runner____init__</title>
<path fill="none" stroke="#000000" d="M117.78,-356.44C128.96,-339.27 146.57,-312.21 159.5,-292.35"/>
<polygon fill="#000000" stroke="#000000" points="162.54,-294.09 165.07,-283.8 156.68,-290.27 162.54,-294.09"/>
</g>
<!-- simple__single01__main&#45;&gt;simple__single01__Runner__execute -->
<g id="edge11" class="edge">
<title>simple__single01__main&#45;&gt;simple__single01__Runner__execute</title>
<path fill="none" stroke="#000000" d="M106.88,-355.88C107.22,-331.29 109.78,-284.86 123,-248 131.4,-224.59 146.72,-200.89 159.22,-183.84"/>
<polygon fill="#000000" stroke="#000000" points="162.23,-185.66 165.44,-175.56 156.63,-181.45 162.23,-185.66"/>
</g>
<!-- simple__single01__main&#45;&gt;simple__single01__Runner__instance_field -->
<g id="edge10" class="edge">
<title>simple__single01__main&#45;&gt;simple__single01__Runner__instance_field</title>
<path fill="none" stroke="#000000" d="M99.89,-356.1C95.49,-344.71 90.27,-329.23 88,-315 75.74,-238.19 79.84,-217.35 88,-140 90.21,-119.05 95.27,-95.78 99.62,-78.29"/>
<polygon fill="#000000" stroke="#000000" points="103.1,-78.78 102.2,-68.22 96.32,-77.04 103.1,-78.78"/>
</g>
<!-- simple__single01__Runner____init__&#45;&gt;simple__single01__Runner__execute -->
<g id="edge6" class="edge">
<title>simple__single01__Runner____init__&#45;&gt;simple__single01__Runner__execute</title>
<path fill="none" stroke="#000000" d="M176.48,-247.97C176.95,-231.38 177.67,-205.88 178.22,-186.43"/>
<polygon fill="#000000" stroke="#000000" points="181.72,-186.44 178.51,-176.34 174.73,-186.24 181.72,-186.44"/>
</g>
<!-- simple__single01__Runner____init__&#45;&gt;simple__single01__Runner__instance_field -->
<g id="edge5" class="edge">
<title>simple__single01__Runner____init__&#45;&gt;simple__single01__Runner__instance_field</title>
<path fill="none" stroke="#000000" d="M163.42,-248.64C150.97,-231.52 132.44,-203.37 123,-176 111.82,-143.61 108.33,-104.06 107.31,-78.24"/>
<polygon fill="#000000" stroke="#000000" points="110.8,-77.97 107.01,-68.08 103.81,-78.18 110.8,-77.97"/>
</g>
<!-- simple__single01__Runner__execute&#45;&gt;simple__single01__Runner__STATIC_FIELD -->
<g id="edge8" class="edge">
<title>simple__single01__Runner__execute&#45;&gt;simple__single01__Runner__STATIC_FIELD</title>
<path fill="none" stroke="#000000" d="M194.19,-140.9C210.66,-123.44 237.14,-95.37 256.13,-75.24"/>
<polygon fill="#000000" stroke="#000000" points="258.69,-77.63 263.01,-67.95 253.6,-72.83 258.69,-77.63"/>
</g>
<!-- simple__single01__Runner__execute&#45;&gt;simple__single01__Runner__instance_field -->
<g id="edge7" class="edge">
<title>simple__single01__Runner__execute&#45;&gt;simple__single01__Runner__instance_field</title>
<path fill="none" stroke="#000000" d="M167.75,-140.44C156.04,-123.19 137.55,-95.97 124.04,-76.09"/>
<polygon fill="#000000" stroke="#000000" points="126.92,-74.1 118.41,-67.8 121.13,-78.03 126.92,-74.1"/>
</g>
</g>
</svg>
