<?xml version="1.0" encoding="UTF-8" standalone="no"?><svg xmlns="http://www.w3.org/2000/svg" xmlns:xlink="http://www.w3.org/1999/xlink" contentScriptType="application/ecmascript" contentStyleType="text/css" height="466px" preserveAspectRatio="none" style="width:377px;height:466px;background:#FEFEFE;" version="1.1" viewBox="0 0 377 466" width="377px" zoomAndPan="magnify"><defs><filter height="300%" id="fob0fj9e2cs5k" width="300%" x="-1" y="-1"><feGaussianBlur result="blurOut" stdDeviation="2.0"/><feColorMatrix in="blurOut" result="blurOut2" type="matrix" values="0 0 0 0 0 0 0 0 0 0 0 0 0 0 0 0 0 0 .4 0"/><feOffset dx="4.0" dy="4.0" in="blurOut2" result="blurOut3"/><feBlend in="SourceGraphic" in2="blurOut3" mode="normal"/></filter></defs><g><rect fill="#FFFFFF" filter="url(#fob0fj9e2cs5k)" height="324.1953" style="stroke: #A80036; stroke-width: 1.0;" width="10" x="66" y="77.2969"/><rect fill="#FFFFFF" filter="url(#fob0fj9e2cs5k)" height="182.5313" style="stroke: #A80036; stroke-width: 1.0;" width="10" x="229.5" y="111.5625"/><rect fill="#FFFFFF" filter="url(#fob0fj9e2cs5k)" height="91.3984" style="stroke: #A80036; stroke-width: 1.0;" width="10" x="234.5" y="181.6953"/><line style="stroke: #A80036; stroke-width: 1.0; stroke-dasharray: 5.0,5.0;" x1="71" x2="71" y1="38.2969" y2="426.4922"/><line style="stroke: #A80036; stroke-width: 1.0; stroke-dasharray: 5.0,5.0;" x1="234" x2="234" y1="38.2969" y2="426.4922"/><rect fill="#FEFECE" filter="url(#fob0fj9e2cs5k)" height="30.2969" style="stroke: #A80036; stroke-width: 1.5;" width="122" x="8" y="3"/><text fill="#000000" font-family="sans-serif" font-size="14" lengthAdjust="spacingAndGlyphs" textLength="108" x="15" y="22.9951">simple.single01</text><rect fill="#FEFECE" filter="url(#fob0fj9e2cs5k)" height="30.2969" style="stroke: #A80036; stroke-width: 1.5;" width="122" x="8" y="425.4922"/><text fill="#000000" font-family="sans-serif" font-size="14" lengthAdjust="spacingAndGlyphs" textLength="108" x="15" y="445.4873">simple.single01</text><rect fill="#FEFECE" filter="url(#fob0fj9e2cs5k)" height="30.2969" style="stroke: #A80036; stroke-width: 1.5;" width="177" x="144" y="3"/><text fill="#000000" font-family="sans-serif" font-size="14" lengthAdjust="spacingAndGlyphs" textLength="163" x="151" y="22.9951">simple.single01.Runner</text><rect fill="#FEFECE" filter="url(#fob0fj9e2cs5k)" height="30.2969" style="stroke: #A80036; stroke-width: 1.5;" width="177" x="144" y="425.4922"/><text fill="#000000" font-family="sans-serif" font-size="14" lengthAdjust="spacingAndGlyphs" textLength="163" x="151" y="445.4873">simple.single01.Runner</text><rect fill="#FFFFFF" filter="url(#fob0fj9e2cs5k)" height="324.1953" style="stroke: #A80036; stroke-width: 1.0;" width="10" x="66" y="77.2969"/><rect fill="#FFFFFF" filter="url(#fob0fj9e2cs5k)" height="182.5313" style="stroke: #A80036; stroke-width: 1.0;" width="10" x="229.5" y="111.5625"/><rect fill="#FFFFFF" filter="url(#fob0fj9e2cs5k)" height="91.3984" style="stroke: #A80036; stroke-width: 1.0;" width="10" x="234.5" y="181.6953"/><ellipse cx="70.5" cy="63.6797" fill="none" rx="4" ry="4" style="stroke: #A80036; stroke-width: 1.5;"/><line style="stroke: #A80036; stroke-width: 1.0;" x1="75" x2="118" y1="64.4297" y2="64.4297"/><line style="stroke: #A80036; stroke-width: 1.0;" x1="118" x2="118" y1="64.4297" y2="77.4297"/><line style="stroke: #A80036; stroke-width: 1.0;" x1="77" x2="118" y1="77.4297" y2="77.4297"/><polygon fill="#A80036" points="87,73.4297,77,77.4297,87,81.4297,83,77.4297" style="stroke: #A80036; stroke-width: 1.0;"/><text fill="#000000" font-family="sans-serif" font-size="13" lengthAdjust="spacingAndGlyphs" textLength="32" x="83" y="59.3638">main</text><ellipse cx="75.5" cy="110.8125" fill="none" rx="4" ry="4" style="stroke: #A80036; stroke-width: 1.5;"/><polygon fill="#A80036" points="217.5,107.5625,227.5,111.5625,217.5,115.5625,221.5,111.5625" style="stroke: #A80036; stroke-width: 1.0;"/><line style="stroke: #A80036; stroke-width: 1.0;" x1="80" x2="223.5" y1="111.5625" y2="111.5625"/><text fill="#000000" font-family="sans-serif" font-size="13" lengthAdjust="spacingAndGlyphs" text-decoration="underline" textLength="19" x="83" y="106.4966">init</text><line style="stroke: #000000; stroke-width: 1.0;" x1="83" x2="102" y1="108.4966" y2="108.4966"/><polygon fill="#FBFB77" filter="url(#fob0fj9e2cs5k)" points="254,124.5625,345,124.5625,355,135.5625,345,147.5625,254,147.5625,244,135.5625,254,124.5625" style="stroke: #A80036; stroke-width: 1.0;"/><text fill="#000000" font-family="sans-serif" font-size="13" lengthAdjust="spacingAndGlyphs" textLength="87" x="256" y="140.6294">instance_field</text><ellipse cx="239" cy="168.0781" fill="none" rx="4" ry="4" style="stroke: #A80036; stroke-width: 1.5;"/><line style="stroke: #A80036; stroke-width: 1.0;" x1="243.5" x2="286.5" y1="168.8281" y2="168.8281"/><line style="stroke: #A80036; stroke-width: 1.0;" x1="286.5" x2="286.5" y1="168.8281" y2="181.8281"/><line style="stroke: #A80036; stroke-width: 1.0;" x1="245.5" x2="286.5" y1="181.8281" y2="181.8281"/><polygon fill="#A80036" points="255.5,177.8281,245.5,181.8281,255.5,185.8281,251.5,181.8281" style="stroke: #A80036; stroke-width: 1.0;"/><text fill="#000000" font-family="sans-serif" font-size="13" lengthAdjust="spacingAndGlyphs" textLength="51" x="251.5" y="163.7622">execute</text><polygon fill="#FBFB77" filter="url(#fob0fj9e2cs5k)" points="259,199.8281,350,199.8281,360,210.8281,350,222.8281,259,222.8281,249,210.8281,259,199.8281" style="stroke: #A80036; stroke-width: 1.0;"/><text fill="#000000" font-family="sans-serif" font-size="13" lengthAdjust="spacingAndGlyphs" textLength="87" x="261" y="215.895">instance_field</text><polygon fill="#FBFB77" filter="url(#fob0fj9e2cs5k)" points="259,232.9609,349,232.9609,359,243.9609,349,255.9609,259,255.9609,249,243.9609,259,232.9609" style="stroke: #A80036; stroke-width: 1.0;"/><text fill="#000000" font-family="sans-serif" font-size="13" lengthAdjust="spacingAndGlyphs" textLength="86" x="261" y="249.0278">STATIC_FIELD</text><line style="stroke: #A80036; stroke-width: 1.0; stroke-dasharray: 2.0,2.0;" x1="244.5" x2="286.5" y1="272.0938" y2="272.0938"/><line style="stroke: #A80036; stroke-width: 1.0; stroke-dasharray: 2.0,2.0;" x1="286.5" x2="286.5" y1="272.0938" y2="285.0938"/><line style="stroke: #A80036; stroke-width: 1.0; stroke-dasharray: 2.0,2.0;" x1="239.5" x2="286.5" y1="285.0938" y2="285.0938"/><polygon fill="#A80036" points="249.5,281.0938,239.5,285.0938,249.5,289.0938,245.5,285.0938" style="stroke: #A80036; stroke-width: 1.0;"/><polygon fill="#A80036" points="87,290.0938,77,294.0938,87,298.0938,83,294.0938" style="stroke: #A80036; stroke-width: 1.0;"/><line style="stroke: #A80036; stroke-width: 1.0; stroke-dasharray: 2.0,2.0;" x1="81" x2="233.5" y1="294.0938" y2="294.0938"/><ellipse cx="75.5" cy="322.4766" fill="none" rx="4" ry="4" style="stroke: #A80036; stroke-width: 1.5;"/><polygon fill="#A80036" points="222.5,319.2266,232.5,323.2266,222.5,327.2266,226.5,323.2266" style="stroke: #A80036; stroke-width: 1.0;"/><line style="stroke: #A80036; stroke-width: 1.0;" x1="80" x2="228.5" y1="323.2266" y2="323.2266"/><text fill="#000000" font-family="sans-serif" font-size="13" lengthAdjust="spacingAndGlyphs" textLength="87" x="83" y="318.1606">instance_field</text><ellipse cx="75.5" cy="351.6094" fill="none" rx="4" ry="4" style="stroke: #A80036; stroke-width: 1.5;"/><polygon fill="#A80036" points="222.5,348.3594,232.5,352.3594,222.5,356.3594,226.5,352.3594" style="stroke: #A80036; stroke-width: 1.0;"/><line style="stroke: #A80036; stroke-width: 1.0;" x1="80" x2="228.5" y1="352.3594" y2="352.3594"/><text fill="#000000" font-family="sans-serif" font-size="13" lengthAdjust="spacingAndGlyphs" textLength="51" x="83" y="347.2935">execute</text><ellipse cx="75.5" cy="380.7422" fill="none" rx="4" ry="4" style="stroke: #A80036; stroke-width: 1.5;"/><polygon fill="#A80036" points="222.5,377.4922,232.5,381.4922,222.5,385.4922,226.5,381.4922" style="stroke: #A80036; stroke-width: 1.0;"/><line style="stroke: #A80036; stroke-width: 1.0;" x1="80" x2="228.5" y1="381.4922" y2="381.4922"/><text fill="#000000" font-family="sans-serif" font-size="13" lengthAdjust="spacingAndGlyphs" textLength="86" x="83" y="376.4263">STATIC_FIELD</text><line style="stroke: #A80036; stroke-width: 1.0; stroke-dasharray: 2.0,2.0;" x1="76" x2="118" y1="400.4922" y2="400.4922"/><line style="stroke: #A80036; stroke-width: 1.0; stroke-dasharray: 2.0,2.0;" x1="118" x2="118" y1="400.4922" y2="413.4922"/><line style="stroke: #A80036; stroke-width: 1.0; stroke-dasharray: 2.0,2.0;" x1="71" x2="118" y1="413.4922" y2="413.4922"/><polygon fill="#A80036" points="81,409.4922,71,413.4922,81,417.4922,77,413.4922" style="stroke: #A80036; stroke-width: 1.0;"/></g></svg>