<?xml version="1.0" encoding="UTF-8" standalone="no"?>
<!DOCTYPE svg PUBLIC "-//W3C//DTD SVG 1.1//EN"
 "http://www.w3.org/Graphics/SVG/1.1/DTD/svg11.dtd">
<!-- Generated by graphviz version 2.43.0 (0)
 -->
<!-- Title: G Pages: 1 -->
<svg width="398pt" height="524pt"
 viewBox="0.00 0.00 398.00 524.00" xmlns="http://www.w3.org/2000/svg" xmlns:xlink="http://www.w3.org/1999/xlink">
<g id="graph0" class="graph" transform="scale(1 1) rotate(0) translate(4 520)">
<title>G</title>
<polygon fill="white" stroke="transparent" points="-4,4 -4,-520 394,-520 394,4 -4,4"/>
<g id="clust1" class="cluster">
<title>cluster_G</title>
<path fill="#808080" fill-opacity="0.094118" stroke="black" d="M20,-8C20,-8 370,-8 370,-8 376,-8 382,-14 382,-20 382,-20 382,-496 382,-496 382,-502 376,-508 370,-508 370,-508 20,-508 20,-508 14,-508 8,-502 8,-496 8,-496 8,-20 8,-20 8,-14 14,-8 20,-8"/>
</g>
<g id="clust2" class="cluster">
<title>cluster_simple__single01</title>
<path fill="#808080" fill-opacity="0.094118" stroke="black" d="M28,-16C28,-16 362,-16 362,-16 368,-16 374,-22 374,-28 374,-28 374,-411 374,-411 374,-417 368,-423 362,-423 362,-423 28,-423 28,-423 22,-423 16,-417 16,-411 16,-411 16,-28 16,-28 16,-22 22,-16 28,-16"/>
<text text-anchor="middle" x="195" y="-407.8" font-family="Times,serif" font-size="14.00">simple.single01</text>
</g>
<g id="clust3" class="cluster">
<title>cluster_simple__single01__Runner</title>
<path fill="#808080" fill-opacity="0.094118" stroke="black" d="M36,-24C36,-24 354,-24 354,-24 360,-24 366,-30 366,-36 366,-36 366,-303 366,-303 366,-309 360,-315 354,-315 354,-315 36,-315 36,-315 30,-315 24,-309 24,-303 24,-303 24,-36 24,-36 24,-30 30,-24 36,-24"/>
<text text-anchor="middle" x="195" y="-299.8" font-family="Times,serif" font-size="14.00">simple.single01.Runner</text>
</g>
<!-- simple__single01 -->
<g id="node1" class="node">
<title>simple__single01</title>
<ellipse fill="#ffffff" fill-opacity="0.698039" stroke="black" cx="205" cy="-482" rx="83.69" ry="18"/>
<text text-anchor="middle" x="205" y="-478.3" font-family="Times,serif" font-size="14.00" fill="#000000">simple.single01</text>
</g>
<!-- simple__single01__main -->
<g id="node2" class="node">
<title>simple__single01__main</title>
<ellipse fill="#ff9999" fill-opacity="0.698039" stroke="black" cx="205" cy="-374" rx="33.6" ry="18"/>
<text text-anchor="middle" x="205" y="-370.3" font-family="Times,serif" font-size="14.00" fill="#000000">main</text>
</g>
<!-- simple__single01&#45;&gt;simple__single01__main -->
<g id="edge9" class="edge">
<title>simple__single01&#45;&gt;simple__single01__main</title>
<path fill="none" stroke="#000000" d="M205,-463.97C205,-447.38 205,-421.88 205,-402.43"/>
<polygon fill="#000000" stroke="#000000" points="208.5,-402.34 205,-392.34 201.5,-402.34 208.5,-402.34"/>
</g>
<!-- simple__single01__Runner__STATIC_FIELD -->
<g id="node3" class="node">
<title>simple__single01__Runner__STATIC_FIELD</title>
<ellipse fill="#ff6565" fill-opacity="0.698039" stroke="black" cx="111" cy="-50" rx="79.09" ry="18"/>
<text text-anchor="middle" x="111" y="-46.3" font-family="Times,serif" font-size="14.00" fill="#000000">STATIC_FIELD</text>
</g>
<!-- simple__single01__main&#45;&gt;simple__single01__Runner__STATIC_FIELD -->
<g id="edge8" class="edge">
<title>simple__single01__main&#45;&gt;simple__single01__Runner__STATIC_FIELD</title>
<path fill="none" stroke="#000000" d="M178.7,-362.64C159.02,-353.36 133.45,-337.68 121,-315 78.73,-238.03 94.09,-128.53 104.53,-78.21"/>
<polygon fill="#000000" stroke="#000000" points="108.01,-78.64 106.72,-68.12 101.17,-77.15 108.01,-78.64"/>
</g>
<!-- simple__single01__Runner____init__ -->
<g id="node4" class="node">
<title>simple__single01__Runner____init__</title>
<ellipse fill="#ff6565" fill-opacity="0.698039" stroke="black" cx="174" cy="-266" rx="44.39" ry="18"/>
<text text-anchor="middle" x="174" y="-262.3" font-family="Times,serif" font-size="14.00" fill="#000000">__init__</text>
</g>
<!-- simple__single01__main&#45;&gt;simple__single01__Runner____init__ -->
<g id="edge5" class="edge">
<title>simple__single01__main&#45;&gt;simple__single01__Runner____init__</title>
<path fill="none" stroke="#000000" d="M200.02,-355.97C195.12,-339.2 187.55,-313.34 181.84,-293.81"/>
<polygon fill="#000000" stroke="#000000" points="185.13,-292.6 178.97,-283.99 178.42,-294.57 185.13,-292.6"/>
</g>
<!-- simple__single01__Runner__execute -->
<g id="node5" class="node">
<title>simple__single01__Runner__execute</title>
<ellipse fill="#ff6565" fill-opacity="0.698039" stroke="black" cx="227" cy="-158" rx="46.59" ry="18"/>
<text text-anchor="middle" x="227" y="-154.3" font-family="Times,serif" font-size="14.00" fill="#000000">execute</text>
</g>
<!-- simple__single01__main&#45;&gt;simple__single01__Runner__execute -->
<g id="edge7" class="edge">
<title>simple__single01__main&#45;&gt;simple__single01__Runner__execute</title>
<path fill="none" stroke="#000000" d="M213.23,-356.21C218.32,-344.88 224.36,-329.41 227,-315 235.17,-270.44 232.66,-217.51 229.94,-186.17"/>
<polygon fill="#000000" stroke="#000000" points="233.41,-185.66 228.99,-176.03 226.44,-186.32 233.41,-185.66"/>
</g>
<!-- simple__single01__Runner__instance_field -->
<g id="node6" class="node">
<title>simple__single01__Runner__instance_field</title>
<ellipse fill="#ff6565" fill-opacity="0.698039" stroke="black" cx="283" cy="-50" rx="74.99" ry="18"/>
<text text-anchor="middle" x="283" y="-46.3" font-family="Times,serif" font-size="14.00" fill="#000000">instance_field</text>
</g>
<!-- simple__single01__main&#45;&gt;simple__single01__Runner__instance_field -->
<g id="edge6" class="edge">
<title>simple__single01__main&#45;&gt;simple__single01__Runner__instance_field</title>
<path fill="none" stroke="#000000" d="M214.25,-356.56C232.18,-323.6 270.93,-246.52 283,-176 288.7,-142.68 287.46,-103.64 285.62,-78.17"/>
<polygon fill="#000000" stroke="#000000" points="289.11,-77.82 284.81,-68.14 282.13,-78.39 289.11,-77.82"/>
</g>
<!-- simple__single01__Runner____init__&#45;&gt;simple__single01__Runner__execute -->
<g id="edge2" class="edge">
<title>simple__single01__Runner____init__&#45;&gt;simple__single01__Runner__execute</title>
<path fill="none" stroke="#000000" d="M182.52,-247.97C191.01,-230.97 204.19,-204.62 214,-185.01"/>
<polygon fill="#000000" stroke="#000000" points="217.16,-186.5 218.51,-175.99 210.9,-183.37 217.16,-186.5"/>
</g>
<!-- simple__single01__Runner____init__&#45;&gt;simple__single01__Runner__instance_field -->
<g id="edge1" class="edge">
<title>simple__single01__Runner____init__&#45;&gt;simple__single01__Runner__instance_field</title>
<path fill="none" stroke="#000000" d="M168.87,-247.79C162.4,-222.69 154.02,-175.19 171,-140 185.68,-109.59 216.36,-86.37 241.9,-71.29"/>
<polygon fill="#000000" stroke="#000000" points="243.73,-74.28 250.69,-66.3 240.27,-68.2 243.73,-74.28"/>
</g>
<!-- simple__single01__Runner__execute&#45;&gt;simple__single01__Runner__STATIC_FIELD -->
<g id="edge4" class="edge">
<title>simple__single01__Runner__execute&#45;&gt;simple__single01__Runner__STATIC_FIELD</title>
<path fill="none" stroke="#000000" d="M209.63,-141.13C190.3,-123.46 158.85,-94.73 136.68,-74.46"/>
<polygon fill="#000000" stroke="#000000" points="138.99,-71.84 129.25,-67.68 134.27,-77.01 138.99,-71.84"/>
</g>
<!-- simple__single01__Runner__execute&#45;&gt;simple__single01__Runner__instance_field -->
<g id="edge3" class="edge">
<title>simple__single01__Runner__execute&#45;&gt;simple__single01__Runner__instance_field</title>
<path fill="none" stroke="#000000" d="M236,-139.97C244.98,-122.97 258.9,-96.62 269.26,-77.01"/>
<polygon fill="#000000" stroke="#000000" points="272.45,-78.47 274.02,-67.99 266.26,-75.2 272.45,-78.47"/>
</g>
</g>
</svg>
