<?xml version="1.0" encoding="UTF-8" standalone="no"?>
<!DOCTYPE svg PUBLIC "-//W3C//DTD SVG 1.1//EN"
 "http://www.w3.org/Graphics/SVG/1.1/DTD/svg11.dtd">
<!-- Generated by graphviz version 2.43.0 (0)
 -->
<!-- Title: G Pages: 1 -->
<svg width="398pt" height="386pt"
 viewBox="0.00 0.00 398.00 386.00" xmlns="http://www.w3.org/2000/svg" xmlns:xlink="http://www.w3.org/1999/xlink">
<g id="graph0" class="graph" transform="scale(1 1) rotate(0) translate(4 382)">
<title>G</title>
<polygon fill="white" stroke="transparent" points="-4,4 -4,-382 394,-382 394,4 -4,4"/>
<g id="clust1" class="cluster">
<title>cluster_G</title>
<path fill="#808080" fill-opacity="0.094118" stroke="black" d="M20,-8C20,-8 370,-8 370,-8 376,-8 382,-14 382,-20 382,-20 382,-358 382,-358 382,-364 376,-370 370,-370 370,-370 20,-370 20,-370 14,-370 8,-364 8,-358 8,-358 8,-20 8,-20 8,-14 14,-8 20,-8"/>
</g>
<g id="clust2" class="cluster">
<title>cluster_simple__single01</title>
<path fill="#808080" fill-opacity="0.094118" stroke="black" d="M28,-16C28,-16 362,-16 362,-16 368,-16 374,-22 374,-28 374,-28 374,-306 374,-306 374,-312 368,-318 362,-318 362,-318 28,-318 28,-318 22,-318 16,-312 16,-306 16,-306 16,-28 16,-28 16,-22 22,-16 28,-16"/>
<text text-anchor="middle" x="195" y="-302.8" font-family="Times,serif" font-size="14.00">simple.single01</text>
</g>
<g id="clust3" class="cluster">
<title>cluster_simple__single01__Runner</title>
<path fill="#808080" fill-opacity="0.094118" stroke="black" d="M36,-24C36,-24 354,-24 354,-24 360,-24 366,-30 366,-36 366,-36 366,-231 366,-231 366,-237 360,-243 354,-243 354,-243 36,-243 36,-243 30,-243 24,-237 24,-231 24,-231 24,-36 24,-36 24,-30 30,-24 36,-24"/>
<text text-anchor="middle" x="195" y="-227.8" font-family="Times,serif" font-size="14.00">simple.single01.Runner</text>
</g>
<!-- simple__single01 -->
<g id="node1" class="node">
<title>simple__single01</title>
<ellipse fill="#ffffff" fill-opacity="0.698039" stroke="black" cx="113" cy="-344" rx="83.69" ry="18"/>
<text text-anchor="middle" x="113" y="-340.3" font-family="Times,serif" font-size="14.00" fill="#000000">simple.single01</text>
</g>
<!-- simple__single01__Runner -->
<g id="node2" class="node">
<title>simple__single01__Runner</title>
<ellipse fill="#ff9999" fill-opacity="0.698039" stroke="black" cx="239" cy="-269" rx="44.69" ry="18"/>
<text text-anchor="middle" x="239" y="-265.3" font-family="Times,serif" font-size="14.00" fill="#000000">Runner</text>
</g>
<!-- simple__single01&#45;&gt;simple__single01__Runner -->
<g id="edge1" class="edge">
<title>simple__single01&#45;&gt;simple__single01__Runner</title>
<path fill="none" stroke="#838b8b" stroke-dasharray="5,2" d="M140.65,-326.98C159.75,-315.92 185.25,-301.14 205.5,-289.41"/>
<polygon fill="#838b8b" stroke="#838b8b" points="207.5,-292.3 214.4,-284.25 203.99,-286.24 207.5,-292.3"/>
</g>
<!-- simple__single01__main -->
<g id="node3" class="node">
<title>simple__single01__main</title>
<ellipse fill="#ff9999" fill-opacity="0.698039" stroke="black" cx="113" cy="-269" rx="33.6" ry="18"/>
<text text-anchor="middle" x="113" y="-265.3" font-family="Times,serif" font-size="14.00" fill="#000000">main</text>
</g>
<!-- simple__single01&#45;&gt;simple__single01__main -->
<g id="edge2" class="edge">
<title>simple__single01&#45;&gt;simple__single01__main</title>
<path fill="none" stroke="#838b8b" stroke-dasharray="5,2" d="M107.16,-325.7C106.27,-317.18 106.03,-306.72 106.45,-297.17"/>
<polygon fill="#838b8b" stroke="#838b8b" points="109.96,-297.15 107.2,-286.92 102.98,-296.64 109.96,-297.15"/>
</g>
<!-- simple__single01&#45;&gt;simple__single01__main -->
<g id="edge15" class="edge">
<title>simple__single01&#45;&gt;simple__single01__main</title>
<path fill="none" stroke="#000000" d="M118.84,-325.7C119.73,-317.18 119.97,-306.72 119.55,-297.17"/>
<polygon fill="#000000" stroke="#000000" points="123.02,-296.64 118.8,-286.92 116.04,-297.15 123.02,-296.64"/>
</g>
<!-- simple__single01__Runner__STATIC_FIELD -->
<g id="node4" class="node">
<title>simple__single01__Runner__STATIC_FIELD</title>
<ellipse fill="#ff6565" fill-opacity="0.698039" stroke="black" cx="279" cy="-50" rx="79.09" ry="18"/>
<text text-anchor="middle" x="279" y="-46.3" font-family="Times,serif" font-size="14.00" fill="#000000">STATIC_FIELD</text>
</g>
<!-- simple__single01__Runner&#45;&gt;simple__single01__Runner__STATIC_FIELD -->
<g id="edge5" class="edge">
<title>simple__single01__Runner&#45;&gt;simple__single01__Runner__STATIC_FIELD</title>
<path fill="none" stroke="#838b8b" stroke-dasharray="5,2" d="M257.81,-252.36C260.27,-249.5 262.46,-246.34 264,-243 289,-188.73 286.41,-116.67 282.56,-78.1"/>
<polygon fill="#838b8b" stroke="#838b8b" points="286.04,-77.71 281.47,-68.15 279.08,-78.48 286.04,-77.71"/>
</g>
<!-- simple__single01__Runner____init__ -->
<g id="node5" class="node">
<title>simple__single01__Runner____init__</title>
<ellipse fill="#ff6565" fill-opacity="0.698039" stroke="black" cx="176" cy="-194" rx="44.39" ry="18"/>
<text text-anchor="middle" x="176" y="-190.3" font-family="Times,serif" font-size="14.00" fill="#000000">__init__</text>
</g>
<!-- simple__single01__Runner&#45;&gt;simple__single01__Runner____init__ -->
<g id="edge3" class="edge">
<title>simple__single01__Runner&#45;&gt;simple__single01__Runner____init__</title>
<path fill="none" stroke="#838b8b" stroke-dasharray="5,2" d="M225.02,-251.8C216.7,-242.16 205.99,-229.75 196.7,-218.99"/>
<polygon fill="#838b8b" stroke="#838b8b" points="199.13,-216.44 189.94,-211.16 193.83,-221.01 199.13,-216.44"/>
</g>
<!-- simple__single01__Runner__execute -->
<g id="node6" class="node">
<title>simple__single01__Runner__execute</title>
<ellipse fill="#ff6565" fill-opacity="0.698039" stroke="black" cx="179" cy="-122" rx="46.59" ry="18"/>
<text text-anchor="middle" x="179" y="-118.3" font-family="Times,serif" font-size="14.00" fill="#000000">execute</text>
</g>
<!-- simple__single01__Runner&#45;&gt;simple__single01__Runner__execute -->
<g id="edge4" class="edge">
<title>simple__single01__Runner&#45;&gt;simple__single01__Runner__execute</title>
<path fill="none" stroke="#838b8b" stroke-dasharray="5,2" d="M240.3,-250.86C241.06,-231.71 240.17,-200.22 229,-176 223.75,-164.63 215.09,-154.13 206.43,-145.52"/>
<polygon fill="#838b8b" stroke="#838b8b" points="208.6,-142.76 198.91,-138.47 203.81,-147.87 208.6,-142.76"/>
</g>
<!-- simple__single01__Runner__instance_field -->
<g id="node7" class="node">
<title>simple__single01__Runner__instance_field</title>
<ellipse fill="#ff6565" fill-opacity="0.698039" stroke="black" cx="107" cy="-50" rx="74.99" ry="18"/>
<text text-anchor="middle" x="107" y="-46.3" font-family="Times,serif" font-size="14.00" fill="#000000">instance_field</text>
</g>
<!-- simple__single01__Runner&#45;&gt;simple__single01__Runner__instance_field -->
<g id="edge6" class="edge">
<title>simple__single01__Runner&#45;&gt;simple__single01__Runner__instance_field</title>
<path fill="none" stroke="#838b8b" stroke-dasharray="5,2" d="M244.31,-250.74C253.07,-218.55 266.63,-148.6 235,-104 221.06,-84.34 198.43,-71.96 176.04,-64.16"/>
<polygon fill="#838b8b" stroke="#838b8b" points="177.08,-60.81 166.49,-61.09 174.94,-67.48 177.08,-60.81"/>
</g>
<!-- simple__single01__main&#45;&gt;simple__single01__Runner__STATIC_FIELD -->
<g id="edge14" class="edge">
<title>simple__single01__main&#45;&gt;simple__single01__Runner__STATIC_FIELD</title>
<path fill="none" stroke="#000000" d="M107.97,-251.05C99.36,-218.14 86.06,-145.2 123,-104 135.8,-89.73 177.95,-75.87 215.22,-65.91"/>
<polygon fill="#000000" stroke="#000000" points="216.28,-69.25 225.07,-63.34 214.51,-62.48 216.28,-69.25"/>
</g>
<!-- simple__single01__main&#45;&gt;simple__single01__Runner____init__ -->
<g id="edge11" class="edge">
<title>simple__single01__main&#45;&gt;simple__single01__Runner____init__</title>
<path fill="none" stroke="#000000" d="M126.67,-252.16C135.06,-242.44 145.96,-229.81 155.38,-218.89"/>
<polygon fill="#000000" stroke="#000000" points="158.04,-221.17 161.92,-211.31 152.74,-216.6 158.04,-221.17"/>
</g>
<!-- simple__single01__main&#45;&gt;simple__single01__Runner__execute -->
<g id="edge13" class="edge">
<title>simple__single01__main&#45;&gt;simple__single01__Runner__execute</title>
<path fill="none" stroke="#000000" d="M111.44,-250.74C110.46,-231.48 111.15,-199.89 123,-176 129.01,-163.89 138.99,-153.08 148.88,-144.44"/>
<polygon fill="#000000" stroke="#000000" points="151.22,-147.05 156.71,-137.99 146.77,-141.65 151.22,-147.05"/>
</g>
<!-- simple__single01__main&#45;&gt;simple__single01__Runner__instance_field -->
<g id="edge12" class="edge">
<title>simple__single01__main&#45;&gt;simple__single01__Runner__instance_field</title>
<path fill="none" stroke="#000000" d="M94.94,-253.59C92.11,-250.43 89.6,-246.86 88,-243 64.36,-185.92 77.42,-164.87 88,-104 89.52,-95.24 92.36,-86.01 95.39,-77.75"/>
<polygon fill="#000000" stroke="#000000" points="98.72,-78.84 99.11,-68.25 92.21,-76.29 98.72,-78.84"/>
</g>
<!-- simple__single01__Runner____init__&#45;&gt;simple__single01__Runner__execute -->
<g id="edge8" class="edge">
<title>simple__single01__Runner____init__&#45;&gt;simple__single01__Runner__execute</title>
<path fill="none" stroke="#000000" d="M176.74,-175.7C177.07,-167.98 177.47,-158.71 177.84,-150.11"/>
<polygon fill="#000000" stroke="#000000" points="181.34,-150.25 178.27,-140.1 174.34,-149.95 181.34,-150.25"/>
</g>
<!-- simple__single01__Runner____init__&#45;&gt;simple__single01__Runner__instance_field -->
<g id="edge7" class="edge">
<title>simple__single01__Runner____init__&#45;&gt;simple__single01__Runner__instance_field</title>
<path fill="none" stroke="#000000" d="M155.55,-177.79C144.17,-168.22 130.78,-154.88 123,-140 112.97,-120.81 109.1,-96.46 107.67,-78.09"/>
<polygon fill="#000000" stroke="#000000" points="111.16,-77.82 107.08,-68.04 104.17,-78.23 111.16,-77.82"/>
</g>
<!-- simple__single01__Runner__execute&#45;&gt;simple__single01__Runner__STATIC_FIELD -->
<g id="edge10" class="edge">
<title>simple__single01__Runner__execute&#45;&gt;simple__single01__Runner__STATIC_FIELD</title>
<path fill="none" stroke="#000000" d="M200.7,-105.81C214.24,-96.33 231.91,-83.96 247.04,-73.37"/>
<polygon fill="#000000" stroke="#000000" points="249.41,-75.98 255.6,-67.38 245.4,-70.25 249.41,-75.98"/>
</g>
<!-- simple__single01__Runner__execute&#45;&gt;simple__single01__Runner__instance_field -->
<g id="edge9" class="edge">
<title>simple__single01__Runner__execute&#45;&gt;simple__single01__Runner__instance_field</title>
<path fill="none" stroke="#000000" d="M162.66,-105.12C153.38,-96.09 141.58,-84.62 131.24,-74.57"/>
<polygon fill="#000000" stroke="#000000" points="133.63,-72.01 124.02,-67.55 128.75,-77.03 133.63,-72.01"/>
</g>
</g>
</svg>
