<?xml version="1.0" encoding="UTF-8" standalone="no"?><svg xmlns="http://www.w3.org/2000/svg" xmlns:xlink="http://www.w3.org/1999/xlink" contentScriptType="application/ecmascript" contentStyleType="text/css" height="453px" preserveAspectRatio="none" style="width:591px;height:453px;background:#FEFEFE;" version="1.1" viewBox="0 0 591 453" width="591px" zoomAndPan="magnify"><defs><filter height="300%" id="f1pd37ws2de8ea" width="300%" x="-1" y="-1"><feGaussianBlur result="blurOut" stdDeviation="2.0"/><feColorMatrix in="blurOut" result="blurOut2" type="matrix" values="0 0 0 0 0 0 0 0 0 0 0 0 0 0 0 0 0 0 .4 0"/><feOffset dx="4.0" dy="4.0" in="blurOut2" result="blurOut3"/><feBlend in="SourceGraphic" in2="blurOut3" mode="normal"/></filter></defs><g><rect fill="#FFFFFF" filter="url(#f1pd37ws2de8ea)" height="311.1953" style="stroke: #A80036; stroke-width: 1.0;" width="10" x="77.5" y="77.2969"/><rect fill="#FFFFFF" filter="url(#f1pd37ws2de8ea)" height="138.5313" style="stroke: #A80036; stroke-width: 1.0;" width="10" x="264" y="111.5625"/><rect fill="#FFFFFF" filter="url(#f1pd37ws2de8ea)" height="89.2656" style="stroke: #A80036; stroke-width: 1.0;" width="10" x="264" y="279.2266"/><line style="stroke: #A80036; stroke-width: 1.0; stroke-dasharray: 5.0,5.0;" x1="82" x2="82" y1="38.2969" y2="413.4922"/><line style="stroke: #A80036; stroke-width: 1.0; stroke-dasharray: 5.0,5.0;" x1="269" x2="269" y1="38.2969" y2="413.4922"/><line style="stroke: #A80036; stroke-width: 1.0; stroke-dasharray: 5.0,5.0;" x1="482" x2="482" y1="38.2969" y2="413.4922"/><rect fill="#FEFECE" filter="url(#f1pd37ws2de8ea)" height="30.2969" style="stroke: #A80036; stroke-width: 1.5;" width="145" x="8" y="3"/><text fill="#000000" font-family="sans-serif" font-size="14" lengthAdjust="spacingAndGlyphs" textLength="131" x="15" y="22.9951">thread01.runner01</text><rect fill="#FEFECE" filter="url(#f1pd37ws2de8ea)" height="30.2969" style="stroke: #A80036; stroke-width: 1.5;" width="145" x="8" y="412.4922"/><text fill="#000000" font-family="sans-serif" font-size="14" lengthAdjust="spacingAndGlyphs" textLength="131" x="15" y="432.4873">thread01.runner01</text><rect fill="#FEFECE" filter="url(#f1pd37ws2de8ea)" height="30.2969" style="stroke: #A80036; stroke-width: 1.5;" width="200" x="167" y="3"/><text fill="#000000" font-family="sans-serif" font-size="14" lengthAdjust="spacingAndGlyphs" textLength="186" x="174" y="22.9951">thread01.runner01.Runner</text><rect fill="#FEFECE" filter="url(#f1pd37ws2de8ea)" height="30.2969" style="stroke: #A80036; stroke-width: 1.5;" width="200" x="167" y="412.4922"/><text fill="#000000" font-family="sans-serif" font-size="14" lengthAdjust="spacingAndGlyphs" textLength="186" x="174" y="432.4873">thread01.runner01.Runner</text><rect fill="#FEFECE" filter="url(#f1pd37ws2de8ea)" height="30.2969" style="stroke: #A80036; stroke-width: 1.5;" width="199" x="381" y="3"/><text fill="#000000" font-family="sans-serif" font-size="14" lengthAdjust="spacingAndGlyphs" textLength="185" x="388" y="22.9951">thread01.worker01.Worker</text><rect fill="#FEFECE" filter="url(#f1pd37ws2de8ea)" height="30.2969" style="stroke: #A80036; stroke-width: 1.5;" width="199" x="381" y="412.4922"/><text fill="#000000" font-family="sans-serif" font-size="14" lengthAdjust="spacingAndGlyphs" textLength="185" x="388" y="432.4873">thread01.worker01.Worker</text><rect fill="#FFFFFF" filter="url(#f1pd37ws2de8ea)" height="311.1953" style="stroke: #A80036; stroke-width: 1.0;" width="10" x="77.5" y="77.2969"/><rect fill="#FFFFFF" filter="url(#f1pd37ws2de8ea)" height="138.5313" style="stroke: #A80036; stroke-width: 1.0;" width="10" x="264" y="111.5625"/><rect fill="#FFFFFF" filter="url(#f1pd37ws2de8ea)" height="89.2656" style="stroke: #A80036; stroke-width: 1.0;" width="10" x="264" y="279.2266"/><ellipse cx="82" cy="63.6797" fill="none" rx="4" ry="4" style="stroke: #A80036; stroke-width: 1.5;"/><line style="stroke: #A80036; stroke-width: 1.0;" x1="86.5" x2="129.5" y1="64.4297" y2="64.4297"/><line style="stroke: #A80036; stroke-width: 1.0;" x1="129.5" x2="129.5" y1="64.4297" y2="77.4297"/><line style="stroke: #A80036; stroke-width: 1.0;" x1="88.5" x2="129.5" y1="77.4297" y2="77.4297"/><polygon fill="#A80036" points="98.5,73.4297,88.5,77.4297,98.5,81.4297,94.5,77.4297" style="stroke: #A80036; stroke-width: 1.0;"/><text fill="#000000" font-family="sans-serif" font-size="13" lengthAdjust="spacingAndGlyphs" textLength="32" x="94.5" y="59.3638">main</text><ellipse cx="87" cy="110.8125" fill="none" rx="4" ry="4" style="stroke: #A80036; stroke-width: 1.5;"/><polygon fill="#A80036" points="252,107.5625,262,111.5625,252,115.5625,256,111.5625" style="stroke: #A80036; stroke-width: 1.0;"/><line style="stroke: #A80036; stroke-width: 1.0;" x1="91.5" x2="258" y1="111.5625" y2="111.5625"/><text fill="#000000" font-family="sans-serif" font-size="13" lengthAdjust="spacingAndGlyphs" text-decoration="underline" textLength="19" x="94.5" y="106.4966">init</text><line style="stroke: #000000; stroke-width: 1.0;" x1="94.5" x2="113.5" y1="108.4966" y2="108.4966"/><polygon fill="#FBFB77" filter="url(#f1pd37ws2de8ea)" points="289,124.5625,335,124.5625,345,135.5625,335,147.5625,289,147.5625,279,135.5625,289,124.5625" style="stroke: #A80036; stroke-width: 1.0;"/><text fill="#000000" font-family="sans-serif" font-size="13" lengthAdjust="spacingAndGlyphs" textLength="42" x="291" y="140.6294">worker</text><ellipse cx="273.5" cy="173.0781" fill="none" rx="4" ry="4" style="stroke: #A80036; stroke-width: 1.5;"/><polygon fill="#A80036" points="470.5,169.8281,480.5,173.8281,470.5,177.8281,474.5,173.8281" style="stroke: #A80036; stroke-width: 1.0;"/><line style="stroke: #A80036; stroke-width: 1.0;" x1="278" x2="476.5" y1="173.8281" y2="173.8281"/><text fill="#000000" font-family="sans-serif" font-size="13" lengthAdjust="spacingAndGlyphs" text-decoration="underline" textLength="19" x="281" y="168.7622">init</text><line style="stroke: #000000; stroke-width: 1.0;" x1="281" x2="300" y1="170.7622" y2="170.7622"/><polygon fill="#FBFB77" filter="url(#f1pd37ws2de8ea)" points="289,186.8281,335,186.8281,345,197.8281,335,209.8281,289,209.8281,279,197.8281,289,186.8281" style="stroke: #A80036; stroke-width: 1.0;"/><text fill="#000000" font-family="sans-serif" font-size="13" lengthAdjust="spacingAndGlyphs" textLength="42" x="291" y="202.895">thread</text><ellipse cx="273.5" cy="235.3438" fill="none" rx="4" ry="4" style="stroke: #A80036; stroke-width: 1.5;"/><polygon fill="#A80036" points="470.5,232.0938,480.5,236.0938,470.5,240.0938,474.5,236.0938" style="stroke: #A80036; stroke-width: 1.0;"/><line style="stroke: #A80036; stroke-width: 1.0;" x1="278" x2="476.5" y1="236.0938" y2="236.0938"/><text fill="#000000" font-family="sans-serif" font-size="13" lengthAdjust="spacingAndGlyphs" textLength="29" x="281" y="231.0278">work</text><polygon fill="#A80036" points="98.5,246.0938,88.5,250.0938,98.5,254.0938,94.5,250.0938" style="stroke: #A80036; stroke-width: 1.0;"/><line style="stroke: #A80036; stroke-width: 1.0; stroke-dasharray: 2.0,2.0;" x1="92.5" x2="268" y1="250.0938" y2="250.0938"/><ellipse cx="87" cy="278.4766" fill="none" rx="4" ry="4" style="stroke: #A80036; stroke-width: 1.5;"/><polygon fill="#A80036" points="252,275.2266,262,279.2266,252,283.2266,256,279.2266" style="stroke: #A80036; stroke-width: 1.0;"/><line style="stroke: #A80036; stroke-width: 1.0;" x1="91.5" x2="258" y1="279.2266" y2="279.2266"/><text fill="#000000" font-family="sans-serif" font-size="13" lengthAdjust="spacingAndGlyphs" textLength="51" x="94.5" y="274.1606">execute</text><polygon fill="#FBFB77" filter="url(#f1pd37ws2de8ea)" points="289,292.2266,335,292.2266,345,303.2266,335,315.2266,289,315.2266,279,303.2266,289,292.2266" style="stroke: #A80036; stroke-width: 1.0;"/><text fill="#000000" font-family="sans-serif" font-size="13" lengthAdjust="spacingAndGlyphs" textLength="42" x="291" y="308.2935">thread</text><ellipse cx="273.5" cy="340.7422" fill="none" rx="4" ry="4" style="stroke: #A80036; stroke-width: 1.5;"/><line style="stroke: #A80036; stroke-width: 1.0;" x1="278" x2="316" y1="341.4922" y2="341.4922"/><line style="stroke: #A80036; stroke-width: 1.0;" x1="316" x2="316" y1="341.4922" y2="354.4922"/><line style="stroke: #A80036; stroke-width: 1.0;" x1="275" x2="316" y1="354.4922" y2="354.4922"/><polygon fill="#A80036" points="285,350.4922,275,354.4922,285,358.4922,281,354.4922" style="stroke: #A80036; stroke-width: 1.0;"/><text fill="#000000" font-family="sans-serif" font-size="13" lengthAdjust="spacingAndGlyphs" textLength="36" x="281" y="336.4263">result</text><polygon fill="#A80036" points="98.5,364.4922,88.5,368.4922,98.5,372.4922,94.5,368.4922" style="stroke: #A80036; stroke-width: 1.0;"/><line style="stroke: #A80036; stroke-width: 1.0; stroke-dasharray: 2.0,2.0;" x1="92.5" x2="268" y1="368.4922" y2="368.4922"/><line style="stroke: #A80036; stroke-width: 1.0; stroke-dasharray: 2.0,2.0;" x1="87.5" x2="129.5" y1="387.4922" y2="387.4922"/><line style="stroke: #A80036; stroke-width: 1.0; stroke-dasharray: 2.0,2.0;" x1="129.5" x2="129.5" y1="387.4922" y2="400.4922"/><line style="stroke: #A80036; stroke-width: 1.0; stroke-dasharray: 2.0,2.0;" x1="82.5" x2="129.5" y1="400.4922" y2="400.4922"/><polygon fill="#A80036" points="92.5,396.4922,82.5,400.4922,92.5,404.4922,88.5,400.4922" style="stroke: #A80036; stroke-width: 1.0;"/></g></svg>