<?xml version="1.0" encoding="UTF-8" standalone="no"?>
<!DOCTYPE svg PUBLIC "-//W3C//DTD SVG 1.1//EN"
 "http://www.w3.org/Graphics/SVG/1.1/DTD/svg11.dtd">
<!-- Generated by graphviz version 2.43.0 (0)
 -->
<!-- Title: G Pages: 1 -->
<svg width="266pt" height="416pt"
 viewBox="0.00 0.00 266.00 416.00" xmlns="http://www.w3.org/2000/svg" xmlns:xlink="http://www.w3.org/1999/xlink">
<g id="graph0" class="graph" transform="scale(1 1) rotate(0) translate(4 412)">
<title>G</title>
<polygon fill="white" stroke="transparent" points="-4,4 -4,-412 262,-412 262,4 -4,4"/>
<g id="clust1" class="cluster">
<title>cluster_G</title>
<path fill="#808080" fill-opacity="0.094118" stroke="black" d="M20,-8C20,-8 238,-8 238,-8 244,-8 250,-14 250,-20 250,-20 250,-388 250,-388 250,-394 244,-400 238,-400 238,-400 20,-400 20,-400 14,-400 8,-394 8,-388 8,-388 8,-20 8,-20 8,-14 14,-8 20,-8"/>
</g>
<g id="clust2" class="cluster">
<title>cluster_thread01__runner01</title>
<path fill="#808080" fill-opacity="0.094118" stroke="black" d="M28,-16C28,-16 230,-16 230,-16 236,-16 242,-22 242,-28 242,-28 242,-303 242,-303 242,-309 236,-315 230,-315 230,-315 28,-315 28,-315 22,-315 16,-309 16,-303 16,-303 16,-28 16,-28 16,-22 22,-16 28,-16"/>
<text text-anchor="middle" x="129" y="-299.8" font-family="Times,serif" font-size="14.00">thread01.runner01</text>
</g>
<g id="clust3" class="cluster">
<title>cluster_thread01__runner01__Runner</title>
<path fill="#808080" fill-opacity="0.094118" stroke="black" d="M36,-24C36,-24 222,-24 222,-24 228,-24 234,-30 234,-36 234,-36 234,-195 234,-195 234,-201 228,-207 222,-207 222,-207 36,-207 36,-207 30,-207 24,-201 24,-195 24,-195 24,-36 24,-36 24,-30 30,-24 36,-24"/>
<text text-anchor="middle" x="129" y="-191.8" font-family="Times,serif" font-size="14.00">thread01.runner01.Runner</text>
</g>
<!-- thread01__runner01 -->
<g id="node1" class="node">
<title>thread01__runner01</title>
<ellipse fill="#ffffff" fill-opacity="0.698039" stroke="black" cx="129" cy="-374" rx="99.38" ry="18"/>
<text text-anchor="middle" x="129" y="-370.3" font-family="Times,serif" font-size="14.00" fill="#000000">thread01.runner01</text>
</g>
<!-- thread01__runner01__main -->
<g id="node2" class="node">
<title>thread01__runner01__main</title>
<ellipse fill="#ff9999" fill-opacity="0.698039" stroke="black" cx="129" cy="-266" rx="33.6" ry="18"/>
<text text-anchor="middle" x="129" y="-262.3" font-family="Times,serif" font-size="14.00" fill="#000000">main</text>
</g>
<!-- thread01__runner01&#45;&gt;thread01__runner01__main -->
<g id="edge4" class="edge">
<title>thread01__runner01&#45;&gt;thread01__runner01__main</title>
<path fill="none" stroke="#000000" d="M129,-355.97C129,-339.38 129,-313.88 129,-294.43"/>
<polygon fill="#000000" stroke="#000000" points="132.5,-294.34 129,-284.34 125.5,-294.34 132.5,-294.34"/>
</g>
<!-- thread01__runner01__Runner__execute -->
<g id="node3" class="node">
<title>thread01__runner01__Runner__execute</title>
<ellipse fill="#ff6565" fill-opacity="0.698039" stroke="black" cx="129" cy="-158" rx="46.59" ry="18"/>
<text text-anchor="middle" x="129" y="-154.3" font-family="Times,serif" font-size="14.00" fill="#000000">execute</text>
</g>
<!-- thread01__runner01__main&#45;&gt;thread01__runner01__Runner__execute -->
<g id="edge3" class="edge">
<title>thread01__runner01__main&#45;&gt;thread01__runner01__Runner__execute</title>
<path fill="none" stroke="#000000" d="M129,-247.97C129,-231.38 129,-205.88 129,-186.43"/>
<polygon fill="#000000" stroke="#000000" points="132.5,-186.34 129,-176.34 125.5,-186.34 132.5,-186.34"/>
</g>
<!-- thread01__runner01__Runner__result -->
<g id="node4" class="node">
<title>thread01__runner01__Runner__result</title>
<ellipse fill="#ff6565" fill-opacity="0.698039" stroke="black" cx="78" cy="-50" rx="38.19" ry="18"/>
<text text-anchor="middle" x="78" y="-46.3" font-family="Times,serif" font-size="14.00" fill="#000000">result</text>
</g>
<!-- thread01__runner01__Runner__execute&#45;&gt;thread01__runner01__Runner__result -->
<g id="edge2" class="edge">
<title>thread01__runner01__Runner__execute&#45;&gt;thread01__runner01__Runner__result</title>
<path fill="none" stroke="#000000" d="M120.81,-139.97C112.58,-122.87 99.8,-96.31 90.35,-76.66"/>
<polygon fill="#000000" stroke="#000000" points="93.5,-75.13 86.01,-67.64 87.19,-78.17 93.5,-75.13"/>
</g>
<!-- thread01__runner01__Runner__thread -->
<g id="node5" class="node">
<title>thread01__runner01__Runner__thread</title>
<ellipse fill="#ff6565" fill-opacity="0.698039" stroke="black" cx="176" cy="-50" rx="41.69" ry="18"/>
<text text-anchor="middle" x="176" y="-46.3" font-family="Times,serif" font-size="14.00" fill="#000000">thread</text>
</g>
<!-- thread01__runner01__Runner__execute&#45;&gt;thread01__runner01__Runner__thread -->
<g id="edge1" class="edge">
<title>thread01__runner01__Runner__execute&#45;&gt;thread01__runner01__Runner__thread</title>
<path fill="none" stroke="#000000" d="M136.55,-139.97C144.05,-123.05 155.66,-96.86 164.35,-77.28"/>
<polygon fill="#000000" stroke="#000000" points="167.61,-78.55 168.47,-67.99 161.21,-75.71 167.61,-78.55"/>
</g>
</g>
</svg>
