<?xml version="1.0" encoding="UTF-8" standalone="no"?>
<!DOCTYPE svg PUBLIC "-//W3C//DTD SVG 1.1//EN"
 "http://www.w3.org/Graphics/SVG/1.1/DTD/svg11.dtd">
<!-- Generated by graphviz version 2.43.0 (0)
 -->
<!-- Title: G Pages: 1 -->
<svg width="575pt" height="416pt"
 viewBox="0.00 0.00 575.00 416.00" xmlns="http://www.w3.org/2000/svg" xmlns:xlink="http://www.w3.org/1999/xlink">
<g id="graph0" class="graph" transform="scale(1 1) rotate(0) translate(4 412)">
<title>G</title>
<polygon fill="white" stroke="transparent" points="-4,4 -4,-412 571,-412 571,4 -4,4"/>
<g id="clust1" class="cluster">
<title>cluster_G</title>
<path fill="#808080" fill-opacity="0.094118" stroke="black" d="M20,-8C20,-8 547,-8 547,-8 553,-8 559,-14 559,-20 559,-20 559,-388 559,-388 559,-394 553,-400 547,-400 547,-400 20,-400 20,-400 14,-400 8,-394 8,-388 8,-388 8,-20 8,-20 8,-14 14,-8 20,-8"/>
</g>
<g id="clust2" class="cluster">
<title>cluster_thread01__runner01</title>
<path fill="#808080" fill-opacity="0.094118" stroke="black" d="M28,-16C28,-16 319,-16 319,-16 325,-16 331,-22 331,-28 331,-28 331,-303 331,-303 331,-309 325,-315 319,-315 319,-315 28,-315 28,-315 22,-315 16,-309 16,-303 16,-303 16,-28 16,-28 16,-22 22,-16 28,-16"/>
<text text-anchor="middle" x="173.5" y="-299.8" font-family="Times,serif" font-size="14.00">thread01.runner01</text>
</g>
<g id="clust3" class="cluster">
<title>cluster_thread01__runner01__Runner</title>
<path fill="#808080" fill-opacity="0.094118" stroke="black" d="M36,-24C36,-24 311,-24 311,-24 317,-24 323,-30 323,-36 323,-36 323,-195 323,-195 323,-201 317,-207 311,-207 311,-207 36,-207 36,-207 30,-207 24,-201 24,-195 24,-195 24,-36 24,-36 24,-30 30,-24 36,-24"/>
<text text-anchor="middle" x="173.5" y="-191.8" font-family="Times,serif" font-size="14.00">thread01.runner01.Runner</text>
</g>
<g id="clust4" class="cluster">
<title>cluster_thread01__worker01__Worker</title>
<path fill="#808080" fill-opacity="0.094118" stroke="black" d="M351,-24C351,-24 539,-24 539,-24 545,-24 551,-30 551,-36 551,-36 551,-87 551,-87 551,-93 545,-99 539,-99 539,-99 351,-99 351,-99 345,-99 339,-93 339,-87 339,-87 339,-36 339,-36 339,-30 345,-24 351,-24"/>
<text text-anchor="middle" x="445" y="-83.8" font-family="Times,serif" font-size="14.00">thread01.worker01.Worker</text>
</g>
<!-- thread01__runner01 -->
<g id="node1" class="node">
<title>thread01__runner01</title>
<ellipse fill="#ffffff" fill-opacity="0.698039" stroke="black" cx="216" cy="-374" rx="99.38" ry="18"/>
<text text-anchor="middle" x="216" y="-370.3" font-family="Times,serif" font-size="14.00" fill="#000000">thread01.runner01</text>
</g>
<!-- thread01__runner01__main -->
<g id="node2" class="node">
<title>thread01__runner01__main</title>
<ellipse fill="#ff9999" fill-opacity="0.698039" stroke="black" cx="216" cy="-266" rx="33.6" ry="18"/>
<text text-anchor="middle" x="216" y="-262.3" font-family="Times,serif" font-size="14.00" fill="#000000">main</text>
</g>
<!-- thread01__runner01&#45;&gt;thread01__runner01__main -->
<g id="edge9" class="edge">
<title>thread01__runner01&#45;&gt;thread01__runner01__main</title>
<path fill="none" stroke="#000000" d="M216,-355.97C216,-339.38 216,-313.88 216,-294.43"/>
<polygon fill="#000000" stroke="#000000" points="219.5,-294.34 216,-284.34 212.5,-294.34 219.5,-294.34"/>
</g>
<!-- thread01__runner01__Runner____init__ -->
<g id="node3" class="node">
<title>thread01__runner01__Runner____init__</title>
<ellipse fill="#ff6565" fill-opacity="0.698039" stroke="black" cx="271" cy="-158" rx="44.39" ry="18"/>
<text text-anchor="middle" x="271" y="-154.3" font-family="Times,serif" font-size="14.00" fill="#000000">__init__</text>
</g>
<!-- thread01__runner01__main&#45;&gt;thread01__runner01__Runner____init__ -->
<g id="edge7" class="edge">
<title>thread01__runner01__main&#45;&gt;thread01__runner01__Runner____init__</title>
<path fill="none" stroke="#000000" d="M224.59,-248.44C233.42,-231.42 247.29,-204.7 257.57,-184.89"/>
<polygon fill="#000000" stroke="#000000" points="260.79,-186.28 262.29,-175.8 254.57,-183.06 260.79,-186.28"/>
</g>
<!-- thread01__runner01__Runner__execute -->
<g id="node4" class="node">
<title>thread01__runner01__Runner__execute</title>
<ellipse fill="#ff6565" fill-opacity="0.698039" stroke="black" cx="162" cy="-158" rx="46.59" ry="18"/>
<text text-anchor="middle" x="162" y="-154.3" font-family="Times,serif" font-size="14.00" fill="#000000">execute</text>
</g>
<!-- thread01__runner01__main&#45;&gt;thread01__runner01__Runner__execute -->
<g id="edge8" class="edge">
<title>thread01__runner01__main&#45;&gt;thread01__runner01__Runner__execute</title>
<path fill="none" stroke="#000000" d="M207.56,-248.44C198.9,-231.42 185.28,-204.7 175.19,-184.89"/>
<polygon fill="#000000" stroke="#000000" points="178.21,-183.12 170.56,-175.8 171.98,-186.3 178.21,-183.12"/>
</g>
<!-- thread01__runner01__Runner__thread -->
<g id="node6" class="node">
<title>thread01__runner01__Runner__thread</title>
<ellipse fill="#ff6565" fill-opacity="0.698039" stroke="black" cx="168" cy="-50" rx="41.69" ry="18"/>
<text text-anchor="middle" x="168" y="-46.3" font-family="Times,serif" font-size="14.00" fill="#000000">thread</text>
</g>
<!-- thread01__runner01__Runner____init__&#45;&gt;thread01__runner01__Runner__thread -->
<g id="edge3" class="edge">
<title>thread01__runner01__Runner____init__&#45;&gt;thread01__runner01__Runner__thread</title>
<path fill="none" stroke="#000000" d="M255.36,-140.9C238.09,-123.13 210.15,-94.38 190.53,-74.18"/>
<polygon fill="#000000" stroke="#000000" points="192.93,-71.64 183.45,-66.9 187.91,-76.51 192.93,-71.64"/>
</g>
<!-- thread01__runner01__Runner__worker -->
<g id="node7" class="node">
<title>thread01__runner01__Runner__worker</title>
<ellipse fill="#ff6565" fill-opacity="0.698039" stroke="black" cx="271" cy="-50" rx="43.59" ry="18"/>
<text text-anchor="middle" x="271" y="-46.3" font-family="Times,serif" font-size="14.00" fill="#000000">worker</text>
</g>
<!-- thread01__runner01__Runner____init__&#45;&gt;thread01__runner01__Runner__worker -->
<g id="edge1" class="edge">
<title>thread01__runner01__Runner____init__&#45;&gt;thread01__runner01__Runner__worker</title>
<path fill="none" stroke="#000000" d="M271,-139.97C271,-123.38 271,-97.88 271,-78.43"/>
<polygon fill="#000000" stroke="#000000" points="274.5,-78.34 271,-68.34 267.5,-78.34 274.5,-78.34"/>
</g>
<!-- thread01__worker01__Worker____init__ -->
<g id="node8" class="node">
<title>thread01__worker01__Worker____init__</title>
<ellipse fill="#65ff65" fill-opacity="0.698039" stroke="black" cx="477" cy="-50" rx="44.39" ry="18"/>
<text text-anchor="middle" x="477" y="-46.3" font-family="Times,serif" font-size="14.00" fill="#000000">__init__</text>
</g>
<!-- thread01__runner01__Runner____init__&#45;&gt;thread01__worker01__Worker____init__ -->
<g id="edge2" class="edge">
<title>thread01__runner01__Runner____init__&#45;&gt;thread01__worker01__Worker____init__</title>
<path fill="none" stroke="#000000" d="M307.05,-147.5C339.21,-138.08 386.81,-121.76 424,-99 434.97,-92.28 445.75,-83.14 454.69,-74.63"/>
<polygon fill="#000000" stroke="#000000" points="457.36,-76.91 462.03,-67.4 452.45,-71.92 457.36,-76.91"/>
</g>
<!-- thread01__worker01__Worker__work -->
<g id="node9" class="node">
<title>thread01__worker01__Worker__work</title>
<ellipse fill="#65ff65" fill-opacity="0.698039" stroke="black" cx="381" cy="-50" rx="33.6" ry="18"/>
<text text-anchor="middle" x="381" y="-46.3" font-family="Times,serif" font-size="14.00" fill="#000000">work</text>
</g>
<!-- thread01__runner01__Runner____init__&#45;&gt;thread01__worker01__Worker__work -->
<g id="edge4" class="edge">
<title>thread01__runner01__Runner____init__&#45;&gt;thread01__worker01__Worker__work</title>
<path fill="none" stroke="#000000" d="M287.71,-140.9C306.44,-122.85 336.94,-93.45 357.94,-73.22"/>
<polygon fill="#000000" stroke="#000000" points="360.44,-75.68 365.21,-66.22 355.58,-70.64 360.44,-75.68"/>
</g>
<!-- thread01__runner01__Runner__result -->
<g id="node5" class="node">
<title>thread01__runner01__Runner__result</title>
<ellipse fill="#ff6565" fill-opacity="0.698039" stroke="black" cx="70" cy="-50" rx="38.19" ry="18"/>
<text text-anchor="middle" x="70" y="-46.3" font-family="Times,serif" font-size="14.00" fill="#000000">result</text>
</g>
<!-- thread01__runner01__Runner__execute&#45;&gt;thread01__runner01__Runner__result -->
<g id="edge6" class="edge">
<title>thread01__runner01__Runner__execute&#45;&gt;thread01__runner01__Runner__result</title>
<path fill="none" stroke="#000000" d="M147.62,-140.44C132.35,-122.83 108.04,-94.83 90.7,-74.85"/>
<polygon fill="#000000" stroke="#000000" points="93.17,-72.36 83.97,-67.1 87.88,-76.95 93.17,-72.36"/>
</g>
<!-- thread01__runner01__Runner__execute&#45;&gt;thread01__runner01__Runner__thread -->
<g id="edge5" class="edge">
<title>thread01__runner01__Runner__execute&#45;&gt;thread01__runner01__Runner__thread</title>
<path fill="none" stroke="#000000" d="M162.96,-139.97C163.9,-123.38 165.35,-97.88 166.45,-78.43"/>
<polygon fill="#000000" stroke="#000000" points="169.95,-78.52 167.02,-68.34 162.96,-78.13 169.95,-78.52"/>
</g>
</g>
</svg>
