<?xml version="1.0" encoding="UTF-8" standalone="no"?>
<!DOCTYPE svg PUBLIC "-//W3C//DTD SVG 1.1//EN"
 "http://www.w3.org/Graphics/SVG/1.1/DTD/svg11.dtd">
<!-- Generated by graphviz version 2.43.0 (0)
 -->
<!-- Title: G Pages: 1 -->
<svg width="597pt" height="416pt"
 viewBox="0.00 0.00 597.00 416.00" xmlns="http://www.w3.org/2000/svg" xmlns:xlink="http://www.w3.org/1999/xlink">
<g id="graph0" class="graph" transform="scale(1 1) rotate(0) translate(4 412)">
<title>G</title>
<polygon fill="white" stroke="transparent" points="-4,4 -4,-412 593,-412 593,4 -4,4"/>
<g id="clust1" class="cluster">
<title>cluster_G</title>
<path fill="#808080" fill-opacity="0.094118" stroke="black" d="M20,-8C20,-8 569,-8 569,-8 575,-8 581,-14 581,-20 581,-20 581,-388 581,-388 581,-394 575,-400 569,-400 569,-400 20,-400 20,-400 14,-400 8,-394 8,-388 8,-388 8,-20 8,-20 8,-14 14,-8 20,-8"/>
</g>
<g id="clust2" class="cluster">
<title>cluster_thread01__runner01</title>
<path fill="#808080" fill-opacity="0.094118" stroke="black" d="M264,-16C264,-16 561,-16 561,-16 567,-16 573,-22 573,-28 573,-28 573,-303 573,-303 573,-309 567,-315 561,-315 561,-315 264,-315 264,-315 258,-315 252,-309 252,-303 252,-303 252,-28 252,-28 252,-22 258,-16 264,-16"/>
<text text-anchor="middle" x="412.5" y="-299.8" font-family="Times,serif" font-size="14.00">thread01.runner01</text>
</g>
<g id="clust3" class="cluster">
<title>cluster_thread01__runner01__Runner</title>
<path fill="#808080" fill-opacity="0.094118" stroke="black" d="M272,-24C272,-24 553,-24 553,-24 559,-24 565,-30 565,-36 565,-36 565,-195 565,-195 565,-201 559,-207 553,-207 553,-207 272,-207 272,-207 266,-207 260,-201 260,-195 260,-195 260,-36 260,-36 260,-30 266,-24 272,-24"/>
<text text-anchor="middle" x="412.5" y="-191.8" font-family="Times,serif" font-size="14.00">thread01.runner01.Runner</text>
</g>
<g id="clust4" class="cluster">
<title>cluster_thread01__worker01</title>
<path fill="#808080" fill-opacity="0.094118" stroke="black" d="M28,-16C28,-16 232,-16 232,-16 238,-16 244,-22 244,-28 244,-28 244,-195 244,-195 244,-201 238,-207 232,-207 232,-207 28,-207 28,-207 22,-207 16,-201 16,-195 16,-195 16,-28 16,-28 16,-22 22,-16 28,-16"/>
<text text-anchor="middle" x="130" y="-191.8" font-family="Times,serif" font-size="14.00">thread01.worker01</text>
</g>
<g id="clust5" class="cluster">
<title>cluster_thread01__worker01__Worker</title>
<path fill="#808080" fill-opacity="0.094118" stroke="black" d="M36,-24C36,-24 224,-24 224,-24 230,-24 236,-30 236,-36 236,-36 236,-87 236,-87 236,-93 230,-99 224,-99 224,-99 36,-99 36,-99 30,-99 24,-93 24,-87 24,-87 24,-36 24,-36 24,-30 30,-24 36,-24"/>
<text text-anchor="middle" x="130" y="-83.8" font-family="Times,serif" font-size="14.00">thread01.worker01.Worker</text>
</g>
<!-- thread01 -->
<g id="node1" class="node">
<title>thread01</title>
<ellipse fill="#ffffff" fill-opacity="0.698039" stroke="black" cx="520" cy="-374" rx="53.09" ry="18"/>
<text text-anchor="middle" x="520" y="-370.3" font-family="Times,serif" font-size="14.00" fill="#000000">thread01</text>
</g>
<!-- thread01__runner01 -->
<g id="node2" class="node">
<title>thread01__runner01</title>
<ellipse fill="#ffffff" fill-opacity="0.698039" stroke="black" cx="349" cy="-374" rx="99.38" ry="18"/>
<text text-anchor="middle" x="349" y="-370.3" font-family="Times,serif" font-size="14.00" fill="#000000">thread01.runner01</text>
</g>
<!-- thread01__runner01__Runner -->
<g id="node4" class="node">
<title>thread01__runner01__Runner</title>
<ellipse fill="#ccff99" fill-opacity="0.698039" stroke="black" cx="466" cy="-266" rx="44.69" ry="18"/>
<text text-anchor="middle" x="466" y="-262.3" font-family="Times,serif" font-size="14.00" fill="#000000">Runner</text>
</g>
<!-- thread01__runner01&#45;&gt;thread01__runner01__Runner -->
<g id="edge1" class="edge">
<title>thread01__runner01&#45;&gt;thread01__runner01__Runner</title>
<path fill="none" stroke="#838b8b" stroke-dasharray="5,2" d="M367.54,-356.2C387.4,-338.21 419.02,-309.57 441.05,-289.61"/>
<polygon fill="#838b8b" stroke="#838b8b" points="443.63,-291.99 448.69,-282.68 438.93,-286.8 443.63,-291.99"/>
</g>
<!-- thread01__runner01__main -->
<g id="node5" class="node">
<title>thread01__runner01__main</title>
<ellipse fill="#ccff99" fill-opacity="0.698039" stroke="black" cx="349" cy="-266" rx="33.6" ry="18"/>
<text text-anchor="middle" x="349" y="-262.3" font-family="Times,serif" font-size="14.00" fill="#000000">main</text>
</g>
<!-- thread01__runner01&#45;&gt;thread01__runner01__main -->
<g id="edge2" class="edge">
<title>thread01__runner01&#45;&gt;thread01__runner01__main</title>
<path fill="none" stroke="#838b8b" stroke-dasharray="5,2" d="M343.89,-355.97C342.04,-339.28 341.76,-313.58 343.03,-294.08"/>
<polygon fill="#838b8b" stroke="#838b8b" points="346.52,-294.25 343.89,-283.99 339.55,-293.65 346.52,-294.25"/>
</g>
<!-- thread01__runner01&#45;&gt;thread01__runner01__main -->
<g id="edge19" class="edge">
<title>thread01__runner01&#45;&gt;thread01__runner01__main</title>
<path fill="none" stroke="#000000" d="M354.11,-355.97C355.96,-339.28 356.24,-313.58 354.97,-294.08"/>
<polygon fill="#000000" stroke="#000000" points="358.45,-293.65 354.11,-283.99 351.48,-294.25 358.45,-293.65"/>
</g>
<!-- thread01__worker01 -->
<g id="node3" class="node">
<title>thread01__worker01</title>
<ellipse fill="#ffffff" fill-opacity="0.698039" stroke="black" cx="130" cy="-266" rx="100.98" ry="18"/>
<text text-anchor="middle" x="130" y="-262.3" font-family="Times,serif" font-size="14.00" fill="#000000">thread01.worker01</text>
</g>
<!-- thread01__worker01__Worker -->
<g id="node11" class="node">
<title>thread01__worker01__Worker</title>
<ellipse fill="#99feff" fill-opacity="0.698039" stroke="black" cx="130" cy="-158" rx="44.69" ry="18"/>
<text text-anchor="middle" x="130" y="-154.3" font-family="Times,serif" font-size="14.00" fill="#000000">Worker</text>
</g>
<!-- thread01__worker01&#45;&gt;thread01__worker01__Worker -->
<g id="edge8" class="edge">
<title>thread01__worker01&#45;&gt;thread01__worker01__Worker</title>
<path fill="none" stroke="#838b8b" stroke-dasharray="5,2" d="M130,-247.97C130,-231.38 130,-205.88 130,-186.43"/>
<polygon fill="#838b8b" stroke="#838b8b" points="133.5,-186.34 130,-176.34 126.5,-186.34 133.5,-186.34"/>
</g>
<!-- thread01__runner01__Runner____init__ -->
<g id="node6" class="node">
<title>thread01__runner01__Runner____init__</title>
<ellipse fill="#b2ff65" fill-opacity="0.698039" stroke="black" cx="424" cy="-158" rx="44.39" ry="18"/>
<text text-anchor="middle" x="424" y="-154.3" font-family="Times,serif" font-size="14.00" fill="#000000">__init__</text>
</g>
<!-- thread01__runner01__Runner&#45;&gt;thread01__runner01__Runner____init__ -->
<g id="edge3" class="edge">
<title>thread01__runner01__Runner&#45;&gt;thread01__runner01__Runner____init__</title>
<path fill="none" stroke="#838b8b" stroke-dasharray="5,2" d="M459.25,-247.97C452.58,-231.12 442.27,-205.1 434.52,-185.54"/>
<polygon fill="#838b8b" stroke="#838b8b" points="437.67,-184 430.73,-175.99 431.16,-186.57 437.67,-184"/>
</g>
<!-- thread01__runner01__Runner__execute -->
<g id="node7" class="node">
<title>thread01__runner01__Runner__execute</title>
<ellipse fill="#b2ff65" fill-opacity="0.698039" stroke="black" cx="315" cy="-158" rx="46.59" ry="18"/>
<text text-anchor="middle" x="315" y="-154.3" font-family="Times,serif" font-size="14.00" fill="#000000">execute</text>
</g>
<!-- thread01__runner01__Runner&#45;&gt;thread01__runner01__Runner__execute -->
<g id="edge4" class="edge">
<title>thread01__runner01__Runner&#45;&gt;thread01__runner01__Runner__execute</title>
<path fill="none" stroke="#838b8b" stroke-dasharray="5,2" d="M440.69,-251.03C421.13,-239.89 393.67,-223.47 371,-207 360.32,-199.24 349.15,-189.94 339.63,-181.6"/>
<polygon fill="#838b8b" stroke="#838b8b" points="341.86,-178.91 332.06,-174.88 337.22,-184.14 341.86,-178.91"/>
</g>
<!-- thread01__runner01__Runner__result -->
<g id="node8" class="node">
<title>thread01__runner01__Runner__result</title>
<ellipse fill="#b2ff65" fill-opacity="0.698039" stroke="black" cx="413" cy="-50" rx="38.19" ry="18"/>
<text text-anchor="middle" x="413" y="-46.3" font-family="Times,serif" font-size="14.00" fill="#000000">result</text>
</g>
<!-- thread01__runner01__Runner&#45;&gt;thread01__runner01__Runner__result -->
<g id="edge5" class="edge">
<title>thread01__runner01__Runner&#45;&gt;thread01__runner01__Runner__result</title>
<path fill="none" stroke="#838b8b" stroke-dasharray="5,2" d="M475.71,-248.39C481.72,-237.13 488.86,-221.68 492,-207 498.23,-177.88 502.57,-167.84 492,-140 489,-132.1 457.6,-97.99 435.31,-74.36"/>
<polygon fill="#838b8b" stroke="#838b8b" points="437.57,-71.66 428.15,-66.81 432.49,-76.47 437.57,-71.66"/>
</g>
<!-- thread01__runner01__Runner__thread -->
<g id="node9" class="node">
<title>thread01__runner01__Runner__thread</title>
<ellipse fill="#b2ff65" fill-opacity="0.698039" stroke="black" cx="315" cy="-50" rx="41.69" ry="18"/>
<text text-anchor="middle" x="315" y="-46.3" font-family="Times,serif" font-size="14.00" fill="#000000">thread</text>
</g>
<!-- thread01__runner01__Runner&#45;&gt;thread01__runner01__Runner__thread -->
<g id="edge7" class="edge">
<title>thread01__runner01__Runner&#45;&gt;thread01__runner01__Runner__thread</title>
<path fill="none" stroke="#838b8b" stroke-dasharray="5,2" d="M473.91,-247.86C484.54,-221.99 499.66,-172.53 477,-140 446.94,-96.85 410.71,-126.69 366,-99 355.13,-92.27 344.58,-82.96 335.92,-74.34"/>
<polygon fill="#838b8b" stroke="#838b8b" points="338.31,-71.77 328.85,-67.01 333.28,-76.64 338.31,-71.77"/>
</g>
<!-- thread01__runner01__Runner__worker -->
<g id="node10" class="node">
<title>thread01__runner01__Runner__worker</title>
<ellipse fill="#b2ff65" fill-opacity="0.698039" stroke="black" cx="513" cy="-50" rx="43.59" ry="18"/>
<text text-anchor="middle" x="513" y="-46.3" font-family="Times,serif" font-size="14.00" fill="#000000">worker</text>
</g>
<!-- thread01__runner01__Runner&#45;&gt;thread01__runner01__Runner__worker -->
<g id="edge6" class="edge">
<title>thread01__runner01__Runner&#45;&gt;thread01__runner01__Runner__worker</title>
<path fill="none" stroke="#838b8b" stroke-dasharray="5,2" d="M483.49,-249.11C493.95,-238.37 506.28,-223.24 512,-207 527.19,-163.85 522.77,-109.73 518.01,-77.9"/>
<polygon fill="#838b8b" stroke="#838b8b" points="521.46,-77.32 516.4,-68.01 514.55,-78.44 521.46,-77.32"/>
</g>
<!-- thread01__runner01__main&#45;&gt;thread01__runner01__Runner____init__ -->
<g id="edge17" class="edge">
<title>thread01__runner01__main&#45;&gt;thread01__runner01__Runner____init__</title>
<path fill="none" stroke="#000000" d="M360.39,-248.9C372.6,-231.65 392.14,-204.03 406.34,-183.96"/>
<polygon fill="#000000" stroke="#000000" points="409.34,-185.79 412.25,-175.6 403.62,-181.74 409.34,-185.79"/>
</g>
<!-- thread01__runner01__main&#45;&gt;thread01__runner01__Runner__execute -->
<g id="edge18" class="edge">
<title>thread01__runner01__main&#45;&gt;thread01__runner01__Runner__execute</title>
<path fill="none" stroke="#000000" d="M343.54,-247.97C338.13,-231.12 329.79,-205.1 323.51,-185.54"/>
<polygon fill="#000000" stroke="#000000" points="326.84,-184.44 320.45,-175.99 320.17,-186.58 326.84,-184.44"/>
</g>
<!-- thread01__runner01__Runner____init__&#45;&gt;thread01__runner01__Runner__thread -->
<g id="edge13" class="edge">
<title>thread01__runner01__Runner____init__&#45;&gt;thread01__runner01__Runner__thread</title>
<path fill="none" stroke="#000000" d="M407.45,-140.9C389.09,-123.05 359.34,-94.12 338.57,-73.92"/>
<polygon fill="#000000" stroke="#000000" points="340.96,-71.37 331.35,-66.9 336.08,-76.38 340.96,-71.37"/>
</g>
<!-- thread01__runner01__Runner____init__&#45;&gt;thread01__runner01__Runner__worker -->
<g id="edge11" class="edge">
<title>thread01__runner01__Runner____init__&#45;&gt;thread01__runner01__Runner__worker</title>
<path fill="none" stroke="#000000" d="M437.91,-140.44C452.6,-122.94 475.92,-95.16 492.68,-75.2"/>
<polygon fill="#000000" stroke="#000000" points="495.44,-77.36 499.19,-67.45 490.08,-72.85 495.44,-77.36"/>
</g>
<!-- thread01__worker01__Worker____init__ -->
<g id="node12" class="node">
<title>thread01__worker01__Worker____init__</title>
<ellipse fill="#65feff" fill-opacity="0.698039" stroke="black" cx="184" cy="-50" rx="44.39" ry="18"/>
<text text-anchor="middle" x="184" y="-46.3" font-family="Times,serif" font-size="14.00" fill="#000000">__init__</text>
</g>
<!-- thread01__runner01__Runner____init__&#45;&gt;thread01__worker01__Worker____init__ -->
<g id="edge12" class="edge">
<title>thread01__runner01__Runner____init__&#45;&gt;thread01__worker01__Worker____init__</title>
<path fill="none" stroke="#000000" d="M390.52,-145.95C345.15,-130.9 268.34,-105.12 256,-99 240.91,-91.52 225.22,-81.38 212.36,-72.35"/>
<polygon fill="#000000" stroke="#000000" points="214.12,-69.3 203.95,-66.32 210.04,-74.99 214.12,-69.3"/>
</g>
<!-- thread01__worker01__Worker__work -->
<g id="node13" class="node">
<title>thread01__worker01__Worker__work</title>
<ellipse fill="#65feff" fill-opacity="0.698039" stroke="black" cx="88" cy="-50" rx="33.6" ry="18"/>
<text text-anchor="middle" x="88" y="-46.3" font-family="Times,serif" font-size="14.00" fill="#000000">work</text>
</g>
<!-- thread01__runner01__Runner____init__&#45;&gt;thread01__worker01__Worker__work -->
<g id="edge14" class="edge">
<title>thread01__runner01__Runner____init__&#45;&gt;thread01__worker01__Worker__work</title>
<path fill="none" stroke="#000000" d="M391.41,-145.75C384.71,-143.66 377.66,-141.63 371,-140 265.88,-114.3 225.72,-151.33 131,-99 120.76,-93.34 111.71,-84.3 104.59,-75.58"/>
<polygon fill="#000000" stroke="#000000" points="107.22,-73.26 98.37,-67.43 101.66,-77.51 107.22,-73.26"/>
</g>
<!-- thread01__runner01__Runner__execute&#45;&gt;thread01__runner01__Runner__result -->
<g id="edge16" class="edge">
<title>thread01__runner01__Runner__execute&#45;&gt;thread01__runner01__Runner__result</title>
<path fill="none" stroke="#000000" d="M329.88,-140.9C346.24,-123.21 372.66,-94.63 391.32,-74.45"/>
<polygon fill="#000000" stroke="#000000" points="394.08,-76.62 398.3,-66.9 388.94,-71.87 394.08,-76.62"/>
</g>
<!-- thread01__runner01__Runner__execute&#45;&gt;thread01__runner01__Runner__thread -->
<g id="edge15" class="edge">
<title>thread01__runner01__Runner__execute&#45;&gt;thread01__runner01__Runner__thread</title>
<path fill="none" stroke="#000000" d="M315,-139.97C315,-123.38 315,-97.88 315,-78.43"/>
<polygon fill="#000000" stroke="#000000" points="318.5,-78.34 315,-68.34 311.5,-78.34 318.5,-78.34"/>
</g>
<!-- thread01__worker01__Worker&#45;&gt;thread01__worker01__Worker____init__ -->
<g id="edge9" class="edge">
<title>thread01__worker01__Worker&#45;&gt;thread01__worker01__Worker____init__</title>
<path fill="none" stroke="#838b8b" stroke-dasharray="5,2" d="M138.68,-139.97C147.34,-122.97 160.76,-96.62 170.75,-77.01"/>
<polygon fill="#838b8b" stroke="#838b8b" points="173.92,-78.49 175.35,-67.99 167.69,-75.31 173.92,-78.49"/>
</g>
<!-- thread01__worker01__Worker&#45;&gt;thread01__worker01__Worker__work -->
<g id="edge10" class="edge">
<title>thread01__worker01__Worker&#45;&gt;thread01__worker01__Worker__work</title>
<path fill="none" stroke="#838b8b" stroke-dasharray="5,2" d="M123.25,-139.97C116.58,-123.12 106.27,-97.1 98.52,-77.54"/>
<polygon fill="#838b8b" stroke="#838b8b" points="101.67,-76 94.73,-67.99 95.16,-78.57 101.67,-76"/>
</g>
</g>
</svg>
