<?xml version="1.0" encoding="UTF-8" standalone="no"?>
<!DOCTYPE svg PUBLIC "-//W3C//DTD SVG 1.1//EN"
 "http://www.w3.org/Graphics/SVG/1.1/DTD/svg11.dtd">
<!-- Generated by graphviz version 2.43.0 (0)
 -->
<!-- Title: G Pages: 1 -->
<svg width="592pt" height="416pt"
 viewBox="0.00 0.00 592.00 416.00" xmlns="http://www.w3.org/2000/svg" xmlns:xlink="http://www.w3.org/1999/xlink">
<g id="graph0" class="graph" transform="scale(1 1) rotate(0) translate(4 412)">
<title>G</title>
<polygon fill="white" stroke="transparent" points="-4,4 -4,-412 588,-412 588,4 -4,4"/>
<g id="clust1" class="cluster">
<title>cluster_G</title>
<path fill="#808080" fill-opacity="0.094118" stroke="black" d="M20,-8C20,-8 564,-8 564,-8 570,-8 576,-14 576,-20 576,-20 576,-388 576,-388 576,-394 570,-400 564,-400 564,-400 20,-400 20,-400 14,-400 8,-394 8,-388 8,-388 8,-20 8,-20 8,-14 14,-8 20,-8"/>
</g>
<g id="clust2" class="cluster">
<title>cluster_thread01__runner01</title>
<path fill="#808080" fill-opacity="0.094118" stroke="black" d="M28,-16C28,-16 320,-16 320,-16 326,-16 332,-22 332,-28 332,-28 332,-303 332,-303 332,-309 326,-315 320,-315 320,-315 28,-315 28,-315 22,-315 16,-309 16,-303 16,-303 16,-28 16,-28 16,-22 22,-16 28,-16"/>
<text text-anchor="middle" x="174" y="-299.8" font-family="Times,serif" font-size="14.00">thread01.runner01</text>
</g>
<g id="clust3" class="cluster">
<title>cluster_thread01__runner01__Runner</title>
<path fill="#808080" fill-opacity="0.094118" stroke="black" d="M36,-24C36,-24 312,-24 312,-24 318,-24 324,-30 324,-36 324,-36 324,-195 324,-195 324,-201 318,-207 312,-207 312,-207 36,-207 36,-207 30,-207 24,-201 24,-195 24,-195 24,-36 24,-36 24,-30 30,-24 36,-24"/>
<text text-anchor="middle" x="174" y="-191.8" font-family="Times,serif" font-size="14.00">thread01.runner01.Runner</text>
</g>
<g id="clust4" class="cluster">
<title>cluster_thread01__worker01</title>
<path fill="#808080" fill-opacity="0.094118" stroke="black" d="M352,-16C352,-16 556,-16 556,-16 562,-16 568,-22 568,-28 568,-28 568,-195 568,-195 568,-201 562,-207 556,-207 556,-207 352,-207 352,-207 346,-207 340,-201 340,-195 340,-195 340,-28 340,-28 340,-22 346,-16 352,-16"/>
<text text-anchor="middle" x="454" y="-191.8" font-family="Times,serif" font-size="14.00">thread01.worker01</text>
</g>
<g id="clust5" class="cluster">
<title>cluster_thread01__worker01__Worker</title>
<path fill="#808080" fill-opacity="0.094118" stroke="black" d="M360,-24C360,-24 548,-24 548,-24 554,-24 560,-30 560,-36 560,-36 560,-87 560,-87 560,-93 554,-99 548,-99 548,-99 360,-99 360,-99 354,-99 348,-93 348,-87 348,-87 348,-36 348,-36 348,-30 354,-24 360,-24"/>
<text text-anchor="middle" x="454" y="-83.8" font-family="Times,serif" font-size="14.00">thread01.worker01.Worker</text>
</g>
<!-- thread01__runner01 -->
<g id="node1" class="node">
<title>thread01__runner01</title>
<ellipse fill="#ffffff" fill-opacity="0.698039" stroke="black" cx="231" cy="-374" rx="99.38" ry="18"/>
<text text-anchor="middle" x="231" y="-370.3" font-family="Times,serif" font-size="14.00" fill="#000000">thread01.runner01</text>
</g>
<!-- thread01__runner01__main -->
<g id="node3" class="node">
<title>thread01__runner01__main</title>
<ellipse fill="#ff9999" fill-opacity="0.698039" stroke="black" cx="231" cy="-266" rx="33.6" ry="18"/>
<text text-anchor="middle" x="231" y="-262.3" font-family="Times,serif" font-size="14.00" fill="#000000">main</text>
</g>
<!-- thread01__runner01&#45;&gt;thread01__runner01__main -->
<g id="edge16" class="edge">
<title>thread01__runner01&#45;&gt;thread01__runner01__main</title>
<path fill="none" stroke="#000000" d="M231,-355.97C231,-339.38 231,-313.88 231,-294.43"/>
<polygon fill="#000000" stroke="#000000" points="234.5,-294.34 231,-284.34 227.5,-294.34 234.5,-294.34"/>
</g>
<!-- thread01__runner01__Runner -->
<g id="node2" class="node">
<title>thread01__runner01__Runner</title>
<ellipse fill="#ff9999" fill-opacity="0.698039" stroke="black" cx="97" cy="-266" rx="44.69" ry="18"/>
<text text-anchor="middle" x="97" y="-262.3" font-family="Times,serif" font-size="14.00" fill="#000000">Runner</text>
</g>
<!-- thread01__runner01__Runner____init__ -->
<g id="node4" class="node">
<title>thread01__runner01__Runner____init__</title>
<ellipse fill="#ff6565" fill-opacity="0.698039" stroke="black" cx="160" cy="-158" rx="44.39" ry="18"/>
<text text-anchor="middle" x="160" y="-154.3" font-family="Times,serif" font-size="14.00" fill="#000000">__init__</text>
</g>
<!-- thread01__runner01__Runner&#45;&gt;thread01__runner01__Runner____init__ -->
<g id="edge1" class="edge">
<title>thread01__runner01__Runner&#45;&gt;thread01__runner01__Runner____init__</title>
<path fill="none" stroke="#838b8b" stroke-dasharray="5,2" d="M106.84,-248.44C117,-231.35 132.98,-204.46 144.77,-184.62"/>
<polygon fill="#838b8b" stroke="#838b8b" points="147.92,-186.18 150.02,-175.8 141.9,-182.6 147.92,-186.18"/>
</g>
<!-- thread01__runner01__Runner__execute -->
<g id="node5" class="node">
<title>thread01__runner01__Runner__execute</title>
<ellipse fill="#ff6565" fill-opacity="0.698039" stroke="black" cx="269" cy="-158" rx="46.59" ry="18"/>
<text text-anchor="middle" x="269" y="-154.3" font-family="Times,serif" font-size="14.00" fill="#000000">execute</text>
</g>
<!-- thread01__runner01__Runner&#45;&gt;thread01__runner01__Runner__execute -->
<g id="edge2" class="edge">
<title>thread01__runner01__Runner&#45;&gt;thread01__runner01__Runner__execute</title>
<path fill="none" stroke="#838b8b" stroke-dasharray="5,2" d="M127.18,-252.37C151.27,-241.71 185.43,-225.31 213,-207 224,-199.7 235.23,-190.49 244.71,-182.09"/>
<polygon fill="#838b8b" stroke="#838b8b" points="247.16,-184.6 252.22,-175.29 242.46,-179.41 247.16,-184.6"/>
</g>
<!-- thread01__runner01__Runner__result -->
<g id="node6" class="node">
<title>thread01__runner01__Runner__result</title>
<ellipse fill="#ff6565" fill-opacity="0.698039" stroke="black" cx="176" cy="-50" rx="38.19" ry="18"/>
<text text-anchor="middle" x="176" y="-46.3" font-family="Times,serif" font-size="14.00" fill="#000000">result</text>
</g>
<!-- thread01__runner01__Runner&#45;&gt;thread01__runner01__Runner__result -->
<g id="edge3" class="edge">
<title>thread01__runner01__Runner&#45;&gt;thread01__runner01__Runner__result</title>
<path fill="none" stroke="#838b8b" stroke-dasharray="5,2" d="M92.12,-248.1C85.9,-223.37 77.56,-176.33 92,-140 93.64,-135.86 129.16,-98.97 153.48,-74"/>
<polygon fill="#838b8b" stroke="#838b8b" points="156.14,-76.29 160.62,-66.69 151.13,-71.4 156.14,-76.29"/>
</g>
<!-- thread01__runner01__Runner__thread -->
<g id="node7" class="node">
<title>thread01__runner01__Runner__thread</title>
<ellipse fill="#ff6565" fill-opacity="0.698039" stroke="black" cx="274" cy="-50" rx="41.69" ry="18"/>
<text text-anchor="middle" x="274" y="-46.3" font-family="Times,serif" font-size="14.00" fill="#000000">thread</text>
</g>
<!-- thread01__runner01__Runner&#45;&gt;thread01__runner01__Runner__thread -->
<g id="edge5" class="edge">
<title>thread01__runner01__Runner&#45;&gt;thread01__runner01__Runner__thread</title>
<path fill="none" stroke="#838b8b" stroke-dasharray="5,2" d="M96.14,-247.63C94.99,-217.31 94.39,-156.4 107,-140 140.33,-96.65 176.31,-127.46 223,-99 233.92,-92.34 244.48,-83.05 253.13,-74.42"/>
<polygon fill="#838b8b" stroke="#838b8b" points="255.78,-76.71 260.19,-67.08 250.74,-71.85 255.78,-76.71"/>
</g>
<!-- thread01__runner01__Runner__worker -->
<g id="node8" class="node">
<title>thread01__runner01__Runner__worker</title>
<ellipse fill="#ff6565" fill-opacity="0.698039" stroke="black" cx="76" cy="-50" rx="43.59" ry="18"/>
<text text-anchor="middle" x="76" y="-46.3" font-family="Times,serif" font-size="14.00" fill="#000000">worker</text>
</g>
<!-- thread01__runner01__Runner&#45;&gt;thread01__runner01__Runner__worker -->
<g id="edge4" class="edge">
<title>thread01__runner01__Runner&#45;&gt;thread01__runner01__Runner__worker</title>
<path fill="none" stroke="#838b8b" stroke-dasharray="5,2" d="M87.66,-248.34C81.88,-237.06 75.01,-221.6 72,-207 62.84,-162.62 67.36,-109.63 71.59,-78.23"/>
<polygon fill="#838b8b" stroke="#838b8b" points="75.09,-78.47 73.05,-68.08 68.16,-77.48 75.09,-78.47"/>
</g>
<!-- thread01__runner01__main&#45;&gt;thread01__runner01__Runner____init__ -->
<g id="edge14" class="edge">
<title>thread01__runner01__main&#45;&gt;thread01__runner01__Runner____init__</title>
<path fill="none" stroke="#000000" d="M220.22,-248.9C208.66,-231.65 190.16,-204.03 176.72,-183.96"/>
<polygon fill="#000000" stroke="#000000" points="179.59,-181.96 171.12,-175.6 173.78,-185.86 179.59,-181.96"/>
</g>
<!-- thread01__runner01__main&#45;&gt;thread01__runner01__Runner__execute -->
<g id="edge15" class="edge">
<title>thread01__runner01__main&#45;&gt;thread01__runner01__Runner__execute</title>
<path fill="none" stroke="#000000" d="M237.11,-247.97C243.14,-231.12 252.47,-205.1 259.48,-185.54"/>
<polygon fill="#000000" stroke="#000000" points="262.83,-186.58 262.91,-175.99 256.24,-184.22 262.83,-186.58"/>
</g>
<!-- thread01__runner01__Runner____init__&#45;&gt;thread01__runner01__Runner__thread -->
<g id="edge10" class="edge">
<title>thread01__runner01__Runner____init__&#45;&gt;thread01__runner01__Runner__thread</title>
<path fill="none" stroke="#000000" d="M177.16,-141.3C189.85,-129.66 207.55,-113.38 223,-99 231.86,-90.75 241.54,-81.66 250.06,-73.63"/>
<polygon fill="#000000" stroke="#000000" points="252.63,-76.02 257.51,-66.61 247.83,-70.93 252.63,-76.02"/>
</g>
<!-- thread01__runner01__Runner____init__&#45;&gt;thread01__runner01__Runner__worker -->
<g id="edge8" class="edge">
<title>thread01__runner01__Runner____init__&#45;&gt;thread01__runner01__Runner__worker</title>
<path fill="none" stroke="#000000" d="M146.88,-140.44C133.07,-123.01 111.19,-95.4 95.39,-75.47"/>
<polygon fill="#000000" stroke="#000000" points="97.99,-73.11 89.03,-67.45 92.5,-77.46 97.99,-73.11"/>
</g>
<!-- thread01__worker01__Worker____init__ -->
<g id="node10" class="node">
<title>thread01__worker01__Worker____init__</title>
<ellipse fill="#65ff65" fill-opacity="0.698039" stroke="black" cx="400" cy="-50" rx="44.39" ry="18"/>
<text text-anchor="middle" x="400" y="-46.3" font-family="Times,serif" font-size="14.00" fill="#000000">__init__</text>
</g>
<!-- thread01__runner01__Runner____init__&#45;&gt;thread01__worker01__Worker____init__ -->
<g id="edge9" class="edge">
<title>thread01__runner01__Runner____init__&#45;&gt;thread01__worker01__Worker____init__</title>
<path fill="none" stroke="#000000" d="M193.48,-145.95C238.85,-130.9 315.66,-105.12 328,-99 343.09,-91.52 358.78,-81.38 371.64,-72.35"/>
<polygon fill="#000000" stroke="#000000" points="373.96,-74.99 380.05,-66.32 369.88,-69.3 373.96,-74.99"/>
</g>
<!-- thread01__worker01__Worker__work -->
<g id="node11" class="node">
<title>thread01__worker01__Worker__work</title>
<ellipse fill="#65ff65" fill-opacity="0.698039" stroke="black" cx="496" cy="-50" rx="33.6" ry="18"/>
<text text-anchor="middle" x="496" y="-46.3" font-family="Times,serif" font-size="14.00" fill="#000000">work</text>
</g>
<!-- thread01__runner01__Runner____init__&#45;&gt;thread01__worker01__Worker__work -->
<g id="edge11" class="edge">
<title>thread01__runner01__Runner____init__&#45;&gt;thread01__worker01__Worker__work</title>
<path fill="none" stroke="#000000" d="M192.59,-145.75C199.29,-143.66 206.34,-141.63 213,-140 318.12,-114.3 358.28,-151.33 453,-99 463.24,-93.34 472.29,-84.3 479.41,-75.58"/>
<polygon fill="#000000" stroke="#000000" points="482.34,-77.51 485.63,-67.43 476.78,-73.26 482.34,-77.51"/>
</g>
<!-- thread01__runner01__Runner__execute&#45;&gt;thread01__runner01__Runner__result -->
<g id="edge13" class="edge">
<title>thread01__runner01__Runner__execute&#45;&gt;thread01__runner01__Runner__result</title>
<path fill="none" stroke="#000000" d="M254.47,-140.44C239.02,-122.83 214.46,-94.83 196.93,-74.85"/>
<polygon fill="#000000" stroke="#000000" points="199.35,-72.31 190.12,-67.1 194.09,-76.92 199.35,-72.31"/>
</g>
<!-- thread01__runner01__Runner__execute&#45;&gt;thread01__runner01__Runner__thread -->
<g id="edge12" class="edge">
<title>thread01__runner01__Runner__execute&#45;&gt;thread01__runner01__Runner__thread</title>
<path fill="none" stroke="#000000" d="M269.8,-139.97C270.59,-123.38 271.79,-97.88 272.71,-78.43"/>
<polygon fill="#000000" stroke="#000000" points="276.21,-78.49 273.18,-68.34 269.21,-78.16 276.21,-78.49"/>
</g>
<!-- thread01__worker01__Worker -->
<g id="node9" class="node">
<title>thread01__worker01__Worker</title>
<ellipse fill="#99ff99" fill-opacity="0.698039" stroke="black" cx="448" cy="-158" rx="44.69" ry="18"/>
<text text-anchor="middle" x="448" y="-154.3" font-family="Times,serif" font-size="14.00" fill="#000000">Worker</text>
</g>
<!-- thread01__worker01__Worker&#45;&gt;thread01__worker01__Worker____init__ -->
<g id="edge6" class="edge">
<title>thread01__worker01__Worker&#45;&gt;thread01__worker01__Worker____init__</title>
<path fill="none" stroke="#838b8b" stroke-dasharray="5,2" d="M440.29,-139.97C432.63,-123.05 420.77,-96.86 411.9,-77.28"/>
<polygon fill="#838b8b" stroke="#838b8b" points="415.01,-75.65 407.69,-67.99 408.63,-78.54 415.01,-75.65"/>
</g>
<!-- thread01__worker01__Worker&#45;&gt;thread01__worker01__Worker__work -->
<g id="edge7" class="edge">
<title>thread01__worker01__Worker&#45;&gt;thread01__worker01__Worker__work</title>
<path fill="none" stroke="#838b8b" stroke-dasharray="5,2" d="M455.71,-139.97C463.42,-122.95 475.37,-96.55 484.26,-76.93"/>
<polygon fill="#838b8b" stroke="#838b8b" points="487.53,-78.19 488.47,-67.64 481.15,-75.3 487.53,-78.19"/>
</g>
</g>
</svg>
