<?xml version="1.0" encoding="UTF-8" standalone="no"?>
<!DOCTYPE svg PUBLIC "-//W3C//DTD SVG 1.1//EN"
 "http://www.w3.org/Graphics/SVG/1.1/DTD/svg11.dtd">
<!-- Generated by graphviz version 2.43.0 (0)
 -->
<!-- Title: G Pages: 1 -->
<svg width="597pt" height="317pt"
 viewBox="0.00 0.00 597.00 317.00" xmlns="http://www.w3.org/2000/svg" xmlns:xlink="http://www.w3.org/1999/xlink">
<g id="graph0" class="graph" transform="scale(1 1) rotate(0) translate(4 313)">
<title>G</title>
<polygon fill="white" stroke="transparent" points="-4,4 -4,-313 593,-313 593,4 -4,4"/>
<g id="clust1" class="cluster">
<title>cluster_G</title>
<path fill="#808080" fill-opacity="0.094118" stroke="black" d="M20,-8C20,-8 569,-8 569,-8 575,-8 581,-14 581,-20 581,-20 581,-289 581,-289 581,-295 575,-301 569,-301 569,-301 20,-301 20,-301 14,-301 8,-295 8,-289 8,-289 8,-20 8,-20 8,-14 14,-8 20,-8"/>
</g>
<g id="clust2" class="cluster">
<title>cluster_thread01__runner01</title>
<path fill="#808080" fill-opacity="0.094118" stroke="black" d="M264,-16C264,-16 561,-16 561,-16 567,-16 573,-22 573,-28 573,-28 573,-237 573,-237 573,-243 567,-249 561,-249 561,-249 264,-249 264,-249 258,-249 252,-243 252,-237 252,-237 252,-28 252,-28 252,-22 258,-16 264,-16"/>
<text text-anchor="middle" x="412.5" y="-233.8" font-family="Times,serif" font-size="14.00">thread01.runner01</text>
</g>
<g id="clust3" class="cluster">
<title>cluster_thread01__runner01__Runner</title>
<path fill="#808080" fill-opacity="0.094118" stroke="black" d="M272,-24C272,-24 553,-24 553,-24 559,-24 565,-30 565,-36 565,-36 565,-162 565,-162 565,-168 559,-174 553,-174 553,-174 272,-174 272,-174 266,-174 260,-168 260,-162 260,-162 260,-36 260,-36 260,-30 266,-24 272,-24"/>
<text text-anchor="middle" x="412.5" y="-158.8" font-family="Times,serif" font-size="14.00">thread01.runner01.Runner</text>
</g>
<g id="clust4" class="cluster">
<title>cluster_thread01__worker01</title>
<path fill="#808080" fill-opacity="0.094118" stroke="black" d="M28,-16C28,-16 232,-16 232,-16 238,-16 244,-22 244,-28 244,-28 244,-162 244,-162 244,-168 238,-174 232,-174 232,-174 28,-174 28,-174 22,-174 16,-168 16,-162 16,-162 16,-28 16,-28 16,-22 22,-16 28,-16"/>
<text text-anchor="middle" x="130" y="-158.8" font-family="Times,serif" font-size="14.00">thread01.worker01</text>
</g>
<g id="clust5" class="cluster">
<title>cluster_thread01__worker01__Worker</title>
<path fill="#808080" fill-opacity="0.094118" stroke="black" d="M36,-24C36,-24 224,-24 224,-24 230,-24 236,-30 236,-36 236,-36 236,-87 236,-87 236,-93 230,-99 224,-99 224,-99 36,-99 36,-99 30,-99 24,-93 24,-87 24,-87 24,-36 24,-36 24,-30 30,-24 36,-24"/>
<text text-anchor="middle" x="130" y="-83.8" font-family="Times,serif" font-size="14.00">thread01.worker01.Worker</text>
</g>
<!-- thread01 -->
<g id="node1" class="node">
<title>thread01</title>
<ellipse fill="#ffffff" fill-opacity="0.698039" stroke="black" cx="520" cy="-275" rx="53.09" ry="18"/>
<text text-anchor="middle" x="520" y="-271.3" font-family="Times,serif" font-size="14.00" fill="#000000">thread01</text>
</g>
<!-- thread01__runner01 -->
<g id="node2" class="node">
<title>thread01__runner01</title>
<ellipse fill="#ffffff" fill-opacity="0.698039" stroke="black" cx="349" cy="-275" rx="99.38" ry="18"/>
<text text-anchor="middle" x="349" y="-271.3" font-family="Times,serif" font-size="14.00" fill="#000000">thread01.runner01</text>
</g>
<!-- thread01__runner01__Runner -->
<g id="node4" class="node">
<title>thread01__runner01__Runner</title>
<ellipse fill="#ccff99" fill-opacity="0.698039" stroke="black" cx="466" cy="-200" rx="44.69" ry="18"/>
<text text-anchor="middle" x="466" y="-196.3" font-family="Times,serif" font-size="14.00" fill="#000000">Runner</text>
</g>
<!-- thread01__runner01&#45;&gt;thread01__runner01__Runner -->
<g id="edge1" class="edge">
<title>thread01__runner01&#45;&gt;thread01__runner01__Runner</title>
<path fill="none" stroke="#838b8b" stroke-dasharray="5,2" d="M377.8,-257.52C382.56,-254.71 387.44,-251.8 392,-249 406.31,-240.21 421.94,-230.14 435.14,-221.5"/>
<polygon fill="#838b8b" stroke="#838b8b" points="437.4,-224.2 443.84,-215.78 433.56,-218.35 437.4,-224.2"/>
</g>
<!-- thread01__runner01__main -->
<g id="node5" class="node">
<title>thread01__runner01__main</title>
<ellipse fill="#ccff99" fill-opacity="0.698039" stroke="black" cx="349" cy="-200" rx="33.6" ry="18"/>
<text text-anchor="middle" x="349" y="-196.3" font-family="Times,serif" font-size="14.00" fill="#000000">main</text>
</g>
<!-- thread01__runner01&#45;&gt;thread01__runner01__main -->
<g id="edge2" class="edge">
<title>thread01__runner01&#45;&gt;thread01__runner01__main</title>
<path fill="none" stroke="#838b8b" stroke-dasharray="5,2" d="M343.16,-256.7C342.27,-248.18 342.03,-237.72 342.45,-228.17"/>
<polygon fill="#838b8b" stroke="#838b8b" points="345.96,-228.15 343.2,-217.92 338.98,-227.64 345.96,-228.15"/>
</g>
<!-- thread01__runner01&#45;&gt;thread01__runner01__main -->
<g id="edge18" class="edge">
<title>thread01__runner01&#45;&gt;thread01__runner01__main</title>
<path fill="none" stroke="#000000" d="M354.84,-256.7C355.73,-248.18 355.97,-237.72 355.55,-228.17"/>
<polygon fill="#000000" stroke="#000000" points="359.02,-227.64 354.8,-217.92 352.04,-228.15 359.02,-227.64"/>
</g>
<!-- thread01__worker01 -->
<g id="node3" class="node">
<title>thread01__worker01</title>
<ellipse fill="#ffffff" fill-opacity="0.698039" stroke="black" cx="130" cy="-200" rx="100.98" ry="18"/>
<text text-anchor="middle" x="130" y="-196.3" font-family="Times,serif" font-size="14.00" fill="#000000">thread01.worker01</text>
</g>
<!-- thread01__worker01__Worker -->
<g id="node11" class="node">
<title>thread01__worker01__Worker</title>
<ellipse fill="#99feff" fill-opacity="0.698039" stroke="black" cx="130" cy="-125" rx="44.69" ry="18"/>
<text text-anchor="middle" x="130" y="-121.3" font-family="Times,serif" font-size="14.00" fill="#000000">Worker</text>
</g>
<!-- thread01__worker01&#45;&gt;thread01__worker01__Worker -->
<g id="edge8" class="edge">
<title>thread01__worker01&#45;&gt;thread01__worker01__Worker</title>
<path fill="none" stroke="#838b8b" stroke-dasharray="5,2" d="M130,-181.7C130,-173.25 130,-162.87 130,-153.37"/>
<polygon fill="#838b8b" stroke="#838b8b" points="133.5,-153.18 130,-143.18 126.5,-153.18 133.5,-153.18"/>
</g>
<!-- thread01__runner01__Runner____init__ -->
<g id="node6" class="node">
<title>thread01__runner01__Runner____init__</title>
<ellipse fill="#b2ff65" fill-opacity="0.698039" stroke="black" cx="424" cy="-125" rx="44.39" ry="18"/>
<text text-anchor="middle" x="424" y="-121.3" font-family="Times,serif" font-size="14.00" fill="#000000">__init__</text>
</g>
<!-- thread01__runner01__Runner&#45;&gt;thread01__runner01__Runner____init__ -->
<g id="edge3" class="edge">
<title>thread01__runner01__Runner&#45;&gt;thread01__runner01__Runner____init__</title>
<path fill="none" stroke="#838b8b" stroke-dasharray="5,2" d="M456.26,-182.07C451.03,-172.98 444.47,-161.58 438.64,-151.44"/>
<polygon fill="#838b8b" stroke="#838b8b" points="441.56,-149.51 433.54,-142.59 435.5,-153 441.56,-149.51"/>
</g>
<!-- thread01__runner01__Runner__execute -->
<g id="node7" class="node">
<title>thread01__runner01__Runner__execute</title>
<ellipse fill="#b2ff65" fill-opacity="0.698039" stroke="black" cx="315" cy="-125" rx="46.59" ry="18"/>
<text text-anchor="middle" x="315" y="-121.3" font-family="Times,serif" font-size="14.00" fill="#000000">execute</text>
</g>
<!-- thread01__runner01__Runner&#45;&gt;thread01__runner01__Runner__execute -->
<g id="edge4" class="edge">
<title>thread01__runner01__Runner&#45;&gt;thread01__runner01__Runner__execute</title>
<path fill="none" stroke="#838b8b" stroke-dasharray="5,2" d="M427.25,-190.65C405.54,-185.61 380.89,-179.19 371,-174 358.95,-167.68 347.26,-158.34 337.7,-149.57"/>
<polygon fill="#838b8b" stroke="#838b8b" points="339.86,-146.8 330.21,-142.42 335.03,-151.86 339.86,-146.8"/>
</g>
<!-- thread01__runner01__Runner__result -->
<g id="node8" class="node">
<title>thread01__runner01__Runner__result</title>
<ellipse fill="#b2ff65" fill-opacity="0.698039" stroke="black" cx="413" cy="-50" rx="38.19" ry="18"/>
<text text-anchor="middle" x="413" y="-46.3" font-family="Times,serif" font-size="14.00" fill="#000000">result</text>
</g>
<!-- thread01__runner01__Runner&#45;&gt;thread01__runner01__Runner__result -->
<g id="edge5" class="edge">
<title>thread01__runner01__Runner&#45;&gt;thread01__runner01__Runner__result</title>
<path fill="none" stroke="#838b8b" stroke-dasharray="5,2" d="M485.8,-183.56C488.32,-180.67 490.53,-177.46 492,-174 503.66,-146.6 510.33,-130.47 492,-107 482.98,-95.44 472.72,-106.29 460,-99 449.46,-92.96 439.72,-83.89 431.87,-75.26"/>
<polygon fill="#838b8b" stroke="#838b8b" points="434.41,-72.84 425.23,-67.55 429.11,-77.41 434.41,-72.84"/>
</g>
<!-- thread01__runner01__Runner__thread -->
<g id="node9" class="node">
<title>thread01__runner01__Runner__thread</title>
<ellipse fill="#b2ff65" fill-opacity="0.698039" stroke="black" cx="315" cy="-50" rx="41.69" ry="18"/>
<text text-anchor="middle" x="315" y="-46.3" font-family="Times,serif" font-size="14.00" fill="#000000">thread</text>
</g>
<!-- thread01__runner01__Runner&#45;&gt;thread01__runner01__Runner__thread -->
<g id="edge7" class="edge">
<title>thread01__runner01__Runner&#45;&gt;thread01__runner01__Runner__thread</title>
<path fill="none" stroke="#838b8b" stroke-dasharray="5,2" d="M474.86,-182.33C484.4,-161.82 495.85,-127.26 477,-107 460.15,-88.9 388.65,-108.94 366,-99 353.82,-93.66 342.74,-84.12 334.04,-74.94"/>
<polygon fill="#838b8b" stroke="#838b8b" points="336.6,-72.55 327.32,-67.42 331.38,-77.21 336.6,-72.55"/>
</g>
<!-- thread01__runner01__Runner__worker -->
<g id="node10" class="node">
<title>thread01__runner01__Runner__worker</title>
<ellipse fill="#b2ff65" fill-opacity="0.698039" stroke="black" cx="513" cy="-50" rx="43.59" ry="18"/>
<text text-anchor="middle" x="513" y="-46.3" font-family="Times,serif" font-size="14.00" fill="#000000">worker</text>
</g>
<!-- thread01__runner01__Runner&#45;&gt;thread01__runner01__Runner__worker -->
<g id="edge6" class="edge">
<title>thread01__runner01__Runner&#45;&gt;thread01__runner01__Runner__worker</title>
<path fill="none" stroke="#838b8b" stroke-dasharray="5,2" d="M498.38,-187.22C503.8,-183.8 508.73,-179.46 512,-174 529.48,-144.87 525.62,-104.45 520.2,-78.01"/>
<polygon fill="#838b8b" stroke="#838b8b" points="523.54,-76.93 517.91,-67.95 516.71,-78.48 523.54,-76.93"/>
</g>
<!-- thread01__runner01__main&#45;&gt;thread01__runner01__Runner____init__ -->
<g id="edge16" class="edge">
<title>thread01__runner01__main&#45;&gt;thread01__runner01__Runner____init__</title>
<path fill="none" stroke="#000000" d="M364.54,-183.87C374.89,-173.8 388.68,-160.38 400.38,-148.99"/>
<polygon fill="#000000" stroke="#000000" points="402.98,-151.35 407.7,-141.86 398.09,-146.33 402.98,-151.35"/>
</g>
<!-- thread01__runner01__main&#45;&gt;thread01__runner01__Runner__execute -->
<g id="edge17" class="edge">
<title>thread01__runner01__main&#45;&gt;thread01__runner01__Runner__execute</title>
<path fill="none" stroke="#000000" d="M341.28,-182.44C337.1,-173.45 331.83,-162.13 327.11,-151.99"/>
<polygon fill="#000000" stroke="#000000" points="330.2,-150.34 322.8,-142.75 323.85,-153.29 330.2,-150.34"/>
</g>
<!-- thread01__runner01__Runner____init__&#45;&gt;thread01__runner01__Runner__thread -->
<g id="edge13" class="edge">
<title>thread01__runner01__Runner____init__&#45;&gt;thread01__runner01__Runner__thread</title>
<path fill="none" stroke="#000000" d="M391.97,-112.55C383.23,-108.8 373.97,-104.24 366,-99 355.47,-92.08 345.1,-82.9 336.5,-74.42"/>
<polygon fill="#000000" stroke="#000000" points="338.93,-71.9 329.43,-67.22 333.94,-76.81 338.93,-71.9"/>
</g>
<!-- thread01__runner01__Runner____init__&#45;&gt;thread01__runner01__Runner__worker -->
<g id="edge11" class="edge">
<title>thread01__runner01__Runner____init__&#45;&gt;thread01__runner01__Runner__worker</title>
<path fill="none" stroke="#000000" d="M446.03,-109.37C450.72,-106.07 455.59,-102.5 460,-99 469.77,-91.23 480.04,-82.16 488.92,-74.01"/>
<polygon fill="#000000" stroke="#000000" points="491.36,-76.51 496.3,-67.14 486.6,-71.39 491.36,-76.51"/>
</g>
<!-- thread01__worker01__Worker____init__ -->
<g id="node12" class="node">
<title>thread01__worker01__Worker____init__</title>
<ellipse fill="#65feff" fill-opacity="0.698039" stroke="black" cx="184" cy="-50" rx="44.39" ry="18"/>
<text text-anchor="middle" x="184" y="-46.3" font-family="Times,serif" font-size="14.00" fill="#000000">__init__</text>
</g>
<!-- thread01__runner01__Runner____init__&#45;&gt;thread01__worker01__Worker____init__ -->
<g id="edge12" class="edge">
<title>thread01__runner01__Runner____init__&#45;&gt;thread01__worker01__Worker____init__</title>
<path fill="none" stroke="#000000" d="M392.09,-112.4C385.21,-110.29 377.93,-108.33 371,-107 320.69,-97.33 304.49,-115.54 256,-99 239.32,-93.31 222.81,-82.76 209.81,-72.99"/>
<polygon fill="#000000" stroke="#000000" points="211.85,-70.14 201.82,-66.75 207.54,-75.66 211.85,-70.14"/>
</g>
<!-- thread01__runner01__Runner__execute&#45;&gt;thread01__runner01__Runner__result -->
<g id="edge15" class="edge">
<title>thread01__runner01__Runner__execute&#45;&gt;thread01__runner01__Runner__result</title>
<path fill="none" stroke="#000000" d="M345.37,-111.22C352.41,-107.69 359.69,-103.56 366,-99 375.7,-91.99 385.17,-82.89 393.04,-74.5"/>
<polygon fill="#000000" stroke="#000000" points="395.65,-76.83 399.78,-67.08 390.47,-72.13 395.65,-76.83"/>
</g>
<!-- thread01__runner01__Runner__execute&#45;&gt;thread01__runner01__Runner__thread -->
<g id="edge14" class="edge">
<title>thread01__runner01__Runner__execute&#45;&gt;thread01__runner01__Runner__thread</title>
<path fill="none" stroke="#000000" d="M315,-106.7C315,-98.25 315,-87.87 315,-78.37"/>
<polygon fill="#000000" stroke="#000000" points="318.5,-78.18 315,-68.18 311.5,-78.18 318.5,-78.18"/>
</g>
<!-- thread01__worker01__Worker&#45;&gt;thread01__worker01__Worker____init__ -->
<g id="edge9" class="edge">
<title>thread01__worker01__Worker&#45;&gt;thread01__worker01__Worker____init__</title>
<path fill="none" stroke="#838b8b" stroke-dasharray="5,2" d="M142.25,-107.44C149.16,-98.1 157.92,-86.26 165.63,-75.84"/>
<polygon fill="#838b8b" stroke="#838b8b" points="168.66,-77.62 171.8,-67.5 163.03,-73.46 168.66,-77.62"/>
</g>
<!-- thread01__worker01__Worker__work -->
<g id="node13" class="node">
<title>thread01__worker01__Worker__work</title>
<ellipse fill="#65feff" fill-opacity="0.698039" stroke="black" cx="88" cy="-50" rx="33.6" ry="18"/>
<text text-anchor="middle" x="88" y="-46.3" font-family="Times,serif" font-size="14.00" fill="#000000">work</text>
</g>
<!-- thread01__worker01__Worker&#45;&gt;thread01__worker01__Worker__work -->
<g id="edge10" class="edge">
<title>thread01__worker01__Worker&#45;&gt;thread01__worker01__Worker__work</title>
<path fill="none" stroke="#838b8b" stroke-dasharray="5,2" d="M120.26,-107.07C114.99,-97.91 108.38,-86.42 102.51,-76.23"/>
<polygon fill="#838b8b" stroke="#838b8b" points="105.42,-74.26 97.4,-67.34 99.35,-77.75 105.42,-74.26"/>
</g>
</g>
</svg>
