<?xml version="1.0" encoding="UTF-8" standalone="no"?>
<!DOCTYPE svg PUBLIC "-//W3C//DTD SVG 1.1//EN"
 "http://www.w3.org/Graphics/SVG/1.1/DTD/svg11.dtd">
<!-- Generated by graphviz version 2.43.0 (0)
 -->
<!-- Title: G Pages: 1 -->
<svg width="561pt" height="524pt"
 viewBox="0.00 0.00 561.00 524.00" xmlns="http://www.w3.org/2000/svg" xmlns:xlink="http://www.w3.org/1999/xlink">
<g id="graph0" class="graph" transform="scale(1 1) rotate(0) translate(4 520)">
<title>G</title>
<polygon fill="white" stroke="transparent" points="-4,4 -4,-520 557,-520 557,4 -4,4"/>
<g id="clust1" class="cluster">
<title>cluster_G</title>
<path fill="#808080" fill-opacity="0.094118" stroke="black" d="M20,-8C20,-8 533,-8 533,-8 539,-8 545,-14 545,-20 545,-20 545,-496 545,-496 545,-502 539,-508 533,-508 533,-508 20,-508 20,-508 14,-508 8,-502 8,-496 8,-496 8,-20 8,-20 8,-14 14,-8 20,-8"/>
</g>
<g id="clust2" class="cluster">
<title>cluster_multifile01__multi01</title>
<path fill="#808080" fill-opacity="0.094118" stroke="black" d="M394,-348C394,-348 525,-348 525,-348 531,-348 537,-354 537,-360 537,-360 537,-411 537,-411 537,-417 531,-423 525,-423 525,-423 394,-423 394,-423 388,-423 382,-417 382,-411 382,-411 382,-360 382,-360 382,-354 388,-348 394,-348"/>
<text text-anchor="middle" x="459.5" y="-407.8" font-family="Times,serif" font-size="14.00">multifile01.multi01</text>
</g>
<g id="clust3" class="cluster">
<title>cluster_multifile01__multi02</title>
<path fill="#808080" fill-opacity="0.094118" stroke="black" d="M28,-16C28,-16 362,-16 362,-16 368,-16 374,-22 374,-28 374,-28 374,-411 374,-411 374,-417 368,-423 362,-423 362,-423 28,-423 28,-423 22,-423 16,-417 16,-411 16,-411 16,-28 16,-28 16,-22 22,-16 28,-16"/>
<text text-anchor="middle" x="195" y="-407.8" font-family="Times,serif" font-size="14.00">multifile01.multi02</text>
</g>
<g id="clust4" class="cluster">
<title>cluster_multifile01__multi02__Runner</title>
<path fill="#808080" fill-opacity="0.094118" stroke="black" d="M36,-24C36,-24 354,-24 354,-24 360,-24 366,-30 366,-36 366,-36 366,-303 366,-303 366,-309 360,-315 354,-315 354,-315 36,-315 36,-315 30,-315 24,-309 24,-303 24,-303 24,-36 24,-36 24,-30 30,-24 36,-24"/>
<text text-anchor="middle" x="195" y="-299.8" font-family="Times,serif" font-size="14.00">multifile01.multi02.Runner</text>
</g>
<!-- multifile01__multi01 -->
<g id="node1" class="node">
<title>multifile01__multi01</title>
<ellipse fill="#ffffff" fill-opacity="0.698039" stroke="black" cx="424" cy="-482" rx="100.98" ry="18"/>
<text text-anchor="middle" x="424" y="-478.3" font-family="Times,serif" font-size="14.00" fill="#000000">multifile01.multi01</text>
</g>
<!-- multifile01__multi01__main -->
<g id="node3" class="node">
<title>multifile01__multi01__main</title>
<ellipse fill="#ff9999" fill-opacity="0.698039" stroke="black" cx="424" cy="-374" rx="33.6" ry="18"/>
<text text-anchor="middle" x="424" y="-370.3" font-family="Times,serif" font-size="14.00" fill="#000000">main</text>
</g>
<!-- multifile01__multi01&#45;&gt;multifile01__multi01__main -->
<g id="edge1" class="edge">
<title>multifile01__multi01&#45;&gt;multifile01__multi01__main</title>
<path fill="none" stroke="#838b8b" stroke-dasharray="5,2" d="M418.89,-463.97C417.04,-447.28 416.76,-421.58 418.03,-402.08"/>
<polygon fill="#838b8b" stroke="#838b8b" points="421.52,-402.25 418.89,-391.99 414.55,-401.65 421.52,-402.25"/>
</g>
<!-- multifile01__multi01&#45;&gt;multifile01__multi01__main -->
<g id="edge11" class="edge">
<title>multifile01__multi01&#45;&gt;multifile01__multi01__main</title>
<path fill="none" stroke="#000000" d="M429.11,-463.97C430.96,-447.28 431.24,-421.58 429.97,-402.08"/>
<polygon fill="#000000" stroke="#000000" points="433.45,-401.65 429.11,-391.99 426.48,-402.25 433.45,-401.65"/>
</g>
<!-- multifile01__multi02 -->
<g id="node2" class="node">
<title>multifile01__multi02</title>
<ellipse fill="#ffffff" fill-opacity="0.698039" stroke="black" cx="161" cy="-482" rx="100.98" ry="18"/>
<text text-anchor="middle" x="161" y="-478.3" font-family="Times,serif" font-size="14.00" fill="#000000">multifile01.multi02</text>
</g>
<!-- multifile01__multi02__Runner -->
<g id="node4" class="node">
<title>multifile01__multi02__Runner</title>
<ellipse fill="#99ff99" fill-opacity="0.698039" stroke="black" cx="161" cy="-374" rx="44.69" ry="18"/>
<text text-anchor="middle" x="161" y="-370.3" font-family="Times,serif" font-size="14.00" fill="#000000">Runner</text>
</g>
<!-- multifile01__multi02&#45;&gt;multifile01__multi02__Runner -->
<g id="edge2" class="edge">
<title>multifile01__multi02&#45;&gt;multifile01__multi02__Runner</title>
<path fill="none" stroke="#838b8b" stroke-dasharray="5,2" d="M161,-463.97C161,-447.38 161,-421.88 161,-402.43"/>
<polygon fill="#838b8b" stroke="#838b8b" points="164.5,-402.34 161,-392.34 157.5,-402.34 164.5,-402.34"/>
</g>
<!-- multifile01__multi02__Runner__STATIC_FIELD -->
<g id="node5" class="node">
<title>multifile01__multi02__Runner__STATIC_FIELD</title>
<ellipse fill="#65ff65" fill-opacity="0.698039" stroke="black" cx="111" cy="-50" rx="79.09" ry="18"/>
<text text-anchor="middle" x="111" y="-46.3" font-family="Times,serif" font-size="14.00" fill="#000000">STATIC_FIELD</text>
</g>
<!-- multifile01__multi01__main&#45;&gt;multifile01__multi02__Runner__STATIC_FIELD -->
<g id="edge10" class="edge">
<title>multifile01__multi01__main&#45;&gt;multifile01__multi02__Runner__STATIC_FIELD</title>
<path fill="none" stroke="#000000" d="M416.75,-356.35C398.14,-315.16 345.01,-206.96 273,-140 239.71,-109.04 193.64,-85.09 159.15,-69.87"/>
<polygon fill="#000000" stroke="#000000" points="160.31,-66.56 149.74,-65.81 157.54,-72.99 160.31,-66.56"/>
</g>
<!-- multifile01__multi02__Runner____init__ -->
<g id="node6" class="node">
<title>multifile01__multi02__Runner____init__</title>
<ellipse fill="#65ff65" fill-opacity="0.698039" stroke="black" cx="234" cy="-266" rx="44.39" ry="18"/>
<text text-anchor="middle" x="234" y="-262.3" font-family="Times,serif" font-size="14.00" fill="#000000">__init__</text>
</g>
<!-- multifile01__multi01__main&#45;&gt;multifile01__multi02__Runner____init__ -->
<g id="edge7" class="edge">
<title>multifile01__multi01__main&#45;&gt;multifile01__multi02__Runner____init__</title>
<path fill="none" stroke="#000000" d="M401.46,-360.42C368.33,-341.94 306.27,-307.32 267.71,-285.81"/>
<polygon fill="#000000" stroke="#000000" points="269.36,-282.72 258.92,-280.9 265.95,-288.83 269.36,-282.72"/>
</g>
<!-- multifile01__multi02__Runner__execute -->
<g id="node7" class="node">
<title>multifile01__multi02__Runner__execute</title>
<ellipse fill="#65ff65" fill-opacity="0.698039" stroke="black" cx="217" cy="-158" rx="46.59" ry="18"/>
<text text-anchor="middle" x="217" y="-154.3" font-family="Times,serif" font-size="14.00" fill="#000000">execute</text>
</g>
<!-- multifile01__multi01__main&#45;&gt;multifile01__multi02__Runner__execute -->
<g id="edge9" class="edge">
<title>multifile01__multi01__main&#45;&gt;multifile01__multi02__Runner__execute</title>
<path fill="none" stroke="#000000" d="M409.11,-357.61C373.35,-320.63 282.39,-226.6 239.73,-182.5"/>
<polygon fill="#000000" stroke="#000000" points="242.06,-179.87 232.59,-175.12 237.03,-184.74 242.06,-179.87"/>
</g>
<!-- multifile01__multi02__Runner__instance_field -->
<g id="node8" class="node">
<title>multifile01__multi02__Runner__instance_field</title>
<ellipse fill="#65ff65" fill-opacity="0.698039" stroke="black" cx="283" cy="-50" rx="74.99" ry="18"/>
<text text-anchor="middle" x="283" y="-46.3" font-family="Times,serif" font-size="14.00" fill="#000000">instance_field</text>
</g>
<!-- multifile01__multi01__main&#45;&gt;multifile01__multi02__Runner__instance_field -->
<g id="edge8" class="edge">
<title>multifile01__multi01__main&#45;&gt;multifile01__multi02__Runner__instance_field</title>
<path fill="none" stroke="#000000" d="M425.15,-355.91C427.08,-315.53 427.41,-212.2 387,-140 371.15,-111.68 342.62,-88.25 319.44,-72.55"/>
<polygon fill="#000000" stroke="#000000" points="321.14,-69.48 310.86,-66.92 317.3,-75.33 321.14,-69.48"/>
</g>
<!-- multifile01__multi02__Runner&#45;&gt;multifile01__multi02__Runner__STATIC_FIELD -->
<g id="edge6" class="edge">
<title>multifile01__multi02__Runner&#45;&gt;multifile01__multi02__Runner__STATIC_FIELD</title>
<path fill="none" stroke="#838b8b" stroke-dasharray="5,2" d="M155.99,-355.87C152.77,-344.39 148.71,-328.88 146,-315 129.31,-229.32 118.2,-126.43 113.52,-78.32"/>
<polygon fill="#838b8b" stroke="#838b8b" points="116.98,-77.72 112.54,-68.1 110.01,-78.39 116.98,-77.72"/>
</g>
<!-- multifile01__multi02__Runner&#45;&gt;multifile01__multi02__Runner____init__ -->
<g id="edge3" class="edge">
<title>multifile01__multi02__Runner&#45;&gt;multifile01__multi02__Runner____init__</title>
<path fill="none" stroke="#838b8b" stroke-dasharray="5,2" d="M172.41,-356.44C184.35,-339.09 203.25,-311.65 216.97,-291.74"/>
<polygon fill="#838b8b" stroke="#838b8b" points="219.88,-293.67 222.67,-283.45 214.12,-289.7 219.88,-293.67"/>
</g>
<!-- multifile01__multi02__Runner&#45;&gt;multifile01__multi02__Runner__execute -->
<g id="edge4" class="edge">
<title>multifile01__multi02__Runner&#45;&gt;multifile01__multi02__Runner__execute</title>
<path fill="none" stroke="#838b8b" stroke-dasharray="5,2" d="M162.52,-355.75C164.94,-331.4 170.51,-285.69 181,-248 187.02,-226.39 196.66,-202.9 204.45,-185.49"/>
<polygon fill="#838b8b" stroke="#838b8b" points="207.81,-186.54 208.78,-175.99 201.44,-183.64 207.81,-186.54"/>
</g>
<!-- multifile01__multi02__Runner&#45;&gt;multifile01__multi02__Runner__instance_field -->
<g id="edge5" class="edge">
<title>multifile01__multi02__Runner&#45;&gt;multifile01__multi02__Runner__instance_field</title>
<path fill="none" stroke="#838b8b" stroke-dasharray="5,2" d="M159.03,-355.79C153.91,-308.51 141.89,-177.59 161,-140 177.12,-108.29 210.41,-85.2 238.16,-70.49"/>
<polygon fill="#838b8b" stroke="#838b8b" points="240,-73.48 247.32,-65.82 236.82,-67.24 240,-73.48"/>
</g>
<!-- multifile01__multi02__Runner____init__&#45;&gt;multifile01__multi02__Runner__execute -->
<g id="edge13" class="edge">
<title>multifile01__multi02__Runner____init__&#45;&gt;multifile01__multi02__Runner__execute</title>
<path fill="none" stroke="#000000" d="M231.27,-247.97C228.59,-231.28 224.47,-205.58 221.34,-186.08"/>
<polygon fill="#000000" stroke="#000000" points="224.76,-185.31 219.72,-175.99 217.85,-186.42 224.76,-185.31"/>
</g>
<!-- multifile01__multi02__Runner____init__&#45;&gt;multifile01__multi02__Runner__instance_field -->
<g id="edge12" class="edge">
<title>multifile01__multi02__Runner____init__&#45;&gt;multifile01__multi02__Runner__instance_field</title>
<path fill="none" stroke="#000000" d="M243.39,-248.21C252.66,-230.75 266.37,-202.34 273,-176 281.27,-143.12 283.18,-103.98 283.41,-78.37"/>
<polygon fill="#000000" stroke="#000000" points="286.91,-78.28 283.41,-68.28 279.91,-78.27 286.91,-78.28"/>
</g>
<!-- multifile01__multi02__Runner__execute&#45;&gt;multifile01__multi02__Runner__STATIC_FIELD -->
<g id="edge15" class="edge">
<title>multifile01__multi02__Runner__execute&#45;&gt;multifile01__multi02__Runner__STATIC_FIELD</title>
<path fill="none" stroke="#000000" d="M200.9,-140.9C183.44,-123.44 155.37,-95.37 135.24,-75.24"/>
<polygon fill="#000000" stroke="#000000" points="137.5,-72.55 127.95,-67.95 132.55,-77.5 137.5,-72.55"/>
</g>
<!-- multifile01__multi02__Runner__execute&#45;&gt;multifile01__multi02__Runner__instance_field -->
<g id="edge14" class="edge">
<title>multifile01__multi02__Runner__execute&#45;&gt;multifile01__multi02__Runner__instance_field</title>
<path fill="none" stroke="#000000" d="M227.31,-140.44C237.94,-123.37 254.65,-96.53 266.99,-76.71"/>
<polygon fill="#000000" stroke="#000000" points="270.01,-78.49 272.32,-68.15 264.07,-74.79 270.01,-78.49"/>
</g>
</g>
</svg>
