<?xml version="1.0" encoding="UTF-8" standalone="no"?><svg xmlns="http://www.w3.org/2000/svg" xmlns:xlink="http://www.w3.org/1999/xlink" contentScriptType="application/ecmascript" contentStyleType="text/css" height="474px" preserveAspectRatio="none" style="width:403px;height:474px;background:#FEFEFE;" version="1.1" viewBox="0 0 403 474" width="403px" zoomAndPan="magnify"><defs><filter height="300%" id="ffvgd37iu4ylv" width="300%" x="-1" y="-1"><feGaussianBlur result="blurOut" stdDeviation="2.0"/><feColorMatrix in="blurOut" result="blurOut2" type="matrix" values="0 0 0 0 0 0 0 0 0 0 0 0 0 0 0 0 0 0 .4 0"/><feOffset dx="4.0" dy="4.0" in="blurOut2" result="blurOut3"/><feBlend in="SourceGraphic" in2="blurOut3" mode="normal"/></filter></defs><g><rect fill="#FFFFFF" filter="url(#ffvgd37iu4ylv)" height="332.1953" style="stroke: #A80036; stroke-width: 1.0;" width="10" x="74.5" y="77.2969"/><rect fill="#FFFFFF" filter="url(#ffvgd37iu4ylv)" height="182.5313" style="stroke: #A80036; stroke-width: 1.0;" width="10" x="255" y="111.5625"/><rect fill="#FFFFFF" filter="url(#ffvgd37iu4ylv)" height="91.3984" style="stroke: #A80036; stroke-width: 1.0;" width="10" x="260" y="181.6953"/><line style="stroke: #A80036; stroke-width: 1.0; stroke-dasharray: 5.0,5.0;" x1="79" x2="79" y1="38.2969" y2="434.4922"/><line style="stroke: #A80036; stroke-width: 1.0; stroke-dasharray: 5.0,5.0;" x1="260" x2="260" y1="38.2969" y2="434.4922"/><rect fill="#FEFECE" filter="url(#ffvgd37iu4ylv)" height="30.2969" style="stroke: #A80036; stroke-width: 1.5;" width="139" x="8" y="3"/><text fill="#000000" font-family="sans-serif" font-size="14" lengthAdjust="spacingAndGlyphs" textLength="125" x="15" y="22.9951">multifile01.multi01</text><rect fill="#FEFECE" filter="url(#ffvgd37iu4ylv)" height="30.2969" style="stroke: #A80036; stroke-width: 1.5;" width="139" x="8" y="433.4922"/><text fill="#000000" font-family="sans-serif" font-size="14" lengthAdjust="spacingAndGlyphs" textLength="125" x="15" y="453.4873">multifile01.multi01</text><rect fill="#FEFECE" filter="url(#ffvgd37iu4ylv)" height="30.2969" style="stroke: #A80036; stroke-width: 1.5;" width="194" x="161" y="3"/><text fill="#000000" font-family="sans-serif" font-size="14" lengthAdjust="spacingAndGlyphs" textLength="180" x="168" y="22.9951">multifile01.multi02.Runner</text><rect fill="#FEFECE" filter="url(#ffvgd37iu4ylv)" height="30.2969" style="stroke: #A80036; stroke-width: 1.5;" width="194" x="161" y="433.4922"/><text fill="#000000" font-family="sans-serif" font-size="14" lengthAdjust="spacingAndGlyphs" textLength="180" x="168" y="453.4873">multifile01.multi02.Runner</text><rect fill="#FFFFFF" filter="url(#ffvgd37iu4ylv)" height="332.1953" style="stroke: #A80036; stroke-width: 1.0;" width="10" x="74.5" y="77.2969"/><rect fill="#FFFFFF" filter="url(#ffvgd37iu4ylv)" height="182.5313" style="stroke: #A80036; stroke-width: 1.0;" width="10" x="255" y="111.5625"/><rect fill="#FFFFFF" filter="url(#ffvgd37iu4ylv)" height="91.3984" style="stroke: #A80036; stroke-width: 1.0;" width="10" x="260" y="181.6953"/><ellipse cx="79" cy="63.6797" fill="none" rx="4" ry="4" style="stroke: #A80036; stroke-width: 1.5;"/><line style="stroke: #A80036; stroke-width: 1.0;" x1="83.5" x2="126.5" y1="64.4297" y2="64.4297"/><line style="stroke: #A80036; stroke-width: 1.0;" x1="126.5" x2="126.5" y1="64.4297" y2="77.4297"/><line style="stroke: #A80036; stroke-width: 1.0;" x1="85.5" x2="126.5" y1="77.4297" y2="77.4297"/><polygon fill="#A80036" points="95.5,73.4297,85.5,77.4297,95.5,81.4297,91.5,77.4297" style="stroke: #A80036; stroke-width: 1.0;"/><text fill="#000000" font-family="sans-serif" font-size="13" lengthAdjust="spacingAndGlyphs" textLength="32" x="91.5" y="59.3638">main</text><ellipse cx="84" cy="110.8125" fill="none" rx="4" ry="4" style="stroke: #A80036; stroke-width: 1.5;"/><polygon fill="#A80036" points="243,107.5625,253,111.5625,243,115.5625,247,111.5625" style="stroke: #A80036; stroke-width: 1.0;"/><line style="stroke: #A80036; stroke-width: 1.0;" x1="88.5" x2="249" y1="111.5625" y2="111.5625"/><text fill="#000000" font-family="sans-serif" font-size="13" lengthAdjust="spacingAndGlyphs" text-decoration="underline" textLength="19" x="91.5" y="106.4966">init</text><line style="stroke: #000000; stroke-width: 1.0;" x1="91.5" x2="110.5" y1="108.4966" y2="108.4966"/><polygon fill="#FBFB77" filter="url(#ffvgd37iu4ylv)" points="280,124.5625,371,124.5625,381,135.5625,371,147.5625,280,147.5625,270,135.5625,280,124.5625" style="stroke: #A80036; stroke-width: 1.0;"/><text fill="#000000" font-family="sans-serif" font-size="13" lengthAdjust="spacingAndGlyphs" textLength="87" x="282" y="140.6294">instance_field</text><ellipse cx="264.5" cy="168.0781" fill="none" rx="4" ry="4" style="stroke: #A80036; stroke-width: 1.5;"/><line style="stroke: #A80036; stroke-width: 1.0;" x1="269" x2="312" y1="168.8281" y2="168.8281"/><line style="stroke: #A80036; stroke-width: 1.0;" x1="312" x2="312" y1="168.8281" y2="181.8281"/><line style="stroke: #A80036; stroke-width: 1.0;" x1="271" x2="312" y1="181.8281" y2="181.8281"/><polygon fill="#A80036" points="281,177.8281,271,181.8281,281,185.8281,277,181.8281" style="stroke: #A80036; stroke-width: 1.0;"/><text fill="#000000" font-family="sans-serif" font-size="13" lengthAdjust="spacingAndGlyphs" textLength="51" x="277" y="163.7622">execute</text><polygon fill="#FBFB77" filter="url(#ffvgd37iu4ylv)" points="285,199.8281,376,199.8281,386,210.8281,376,222.8281,285,222.8281,275,210.8281,285,199.8281" style="stroke: #A80036; stroke-width: 1.0;"/><text fill="#000000" font-family="sans-serif" font-size="13" lengthAdjust="spacingAndGlyphs" textLength="87" x="287" y="215.895">instance_field</text><polygon fill="#FBFB77" filter="url(#ffvgd37iu4ylv)" points="285,232.9609,375,232.9609,385,243.9609,375,255.9609,285,255.9609,275,243.9609,285,232.9609" style="stroke: #A80036; stroke-width: 1.0;"/><text fill="#000000" font-family="sans-serif" font-size="13" lengthAdjust="spacingAndGlyphs" textLength="86" x="287" y="249.0278">STATIC_FIELD</text><line style="stroke: #A80036; stroke-width: 1.0; stroke-dasharray: 2.0,2.0;" x1="270" x2="312" y1="272.0938" y2="272.0938"/><line style="stroke: #A80036; stroke-width: 1.0; stroke-dasharray: 2.0,2.0;" x1="312" x2="312" y1="272.0938" y2="285.0938"/><line style="stroke: #A80036; stroke-width: 1.0; stroke-dasharray: 2.0,2.0;" x1="265" x2="312" y1="285.0938" y2="285.0938"/><polygon fill="#A80036" points="275,281.0938,265,285.0938,275,289.0938,271,285.0938" style="stroke: #A80036; stroke-width: 1.0;"/><polygon fill="#A80036" points="95.5,290.0938,85.5,294.0938,95.5,298.0938,91.5,294.0938" style="stroke: #A80036; stroke-width: 1.0;"/><line style="stroke: #A80036; stroke-width: 1.0; stroke-dasharray: 2.0,2.0;" x1="89.5" x2="259" y1="294.0938" y2="294.0938"/><ellipse cx="84" cy="316.9102" fill="none" rx="4" ry="4" style="stroke: #A80036; stroke-width: 1.5;"/><polygon fill="#A80036" points="248,313.6602,258,317.6602,248,321.6602,252,317.6602" style="stroke: #A80036; stroke-width: 1.0;"/><line style="stroke: #A80036; stroke-width: 1.0;" x1="88.5" x2="254" y1="317.6602" y2="317.6602"/><polygon fill="#FBFB77" filter="url(#ffvgd37iu4ylv)" points="275,307.0938,366,307.0938,376,318.0938,366,330.0938,275,330.0938,265,318.0938,275,307.0938" style="stroke: #A80036; stroke-width: 1.0;"/><text fill="#000000" font-family="sans-serif" font-size="13" lengthAdjust="spacingAndGlyphs" textLength="87" x="277" y="323.1606">instance_field</text><ellipse cx="84" cy="355.6094" fill="none" rx="4" ry="4" style="stroke: #A80036; stroke-width: 1.5;"/><polygon fill="#A80036" points="248,352.3594,258,356.3594,248,360.3594,252,356.3594" style="stroke: #A80036; stroke-width: 1.0;"/><line style="stroke: #A80036; stroke-width: 1.0;" x1="88.5" x2="254" y1="356.3594" y2="356.3594"/><text fill="#000000" font-family="sans-serif" font-size="13" lengthAdjust="spacingAndGlyphs" textLength="51" x="91.5" y="351.2935">execute</text><ellipse cx="84" cy="379.1758" fill="none" rx="4" ry="4" style="stroke: #A80036; stroke-width: 1.5;"/><polygon fill="#A80036" points="248,375.9258,258,379.9258,248,383.9258,252,379.9258" style="stroke: #A80036; stroke-width: 1.0;"/><line style="stroke: #A80036; stroke-width: 1.0;" x1="88.5" x2="254" y1="379.9258" y2="379.9258"/><polygon fill="#FBFB77" filter="url(#ffvgd37iu4ylv)" points="275,369.3594,365,369.3594,375,380.3594,365,392.3594,275,392.3594,265,380.3594,275,369.3594" style="stroke: #A80036; stroke-width: 1.0;"/><text fill="#000000" font-family="sans-serif" font-size="13" lengthAdjust="spacingAndGlyphs" textLength="86" x="277" y="385.4263">STATIC_FIELD</text><line style="stroke: #A80036; stroke-width: 1.0; stroke-dasharray: 2.0,2.0;" x1="84.5" x2="126.5" y1="408.4922" y2="408.4922"/><line style="stroke: #A80036; stroke-width: 1.0; stroke-dasharray: 2.0,2.0;" x1="126.5" x2="126.5" y1="408.4922" y2="421.4922"/><line style="stroke: #A80036; stroke-width: 1.0; stroke-dasharray: 2.0,2.0;" x1="79.5" x2="126.5" y1="421.4922" y2="421.4922"/><polygon fill="#A80036" points="89.5,417.4922,79.5,421.4922,89.5,425.4922,85.5,421.4922" style="stroke: #A80036; stroke-width: 1.0;"/></g></svg>