<?xml version="1.0" encoding="UTF-8" standalone="no"?>
<!DOCTYPE svg PUBLIC "-//W3C//DTD SVG 1.1//EN"
 "http://www.w3.org/Graphics/SVG/1.1/DTD/svg11.dtd">
<!-- Generated by graphviz version 2.43.0 (0)
 -->
<!-- Title: G Pages: 1 -->
<svg width="561pt" height="394pt"
 viewBox="0.00 0.00 561.00 394.00" xmlns="http://www.w3.org/2000/svg" xmlns:xlink="http://www.w3.org/1999/xlink">
<g id="graph0" class="graph" transform="scale(1 1) rotate(0) translate(4 390)">
<title>G</title>
<polygon fill="white" stroke="transparent" points="-4,4 -4,-390 557,-390 557,4 -4,4"/>
<g id="clust1" class="cluster">
<title>cluster_G</title>
<path fill="#808080" fill-opacity="0.094118" stroke="black" d="M20,-8C20,-8 533,-8 533,-8 539,-8 545,-14 545,-20 545,-20 545,-366 545,-366 545,-372 539,-378 533,-378 533,-378 20,-378 20,-378 14,-378 8,-372 8,-366 8,-366 8,-20 8,-20 8,-14 14,-8 20,-8"/>
</g>
<g id="clust2" class="cluster">
<title>cluster_multifile01__multi01</title>
<path fill="#808080" fill-opacity="0.094118" stroke="black" d="M394,-251C394,-251 525,-251 525,-251 531,-251 537,-257 537,-263 537,-263 537,-314 537,-314 537,-320 531,-326 525,-326 525,-326 394,-326 394,-326 388,-326 382,-320 382,-314 382,-314 382,-263 382,-263 382,-257 388,-251 394,-251"/>
<text text-anchor="middle" x="459.5" y="-310.8" font-family="Times,serif" font-size="14.00">multifile01.multi01</text>
</g>
<g id="clust3" class="cluster">
<title>cluster_multifile01__multi02</title>
<path fill="#808080" fill-opacity="0.094118" stroke="black" d="M28,-16C28,-16 362,-16 362,-16 368,-16 374,-22 374,-28 374,-28 374,-314 374,-314 374,-320 368,-326 362,-326 362,-326 28,-326 28,-326 22,-326 16,-320 16,-314 16,-314 16,-28 16,-28 16,-22 22,-16 28,-16"/>
<text text-anchor="middle" x="195" y="-310.8" font-family="Times,serif" font-size="14.00">multifile01.multi02</text>
</g>
<g id="clust4" class="cluster">
<title>cluster_multifile01__multi02__Runner</title>
<path fill="#808080" fill-opacity="0.094118" stroke="black" d="M36,-24C36,-24 354,-24 354,-24 360,-24 366,-30 366,-36 366,-36 366,-231 366,-231 366,-237 360,-243 354,-243 354,-243 36,-243 36,-243 30,-243 24,-237 24,-231 24,-231 24,-36 24,-36 24,-30 30,-24 36,-24"/>
<text text-anchor="middle" x="195" y="-227.8" font-family="Times,serif" font-size="14.00">multifile01.multi02.Runner</text>
</g>
<!-- multifile01__multi01 -->
<g id="node1" class="node">
<title>multifile01__multi01</title>
<ellipse fill="#ffffff" fill-opacity="0.698039" stroke="black" cx="424" cy="-352" rx="100.98" ry="18"/>
<text text-anchor="middle" x="424" y="-348.3" font-family="Times,serif" font-size="14.00" fill="#000000">multifile01.multi01</text>
</g>
<!-- multifile01__multi01__main -->
<g id="node3" class="node">
<title>multifile01__multi01__main</title>
<ellipse fill="#ff9999" fill-opacity="0.698039" stroke="black" cx="424" cy="-277" rx="33.6" ry="18"/>
<text text-anchor="middle" x="424" y="-273.3" font-family="Times,serif" font-size="14.00" fill="#000000">main</text>
</g>
<!-- multifile01__multi01&#45;&gt;multifile01__multi01__main -->
<g id="edge1" class="edge">
<title>multifile01__multi01&#45;&gt;multifile01__multi01__main</title>
<path fill="none" stroke="#838b8b" stroke-dasharray="5,2" d="M418.16,-333.7C417.27,-325.18 417.03,-314.72 417.45,-305.17"/>
<polygon fill="#838b8b" stroke="#838b8b" points="420.96,-305.15 418.2,-294.92 413.98,-304.64 420.96,-305.15"/>
</g>
<!-- multifile01__multi01&#45;&gt;multifile01__multi01__main -->
<g id="edge11" class="edge">
<title>multifile01__multi01&#45;&gt;multifile01__multi01__main</title>
<path fill="none" stroke="#000000" d="M429.84,-333.7C430.73,-325.18 430.97,-314.72 430.55,-305.17"/>
<polygon fill="#000000" stroke="#000000" points="434.02,-304.64 429.8,-294.92 427.04,-305.15 434.02,-304.64"/>
</g>
<!-- multifile01__multi02 -->
<g id="node2" class="node">
<title>multifile01__multi02</title>
<ellipse fill="#ffffff" fill-opacity="0.698039" stroke="black" cx="161" cy="-352" rx="100.98" ry="18"/>
<text text-anchor="middle" x="161" y="-348.3" font-family="Times,serif" font-size="14.00" fill="#000000">multifile01.multi02</text>
</g>
<!-- multifile01__multi02__Runner -->
<g id="node4" class="node">
<title>multifile01__multi02__Runner</title>
<ellipse fill="#99ff99" fill-opacity="0.698039" stroke="black" cx="161" cy="-277" rx="44.69" ry="18"/>
<text text-anchor="middle" x="161" y="-273.3" font-family="Times,serif" font-size="14.00" fill="#000000">Runner</text>
</g>
<!-- multifile01__multi02&#45;&gt;multifile01__multi02__Runner -->
<g id="edge2" class="edge">
<title>multifile01__multi02&#45;&gt;multifile01__multi02__Runner</title>
<path fill="none" stroke="#838b8b" stroke-dasharray="5,2" d="M161,-333.7C161,-325.25 161,-314.87 161,-305.37"/>
<polygon fill="#838b8b" stroke="#838b8b" points="164.5,-305.18 161,-295.18 157.5,-305.18 164.5,-305.18"/>
</g>
<!-- multifile01__multi02__Runner__STATIC_FIELD -->
<g id="node5" class="node">
<title>multifile01__multi02__Runner__STATIC_FIELD</title>
<ellipse fill="#65ff65" fill-opacity="0.698039" stroke="black" cx="111" cy="-50" rx="79.09" ry="18"/>
<text text-anchor="middle" x="111" y="-46.3" font-family="Times,serif" font-size="14.00" fill="#000000">STATIC_FIELD</text>
</g>
<!-- multifile01__multi01__main&#45;&gt;multifile01__multi02__Runner__STATIC_FIELD -->
<g id="edge10" class="edge">
<title>multifile01__multi01__main&#45;&gt;multifile01__multi02__Runner__STATIC_FIELD</title>
<path fill="none" stroke="#000000" d="M414.07,-259.64C392.6,-225.63 338.47,-146.91 273,-104 244.75,-85.48 209.48,-72.94 179.08,-64.73"/>
<polygon fill="#000000" stroke="#000000" points="179.95,-61.34 169.39,-62.21 178.19,-68.12 179.95,-61.34"/>
</g>
<!-- multifile01__multi02__Runner____init__ -->
<g id="node6" class="node">
<title>multifile01__multi02__Runner____init__</title>
<ellipse fill="#65ff65" fill-opacity="0.698039" stroke="black" cx="234" cy="-194" rx="44.39" ry="18"/>
<text text-anchor="middle" x="234" y="-190.3" font-family="Times,serif" font-size="14.00" fill="#000000">__init__</text>
</g>
<!-- multifile01__multi01__main&#45;&gt;multifile01__multi02__Runner____init__ -->
<g id="edge7" class="edge">
<title>multifile01__multi01__main&#45;&gt;multifile01__multi02__Runner____init__</title>
<path fill="none" stroke="#000000" d="M402.66,-262.59C395.1,-258.34 386.4,-253.98 378,-251 359.68,-244.5 353.49,-249 335,-243 311.83,-235.48 287.11,-223.8 267.93,-213.85"/>
<polygon fill="#000000" stroke="#000000" points="269.46,-210.7 258.98,-209.12 266.19,-216.89 269.46,-210.7"/>
</g>
<!-- multifile01__multi02__Runner__execute -->
<g id="node7" class="node">
<title>multifile01__multi02__Runner__execute</title>
<ellipse fill="#65ff65" fill-opacity="0.698039" stroke="black" cx="217" cy="-122" rx="46.59" ry="18"/>
<text text-anchor="middle" x="217" y="-118.3" font-family="Times,serif" font-size="14.00" fill="#000000">execute</text>
</g>
<!-- multifile01__multi01__main&#45;&gt;multifile01__multi02__Runner__execute -->
<g id="edge9" class="edge">
<title>multifile01__multi01__main&#45;&gt;multifile01__multi02__Runner__execute</title>
<path fill="none" stroke="#000000" d="M404.24,-262.33C395.8,-256.44 385.88,-249.44 377,-243 351.99,-224.84 284.38,-173.9 245.52,-144.56"/>
<polygon fill="#000000" stroke="#000000" points="247.32,-141.53 237.23,-138.3 243.1,-147.12 247.32,-141.53"/>
</g>
<!-- multifile01__multi02__Runner__instance_field -->
<g id="node8" class="node">
<title>multifile01__multi02__Runner__instance_field</title>
<ellipse fill="#65ff65" fill-opacity="0.698039" stroke="black" cx="283" cy="-50" rx="74.99" ry="18"/>
<text text-anchor="middle" x="283" y="-46.3" font-family="Times,serif" font-size="14.00" fill="#000000">instance_field</text>
</g>
<!-- multifile01__multi01__main&#45;&gt;multifile01__multi02__Runner__instance_field -->
<g id="edge8" class="edge">
<title>multifile01__multi01__main&#45;&gt;multifile01__multi02__Runner__instance_field</title>
<path fill="none" stroke="#000000" d="M424.9,-258.89C425.75,-225.53 423.13,-150.97 387,-104 374.69,-88 356.21,-76.42 338.22,-68.25"/>
<polygon fill="#000000" stroke="#000000" points="339.47,-64.98 328.9,-64.29 336.73,-71.42 339.47,-64.98"/>
</g>
<!-- multifile01__multi02__Runner&#45;&gt;multifile01__multi02__Runner__STATIC_FIELD -->
<g id="edge6" class="edge">
<title>multifile01__multi02__Runner&#45;&gt;multifile01__multi02__Runner__STATIC_FIELD</title>
<path fill="none" stroke="#838b8b" stroke-dasharray="5,2" d="M152.39,-259.19C150.05,-254.09 147.69,-248.41 146,-243 128.08,-185.76 118.2,-115.87 113.82,-78.2"/>
<polygon fill="#838b8b" stroke="#838b8b" points="117.27,-77.58 112.68,-68.03 110.32,-78.36 117.27,-77.58"/>
</g>
<!-- multifile01__multi02__Runner&#45;&gt;multifile01__multi02__Runner____init__ -->
<g id="edge3" class="edge">
<title>multifile01__multi02__Runner&#45;&gt;multifile01__multi02__Runner____init__</title>
<path fill="none" stroke="#838b8b" stroke-dasharray="5,2" d="M175.77,-259.61C186.33,-247.89 200.7,-231.95 212.52,-218.83"/>
<polygon fill="#838b8b" stroke="#838b8b" points="215.4,-220.86 219.5,-211.09 210.2,-216.18 215.4,-220.86"/>
</g>
<!-- multifile01__multi02__Runner&#45;&gt;multifile01__multi02__Runner__execute -->
<g id="edge4" class="edge">
<title>multifile01__multi02__Runner&#45;&gt;multifile01__multi02__Runner__execute</title>
<path fill="none" stroke="#838b8b" stroke-dasharray="5,2" d="M162.35,-258.76C164.42,-238.34 169.43,-203.59 181,-176 185.09,-166.25 191.1,-156.44 197.04,-147.96"/>
<polygon fill="#838b8b" stroke="#838b8b" points="200.04,-149.79 203.13,-139.65 194.39,-145.65 200.04,-149.79"/>
</g>
<!-- multifile01__multi02__Runner&#45;&gt;multifile01__multi02__Runner__instance_field -->
<g id="edge5" class="edge">
<title>multifile01__multi02__Runner&#45;&gt;multifile01__multi02__Runner__instance_field</title>
<path fill="none" stroke="#838b8b" stroke-dasharray="5,2" d="M155.35,-259.11C145.45,-226.13 128.89,-152.22 161,-104 173.65,-85 194.73,-72.77 215.83,-64.91"/>
<polygon fill="#838b8b" stroke="#838b8b" points="217.17,-68.15 225.5,-61.6 214.9,-61.53 217.17,-68.15"/>
</g>
<!-- multifile01__multi02__Runner____init__&#45;&gt;multifile01__multi02__Runner__execute -->
<g id="edge13" class="edge">
<title>multifile01__multi02__Runner____init__&#45;&gt;multifile01__multi02__Runner__execute</title>
<path fill="none" stroke="#000000" d="M229.88,-176.05C227.99,-168.26 225.7,-158.82 223.58,-150.08"/>
<polygon fill="#000000" stroke="#000000" points="226.96,-149.17 221.2,-140.28 220.15,-150.82 226.96,-149.17"/>
</g>
<!-- multifile01__multi02__Runner____init__&#45;&gt;multifile01__multi02__Runner__instance_field -->
<g id="edge12" class="edge">
<title>multifile01__multi02__Runner____init__&#45;&gt;multifile01__multi02__Runner__instance_field</title>
<path fill="none" stroke="#000000" d="M249.5,-176.71C257.92,-166.87 267.67,-153.62 273,-140 280.73,-120.24 283.06,-96.26 283.55,-78.17"/>
<polygon fill="#000000" stroke="#000000" points="287.06,-78.06 283.66,-68.02 280.06,-77.99 287.06,-78.06"/>
</g>
<!-- multifile01__multi02__Runner__execute&#45;&gt;multifile01__multi02__Runner__STATIC_FIELD -->
<g id="edge15" class="edge">
<title>multifile01__multi02__Runner__execute&#45;&gt;multifile01__multi02__Runner__STATIC_FIELD</title>
<path fill="none" stroke="#000000" d="M194.52,-106.15C179.96,-96.54 160.73,-83.84 144.4,-73.05"/>
<polygon fill="#000000" stroke="#000000" points="145.94,-69.88 135.67,-67.29 142.08,-75.72 145.94,-69.88"/>
</g>
<!-- multifile01__multi02__Runner__execute&#45;&gt;multifile01__multi02__Runner__instance_field -->
<g id="edge14" class="edge">
<title>multifile01__multi02__Runner__execute&#45;&gt;multifile01__multi02__Runner__instance_field</title>
<path fill="none" stroke="#000000" d="M232.31,-104.76C240.6,-95.97 251.01,-84.93 260.24,-75.14"/>
<polygon fill="#000000" stroke="#000000" points="263,-77.31 267.32,-67.63 257.91,-72.51 263,-77.31"/>
</g>
</g>
</svg>
