<?xml version="1.0" encoding="UTF-8" standalone="no"?>
<!DOCTYPE svg PUBLIC "-//W3C//DTD SVG 1.1//EN"
 "http://www.w3.org/Graphics/SVG/1.1/DTD/svg11.dtd">
<!-- Generated by graphviz version 2.43.0 (0)
 -->
<!-- Title: G Pages: 1 -->
<svg width="561pt" height="524pt"
 viewBox="0.00 0.00 561.00 524.00" xmlns="http://www.w3.org/2000/svg" xmlns:xlink="http://www.w3.org/1999/xlink">
<g id="graph0" class="graph" transform="scale(1 1) rotate(0) translate(4 520)">
<title>G</title>
<polygon fill="white" stroke="transparent" points="-4,4 -4,-520 557,-520 557,4 -4,4"/>
<g id="clust1" class="cluster">
<title>cluster_G</title>
<path fill="#808080" fill-opacity="0.094118" stroke="black" d="M20,-8C20,-8 533,-8 533,-8 539,-8 545,-14 545,-20 545,-20 545,-496 545,-496 545,-502 539,-508 533,-508 533,-508 20,-508 20,-508 14,-508 8,-502 8,-496 8,-496 8,-20 8,-20 8,-14 14,-8 20,-8"/>
</g>
<g id="clust2" class="cluster">
<title>cluster_multifile01__multi01</title>
<path fill="#808080" fill-opacity="0.094118" stroke="black" d="M28,-348C28,-348 159,-348 159,-348 165,-348 171,-354 171,-360 171,-360 171,-411 171,-411 171,-417 165,-423 159,-423 159,-423 28,-423 28,-423 22,-423 16,-417 16,-411 16,-411 16,-360 16,-360 16,-354 22,-348 28,-348"/>
<text text-anchor="middle" x="93.5" y="-407.8" font-family="Times,serif" font-size="14.00">multifile01.multi01</text>
</g>
<g id="clust3" class="cluster">
<title>cluster_multifile01__multi02</title>
<path fill="#808080" fill-opacity="0.094118" stroke="black" d="M191,-16C191,-16 525,-16 525,-16 531,-16 537,-22 537,-28 537,-28 537,-411 537,-411 537,-417 531,-423 525,-423 525,-423 191,-423 191,-423 185,-423 179,-417 179,-411 179,-411 179,-28 179,-28 179,-22 185,-16 191,-16"/>
<text text-anchor="middle" x="358" y="-407.8" font-family="Times,serif" font-size="14.00">multifile01.multi02</text>
</g>
<g id="clust4" class="cluster">
<title>cluster_multifile01__multi02__Runner</title>
<path fill="#808080" fill-opacity="0.094118" stroke="black" d="M199,-24C199,-24 517,-24 517,-24 523,-24 529,-30 529,-36 529,-36 529,-303 529,-303 529,-309 523,-315 517,-315 517,-315 199,-315 199,-315 193,-315 187,-309 187,-303 187,-303 187,-36 187,-36 187,-30 193,-24 199,-24"/>
<text text-anchor="middle" x="358" y="-299.8" font-family="Times,serif" font-size="14.00">multifile01.multi02.Runner</text>
</g>
<!-- multifile01__multi01 -->
<g id="node1" class="node">
<title>multifile01__multi01</title>
<ellipse fill="#ffffff" fill-opacity="0.698039" stroke="black" cx="129" cy="-482" rx="100.98" ry="18"/>
<text text-anchor="middle" x="129" y="-478.3" font-family="Times,serif" font-size="14.00" fill="#000000">multifile01.multi01</text>
</g>
<!-- multifile01__multi01__main -->
<g id="node2" class="node">
<title>multifile01__multi01__main</title>
<ellipse fill="#ff9999" fill-opacity="0.698039" stroke="black" cx="129" cy="-374" rx="33.6" ry="18"/>
<text text-anchor="middle" x="129" y="-370.3" font-family="Times,serif" font-size="14.00" fill="#000000">main</text>
</g>
<!-- multifile01__multi01&#45;&gt;multifile01__multi01__main -->
<g id="edge9" class="edge">
<title>multifile01__multi01&#45;&gt;multifile01__multi01__main</title>
<path fill="none" stroke="#000000" d="M129,-463.97C129,-447.38 129,-421.88 129,-402.43"/>
<polygon fill="#000000" stroke="#000000" points="132.5,-402.34 129,-392.34 125.5,-402.34 132.5,-402.34"/>
</g>
<!-- multifile01__multi02__Runner__STATIC_FIELD -->
<g id="node4" class="node">
<title>multifile01__multi02__Runner__STATIC_FIELD</title>
<ellipse fill="#65ff65" fill-opacity="0.698039" stroke="black" cx="442" cy="-50" rx="79.09" ry="18"/>
<text text-anchor="middle" x="442" y="-46.3" font-family="Times,serif" font-size="14.00" fill="#000000">STATIC_FIELD</text>
</g>
<!-- multifile01__multi01__main&#45;&gt;multifile01__multi02__Runner__STATIC_FIELD -->
<g id="edge8" class="edge">
<title>multifile01__multi01__main&#45;&gt;multifile01__multi02__Runner__STATIC_FIELD</title>
<path fill="none" stroke="#000000" d="M136.19,-356.3C154.68,-314.97 207.55,-206.49 280,-140 313.6,-109.16 359.83,-85.13 394.31,-69.85"/>
<polygon fill="#000000" stroke="#000000" points="395.92,-72.97 403.7,-65.78 393.13,-66.55 395.92,-72.97"/>
</g>
<!-- multifile01__multi02__Runner____init__ -->
<g id="node5" class="node">
<title>multifile01__multi02__Runner____init__</title>
<ellipse fill="#65ff65" fill-opacity="0.698039" stroke="black" cx="319" cy="-266" rx="44.39" ry="18"/>
<text text-anchor="middle" x="319" y="-262.3" font-family="Times,serif" font-size="14.00" fill="#000000">__init__</text>
</g>
<!-- multifile01__multi01__main&#45;&gt;multifile01__multi02__Runner____init__ -->
<g id="edge5" class="edge">
<title>multifile01__multi01__main&#45;&gt;multifile01__multi02__Runner____init__</title>
<path fill="none" stroke="#000000" d="M151.27,-360.41C158.74,-356.32 167.17,-351.84 175,-348 207.69,-331.96 218.24,-332.81 250,-315 263.93,-307.19 278.56,-297.28 290.74,-288.5"/>
<polygon fill="#000000" stroke="#000000" points="293.14,-291.09 299.14,-282.35 289,-285.44 293.14,-291.09"/>
</g>
<!-- multifile01__multi02__Runner__execute -->
<g id="node6" class="node">
<title>multifile01__multi02__Runner__execute</title>
<ellipse fill="#65ff65" fill-opacity="0.698039" stroke="black" cx="336" cy="-158" rx="46.59" ry="18"/>
<text text-anchor="middle" x="336" y="-154.3" font-family="Times,serif" font-size="14.00" fill="#000000">execute</text>
</g>
<!-- multifile01__multi01__main&#45;&gt;multifile01__multi02__Runner__execute -->
<g id="edge7" class="edge">
<title>multifile01__multi01__main&#45;&gt;multifile01__multi02__Runner__execute</title>
<path fill="none" stroke="#000000" d="M149.9,-359.77C166.49,-348.77 189.84,-332.2 208,-315 219.98,-303.64 283.73,-224.42 316.5,-183.44"/>
<polygon fill="#000000" stroke="#000000" points="319.3,-185.55 322.81,-175.55 313.83,-181.18 319.3,-185.55"/>
</g>
<!-- multifile01__multi02__Runner__instance_field -->
<g id="node7" class="node">
<title>multifile01__multi02__Runner__instance_field</title>
<ellipse fill="#65ff65" fill-opacity="0.698039" stroke="black" cx="270" cy="-50" rx="74.99" ry="18"/>
<text text-anchor="middle" x="270" y="-46.3" font-family="Times,serif" font-size="14.00" fill="#000000">instance_field</text>
</g>
<!-- multifile01__multi01__main&#45;&gt;multifile01__multi02__Runner__instance_field -->
<g id="edge6" class="edge">
<title>multifile01__multi01__main&#45;&gt;multifile01__multi02__Runner__instance_field</title>
<path fill="none" stroke="#000000" d="M131.67,-356.05C138.41,-316.39 158.44,-215.24 198,-140 210.64,-115.96 230.3,-92.23 245.88,-75.33"/>
<polygon fill="#000000" stroke="#000000" points="248.85,-77.28 253.16,-67.6 243.75,-72.48 248.85,-77.28"/>
</g>
<!-- multifile01__multi02__Runner -->
<g id="node3" class="node">
<title>multifile01__multi02__Runner</title>
<ellipse fill="#99ff99" fill-opacity="0.698039" stroke="black" cx="392" cy="-374" rx="44.69" ry="18"/>
<text text-anchor="middle" x="392" y="-370.3" font-family="Times,serif" font-size="14.00" fill="#000000">Runner</text>
</g>
<!-- multifile01__multi02__Runner&#45;&gt;multifile01__multi02__Runner__STATIC_FIELD -->
<g id="edge4" class="edge">
<title>multifile01__multi02__Runner&#45;&gt;multifile01__multi02__Runner__STATIC_FIELD</title>
<path fill="none" stroke="#838b8b" stroke-dasharray="5,2" d="M397.01,-355.87C400.23,-344.39 404.29,-328.88 407,-315 423.69,-229.32 434.8,-126.43 439.48,-78.32"/>
<polygon fill="#838b8b" stroke="#838b8b" points="442.99,-78.39 440.46,-68.1 436.02,-77.72 442.99,-78.39"/>
</g>
<!-- multifile01__multi02__Runner&#45;&gt;multifile01__multi02__Runner____init__ -->
<g id="edge1" class="edge">
<title>multifile01__multi02__Runner&#45;&gt;multifile01__multi02__Runner____init__</title>
<path fill="none" stroke="#838b8b" stroke-dasharray="5,2" d="M380.59,-356.44C368.65,-339.09 349.75,-311.65 336.03,-291.74"/>
<polygon fill="#838b8b" stroke="#838b8b" points="338.88,-289.7 330.33,-283.45 333.12,-293.67 338.88,-289.7"/>
</g>
<!-- multifile01__multi02__Runner&#45;&gt;multifile01__multi02__Runner__execute -->
<g id="edge2" class="edge">
<title>multifile01__multi02__Runner&#45;&gt;multifile01__multi02__Runner__execute</title>
<path fill="none" stroke="#838b8b" stroke-dasharray="5,2" d="M390.48,-355.75C388.06,-331.4 382.49,-285.69 372,-248 365.98,-226.39 356.34,-202.9 348.55,-185.49"/>
<polygon fill="#838b8b" stroke="#838b8b" points="351.56,-183.64 344.22,-175.99 345.19,-186.54 351.56,-183.64"/>
</g>
<!-- multifile01__multi02__Runner&#45;&gt;multifile01__multi02__Runner__instance_field -->
<g id="edge3" class="edge">
<title>multifile01__multi02__Runner&#45;&gt;multifile01__multi02__Runner__instance_field</title>
<path fill="none" stroke="#838b8b" stroke-dasharray="5,2" d="M393.97,-355.79C399.09,-308.51 411.11,-177.59 392,-140 375.88,-108.29 342.59,-85.2 314.84,-70.49"/>
<polygon fill="#838b8b" stroke="#838b8b" points="316.18,-67.24 305.68,-65.82 313,-73.48 316.18,-67.24"/>
</g>
<!-- multifile01__multi02__Runner____init__&#45;&gt;multifile01__multi02__Runner__execute -->
<g id="edge11" class="edge">
<title>multifile01__multi02__Runner____init__&#45;&gt;multifile01__multi02__Runner__execute</title>
<path fill="none" stroke="#000000" d="M321.73,-247.97C324.41,-231.28 328.53,-205.58 331.66,-186.08"/>
<polygon fill="#000000" stroke="#000000" points="335.15,-186.42 333.28,-175.99 328.24,-185.31 335.15,-186.42"/>
</g>
<!-- multifile01__multi02__Runner____init__&#45;&gt;multifile01__multi02__Runner__instance_field -->
<g id="edge10" class="edge">
<title>multifile01__multi02__Runner____init__&#45;&gt;multifile01__multi02__Runner__instance_field</title>
<path fill="none" stroke="#000000" d="M309.61,-248.21C300.34,-230.75 286.63,-202.34 280,-176 271.73,-143.12 269.82,-103.98 269.59,-78.37"/>
<polygon fill="#000000" stroke="#000000" points="273.09,-78.27 269.59,-68.28 266.09,-78.28 273.09,-78.27"/>
</g>
<!-- multifile01__multi02__Runner__execute&#45;&gt;multifile01__multi02__Runner__STATIC_FIELD -->
<g id="edge13" class="edge">
<title>multifile01__multi02__Runner__execute&#45;&gt;multifile01__multi02__Runner__STATIC_FIELD</title>
<path fill="none" stroke="#000000" d="M352.1,-140.9C369.56,-123.44 397.63,-95.37 417.76,-75.24"/>
<polygon fill="#000000" stroke="#000000" points="420.45,-77.5 425.05,-67.95 415.5,-72.55 420.45,-77.5"/>
</g>
<!-- multifile01__multi02__Runner__execute&#45;&gt;multifile01__multi02__Runner__instance_field -->
<g id="edge12" class="edge">
<title>multifile01__multi02__Runner__execute&#45;&gt;multifile01__multi02__Runner__instance_field</title>
<path fill="none" stroke="#000000" d="M325.69,-140.44C315.06,-123.37 298.35,-96.53 286.01,-76.71"/>
<polygon fill="#000000" stroke="#000000" points="288.93,-74.79 280.68,-68.15 282.99,-78.49 288.93,-74.79"/>
</g>
</g>
</svg>
