<?xml version="1.0" encoding="UTF-8" standalone="no"?>
<!DOCTYPE svg PUBLIC "-//W3C//DTD SVG 1.1//EN"
 "http://www.w3.org/Graphics/SVG/1.1/DTD/svg11.dtd">
<!-- Generated by graphviz version 2.43.0 (0)
 -->
<!-- Title: G Pages: 1 -->
<svg width="382pt" height="516pt"
 viewBox="0.00 0.00 382.00 516.00" xmlns="http://www.w3.org/2000/svg" xmlns:xlink="http://www.w3.org/1999/xlink">
<g id="graph0" class="graph" transform="scale(1 1) rotate(0) translate(4 512)">
<title>G</title>
<polygon fill="white" stroke="transparent" points="-4,4 -4,-512 378,-512 378,4 -4,4"/>
<g id="clust1" class="cluster">
<title>cluster_G</title>
<path fill="#808080" fill-opacity="0.094118" stroke="black" d="M20,-8C20,-8 354,-8 354,-8 360,-8 366,-14 366,-20 366,-20 366,-488 366,-488 366,-494 360,-500 354,-500 354,-500 20,-500 20,-500 14,-500 8,-494 8,-488 8,-488 8,-20 8,-20 8,-14 14,-8 20,-8"/>
</g>
<g id="clust2" class="cluster">
<title>cluster_multifile01__multi01</title>
<path fill="#808080" fill-opacity="0.094118" stroke="black" d="M168,-340C168,-340 299,-340 299,-340 305,-340 311,-346 311,-352 311,-352 311,-403 311,-403 311,-409 305,-415 299,-415 299,-415 168,-415 168,-415 162,-415 156,-409 156,-403 156,-403 156,-352 156,-352 156,-346 162,-340 168,-340"/>
<text text-anchor="middle" x="233.5" y="-399.8" font-family="Times,serif" font-size="14.00">multifile01.multi01</text>
</g>
<g id="clust3" class="cluster">
<title>cluster_multifile01__multi02__Runner</title>
<path fill="#808080" fill-opacity="0.094118" stroke="black" d="M28,-16C28,-16 346,-16 346,-16 352,-16 358,-22 358,-28 358,-28 358,-295 358,-295 358,-301 352,-307 346,-307 346,-307 28,-307 28,-307 22,-307 16,-301 16,-295 16,-295 16,-28 16,-28 16,-22 22,-16 28,-16"/>
<text text-anchor="middle" x="187" y="-291.8" font-family="Times,serif" font-size="14.00">multifile01.multi02.Runner</text>
</g>
<!-- multifile01__multi01 -->
<g id="node1" class="node">
<title>multifile01__multi01</title>
<ellipse fill="#ffffff" fill-opacity="0.698039" stroke="black" cx="233" cy="-474" rx="100.98" ry="18"/>
<text text-anchor="middle" x="233" y="-470.3" font-family="Times,serif" font-size="14.00" fill="#000000">multifile01.multi01</text>
</g>
<!-- multifile01__multi01__main -->
<g id="node2" class="node">
<title>multifile01__multi01__main</title>
<ellipse fill="#ff9999" fill-opacity="0.698039" stroke="black" cx="233" cy="-366" rx="33.6" ry="18"/>
<text text-anchor="middle" x="233" y="-362.3" font-family="Times,serif" font-size="14.00" fill="#000000">main</text>
</g>
<!-- multifile01__multi01&#45;&gt;multifile01__multi01__main -->
<g id="edge5" class="edge">
<title>multifile01__multi01&#45;&gt;multifile01__multi01__main</title>
<path fill="none" stroke="#000000" d="M233,-455.97C233,-439.38 233,-413.88 233,-394.43"/>
<polygon fill="#000000" stroke="#000000" points="236.5,-394.34 233,-384.34 229.5,-394.34 236.5,-394.34"/>
</g>
<!-- multifile01__multi02__Runner__STATIC_FIELD -->
<g id="node3" class="node">
<title>multifile01__multi02__Runner__STATIC_FIELD</title>
<ellipse fill="#65ff65" fill-opacity="0.698039" stroke="black" cx="103" cy="-42" rx="79.09" ry="18"/>
<text text-anchor="middle" x="103" y="-38.3" font-family="Times,serif" font-size="14.00" fill="#000000">STATIC_FIELD</text>
</g>
<!-- multifile01__multi01__main&#45;&gt;multifile01__multi02__Runner__STATIC_FIELD -->
<g id="edge4" class="edge">
<title>multifile01__multi01__main&#45;&gt;multifile01__multi02__Runner__STATIC_FIELD</title>
<path fill="none" stroke="#000000" d="M209.05,-353.12C191.59,-343.2 168.84,-327.4 156,-307 108.33,-231.25 102.32,-121.15 102.32,-70.44"/>
<polygon fill="#000000" stroke="#000000" points="105.82,-70.3 102.4,-60.27 98.82,-70.25 105.82,-70.3"/>
</g>
<!-- multifile01__multi02__Runner____init__ -->
<g id="node4" class="node">
<title>multifile01__multi02__Runner____init__</title>
<ellipse fill="#65ff65" fill-opacity="0.698039" stroke="black" cx="209" cy="-258" rx="44.39" ry="18"/>
<text text-anchor="middle" x="209" y="-254.3" font-family="Times,serif" font-size="14.00" fill="#000000">__init__</text>
</g>
<!-- multifile01__multi01__main&#45;&gt;multifile01__multi02__Runner____init__ -->
<g id="edge1" class="edge">
<title>multifile01__multi01__main&#45;&gt;multifile01__multi02__Runner____init__</title>
<path fill="none" stroke="#000000" d="M229.14,-347.97C225.35,-331.2 219.49,-305.34 215.07,-285.81"/>
<polygon fill="#000000" stroke="#000000" points="218.47,-284.97 212.85,-275.99 211.64,-286.51 218.47,-284.97"/>
</g>
<!-- multifile01__multi02__Runner__execute -->
<g id="node5" class="node">
<title>multifile01__multi02__Runner__execute</title>
<ellipse fill="#65ff65" fill-opacity="0.698039" stroke="black" cx="209" cy="-150" rx="46.59" ry="18"/>
<text text-anchor="middle" x="209" y="-146.3" font-family="Times,serif" font-size="14.00" fill="#000000">execute</text>
</g>
<!-- multifile01__multi01__main&#45;&gt;multifile01__multi02__Runner__execute -->
<g id="edge3" class="edge">
<title>multifile01__multi01__main&#45;&gt;multifile01__multi02__Runner__execute</title>
<path fill="none" stroke="#000000" d="M243.82,-348.54C250.52,-337.34 258.48,-321.9 262,-307 268.84,-278.02 269.9,-268.71 262,-240 255.5,-216.38 240.9,-192.69 228.67,-175.7"/>
<polygon fill="#000000" stroke="#000000" points="231.32,-173.39 222.55,-167.46 225.71,-177.57 231.32,-173.39"/>
</g>
<!-- multifile01__multi02__Runner__instance_field -->
<g id="node6" class="node">
<title>multifile01__multi02__Runner__instance_field</title>
<ellipse fill="#65ff65" fill-opacity="0.698039" stroke="black" cx="275" cy="-42" rx="74.99" ry="18"/>
<text text-anchor="middle" x="275" y="-38.3" font-family="Times,serif" font-size="14.00" fill="#000000">instance_field</text>
</g>
<!-- multifile01__multi01__main&#45;&gt;multifile01__multi02__Runner__instance_field -->
<g id="edge2" class="edge">
<title>multifile01__multi01__main&#45;&gt;multifile01__multi02__Runner__instance_field</title>
<path fill="none" stroke="#000000" d="M246.25,-348.89C254.49,-337.84 264.36,-322.44 269,-307 294.04,-223.74 285.27,-118.95 279.05,-70.23"/>
<polygon fill="#000000" stroke="#000000" points="282.49,-69.61 277.69,-60.17 275.56,-70.54 282.49,-69.61"/>
</g>
<!-- multifile01__multi02__Runner____init__&#45;&gt;multifile01__multi02__Runner__execute -->
<g id="edge7" class="edge">
<title>multifile01__multi02__Runner____init__&#45;&gt;multifile01__multi02__Runner__execute</title>
<path fill="none" stroke="#000000" d="M209,-239.97C209,-223.38 209,-197.88 209,-178.43"/>
<polygon fill="#000000" stroke="#000000" points="212.5,-178.34 209,-168.34 205.5,-178.34 212.5,-178.34"/>
</g>
<!-- multifile01__multi02__Runner____init__&#45;&gt;multifile01__multi02__Runner__instance_field -->
<g id="edge6" class="edge">
<title>multifile01__multi02__Runner____init__&#45;&gt;multifile01__multi02__Runner__instance_field</title>
<path fill="none" stroke="#000000" d="M222.58,-240.85C235.97,-223.9 255.73,-195.89 265,-168 275.75,-135.64 277.09,-96.09 276.51,-70.26"/>
<polygon fill="#000000" stroke="#000000" points="280,-69.96 276.16,-60.09 273,-70.2 280,-69.96"/>
</g>
<!-- multifile01__multi02__Runner__execute&#45;&gt;multifile01__multi02__Runner__STATIC_FIELD -->
<g id="edge9" class="edge">
<title>multifile01__multi02__Runner__execute&#45;&gt;multifile01__multi02__Runner__STATIC_FIELD</title>
<path fill="none" stroke="#000000" d="M192.9,-132.9C175.44,-115.44 147.37,-87.37 127.24,-67.24"/>
<polygon fill="#000000" stroke="#000000" points="129.5,-64.55 119.95,-59.95 124.55,-69.5 129.5,-64.55"/>
</g>
<!-- multifile01__multi02__Runner__execute&#45;&gt;multifile01__multi02__Runner__instance_field -->
<g id="edge8" class="edge">
<title>multifile01__multi02__Runner__execute&#45;&gt;multifile01__multi02__Runner__instance_field</title>
<path fill="none" stroke="#000000" d="M219.31,-132.44C229.94,-115.37 246.65,-88.53 258.99,-68.71"/>
<polygon fill="#000000" stroke="#000000" points="262.01,-70.49 264.32,-60.15 256.07,-66.79 262.01,-70.49"/>
</g>
</g>
</svg>
